{
  "accessors": [
    {
      "bufferView": 0,
      "componentType": 5125,
      "count": 72,
      "type": "SCALAR"
    },
    {
      "bufferView": 1,
      "componentType": 5126,
      "count": 48,
      "max": [
        0.829399704933167,
        0.724403262138367,
        -0.0347922444343567
      ],
      "min": [
        -0.829863965511322,
        -0.828104615211487,
        -0.0927888602018356
      ],
      "type": "VEC3"
    },
    {
      "bufferView": 2,
      "componentType": 5126,
      "count": 48,
      "type": "VEC3"
    },
    {
      "bufferView": 3,
      "componentType": 5126,
      "count": 48,
      "type": "VEC2"
    },
    {
      "bufferView": 4,
      "componentType": 5125,
      "count": 3432,
      "type": "SCALAR"
    },
    {
      "bufferView": 5,
      "componentType": 5126,
      "count": 2085,
      "max": [
        0.999507486820221,
        0.98508220911026,
        0.143349513411522
      ],
      "min": [
        -1.0,
        -0.998216032981873,
        -0.0611414946615696
      ],
      "type": "VEC3"
    },
    {
      "bufferView": 6,
      "componentType": 5126,
      "count": 2085,
      "type": "VEC3"
    },
    {
      "bufferView": 7,
      "componentType": 5126,
      "count": 2085,
      "type": "VEC2"
    },
    {
      "bufferView": 8,
      "componentType": 5125,
      "count": 8820,
      "type": "SCALAR"
    },
    {
      "bufferView": 9,
      "componentType": 5126,
      "count": 5302,
      "max": [
        0.99999988079071,
        0.998216152191162,
        -0.0498272217810154
      ],
      "min": [
        -0.999665141105652,
        -0.997748374938965,
        -0.143349528312683
      ],
      "type": "VEC3"
    },
    {
      "bufferView": 10,
      "componentType": 5126,
      "count": 5302,
      "type": "VEC3"
    },
    {
      "bufferView": 11,
      "componentType": 5126,
      "count": 5302,
      "type": "VEC2"
    },
    {
      "bufferView": 12,
      "componentType": 5125,
      "count": 12306,
      "type": "SCALAR"
    },
    {
      "bufferView": 13,
      "componentType": 5126,
      "count": 6153,
      "max": [
        0.989483892917633,
        0.983435809612274,
        0.143349528312683
      ],
      "min": [
        -0.989976763725281,
        -0.988186240196228,
        -0.0978007242083549
      ],
      "type": "VEC3"
    },
    {
      "bufferView": 14,
      "componentType": 5126,
      "count": 6153,
      "type": "VEC3"
    },
    {
      "bufferView": 15,
      "componentType": 5126,
      "count": 6153,
      "type": "VEC2"
    },
    {
      "bufferView": 16,
      "componentType": 5125,
      "count": 840,
      "type": "SCALAR"
    },
    {
      "bufferView": 17,
      "componentType": 5126,
      "count": 485,
      "max": [
        0.82582026720047,
        0.698664307594299,
        -0.0438853241503239
      ],
      "min": [
        -0.826284110546112,
        -0.824525713920593,
        -0.0836957320570946
      ],
      "type": "VEC3"
    },
    {
      "bufferView": 18,
      "componentType": 5126,
      "count": 485,
      "type": "VEC3"
    },
    {
      "bufferView": 19,
      "componentType": 5126,
      "count": 485,
      "type": "VEC2"
    }
  ],
  "asset": {
    "generator": "Substance Painter 2019.2.1",
    "version": "2.0"
  },
  "bufferViews": [
    {
      "buffer": 0,
      "byteLength": 288,
      "target": 34963
    },
    {
      "buffer": 0,
      "byteLength": 576,
      "byteOffset": 288,
      "target": 34962
    },
    {
      "buffer": 0,
      "byteLength": 576,
      "byteOffset": 864,
      "target": 34962
    },
    {
      "buffer": 0,
      "byteLength": 384,
      "byteOffset": 1440,
      "target": 34962
    },
    {
      "buffer": 0,
      "byteLength": 13728,
      "byteOffset": 1824,
      "target": 34963
    },
    {
      "buffer": 0,
      "byteLength": 25020,
      "byteOffset": 15552,
      "target": 34962
    },
    {
      "buffer": 0,
      "byteLength": 25020,
      "byteOffset": 40572,
      "target": 34962
    },
    {
      "buffer": 0,
      "byteLength": 16680,
      "byteOffset": 65592,
      "target": 34962
    },
    {
      "buffer": 0,
      "byteLength": 35280,
      "byteOffset": 82272,
      "target": 34963
    },
    {
      "buffer": 0,
      "byteLength": 63624,
      "byteOffset": 117552,
      "target": 34962
    },
    {
      "buffer": 0,
      "byteLength": 63624,
      "byteOffset": 181176,
      "target": 34962
    },
    {
      "buffer": 0,
      "byteLength": 42416,
      "byteOffset": 244800,
      "target": 34962
    },
    {
      "buffer": 0,
      "byteLength": 49224,
      "byteOffset": 287216,
      "target": 34963
    },
    {
      "buffer": 0,
      "byteLength": 73836,
      "byteOffset": 336440,
      "target": 34962
    },
    {
      "buffer": 0,
      "byteLength": 73836,
      "byteOffset": 410276,
      "target": 34962
    },
    {
      "buffer": 0,
      "byteLength": 49224,
      "byteOffset": 484112,
      "target": 34962
    },
    {
      "buffer": 0,
      "byteLength": 3360,
      "byteOffset": 533336,
      "target": 34963
    },
    {
      "buffer": 0,
      "byteLength": 5820,
      "byteOffset": 536696,
      "target": 34962
    },
    {
      "buffer": 0,
      "byteLength": 5820,
      "byteOffset": 542516,
      "target": 34962
    },
    {
      "buffer": 0,
      "byteLength": 3880,
      "byteOffset": 548336,
      "target": 34962
    }
  ],
  "buffers": [
    {
      "byteLength": 552216,
      "uri": "15_W_SWTrapazoid_v01.bin"
    }
  ],
  "images": [
    {
      "uri": "15_W_Exterior_baseColor.png"
    },
    {
      "uri": "15_W_Exterior_occlusionRoughnessMetallic.png"
    },
    {
      "uri": "15_W_Exterior_normal.png"
    },
    {
      "uri": "15_W_Exterior_emissive.png"
    },
    {
      "uri": "15_W_Glass_baseColor.png"
    },
    {
      "uri": "15_W_Glass_occlusionRoughnessMetallic.png"
    },
    {
      "uri": "15_W_Glass_normal.png"
    },
    {
      "uri": "15_W_Glass_emissive.png"
    },
    {
      "uri": "15_W_Interior_baseColor.png"
    },
    {
      "uri": "15_W_Interior_occlusionRoughnessMetallic.png"
    },
    {
      "uri": "15_W_Interior_normal.png"
    },
    {
      "uri": "15_W_Interior_emissive.png"
    },
    {
      "uri": "15_W_Spacers_baseColor.png"
    },
    {
      "uri": "15_W_Spacers_occlusionRoughnessMetallic.png"
    },
    {
      "uri": "15_W_Spacers_normal.png"
    },
    {
      "uri": "15_W_Spacers_emissive.png"
    },
    {
      "uri": "15_W_White_baseColor.png"
    },
    {
      "uri": "15_W_White_occlusionRoughnessMetallic.png"
    },
    {
      "uri": "15_W_White_normal.png"
    },
    {
      "uri": "15_W_White_emissive.png"
    }
  ],
  "materials": [
    {
      "alphaMode": "OPAQUE",
      "emissiveFactor": [
        1.0,
        1.0,
        1.0
      ],
      "emissiveTexture": {
        "index": 3
      },
      "name": "15_W_Exterior",
      "normalTexture": {
        "index": 2
      },
      "occlusionTexture": {
        "index": 1
      },
      "pbrMetallicRoughness": {
        "baseColorTexture": {
          "index": 0
        },
        "metallicRoughnessTexture": {
          "index": 1
        }
      }
    },
    {
      "alphaMode": "BLEND",
      "emissiveFactor": [
        1.0,
        1.0,
        1.0
      ],
      "emissiveTexture": {
        "index": 7
      },
      "name": "15_W_Glass",
      "normalTexture": {
        "index": 6
      },
      "occlusionTexture": {
        "index": 5
      },
      "pbrMetallicRoughness": {
        "baseColorTexture": {
          "index": 4
        },
        "metallicRoughnessTexture": {
          "index": 5
        }
      }
    },
    {
      "alphaMode": "OPAQUE",
      "emissiveFactor": [
        1.0,
        1.0,
        1.0
      ],
      "emissiveTexture": {
        "index": 11
      },
      "name": "15_W_Interior",
      "normalTexture": {
        "index": 10
      },
      "occlusionTexture": {
        "index": 9
      },
      "pbrMetallicRoughness": {
        "baseColorTexture": {
          "index": 8
        },
        "metallicRoughnessTexture": {
          "index": 9
        }
      }
    },
    {
      "alphaMode": "OPAQUE",
      "emissiveFactor": [
        1.0,
        1.0,
        1.0
      ],
      "emissiveTexture": {
        "index": 15
      },
      "name": "15_W_Spacers",
      "normalTexture": {
        "index": 14
      },
      "occlusionTexture": {
        "index": 13
      },
      "pbrMetallicRoughness": {
        "baseColorTexture": {
          "index": 12
        },
        "metallicRoughnessTexture": {
          "index": 13
        }
      }
    },
    {
      "alphaMode": "OPAQUE",
      "emissiveFactor": [
        1.0,
        1.0,
        1.0
      ],
      "emissiveTexture": {
        "index": 19
      },
      "name": "15_W_White",
      "normalTexture": {
        "index": 18
      },
      "occlusionTexture": {
        "index": 17
      },
      "pbrMetallicRoughness": {
        "baseColorTexture": {
          "index": 16
        },
        "metallicRoughnessTexture": {
          "index": 17
        }
      }
    }
  ],
  "meshes": [
    {
      "name": "15_W_Glass",
      "primitives": [
        {
          "attributes": {
            "NORMAL": 2,
            "POSITION": 1,
            "TEXCOORD_0": 3
          },
          "indices": 0,
          "material": 1,
          "mode": 4
        }
      ]
    },
    {
      "name": "15_W_White",
      "primitives": [
        {
          "attributes": {
            "NORMAL": 6,
            "POSITION": 5,
            "TEXCOORD_0": 7
          },
          "indices": 4,
          "material": 4,
          "mode": 4
        }
      ]
    },
    {
      "name": "15_W_Exterior",
      "primitives": [
        {
          "attributes": {
            "NORMAL": 10,
            "POSITION": 9,
            "TEXCOORD_0": 11
          },
          "indices": 8,
          "material": 0,
          "mode": 4
        }
      ]
    },
    {
      "name": "15_W_Interior",
      "primitives": [
        {
          "attributes": {
            "NORMAL": 14,
            "POSITION": 13,
            "TEXCOORD_0": 15
          },
          "indices": 12,
          "material": 2,
          "mode": 4
        }
      ]
    },
    {
      "name": "15_W_Spacers",
      "primitives": [
        {
          "attributes": {
            "NORMAL": 18,
            "POSITION": 17,
            "TEXCOORD_0": 19
          },
          "indices": 16,
          "material": 3,
          "mode": 4
        }
      ]
    }
  ],
  "nodes": [
    {
      "children": [
        1,
        3,
        5,
        7,
        9
      ],
      "name": "root",
      "scale": [
        0.609729051589966,
        0.609729051589966,
        0.609729051589966
      ],
      "translation": [
        -0.0025898814201355,
        0.610029697418213,
        -0.00129354745149612
      ]
    },
    {
      "children": [
        2
      ],
      "name": "15_W_Glass"
    },
    {
      "mesh": 0,
      "name": "15_W_Glass"
    },
    {
      "children": [
        4
      ],
      "name": "15_W_White"
    },
    {
      "mesh": 1,
      "name": "15_W_White"
    },
    {
      "children": [
        6
      ],
      "name": "15_W_Exterior"
    },
    {
      "mesh": 2,
      "name": "15_W_Exterior"
    },
    {
      "children": [
        8
      ],
      "name": "15_W_Interior"
    },
    {
      "mesh": 3,
      "name": "15_W_Interior"
    },
    {
      "children": [
        10
      ],
      "name": "15_W_Spacers"
    },
    {
      "mesh": 4,
      "name": "15_W_Spacers"
    }
  ],
  "samplers": [
    {
      "magFilter": 9729,
      "minFilter": 9985,
      "wrapS": 10497,
      "wrapT": 10497
    }
  ],
  "scene": 0,
  "scenes": [
    {
      "name": "Scene",
      "nodes": [
        0
      ]
    }
  ],
  "textures": [
    {
      "sampler": 0,
      "source": 0
    },
    {
      "sampler": 0,
      "source": 1
    },
    {
      "sampler": 0,
      "source": 2
    },
    {
      "sampler": 0,
      "source": 3
    },
    {
      "sampler": 0,
      "source": 4
    },
    {
      "sampler": 0,
      "source": 5
    },
    {
      "sampler": 0,
      "source": 6
    },
    {
      "sampler": 0,
      "source": 7
    },
    {
      "sampler": 0,
      "source": 8
    },
    {
      "sampler": 0,
      "source": 9
    },
    {
      "sampler": 0,
      "source": 10
    },
    {
      "sampler": 0,
      "source": 11
    },
    {
      "sampler": 0,
      "source": 12
    },
    {
      "sampler": 0,
      "source": 13
    },
    {
      "sampler": 0,
      "source": 14
    },
    {
      "sampler": 0,
      "source": 15
    },
    {
      "sampler": 0,
      "source": 16
    },
    {
      "sampler": 0,
      "source": 17
    },
    {
      "sampler": 0,
      "source": 18
    },
    {
      "sampler": 0,
      "source": 19
    }
  ]
}