{
  "accessors": [
    {
      "bufferView": 0,
      "componentType": 5125,
      "count": 72,
      "type": "SCALAR"
    },
    {
      "bufferView": 1,
      "componentType": 5126,
      "count": 48,
      "max": [
        0.73358416557312,
        0.517204225063324,
        -0.0862773880362511
      ],
      "min": [
        -0.735679447650909,
        -0.857528388500214,
        -0.137632668018341
      ],
      "type": "VEC3"
    },
    {
      "bufferView": 2,
      "componentType": 5126,
      "count": 48,
      "type": "VEC3"
    },
    {
      "bufferView": 3,
      "componentType": 5126,
      "count": 48,
      "type": "VEC2"
    },
    {
      "bufferView": 4,
      "componentType": 5125,
      "count": 3432,
      "type": "SCALAR"
    },
    {
      "bufferView": 5,
      "componentType": 5126,
      "count": 2083,
      "max": [
        0.884213209152222,
        0.748036086559296,
        0.071465477347374
      ],
      "min": [
        -0.886333525180817,
        -1.00815737247467,
        -0.109609268605709
      ],
      "type": "VEC3"
    },
    {
      "bufferView": 6,
      "componentType": 5126,
      "count": 2083,
      "type": "VEC3"
    },
    {
      "bufferView": 7,
      "componentType": 5126,
      "count": 2083,
      "type": "VEC2"
    },
    {
      "bufferView": 8,
      "componentType": 5125,
      "count": 8820,
      "type": "SCALAR"
    },
    {
      "bufferView": 9,
      "componentType": 5126,
      "count": 5379,
      "max": [
        0.884649157524109,
        0.75966078042984,
        -0.0995911955833435
      ],
      "min": [
        -0.886036992073059,
        -1.00774836540222,
        -0.182404100894928
      ],
      "type": "VEC3"
    },
    {
      "bufferView": 10,
      "componentType": 5126,
      "count": 5379,
      "type": "VEC3"
    },
    {
      "bufferView": 11,
      "componentType": 5126,
      "count": 5379,
      "type": "VEC2"
    },
    {
      "bufferView": 12,
      "componentType": 5125,
      "count": 456,
      "type": "SCALAR"
    },
    {
      "bufferView": 13,
      "componentType": 5126,
      "count": 280,
      "max": [
        0.698428750038147,
        0.150227069854736,
        -0.0671229809522629
      ],
      "min": [
        -0.0591762475669384,
        0.117768302559853,
        -0.0841394364833832
      ],
      "type": "VEC3"
    },
    {
      "bufferView": 14,
      "componentType": 5126,
      "count": 280,
      "type": "VEC3"
    },
    {
      "bufferView": 15,
      "componentType": 5126,
      "count": 280,
      "type": "VEC2"
    },
    {
      "bufferView": 16,
      "componentType": 5125,
      "count": 840,
      "type": "SCALAR"
    },
    {
      "bufferView": 17,
      "componentType": 5126,
      "count": 486,
      "max": [
        0.730414628982544,
        0.494413077831268,
        -0.0943292304873466
      ],
      "min": [
        -0.732509613037109,
        -0.854358553886414,
        -0.129580795764923
      ],
      "type": "VEC3"
    },
    {
      "bufferView": 18,
      "componentType": 5126,
      "count": 486,
      "type": "VEC3"
    },
    {
      "bufferView": 19,
      "componentType": 5126,
      "count": 486,
      "type": "VEC2"
    },
    {
      "bufferView": 20,
      "componentType": 5125,
      "count": 6834,
      "type": "SCALAR"
    },
    {
      "bufferView": 21,
      "componentType": 5126,
      "count": 3855,
      "max": [
        0.875337302684784,
        0.746573328971863,
        0.0714653581380844
      ],
      "min": [
        -0.877457916736603,
        -0.999281108379364,
        -0.142070829868317
      ],
      "type": "VEC3"
    },
    {
      "bufferView": 22,
      "componentType": 5126,
      "count": 3855,
      "type": "VEC3"
    },
    {
      "bufferView": 23,
      "componentType": 5126,
      "count": 3855,
      "type": "VEC2"
    }
  ],
  "asset": {
    "generator": "Substance Painter 2019.2.1",
    "version": "2.0"
  },
  "bufferViews": [
    {
      "buffer": 0,
      "byteLength": 288,
      "target": 34963
    },
    {
      "buffer": 0,
      "byteLength": 576,
      "byteOffset": 288,
      "target": 34962
    },
    {
      "buffer": 0,
      "byteLength": 576,
      "byteOffset": 864,
      "target": 34962
    },
    {
      "buffer": 0,
      "byteLength": 384,
      "byteOffset": 1440,
      "target": 34962
    },
    {
      "buffer": 0,
      "byteLength": 13728,
      "byteOffset": 1824,
      "target": 34963
    },
    {
      "buffer": 0,
      "byteLength": 24996,
      "byteOffset": 15552,
      "target": 34962
    },
    {
      "buffer": 0,
      "byteLength": 24996,
      "byteOffset": 40548,
      "target": 34962
    },
    {
      "buffer": 0,
      "byteLength": 16664,
      "byteOffset": 65544,
      "target": 34962
    },
    {
      "buffer": 0,
      "byteLength": 35280,
      "byteOffset": 82208,
      "target": 34963
    },
    {
      "buffer": 0,
      "byteLength": 64548,
      "byteOffset": 117488,
      "target": 34962
    },
    {
      "buffer": 0,
      "byteLength": 64548,
      "byteOffset": 182036,
      "target": 34962
    },
    {
      "buffer": 0,
      "byteLength": 43032,
      "byteOffset": 246584,
      "target": 34962
    },
    {
      "buffer": 0,
      "byteLength": 1824,
      "byteOffset": 289616,
      "target": 34963
    },
    {
      "buffer": 0,
      "byteLength": 3360,
      "byteOffset": 291440,
      "target": 34962
    },
    {
      "buffer": 0,
      "byteLength": 3360,
      "byteOffset": 294800,
      "target": 34962
    },
    {
      "buffer": 0,
      "byteLength": 2240,
      "byteOffset": 298160,
      "target": 34962
    },
    {
      "buffer": 0,
      "byteLength": 3360,
      "byteOffset": 300400,
      "target": 34963
    },
    {
      "buffer": 0,
      "byteLength": 5832,
      "byteOffset": 303760,
      "target": 34962
    },
    {
      "buffer": 0,
      "byteLength": 5832,
      "byteOffset": 309592,
      "target": 34962
    },
    {
      "buffer": 0,
      "byteLength": 3888,
      "byteOffset": 315424,
      "target": 34962
    },
    {
      "buffer": 0,
      "byteLength": 27336,
      "byteOffset": 319312,
      "target": 34963
    },
    {
      "buffer": 0,
      "byteLength": 46260,
      "byteOffset": 346648,
      "target": 34962
    },
    {
      "buffer": 0,
      "byteLength": 46260,
      "byteOffset": 392908,
      "target": 34962
    },
    {
      "buffer": 0,
      "byteLength": 30840,
      "byteOffset": 439168,
      "target": 34962
    }
  ],
  "buffers": [
    {
      "byteLength": 470008,
      "uri": "15_W_SWTrapazoid_autosave_1.bin"
    }
  ],
  "images": [
    {
      "uri": "15_W_Exterior_baseColor.png"
    },
    {
      "uri": "15_W_Exterior_occlusionRoughnessMetallic.png"
    },
    {
      "uri": "15_W_Exterior_normal.png"
    },
    {
      "uri": "15_W_Exterior_emissive.png"
    },
    {
      "uri": "15_W_Glass_baseColor.png"
    },
    {
      "uri": "15_W_Glass_occlusionRoughnessMetallic.png"
    },
    {
      "uri": "15_W_Glass_normal.png"
    },
    {
      "uri": "15_W_Glass_emissive.png"
    },
    {
      "uri": "15_W_Interior_baseColor.png"
    },
    {
      "uri": "15_W_Interior_occlusionRoughnessMetallic.png"
    },
    {
      "uri": "15_W_Interior_normal.png"
    },
    {
      "uri": "15_W_Interior_emissive.png"
    },
    {
      "uri": "15_W_Spacers_baseColor.png"
    },
    {
      "uri": "15_W_Spacers_occlusionRoughnessMetallic.png"
    },
    {
      "uri": "15_W_Spacers_normal.png"
    },
    {
      "uri": "15_W_Spacers_emissive.png"
    },
    {
      "uri": "15_W_White_baseColor.png"
    },
    {
      "uri": "15_W_White_occlusionRoughnessMetallic.png"
    },
    {
      "uri": "15_W_White_normal.png"
    },
    {
      "uri": "15_W_White_emissive.png"
    }
  ],
  "materials": [
    {
      "alphaMode": "OPAQUE",
      "emissiveFactor": [
        1.0,
        1.0,
        1.0
      ],
      "emissiveTexture": {
        "index": 3
      },
      "name": "15_W_Exterior",
      "normalTexture": {
        "index": 2
      },
      "occlusionTexture": {
        "index": 1
      },
      "pbrMetallicRoughness": {
        "baseColorTexture": {
          "index": 0
        },
        "metallicRoughnessTexture": {
          "index": 1
        }
      }
    },
    {
      "alphaMode": "BLEND",
      "emissiveFactor": [
        1.0,
        1.0,
        1.0
      ],
      "emissiveTexture": {
        "index": 7
      },
      "name": "15_W_Glass",
      "normalTexture": {
        "index": 6
      },
      "occlusionTexture": {
        "index": 5
      },
      "pbrMetallicRoughness": {
        "baseColorTexture": {
          "index": 4
        },
        "metallicRoughnessTexture": {
          "index": 5
        }
      }
    },
    {
      "alphaMode": "OPAQUE",
      "emissiveFactor": [
        1.0,
        1.0,
        1.0
      ],
      "emissiveTexture": {
        "index": 11
      },
      "name": "15_W_Interior",
      "normalTexture": {
        "index": 10
      },
      "occlusionTexture": {
        "index": 9
      },
      "pbrMetallicRoughness": {
        "baseColorTexture": {
          "index": 8
        },
        "metallicRoughnessTexture": {
          "index": 9
        }
      }
    },
    {
      "alphaMode": "OPAQUE",
      "emissiveFactor": [
        1.0,
        1.0,
        1.0
      ],
      "emissiveTexture": {
        "index": 15
      },
      "name": "15_W_Spacers",
      "normalTexture": {
        "index": 14
      },
      "occlusionTexture": {
        "index": 13
      },
      "pbrMetallicRoughness": {
        "baseColorTexture": {
          "index": 12
        },
        "metallicRoughnessTexture": {
          "index": 13
        }
      }
    },
    {
      "alphaMode": "OPAQUE",
      "emissiveFactor": [
        1.0,
        1.0,
        1.0
      ],
      "emissiveTexture": {
        "index": 19
      },
      "name": "15_W_White",
      "normalTexture": {
        "index": 18
      },
      "occlusionTexture": {
        "index": 17
      },
      "pbrMetallicRoughness": {
        "baseColorTexture": {
          "index": 16
        },
        "metallicRoughnessTexture": {
          "index": 17
        }
      }
    }
  ],
  "meshes": [
    {
      "name": "15_W_Glass",
      "primitives": [
        {
          "attributes": {
            "NORMAL": 2,
            "POSITION": 1,
            "TEXCOORD_0": 3
          },
          "indices": 0,
          "material": 1,
          "mode": 4
        }
      ]
    },
    {
      "name": "15_W_White",
      "primitives": [
        {
          "attributes": {
            "NORMAL": 6,
            "POSITION": 5,
            "TEXCOORD_0": 7
          },
          "indices": 4,
          "material": 4,
          "mode": 4
        }
      ]
    },
    {
      "name": "15_W_Exterior",
      "primitives": [
        {
          "attributes": {
            "NORMAL": 10,
            "POSITION": 9,
            "TEXCOORD_0": 11
          },
          "indices": 8,
          "material": 0,
          "mode": 4
        }
      ]
    },
    {
      "name": "15_W_Interior.001",
      "primitives": [
        {
          "attributes": {
            "NORMAL": 14,
            "POSITION": 13,
            "TEXCOORD_0": 15
          },
          "indices": 12,
          "material": 2,
          "mode": 4
        }
      ]
    },
    {
      "name": "15_W_Spacers",
      "primitives": [
        {
          "attributes": {
            "NORMAL": 18,
            "POSITION": 17,
            "TEXCOORD_0": 19
          },
          "indices": 16,
          "material": 3,
          "mode": 4
        }
      ]
    },
    {
      "name": "15_W_Interior",
      "primitives": [
        {
          "attributes": {
            "NORMAL": 22,
            "POSITION": 21,
            "TEXCOORD_0": 23
          },
          "indices": 20,
          "material": 2,
          "mode": 4
        }
      ]
    }
  ],
  "nodes": [
    {
      "children": [
        1,
        3,
        5,
        7,
        9,
        11
      ],
      "name": "root",
      "scale": [
        27.4793834686279,
        27.4793834686279,
        27.4793834686279
      ],
      "translation": [
        -0.002655029296875,
        27.479284286499,
        0.220285534858704
      ]
    },
    {
      "children": [
        2
      ],
      "name": "15_W_Glass"
    },
    {
      "mesh": 0,
      "name": "15_W_Glass"
    },
    {
      "children": [
        4
      ],
      "name": "15_W_White"
    },
    {
      "mesh": 1,
      "name": "15_W_White"
    },
    {
      "children": [
        6
      ],
      "name": "15_W_Exterior"
    },
    {
      "mesh": 2,
      "name": "15_W_Exterior"
    },
    {
      "children": [
        8
      ],
      "name": "15_W_Interior.001"
    },
    {
      "mesh": 3,
      "name": "15_W_Interior.001"
    },
    {
      "children": [
        10
      ],
      "name": "15_W_Spacers"
    },
    {
      "mesh": 4,
      "name": "15_W_Spacers"
    },
    {
      "children": [
        12
      ],
      "name": "15_W_Interior"
    },
    {
      "mesh": 5,
      "name": "15_W_Interior"
    }
  ],
  "samplers": [
    {
      "magFilter": 9729,
      "minFilter": 9985,
      "wrapS": 10497,
      "wrapT": 10497
    }
  ],
  "scene": 0,
  "scenes": [
    {
      "name": "Scene",
      "nodes": [
        0
      ]
    }
  ],
  "textures": [
    {
      "sampler": 0,
      "source": 0
    },
    {
      "sampler": 0,
      "source": 1
    },
    {
      "sampler": 0,
      "source": 2
    },
    {
      "sampler": 0,
      "source": 3
    },
    {
      "sampler": 0,
      "source": 4
    },
    {
      "sampler": 0,
      "source": 5
    },
    {
      "sampler": 0,
      "source": 6
    },
    {
      "sampler": 0,
      "source": 7
    },
    {
      "sampler": 0,
      "source": 8
    },
    {
      "sampler": 0,
      "source": 9
    },
    {
      "sampler": 0,
      "source": 10
    },
    {
      "sampler": 0,
      "source": 11
    },
    {
      "sampler": 0,
      "source": 12
    },
    {
      "sampler": 0,
      "source": 13
    },
    {
      "sampler": 0,
      "source": 14
    },
    {
      "sampler": 0,
      "source": 15
    },
    {
      "sampler": 0,
      "source": 16
    },
    {
      "sampler": 0,
      "source": 17
    },
    {
      "sampler": 0,
      "source": 18
    },
    {
      "sampler": 0,
      "source": 19
    }
  ]
}