{
  "accessors": [
    {
      "bufferView": 0,
      "componentType": 5125,
      "count": 2130,
      "type": "SCALAR"
    },
    {
      "bufferView": 1,
      "componentType": 5126,
      "count": 1043,
      "max": [
        -0.0325191952288151,
        0.613168001174927,
        0.0552699007093906
      ],
      "min": [
        -0.0679195001721382,
        -0.614331305027008,
        -0.0133822998031974
      ],
      "type": "VEC3"
    },
    {
      "bufferView": 2,
      "componentType": 5126,
      "count": 1043,
      "type": "VEC3"
    },
    {
      "bufferView": 3,
      "componentType": 5126,
      "count": 1043,
      "type": "VEC2"
    },
    {
      "bufferView": 4,
      "componentType": 5125,
      "count": 5814,
      "type": "SCALAR"
    },
    {
      "bufferView": 5,
      "componentType": 5126,
      "count": 3258,
      "max": [
        0.944082498550415,
        0.960442662239075,
        0.0652618482708931
      ],
      "min": [
        -0.934617102146149,
        -0.961726486682892,
        -0.0584542863070965
      ],
      "type": "VEC3"
    },
    {
      "bufferView": 6,
      "componentType": 5126,
      "count": 3258,
      "type": "VEC3"
    },
    {
      "bufferView": 7,
      "componentType": 5126,
      "count": 3258,
      "type": "VEC2"
    },
    {
      "bufferView": 8,
      "componentType": 5125,
      "count": 24,
      "type": "SCALAR"
    },
    {
      "bufferView": 9,
      "componentType": 5126,
      "count": 16,
      "max": [
        0.880938470363617,
        0.871448457241058,
        0.0613161437213421
      ],
      "min": [
        -0.866820275783539,
        -0.856906771659851,
        -0.0446774885058403
      ],
      "type": "VEC3"
    },
    {
      "bufferView": 10,
      "componentType": 5126,
      "count": 16,
      "type": "VEC3"
    },
    {
      "bufferView": 11,
      "componentType": 5126,
      "count": 16,
      "type": "VEC2"
    },
    {
      "bufferView": 12,
      "componentType": 5125,
      "count": 9540,
      "type": "SCALAR"
    },
    {
      "bufferView": 13,
      "componentType": 5126,
      "count": 3954,
      "max": [
        0.999853610992432,
        0.999749183654785,
        0.086125835776329
      ],
      "min": [
        -0.999295234680176,
        -1.0,
        -0.047687079757452
      ],
      "type": "VEC3"
    },
    {
      "bufferView": 14,
      "componentType": 5126,
      "count": 3954,
      "type": "VEC3"
    },
    {
      "bufferView": 15,
      "componentType": 5126,
      "count": 3954,
      "type": "VEC2"
    },
    {
      "bufferView": 16,
      "componentType": 5125,
      "count": 1896,
      "type": "SCALAR"
    },
    {
      "bufferView": 17,
      "componentType": 5126,
      "count": 960,
      "max": [
        0.904064655303955,
        0.905101895332336,
        0.057996716350317
      ],
      "min": [
        -0.912388324737549,
        -0.874411582946777,
        -0.0404495373368263
      ],
      "type": "VEC3"
    },
    {
      "bufferView": 18,
      "componentType": 5126,
      "count": 960,
      "type": "VEC3"
    },
    {
      "bufferView": 19,
      "componentType": 5126,
      "count": 960,
      "type": "VEC2"
    },
    {
      "bufferView": 20,
      "componentType": 5125,
      "count": 87,
      "type": "SCALAR"
    },
    {
      "bufferView": 21,
      "componentType": 5126,
      "count": 57,
      "max": [
        0.999848246574402,
        0.959009528160095,
        0.081337533891201
      ],
      "min": [
        -0.999289751052856,
        -0.963006258010864,
        -0.0209832340478897
      ],
      "type": "VEC3"
    },
    {
      "bufferView": 22,
      "componentType": 5126,
      "count": 57,
      "type": "VEC3"
    },
    {
      "bufferView": 23,
      "componentType": 5126,
      "count": 57,
      "type": "VEC2"
    },
    {
      "bufferView": 24,
      "componentType": 5125,
      "count": 16929,
      "type": "SCALAR"
    },
    {
      "bufferView": 25,
      "componentType": 5126,
      "count": 6721,
      "max": [
        0.999341726303101,
        1.0,
        0.0801979899406433
      ],
      "min": [
        -0.999853610992432,
        -0.999796152114868,
        -0.0861258432269096
      ],
      "type": "VEC3"
    },
    {
      "bufferView": 26,
      "componentType": 5126,
      "count": 6721,
      "type": "VEC3"
    },
    {
      "bufferView": 27,
      "componentType": 5126,
      "count": 6721,
      "type": "VEC2"
    }
  ],
  "asset": {
    "generator": "Substance Painter 2019.2.1",
    "version": "2.0"
  },
  "bufferViews": [
    {
      "buffer": 0,
      "byteLength": 8520,
      "target": 34963
    },
    {
      "buffer": 0,
      "byteLength": 12516,
      "byteOffset": 8520,
      "target": 34962
    },
    {
      "buffer": 0,
      "byteLength": 12516,
      "byteOffset": 21036,
      "target": 34962
    },
    {
      "buffer": 0,
      "byteLength": 8344,
      "byteOffset": 33552,
      "target": 34962
    },
    {
      "buffer": 0,
      "byteLength": 23256,
      "byteOffset": 41896,
      "target": 34963
    },
    {
      "buffer": 0,
      "byteLength": 39096,
      "byteOffset": 65152,
      "target": 34962
    },
    {
      "buffer": 0,
      "byteLength": 39096,
      "byteOffset": 104248,
      "target": 34962
    },
    {
      "buffer": 0,
      "byteLength": 26064,
      "byteOffset": 143344,
      "target": 34962
    },
    {
      "buffer": 0,
      "byteLength": 96,
      "byteOffset": 169408,
      "target": 34963
    },
    {
      "buffer": 0,
      "byteLength": 192,
      "byteOffset": 169504,
      "target": 34962
    },
    {
      "buffer": 0,
      "byteLength": 192,
      "byteOffset": 169696,
      "target": 34962
    },
    {
      "buffer": 0,
      "byteLength": 128,
      "byteOffset": 169888,
      "target": 34962
    },
    {
      "buffer": 0,
      "byteLength": 38160,
      "byteOffset": 170016,
      "target": 34963
    },
    {
      "buffer": 0,
      "byteLength": 47448,
      "byteOffset": 208176,
      "target": 34962
    },
    {
      "buffer": 0,
      "byteLength": 47448,
      "byteOffset": 255624,
      "target": 34962
    },
    {
      "buffer": 0,
      "byteLength": 31632,
      "byteOffset": 303072,
      "target": 34962
    },
    {
      "buffer": 0,
      "byteLength": 7584,
      "byteOffset": 334704,
      "target": 34963
    },
    {
      "buffer": 0,
      "byteLength": 11520,
      "byteOffset": 342288,
      "target": 34962
    },
    {
      "buffer": 0,
      "byteLength": 11520,
      "byteOffset": 353808,
      "target": 34962
    },
    {
      "buffer": 0,
      "byteLength": 7680,
      "byteOffset": 365328,
      "target": 34962
    },
    {
      "buffer": 0,
      "byteLength": 348,
      "byteOffset": 373008,
      "target": 34963
    },
    {
      "buffer": 0,
      "byteLength": 684,
      "byteOffset": 373356,
      "target": 34962
    },
    {
      "buffer": 0,
      "byteLength": 684,
      "byteOffset": 374040,
      "target": 34962
    },
    {
      "buffer": 0,
      "byteLength": 456,
      "byteOffset": 374724,
      "target": 34962
    },
    {
      "buffer": 0,
      "byteLength": 67716,
      "byteOffset": 375180,
      "target": 34963
    },
    {
      "buffer": 0,
      "byteLength": 80652,
      "byteOffset": 442896,
      "target": 34962
    },
    {
      "buffer": 0,
      "byteLength": 80652,
      "byteOffset": 523548,
      "target": 34962
    },
    {
      "buffer": 0,
      "byteLength": 53768,
      "byteOffset": 604200,
      "target": 34962
    }
  ],
  "buffers": [
    {
      "byteLength": 657968,
      "uri": "07_W_GlidingDouble_v01.bin"
    }
  ],
  "images": [
    {
      "uri": "07_W_Exterior_baseColor.png"
    },
    {
      "uri": "07_W_Exterior_occlusionRoughnessMetallic.png"
    },
    {
      "uri": "07_W_Exterior_normal.png"
    },
    {
      "uri": "07_W_Exterior_emissive.png"
    },
    {
      "uri": "07_W_Glass_baseColor.png"
    },
    {
      "uri": "07_W_Glass_occlusionRoughnessMetallic.png"
    },
    {
      "uri": "07_W_Glass_normal.png"
    },
    {
      "uri": "07_W_Glass_emissive.png"
    },
    {
      "uri": "07_W_Gray_baseColor.png"
    },
    {
      "uri": "07_W_Gray_occlusionRoughnessMetallic.png"
    },
    {
      "uri": "07_W_Gray_normal.png"
    },
    {
      "uri": "07_W_Gray_emissive.png"
    },
    {
      "uri": "07_W_Hardware_baseColor.png"
    },
    {
      "uri": "07_W_Hardware_occlusionRoughnessMetallic.png"
    },
    {
      "uri": "07_W_Hardware_normal.png"
    },
    {
      "uri": "07_W_Hardware_emissive.png"
    },
    {
      "uri": "07_W_Interior_baseColor.png"
    },
    {
      "uri": "07_W_Interior_occlusionRoughnessMetallic.png"
    },
    {
      "uri": "07_W_Interior_normal.png"
    },
    {
      "uri": "07_W_Interior_emissive.png"
    },
    {
      "uri": "07_W_Spacers_baseColor.png"
    },
    {
      "uri": "07_W_Spacers_occlusionRoughnessMetallic.png"
    },
    {
      "uri": "07_W_Spacers_normal.png"
    },
    {
      "uri": "07_W_Spacers_emissive.png"
    },
    {
      "uri": "07_W_White_baseColor.png"
    },
    {
      "uri": "07_W_White_occlusionRoughnessMetallic.png"
    },
    {
      "uri": "07_W_White_normal.png"
    },
    {
      "uri": "07_W_White_emissive.png"
    }
  ],
  "materials": [
    {
      "alphaMode": "OPAQUE",
      "emissiveFactor": [
        1.0,
        1.0,
        1.0
      ],
      "emissiveTexture": {
        "index": 3
      },
      "name": "07_W_Exterior",
      "normalTexture": {
        "index": 2
      },
      "occlusionTexture": {
        "index": 1
      },
      "pbrMetallicRoughness": {
        "baseColorTexture": {
          "index": 0
        },
        "metallicRoughnessTexture": {
          "index": 1
        }
      }
    },
    {
      "alphaMode": "BLEND",
      "emissiveFactor": [
        1.0,
        1.0,
        1.0
      ],
      "emissiveTexture": {
        "index": 7
      },
      "name": "07_W_Glass",
      "normalTexture": {
        "index": 6
      },
      "occlusionTexture": {
        "index": 5
      },
      "pbrMetallicRoughness": {
        "baseColorTexture": {
          "index": 4
        },
        "metallicRoughnessTexture": {
          "index": 5
        }
      }
    },
    {
      "alphaMode": "OPAQUE",
      "emissiveFactor": [
        1.0,
        1.0,
        1.0
      ],
      "emissiveTexture": {
        "index": 11
      },
      "name": "07_W_Gray",
      "normalTexture": {
        "index": 10
      },
      "occlusionTexture": {
        "index": 9
      },
      "pbrMetallicRoughness": {
        "baseColorTexture": {
          "index": 8
        },
        "metallicRoughnessTexture": {
          "index": 9
        }
      }
    },
    {
      "alphaMode": "OPAQUE",
      "emissiveFactor": [
        1.0,
        1.0,
        1.0
      ],
      "emissiveTexture": {
        "index": 15
      },
      "name": "07_W_Hardware",
      "normalTexture": {
        "index": 14
      },
      "occlusionTexture": {
        "index": 13
      },
      "pbrMetallicRoughness": {
        "baseColorTexture": {
          "index": 12
        },
        "metallicRoughnessTexture": {
          "index": 13
        }
      }
    },
    {
      "alphaMode": "OPAQUE",
      "emissiveFactor": [
        1.0,
        1.0,
        1.0
      ],
      "emissiveTexture": {
        "index": 19
      },
      "name": "07_W_Interior",
      "normalTexture": {
        "index": 18
      },
      "occlusionTexture": {
        "index": 17
      },
      "pbrMetallicRoughness": {
        "baseColorTexture": {
          "index": 16
        },
        "metallicRoughnessTexture": {
          "index": 17
        }
      }
    },
    {
      "alphaMode": "OPAQUE",
      "emissiveFactor": [
        1.0,
        1.0,
        1.0
      ],
      "emissiveTexture": {
        "index": 23
      },
      "name": "07_W_Spacers",
      "normalTexture": {
        "index": 22
      },
      "occlusionTexture": {
        "index": 21
      },
      "pbrMetallicRoughness": {
        "baseColorTexture": {
          "index": 20
        },
        "metallicRoughnessTexture": {
          "index": 21
        }
      }
    },
    {
      "alphaMode": "OPAQUE",
      "emissiveFactor": [
        1.0,
        1.0,
        1.0
      ],
      "emissiveTexture": {
        "index": 27
      },
      "name": "07_W_White",
      "normalTexture": {
        "index": 26
      },
      "occlusionTexture": {
        "index": 25
      },
      "pbrMetallicRoughness": {
        "baseColorTexture": {
          "index": 24
        },
        "metallicRoughnessTexture": {
          "index": 25
        }
      }
    }
  ],
  "meshes": [
    {
      "name": "07_W_Hardware",
      "primitives": [
        {
          "attributes": {
            "NORMAL": 2,
            "POSITION": 1,
            "TEXCOORD_0": 3
          },
          "indices": 0,
          "material": 3,
          "mode": 4
        }
      ]
    },
    {
      "name": "07_W_Gray",
      "primitives": [
        {
          "attributes": {
            "NORMAL": 6,
            "POSITION": 5,
            "TEXCOORD_0": 7
          },
          "indices": 4,
          "material": 2,
          "mode": 4
        }
      ]
    },
    {
      "name": "07_W_Glass",
      "primitives": [
        {
          "attributes": {
            "NORMAL": 10,
            "POSITION": 9,
            "TEXCOORD_0": 11
          },
          "indices": 8,
          "material": 1,
          "mode": 4
        }
      ]
    },
    {
      "name": "07_W_Interior",
      "primitives": [
        {
          "attributes": {
            "NORMAL": 14,
            "POSITION": 13,
            "TEXCOORD_0": 15
          },
          "indices": 12,
          "material": 4,
          "mode": 4
        }
      ]
    },
    {
      "name": "07_W_Spacers",
      "primitives": [
        {
          "attributes": {
            "NORMAL": 18,
            "POSITION": 17,
            "TEXCOORD_0": 19
          },
          "indices": 16,
          "material": 5,
          "mode": 4
        }
      ]
    },
    {
      "name": "07_W_White",
      "primitives": [
        {
          "attributes": {
            "NORMAL": 22,
            "POSITION": 21,
            "TEXCOORD_0": 23
          },
          "indices": 20,
          "material": 6,
          "mode": 4
        }
      ]
    },
    {
      "name": "07_W_Exterior",
      "primitives": [
        {
          "attributes": {
            "NORMAL": 26,
            "POSITION": 25,
            "TEXCOORD_0": 27
          },
          "indices": 24,
          "material": 0,
          "mode": 4
        }
      ]
    }
  ],
  "nodes": [
    {
      "children": [
        1,
        3,
        5,
        7,
        9,
        11,
        13
      ],
      "name": "root",
      "scale": [
        0.619296491146088,
        0.619296491146088,
        0.619296491146088
      ],
      "translation": [
        0.0304585099220276,
        0.619355738162994,
        -0.000375092029571533
      ]
    },
    {
      "children": [
        2
      ],
      "name": "07_W_Hardware"
    },
    {
      "mesh": 0,
      "name": "07_W_Hardware"
    },
    {
      "children": [
        4
      ],
      "name": "07_W_Gray"
    },
    {
      "mesh": 1,
      "name": "07_W_Gray"
    },
    {
      "children": [
        6
      ],
      "name": "07_W_Glass"
    },
    {
      "mesh": 2,
      "name": "07_W_Glass"
    },
    {
      "children": [
        8
      ],
      "name": "07_W_Interior"
    },
    {
      "mesh": 3,
      "name": "07_W_Interior"
    },
    {
      "children": [
        10
      ],
      "name": "07_W_Spacers"
    },
    {
      "mesh": 4,
      "name": "07_W_Spacers"
    },
    {
      "children": [
        12
      ],
      "name": "07_W_White"
    },
    {
      "mesh": 5,
      "name": "07_W_White"
    },
    {
      "children": [
        14
      ],
      "name": "07_W_Exterior"
    },
    {
      "mesh": 6,
      "name": "07_W_Exterior"
    }
  ],
  "samplers": [
    {
      "magFilter": 9729,
      "minFilter": 9985,
      "wrapS": 10497,
      "wrapT": 10497
    }
  ],
  "scene": 0,
  "scenes": [
    {
      "name": "Scene",
      "nodes": [
        0
      ]
    }
  ],
  "textures": [
    {
      "sampler": 0,
      "source": 0
    },
    {
      "sampler": 0,
      "source": 1
    },
    {
      "sampler": 0,
      "source": 2
    },
    {
      "sampler": 0,
      "source": 3
    },
    {
      "sampler": 0,
      "source": 4
    },
    {
      "sampler": 0,
      "source": 5
    },
    {
      "sampler": 0,
      "source": 6
    },
    {
      "sampler": 0,
      "source": 7
    },
    {
      "sampler": 0,
      "source": 8
    },
    {
      "sampler": 0,
      "source": 9
    },
    {
      "sampler": 0,
      "source": 10
    },
    {
      "sampler": 0,
      "source": 11
    },
    {
      "sampler": 0,
      "source": 12
    },
    {
      "sampler": 0,
      "source": 13
    },
    {
      "sampler": 0,
      "source": 14
    },
    {
      "sampler": 0,
      "source": 15
    },
    {
      "sampler": 0,
      "source": 16
    },
    {
      "sampler": 0,
      "source": 17
    },
    {
      "sampler": 0,
      "source": 18
    },
    {
      "sampler": 0,
      "source": 19
    },
    {
      "sampler": 0,
      "source": 20
    },
    {
      "sampler": 0,
      "source": 21
    },
    {
      "sampler": 0,
      "source": 22
    },
    {
      "sampler": 0,
      "source": 23
    },
    {
      "sampler": 0,
      "source": 24
    },
    {
      "sampler": 0,
      "source": 25
    },
    {
      "sampler": 0,
      "source": 26
    },
    {
      "sampler": 0,
      "source": 27
    }
  ]
}