{
  "accessors": [
    {
      "bufferView": 0,
      "componentType": 5125,
      "count": 2130,
      "type": "SCALAR"
    },
    {
      "bufferView": 1,
      "componentType": 5126,
      "count": 1043,
      "max": [
        -0.0288648325949907,
        0.422358751296997,
        0.040179044008255
      ],
      "min": [
        -0.0600759759545326,
        -0.659882187843323,
        -0.0203490741550922
      ],
      "type": "VEC3"
    },
    {
      "bufferView": 2,
      "componentType": 5126,
      "count": 1043,
      "type": "VEC3"
    },
    {
      "bufferView": 3,
      "componentType": 5126,
      "count": 1043,
      "type": "VEC2"
    },
    {
      "bufferView": 4,
      "componentType": 5125,
      "count": 5814,
      "type": "SCALAR"
    },
    {
      "bufferView": 5,
      "componentType": 5126,
      "count": 3258,
      "max": [
        0.832168936729431,
        0.728538036346436,
        0.0489885695278645
      ],
      "min": [
        -0.824211359024048,
        -0.966167688369751,
        -0.0600873865187168
      ],
      "type": "VEC3"
    },
    {
      "bufferView": 6,
      "componentType": 5126,
      "count": 3258,
      "type": "VEC3"
    },
    {
      "bufferView": 7,
      "componentType": 5126,
      "count": 3258,
      "type": "VEC2"
    },
    {
      "bufferView": 8,
      "componentType": 5125,
      "count": 24,
      "type": "SCALAR"
    },
    {
      "bufferView": 9,
      "componentType": 5126,
      "count": 16,
      "max": [
        0.776497185230255,
        0.650075197219849,
        0.0455097891390324
      ],
      "min": [
        -0.764437317848206,
        -0.873751997947693,
        -0.0479408875107765
      ],
      "type": "VEC3"
    },
    {
      "bufferView": 10,
      "componentType": 5126,
      "count": 16,
      "type": "VEC3"
    },
    {
      "bufferView": 11,
      "componentType": 5126,
      "count": 16,
      "type": "VEC2"
    },
    {
      "bufferView": 12,
      "componentType": 5125,
      "count": 9540,
      "type": "SCALAR"
    },
    {
      "bufferView": 13,
      "componentType": 5126,
      "count": 3954,
      "max": [
        0.881340265274048,
        0.763193249702454,
        0.0673835873603821
      ],
      "min": [
        -0.881235599517822,
        -0.999912083148956,
        -0.0505943335592747
      ],
      "type": "VEC3"
    },
    {
      "bufferView": 14,
      "componentType": 5126,
      "count": 3954,
      "type": "VEC3"
    },
    {
      "bufferView": 15,
      "componentType": 5126,
      "count": 3954,
      "type": "VEC2"
    },
    {
      "bufferView": 16,
      "componentType": 5125,
      "count": 1896,
      "type": "SCALAR"
    },
    {
      "bufferView": 17,
      "componentType": 5126,
      "count": 960,
      "max": [
        0.796886682510376,
        0.679746031761169,
        0.0425831787288189
      ],
      "min": [
        -0.804613053798676,
        -0.889185309410095,
        -0.0442132614552975
      ],
      "type": "VEC3"
    },
    {
      "bufferView": 18,
      "componentType": 5126,
      "count": 960,
      "type": "VEC3"
    },
    {
      "bufferView": 19,
      "componentType": 5126,
      "count": 960,
      "type": "VEC2"
    },
    {
      "bufferView": 20,
      "componentType": 5125,
      "count": 87,
      "type": "SCALAR"
    },
    {
      "bufferView": 21,
      "componentType": 5126,
      "count": 57,
      "max": [
        0.881335496902466,
        0.727274537086487,
        0.0631619170308113
      ],
      "min": [
        -0.881230771541595,
        -0.967296063899994,
        -0.0270505398511887
      ],
      "type": "VEC3"
    },
    {
      "bufferView": 22,
      "componentType": 5126,
      "count": 57,
      "type": "VEC3"
    },
    {
      "bufferView": 23,
      "componentType": 5126,
      "count": 57,
      "type": "VEC2"
    },
    {
      "bufferView": 24,
      "componentType": 5125,
      "count": 16929,
      "type": "SCALAR"
    },
    {
      "bufferView": 25,
      "componentType": 5126,
      "count": 6720,
      "max": [
        0.880888938903809,
        0.76341438293457,
        0.0621572211384773
      ],
      "min": [
        -0.881727933883667,
        -0.999732375144958,
        -0.084484376013279
      ],
      "type": "VEC3"
    },
    {
      "bufferView": 26,
      "componentType": 5126,
      "count": 6720,
      "type": "VEC3"
    },
    {
      "bufferView": 27,
      "componentType": 5126,
      "count": 6720,
      "type": "VEC2"
    }
  ],
  "asset": {
    "generator": "Substance Painter 2019.2.1",
    "version": "2.0"
  },
  "bufferViews": [
    {
      "buffer": 0,
      "byteLength": 8520,
      "target": 34963
    },
    {
      "buffer": 0,
      "byteLength": 12516,
      "byteOffset": 8520,
      "target": 34962
    },
    {
      "buffer": 0,
      "byteLength": 12516,
      "byteOffset": 21036,
      "target": 34962
    },
    {
      "buffer": 0,
      "byteLength": 8344,
      "byteOffset": 33552,
      "target": 34962
    },
    {
      "buffer": 0,
      "byteLength": 23256,
      "byteOffset": 41896,
      "target": 34963
    },
    {
      "buffer": 0,
      "byteLength": 39096,
      "byteOffset": 65152,
      "target": 34962
    },
    {
      "buffer": 0,
      "byteLength": 39096,
      "byteOffset": 104248,
      "target": 34962
    },
    {
      "buffer": 0,
      "byteLength": 26064,
      "byteOffset": 143344,
      "target": 34962
    },
    {
      "buffer": 0,
      "byteLength": 96,
      "byteOffset": 169408,
      "target": 34963
    },
    {
      "buffer": 0,
      "byteLength": 192,
      "byteOffset": 169504,
      "target": 34962
    },
    {
      "buffer": 0,
      "byteLength": 192,
      "byteOffset": 169696,
      "target": 34962
    },
    {
      "buffer": 0,
      "byteLength": 128,
      "byteOffset": 169888,
      "target": 34962
    },
    {
      "buffer": 0,
      "byteLength": 38160,
      "byteOffset": 170016,
      "target": 34963
    },
    {
      "buffer": 0,
      "byteLength": 47448,
      "byteOffset": 208176,
      "target": 34962
    },
    {
      "buffer": 0,
      "byteLength": 47448,
      "byteOffset": 255624,
      "target": 34962
    },
    {
      "buffer": 0,
      "byteLength": 31632,
      "byteOffset": 303072,
      "target": 34962
    },
    {
      "buffer": 0,
      "byteLength": 7584,
      "byteOffset": 334704,
      "target": 34963
    },
    {
      "buffer": 0,
      "byteLength": 11520,
      "byteOffset": 342288,
      "target": 34962
    },
    {
      "buffer": 0,
      "byteLength": 11520,
      "byteOffset": 353808,
      "target": 34962
    },
    {
      "buffer": 0,
      "byteLength": 7680,
      "byteOffset": 365328,
      "target": 34962
    },
    {
      "buffer": 0,
      "byteLength": 348,
      "byteOffset": 373008,
      "target": 34963
    },
    {
      "buffer": 0,
      "byteLength": 684,
      "byteOffset": 373356,
      "target": 34962
    },
    {
      "buffer": 0,
      "byteLength": 684,
      "byteOffset": 374040,
      "target": 34962
    },
    {
      "buffer": 0,
      "byteLength": 456,
      "byteOffset": 374724,
      "target": 34962
    },
    {
      "buffer": 0,
      "byteLength": 67716,
      "byteOffset": 375180,
      "target": 34963
    },
    {
      "buffer": 0,
      "byteLength": 80640,
      "byteOffset": 442896,
      "target": 34962
    },
    {
      "buffer": 0,
      "byteLength": 80640,
      "byteOffset": 523536,
      "target": 34962
    },
    {
      "buffer": 0,
      "byteLength": 53760,
      "byteOffset": 604176,
      "target": 34962
    }
  ],
  "buffers": [
    {
      "byteLength": 657936,
      "uri": "07_W_GlidingDouble.bin"
    }
  ],
  "images": [
    {
      "uri": "07_W_Exterior_baseColor.png"
    },
    {
      "uri": "07_W_Exterior_occlusionRoughnessMetallic.png"
    },
    {
      "uri": "07_W_Exterior_normal.png"
    },
    {
      "uri": "07_W_Exterior_emissive.png"
    },
    {
      "uri": "07_W_Glass_baseColor.png"
    },
    {
      "uri": "07_W_Glass_occlusionRoughnessMetallic.png"
    },
    {
      "uri": "07_W_Glass_normal.png"
    },
    {
      "uri": "07_W_Glass_emissive.png"
    },
    {
      "uri": "07_W_Gray_baseColor.png"
    },
    {
      "uri": "07_W_Gray_occlusionRoughnessMetallic.png"
    },
    {
      "uri": "07_W_Gray_normal.png"
    },
    {
      "uri": "07_W_Gray_emissive.png"
    },
    {
      "uri": "07_W_Hardware_baseColor.png"
    },
    {
      "uri": "07_W_Hardware_occlusionRoughnessMetallic.png"
    },
    {
      "uri": "07_W_Hardware_normal.png"
    },
    {
      "uri": "07_W_Hardware_emissive.png"
    },
    {
      "uri": "07_W_Interior_baseColor.png"
    },
    {
      "uri": "07_W_Interior_occlusionRoughnessMetallic.png"
    },
    {
      "uri": "07_W_Interior_normal.png"
    },
    {
      "uri": "07_W_Interior_emissive.png"
    },
    {
      "uri": "07_W_Spacers_baseColor.png"
    },
    {
      "uri": "07_W_Spacers_occlusionRoughnessMetallic.png"
    },
    {
      "uri": "07_W_Spacers_normal.png"
    },
    {
      "uri": "07_W_Spacers_emissive.png"
    },
    {
      "uri": "07_W_White_baseColor.png"
    },
    {
      "uri": "07_W_White_occlusionRoughnessMetallic.png"
    },
    {
      "uri": "07_W_White_normal.png"
    },
    {
      "uri": "07_W_White_emissive.png"
    }
  ],
  "materials": [
    {
      "alphaMode": "OPAQUE",
      "emissiveFactor": [
        1.0,
        1.0,
        1.0
      ],
      "emissiveTexture": {
        "index": 3
      },
      "name": "07_W_Exterior",
      "normalTexture": {
        "index": 2
      },
      "occlusionTexture": {
        "index": 1
      },
      "pbrMetallicRoughness": {
        "baseColorTexture": {
          "index": 0
        },
        "metallicRoughnessTexture": {
          "index": 1
        }
      }
    },
    {
      "alphaMode": "BLEND",
      "emissiveFactor": [
        1.0,
        1.0,
        1.0
      ],
      "emissiveTexture": {
        "index": 7
      },
      "name": "07_W_Glass",
      "normalTexture": {
        "index": 6
      },
      "occlusionTexture": {
        "index": 5
      },
      "pbrMetallicRoughness": {
        "baseColorTexture": {
          "index": 4
        },
        "metallicRoughnessTexture": {
          "index": 5
        }
      }
    },
    {
      "alphaMode": "OPAQUE",
      "emissiveFactor": [
        1.0,
        1.0,
        1.0
      ],
      "emissiveTexture": {
        "index": 11
      },
      "name": "07_W_Gray",
      "normalTexture": {
        "index": 10
      },
      "occlusionTexture": {
        "index": 9
      },
      "pbrMetallicRoughness": {
        "baseColorTexture": {
          "index": 8
        },
        "metallicRoughnessTexture": {
          "index": 9
        }
      }
    },
    {
      "alphaMode": "OPAQUE",
      "emissiveFactor": [
        1.0,
        1.0,
        1.0
      ],
      "emissiveTexture": {
        "index": 15
      },
      "name": "07_W_Hardware",
      "normalTexture": {
        "index": 14
      },
      "occlusionTexture": {
        "index": 13
      },
      "pbrMetallicRoughness": {
        "baseColorTexture": {
          "index": 12
        },
        "metallicRoughnessTexture": {
          "index": 13
        }
      }
    },
    {
      "alphaMode": "OPAQUE",
      "emissiveFactor": [
        1.0,
        1.0,
        1.0
      ],
      "emissiveTexture": {
        "index": 19
      },
      "name": "07_W_Interior",
      "normalTexture": {
        "index": 18
      },
      "occlusionTexture": {
        "index": 17
      },
      "pbrMetallicRoughness": {
        "baseColorTexture": {
          "index": 16
        },
        "metallicRoughnessTexture": {
          "index": 17
        }
      }
    },
    {
      "alphaMode": "OPAQUE",
      "emissiveFactor": [
        1.0,
        1.0,
        1.0
      ],
      "emissiveTexture": {
        "index": 23
      },
      "name": "07_W_Spacers",
      "normalTexture": {
        "index": 22
      },
      "occlusionTexture": {
        "index": 21
      },
      "pbrMetallicRoughness": {
        "baseColorTexture": {
          "index": 20
        },
        "metallicRoughnessTexture": {
          "index": 21
        }
      }
    },
    {
      "alphaMode": "OPAQUE",
      "emissiveFactor": [
        1.0,
        1.0,
        1.0
      ],
      "emissiveTexture": {
        "index": 27
      },
      "name": "07_W_White",
      "normalTexture": {
        "index": 26
      },
      "occlusionTexture": {
        "index": 25
      },
      "pbrMetallicRoughness": {
        "baseColorTexture": {
          "index": 24
        },
        "metallicRoughnessTexture": {
          "index": 25
        }
      }
    }
  ],
  "meshes": [
    {
      "name": "07_W_Hardware",
      "primitives": [
        {
          "attributes": {
            "NORMAL": 2,
            "POSITION": 1,
            "TEXCOORD_0": 3
          },
          "indices": 0,
          "material": 3,
          "mode": 4
        }
      ]
    },
    {
      "name": "07_W_Gray",
      "primitives": [
        {
          "attributes": {
            "NORMAL": 6,
            "POSITION": 5,
            "TEXCOORD_0": 7
          },
          "indices": 4,
          "material": 2,
          "mode": 4
        }
      ]
    },
    {
      "name": "07_W_Glass",
      "primitives": [
        {
          "attributes": {
            "NORMAL": 10,
            "POSITION": 9,
            "TEXCOORD_0": 11
          },
          "indices": 8,
          "material": 1,
          "mode": 4
        }
      ]
    },
    {
      "name": "07_W_Interior",
      "primitives": [
        {
          "attributes": {
            "NORMAL": 14,
            "POSITION": 13,
            "TEXCOORD_0": 15
          },
          "indices": 12,
          "material": 4,
          "mode": 4
        }
      ]
    },
    {
      "name": "07_W_Spacers",
      "primitives": [
        {
          "attributes": {
            "NORMAL": 18,
            "POSITION": 17,
            "TEXCOORD_0": 19
          },
          "indices": 16,
          "material": 5,
          "mode": 4
        }
      ]
    },
    {
      "name": "07_W_White",
      "primitives": [
        {
          "attributes": {
            "NORMAL": 22,
            "POSITION": 21,
            "TEXCOORD_0": 23
          },
          "indices": 20,
          "material": 6,
          "mode": 4
        }
      ]
    },
    {
      "name": "07_W_Exterior",
      "primitives": [
        {
          "attributes": {
            "NORMAL": 26,
            "POSITION": 25,
            "TEXCOORD_0": 27
          },
          "indices": 24,
          "material": 0,
          "mode": 4
        }
      ]
    }
  ],
  "nodes": [
    {
      "children": [
        1,
        3,
        5,
        7,
        9,
        11,
        13
      ],
      "name": "root",
      "scale": [
        27.4793834686279,
        27.4793834686279,
        27.4793834686279
      ],
      "translation": [
        -0.002655029296875,
        27.479284286499,
        0.220285534858704
      ]
    },
    {
      "children": [
        2
      ],
      "name": "07_W_Hardware"
    },
    {
      "mesh": 0,
      "name": "07_W_Hardware"
    },
    {
      "children": [
        4
      ],
      "name": "07_W_Gray"
    },
    {
      "mesh": 1,
      "name": "07_W_Gray"
    },
    {
      "children": [
        6
      ],
      "name": "07_W_Glass"
    },
    {
      "mesh": 2,
      "name": "07_W_Glass"
    },
    {
      "children": [
        8
      ],
      "name": "07_W_Interior"
    },
    {
      "mesh": 3,
      "name": "07_W_Interior"
    },
    {
      "children": [
        10
      ],
      "name": "07_W_Spacers"
    },
    {
      "mesh": 4,
      "name": "07_W_Spacers"
    },
    {
      "children": [
        12
      ],
      "name": "07_W_White"
    },
    {
      "mesh": 5,
      "name": "07_W_White"
    },
    {
      "children": [
        14
      ],
      "name": "07_W_Exterior"
    },
    {
      "mesh": 6,
      "name": "07_W_Exterior"
    }
  ],
  "samplers": [
    {
      "magFilter": 9729,
      "minFilter": 9985,
      "wrapS": 10497,
      "wrapT": 10497
    }
  ],
  "scene": 0,
  "scenes": [
    {
      "name": "Scene",
      "nodes": [
        0
      ]
    }
  ],
  "textures": [
    {
      "sampler": 0,
      "source": 0
    },
    {
      "sampler": 0,
      "source": 1
    },
    {
      "sampler": 0,
      "source": 2
    },
    {
      "sampler": 0,
      "source": 3
    },
    {
      "sampler": 0,
      "source": 4
    },
    {
      "sampler": 0,
      "source": 5
    },
    {
      "sampler": 0,
      "source": 6
    },
    {
      "sampler": 0,
      "source": 7
    },
    {
      "sampler": 0,
      "source": 8
    },
    {
      "sampler": 0,
      "source": 9
    },
    {
      "sampler": 0,
      "source": 10
    },
    {
      "sampler": 0,
      "source": 11
    },
    {
      "sampler": 0,
      "source": 12
    },
    {
      "sampler": 0,
      "source": 13
    },
    {
      "sampler": 0,
      "source": 14
    },
    {
      "sampler": 0,
      "source": 15
    },
    {
      "sampler": 0,
      "source": 16
    },
    {
      "sampler": 0,
      "source": 17
    },
    {
      "sampler": 0,
      "source": 18
    },
    {
      "sampler": 0,
      "source": 19
    },
    {
      "sampler": 0,
      "source": 20
    },
    {
      "sampler": 0,
      "source": 21
    },
    {
      "sampler": 0,
      "source": 22
    },
    {
      "sampler": 0,
      "source": 23
    },
    {
      "sampler": 0,
      "source": 24
    },
    {
      "sampler": 0,
      "source": 25
    },
    {
      "sampler": 0,
      "source": 26
    },
    {
      "sampler": 0,
      "source": 27
    }
  ]
}