{
  "accessors": [
    {
      "bufferView": 0,
      "componentType": 5125,
      "count": 216,
      "type": "SCALAR"
    },
    {
      "bufferView": 1,
      "componentType": 5126,
      "count": 74,
      "max": [
        0.611032128334045,
        0.882749140262604,
        -0.0267231557518244
      ],
      "min": [
        -0.61103218793869,
        -0.882749140262604,
        -0.0694382935762405
      ],
      "type": "VEC3"
    },
    {
      "bufferView": 2,
      "componentType": 5126,
      "count": 74,
      "type": "VEC3"
    },
    {
      "bufferView": 3,
      "componentType": 5126,
      "count": 74,
      "type": "VEC2"
    },
    {
      "bufferView": 4,
      "componentType": 5125,
      "count": 20406,
      "type": "SCALAR"
    },
    {
      "bufferView": 5,
      "componentType": 5126,
      "count": 5254,
      "max": [
        0.736328959465027,
        0.999999940395355,
        -0.040433693677187
      ],
      "min": [
        -0.736328959465027,
        -0.999999940395355,
        -0.104479923844337
      ],
      "type": "VEC3"
    },
    {
      "bufferView": 6,
      "componentType": 5126,
      "count": 5254,
      "type": "VEC3"
    },
    {
      "bufferView": 7,
      "componentType": 5126,
      "count": 5254,
      "type": "VEC2"
    },
    {
      "bufferView": 8,
      "componentType": 5125,
      "count": 1830,
      "type": "SCALAR"
    },
    {
      "bufferView": 9,
      "componentType": 5126,
      "count": 766,
      "max": [
        0.608395278453827,
        0.872078359127045,
        -0.0332092195749283
      ],
      "min": [
        -0.608395516872406,
        -0.872078001499176,
        -0.0626880452036858
      ],
      "type": "VEC3"
    },
    {
      "bufferView": 10,
      "componentType": 5126,
      "count": 766,
      "type": "VEC3"
    },
    {
      "bufferView": 11,
      "componentType": 5126,
      "count": 766,
      "type": "VEC2"
    },
    {
      "bufferView": 12,
      "componentType": 5125,
      "count": 33246,
      "type": "SCALAR"
    },
    {
      "bufferView": 13,
      "componentType": 5126,
      "count": 9029,
      "max": [
        0.734862685203552,
        0.998009324073792,
        0.104479923844337
      ],
      "min": [
        -0.734863698482513,
        -0.998008906841278,
        -0.0729536563158035
      ],
      "type": "VEC3"
    },
    {
      "bufferView": 14,
      "componentType": 5126,
      "count": 9029,
      "type": "VEC3"
    },
    {
      "bufferView": 15,
      "componentType": 5126,
      "count": 9029,
      "type": "VEC2"
    }
  ],
  "asset": {
    "generator": "Substance Painter 2019.2.1",
    "version": "2.0"
  },
  "bufferViews": [
    {
      "buffer": 0,
      "byteLength": 864,
      "target": 34963
    },
    {
      "buffer": 0,
      "byteLength": 888,
      "byteOffset": 864,
      "target": 34962
    },
    {
      "buffer": 0,
      "byteLength": 888,
      "byteOffset": 1752,
      "target": 34962
    },
    {
      "buffer": 0,
      "byteLength": 592,
      "byteOffset": 2640,
      "target": 34962
    },
    {
      "buffer": 0,
      "byteLength": 81624,
      "byteOffset": 3232,
      "target": 34963
    },
    {
      "buffer": 0,
      "byteLength": 63048,
      "byteOffset": 84856,
      "target": 34962
    },
    {
      "buffer": 0,
      "byteLength": 63048,
      "byteOffset": 147904,
      "target": 34962
    },
    {
      "buffer": 0,
      "byteLength": 42032,
      "byteOffset": 210952,
      "target": 34962
    },
    {
      "buffer": 0,
      "byteLength": 7320,
      "byteOffset": 252984,
      "target": 34963
    },
    {
      "buffer": 0,
      "byteLength": 9192,
      "byteOffset": 260304,
      "target": 34962
    },
    {
      "buffer": 0,
      "byteLength": 9192,
      "byteOffset": 269496,
      "target": 34962
    },
    {
      "buffer": 0,
      "byteLength": 6128,
      "byteOffset": 278688,
      "target": 34962
    },
    {
      "buffer": 0,
      "byteLength": 132984,
      "byteOffset": 284816,
      "target": 34963
    },
    {
      "buffer": 0,
      "byteLength": 108348,
      "byteOffset": 417800,
      "target": 34962
    },
    {
      "buffer": 0,
      "byteLength": 108348,
      "byteOffset": 526148,
      "target": 34962
    },
    {
      "buffer": 0,
      "byteLength": 72232,
      "byteOffset": 634496,
      "target": 34962
    }
  ],
  "buffers": [
    {
      "byteLength": 706728,
      "uri": "03_Springline_v01.bin"
    }
  ],
  "images": [
    {
      "uri": "03_W_Exterior_baseColor.png"
    },
    {
      "uri": "03_W_Exterior_occlusionRoughnessMetallic.png"
    },
    {
      "uri": "03_W_Exterior_normal.png"
    },
    {
      "uri": "03_W_Exterior_emissive.png"
    },
    {
      "uri": "03_W_Glass_baseColor.png"
    },
    {
      "uri": "03_W_Glass_occlusionRoughnessMetallic.png"
    },
    {
      "uri": "03_W_Glass_normal.png"
    },
    {
      "uri": "03_W_Glass_emissive.png"
    },
    {
      "uri": "03_W_Interior_baseColor.png"
    },
    {
      "uri": "03_W_Interior_occlusionRoughnessMetallic.png"
    },
    {
      "uri": "03_W_Interior_normal.png"
    },
    {
      "uri": "03_W_Interior_emissive.png"
    },
    {
      "uri": "03_W_Spacer_baseColor.png"
    },
    {
      "uri": "03_W_Spacer_occlusionRoughnessMetallic.png"
    },
    {
      "uri": "03_W_Spacer_normal.png"
    },
    {
      "uri": "03_W_Spacer_emissive.png"
    }
  ],
  "materials": [
    {
      "alphaMode": "OPAQUE",
      "emissiveFactor": [
        1.0,
        1.0,
        1.0
      ],
      "emissiveTexture": {
        "index": 3
      },
      "name": "03_W_Exterior",
      "normalTexture": {
        "index": 2
      },
      "occlusionTexture": {
        "index": 1
      },
      "pbrMetallicRoughness": {
        "baseColorTexture": {
          "index": 0
        },
        "metallicRoughnessTexture": {
          "index": 1
        }
      }
    },
    {
      "alphaMode": "BLEND",
      "emissiveFactor": [
        1.0,
        1.0,
        1.0
      ],
      "emissiveTexture": {
        "index": 7
      },
      "name": "03_W_Glass",
      "normalTexture": {
        "index": 6
      },
      "occlusionTexture": {
        "index": 5
      },
      "pbrMetallicRoughness": {
        "baseColorTexture": {
          "index": 4
        },
        "metallicRoughnessTexture": {
          "index": 5
        }
      }
    },
    {
      "alphaMode": "OPAQUE",
      "emissiveFactor": [
        1.0,
        1.0,
        1.0
      ],
      "emissiveTexture": {
        "index": 11
      },
      "name": "03_W_Interior",
      "normalTexture": {
        "index": 10
      },
      "occlusionTexture": {
        "index": 9
      },
      "pbrMetallicRoughness": {
        "baseColorTexture": {
          "index": 8
        },
        "metallicRoughnessTexture": {
          "index": 9
        }
      }
    },
    {
      "alphaMode": "OPAQUE",
      "emissiveFactor": [
        1.0,
        1.0,
        1.0
      ],
      "emissiveTexture": {
        "index": 15
      },
      "name": "03_W_Spacer",
      "normalTexture": {
        "index": 14
      },
      "occlusionTexture": {
        "index": 13
      },
      "pbrMetallicRoughness": {
        "baseColorTexture": {
          "index": 12
        },
        "metallicRoughnessTexture": {
          "index": 13
        }
      }
    }
  ],
  "meshes": [
    {
      "name": "03_W_Glass",
      "primitives": [
        {
          "attributes": {
            "NORMAL": 2,
            "POSITION": 1,
            "TEXCOORD_0": 3
          },
          "indices": 0,
          "material": 1,
          "mode": 4
        }
      ]
    },
    {
      "name": "03_W_Exterior",
      "primitives": [
        {
          "attributes": {
            "NORMAL": 6,
            "POSITION": 5,
            "TEXCOORD_0": 7
          },
          "indices": 4,
          "material": 0,
          "mode": 4
        }
      ]
    },
    {
      "name": "03_W_Spacer",
      "primitives": [
        {
          "attributes": {
            "NORMAL": 10,
            "POSITION": 9,
            "TEXCOORD_0": 11
          },
          "indices": 8,
          "material": 3,
          "mode": 4
        }
      ]
    },
    {
      "name": "03_W_Interior",
      "primitives": [
        {
          "attributes": {
            "NORMAL": 14,
            "POSITION": 13,
            "TEXCOORD_0": 15
          },
          "indices": 12,
          "material": 2,
          "mode": 4
        }
      ]
    }
  ],
  "nodes": [
    {
      "children": [
        1,
        3,
        5,
        7
      ],
      "name": "root",
      "scale": [
        0.658438384532928,
        0.658438384532928,
        0.658438384532928
      ],
      "translation": [
        2.98023223876953e-08,
        0.660613715648651,
        0.059797290712595
      ]
    },
    {
      "children": [
        2
      ],
      "name": "03_W_Glass"
    },
    {
      "mesh": 0,
      "name": "03_W_Glass"
    },
    {
      "children": [
        4
      ],
      "name": "03_W_Exterior"
    },
    {
      "mesh": 1,
      "name": "03_W_Exterior"
    },
    {
      "children": [
        6
      ],
      "name": "03_W_Spacer"
    },
    {
      "mesh": 2,
      "name": "03_W_Spacer"
    },
    {
      "children": [
        8
      ],
      "name": "03_W_Interior"
    },
    {
      "mesh": 3,
      "name": "03_W_Interior"
    }
  ],
  "samplers": [
    {
      "magFilter": 9729,
      "minFilter": 9985,
      "wrapS": 10497,
      "wrapT": 10497
    }
  ],
  "scene": 0,
  "scenes": [
    {
      "name": "Scene",
      "nodes": [
        0
      ]
    }
  ],
  "textures": [
    {
      "sampler": 0,
      "source": 0
    },
    {
      "sampler": 0,
      "source": 1
    },
    {
      "sampler": 0,
      "source": 2
    },
    {
      "sampler": 0,
      "source": 3
    },
    {
      "sampler": 0,
      "source": 4
    },
    {
      "sampler": 0,
      "source": 5
    },
    {
      "sampler": 0,
      "source": 6
    },
    {
      "sampler": 0,
      "source": 7
    },
    {
      "sampler": 0,
      "source": 8
    },
    {
      "sampler": 0,
      "source": 9
    },
    {
      "sampler": 0,
      "source": 10
    },
    {
      "sampler": 0,
      "source": 11
    },
    {
      "sampler": 0,
      "source": 12
    },
    {
      "sampler": 0,
      "source": 13
    },
    {
      "sampler": 0,
      "source": 14
    },
    {
      "sampler": 0,
      "source": 15
    }
  ]
}