{
  "accessors": [
    {
      "bufferView": 0,
      "componentType": 5125,
      "count": 11238,
      "type": "SCALAR"
    },
    {
      "bufferView": 1,
      "componentType": 5126,
      "count": 6246,
      "max": [
        0.999972283840179,
        0.640792369842529,
        0.0455654412508011
      ],
      "min": [
        -1.0,
        -0.640820205211639,
        -0.0484736859798431
      ],
      "type": "VEC3"
    },
    {
      "bufferView": 2,
      "componentType": 5126,
      "count": 6246,
      "type": "VEC3"
    },
    {
      "bufferView": 3,
      "componentType": 5126,
      "count": 6246,
      "type": "VEC2"
    },
    {
      "bufferView": 4,
      "componentType": 5125,
      "count": 8346,
      "type": "SCALAR"
    },
    {
      "bufferView": 5,
      "componentType": 5126,
      "count": 4627,
      "max": [
        0.977134644985199,
        0.617953896522522,
        0.0367627926170826
      ],
      "min": [
        -0.977081775665283,
        -0.620001494884491,
        -0.028422124683857
      ],
      "type": "VEC3"
    },
    {
      "bufferView": 6,
      "componentType": 5126,
      "count": 4627,
      "type": "VEC3"
    },
    {
      "bufferView": 7,
      "componentType": 5126,
      "count": 4627,
      "type": "VEC2"
    },
    {
      "bufferView": 8,
      "componentType": 5125,
      "count": 10488,
      "type": "SCALAR"
    },
    {
      "bufferView": 9,
      "componentType": 5126,
      "count": 5434,
      "max": [
        0.999999940395355,
        0.640820205211639,
        0.048473697155714
      ],
      "min": [
        -0.999947190284729,
        -0.640765428543091,
        -0.0094028590247035
      ],
      "type": "VEC3"
    },
    {
      "bufferView": 10,
      "componentType": 5126,
      "count": 5434,
      "type": "VEC3"
    },
    {
      "bufferView": 11,
      "componentType": 5126,
      "count": 5434,
      "type": "VEC2"
    },
    {
      "bufferView": 12,
      "componentType": 5125,
      "count": 3756,
      "type": "SCALAR"
    },
    {
      "bufferView": 13,
      "componentType": 5126,
      "count": 1736,
      "max": [
        0.458770275115967,
        0.264685600996017,
        0.0316042862832546
      ],
      "min": [
        -0.460202097892761,
        -0.255065679550171,
        -0.00694280350580812
      ],
      "type": "VEC3"
    },
    {
      "bufferView": 14,
      "componentType": 5126,
      "count": 1736,
      "type": "VEC3"
    },
    {
      "bufferView": 15,
      "componentType": 5126,
      "count": 1736,
      "type": "VEC2"
    },
    {
      "bufferView": 16,
      "componentType": 5125,
      "count": 72,
      "type": "SCALAR"
    },
    {
      "bufferView": 17,
      "componentType": 5126,
      "count": 48,
      "max": [
        0.947661519050598,
        0.589008748531342,
        0.0336636304855347
      ],
      "min": [
        -0.945852398872375,
        -0.597514748573303,
        -0.0261123608797789
      ],
      "type": "VEC3"
    },
    {
      "bufferView": 18,
      "componentType": 5126,
      "count": 48,
      "type": "VEC3"
    },
    {
      "bufferView": 19,
      "componentType": 5126,
      "count": 48,
      "type": "VEC2"
    },
    {
      "bufferView": 20,
      "componentType": 5125,
      "count": 1080,
      "type": "SCALAR"
    },
    {
      "bufferView": 21,
      "componentType": 5126,
      "count": 624,
      "max": [
        0.945363163948059,
        0.586869955062866,
        0.0304869171231985
      ],
      "min": [
        -0.944661855697632,
        -0.575478136539459,
        -0.0212767217308283
      ],
      "type": "VEC3"
    },
    {
      "bufferView": 22,
      "componentType": 5126,
      "count": 624,
      "type": "VEC3"
    },
    {
      "bufferView": 23,
      "componentType": 5126,
      "count": 624,
      "type": "VEC2"
    }
  ],
  "asset": {
    "generator": "Substance Painter 2019.2.1",
    "version": "2.0"
  },
  "bufferViews": [
    {
      "buffer": 0,
      "byteLength": 44952,
      "target": 34963
    },
    {
      "buffer": 0,
      "byteLength": 74952,
      "byteOffset": 44952,
      "target": 34962
    },
    {
      "buffer": 0,
      "byteLength": 74952,
      "byteOffset": 119904,
      "target": 34962
    },
    {
      "buffer": 0,
      "byteLength": 49968,
      "byteOffset": 194856,
      "target": 34962
    },
    {
      "buffer": 0,
      "byteLength": 33384,
      "byteOffset": 244824,
      "target": 34963
    },
    {
      "buffer": 0,
      "byteLength": 55524,
      "byteOffset": 278208,
      "target": 34962
    },
    {
      "buffer": 0,
      "byteLength": 55524,
      "byteOffset": 333732,
      "target": 34962
    },
    {
      "buffer": 0,
      "byteLength": 37016,
      "byteOffset": 389256,
      "target": 34962
    },
    {
      "buffer": 0,
      "byteLength": 41952,
      "byteOffset": 426272,
      "target": 34963
    },
    {
      "buffer": 0,
      "byteLength": 65208,
      "byteOffset": 468224,
      "target": 34962
    },
    {
      "buffer": 0,
      "byteLength": 65208,
      "byteOffset": 533432,
      "target": 34962
    },
    {
      "buffer": 0,
      "byteLength": 43472,
      "byteOffset": 598640,
      "target": 34962
    },
    {
      "buffer": 0,
      "byteLength": 15024,
      "byteOffset": 642112,
      "target": 34963
    },
    {
      "buffer": 0,
      "byteLength": 20832,
      "byteOffset": 657136,
      "target": 34962
    },
    {
      "buffer": 0,
      "byteLength": 20832,
      "byteOffset": 677968,
      "target": 34962
    },
    {
      "buffer": 0,
      "byteLength": 13888,
      "byteOffset": 698800,
      "target": 34962
    },
    {
      "buffer": 0,
      "byteLength": 288,
      "byteOffset": 712688,
      "target": 34963
    },
    {
      "buffer": 0,
      "byteLength": 576,
      "byteOffset": 712976,
      "target": 34962
    },
    {
      "buffer": 0,
      "byteLength": 576,
      "byteOffset": 713552,
      "target": 34962
    },
    {
      "buffer": 0,
      "byteLength": 384,
      "byteOffset": 714128,
      "target": 34962
    },
    {
      "buffer": 0,
      "byteLength": 4320,
      "byteOffset": 714512,
      "target": 34963
    },
    {
      "buffer": 0,
      "byteLength": 7488,
      "byteOffset": 718832,
      "target": 34962
    },
    {
      "buffer": 0,
      "byteLength": 7488,
      "byteOffset": 726320,
      "target": 34962
    },
    {
      "buffer": 0,
      "byteLength": 4992,
      "byteOffset": 733808,
      "target": 34962
    }
  ],
  "buffers": [
    {
      "byteLength": 738800,
      "uri": "08_W_GlidingTriple121_v01.bin"
    }
  ],
  "images": [
    {
      "uri": "08_W_Exterior_baseColor.png"
    },
    {
      "uri": "08_W_Exterior_occlusionRoughnessMetallic.png"
    },
    {
      "uri": "08_W_Exterior_normal.png"
    },
    {
      "uri": "08_W_Exterior_emissive.png"
    },
    {
      "uri": "08_W_Glass_baseColor.png"
    },
    {
      "uri": "08_W_Glass_occlusionRoughnessMetallic.png"
    },
    {
      "uri": "08_W_Glass_normal.png"
    },
    {
      "uri": "08_W_Glass_emissive.png"
    },
    {
      "uri": "08_W_Gray_baseColor.png"
    },
    {
      "uri": "08_W_Gray_occlusionRoughnessMetallic.png"
    },
    {
      "uri": "08_W_Gray_normal.png"
    },
    {
      "uri": "08_W_Gray_emissive.png"
    },
    {
      "uri": "08_W_Hardware_baseColor.png"
    },
    {
      "uri": "08_W_Hardware_occlusionRoughnessMetallic.png"
    },
    {
      "uri": "08_W_Hardware_normal.png"
    },
    {
      "uri": "08_W_Hardware_emissive.png"
    },
    {
      "uri": "08_W_Interior_baseColor.png"
    },
    {
      "uri": "08_W_Interior_occlusionRoughnessMetallic.png"
    },
    {
      "uri": "08_W_Interior_normal.png"
    },
    {
      "uri": "08_W_Interior_emissive.png"
    },
    {
      "uri": "08_W_Spacers_baseColor.png"
    },
    {
      "uri": "08_W_Spacers_occlusionRoughnessMetallic.png"
    },
    {
      "uri": "08_W_Spacers_normal.png"
    },
    {
      "uri": "08_W_Spacers_emissive.png"
    }
  ],
  "materials": [
    {
      "alphaMode": "OPAQUE",
      "emissiveFactor": [
        1.0,
        1.0,
        1.0
      ],
      "emissiveTexture": {
        "index": 3
      },
      "name": "08_W_Exterior",
      "normalTexture": {
        "index": 2
      },
      "occlusionTexture": {
        "index": 1
      },
      "pbrMetallicRoughness": {
        "baseColorTexture": {
          "index": 0
        },
        "metallicRoughnessTexture": {
          "index": 1
        }
      }
    },
    {
      "alphaMode": "BLEND",
      "emissiveFactor": [
        1.0,
        1.0,
        1.0
      ],
      "emissiveTexture": {
        "index": 7
      },
      "name": "08_W_Glass",
      "normalTexture": {
        "index": 6
      },
      "occlusionTexture": {
        "index": 5
      },
      "pbrMetallicRoughness": {
        "baseColorTexture": {
          "index": 4
        },
        "metallicRoughnessTexture": {
          "index": 5
        }
      }
    },
    {
      "alphaMode": "OPAQUE",
      "emissiveFactor": [
        1.0,
        1.0,
        1.0
      ],
      "emissiveTexture": {
        "index": 11
      },
      "name": "08_W_Gray",
      "normalTexture": {
        "index": 10
      },
      "occlusionTexture": {
        "index": 9
      },
      "pbrMetallicRoughness": {
        "baseColorTexture": {
          "index": 8
        },
        "metallicRoughnessTexture": {
          "index": 9
        }
      }
    },
    {
      "alphaMode": "OPAQUE",
      "emissiveFactor": [
        1.0,
        1.0,
        1.0
      ],
      "emissiveTexture": {
        "index": 15
      },
      "name": "08_W_Hardware",
      "normalTexture": {
        "index": 14
      },
      "occlusionTexture": {
        "index": 13
      },
      "pbrMetallicRoughness": {
        "baseColorTexture": {
          "index": 12
        },
        "metallicRoughnessTexture": {
          "index": 13
        }
      }
    },
    {
      "alphaMode": "OPAQUE",
      "emissiveFactor": [
        1.0,
        1.0,
        1.0
      ],
      "emissiveTexture": {
        "index": 19
      },
      "name": "08_W_Interior",
      "normalTexture": {
        "index": 18
      },
      "occlusionTexture": {
        "index": 17
      },
      "pbrMetallicRoughness": {
        "baseColorTexture": {
          "index": 16
        },
        "metallicRoughnessTexture": {
          "index": 17
        }
      }
    },
    {
      "alphaMode": "OPAQUE",
      "emissiveFactor": [
        1.0,
        1.0,
        1.0
      ],
      "emissiveTexture": {
        "index": 23
      },
      "name": "08_W_Spacers",
      "normalTexture": {
        "index": 22
      },
      "occlusionTexture": {
        "index": 21
      },
      "pbrMetallicRoughness": {
        "baseColorTexture": {
          "index": 20
        },
        "metallicRoughnessTexture": {
          "index": 21
        }
      }
    }
  ],
  "meshes": [
    {
      "name": "08_W_Exterior",
      "primitives": [
        {
          "attributes": {
            "NORMAL": 2,
            "POSITION": 1,
            "TEXCOORD_0": 3
          },
          "indices": 0,
          "material": 0,
          "mode": 4
        }
      ]
    },
    {
      "name": "08_W_Gray",
      "primitives": [
        {
          "attributes": {
            "NORMAL": 6,
            "POSITION": 5,
            "TEXCOORD_0": 7
          },
          "indices": 4,
          "material": 2,
          "mode": 4
        }
      ]
    },
    {
      "name": "08_W_Interior",
      "primitives": [
        {
          "attributes": {
            "NORMAL": 10,
            "POSITION": 9,
            "TEXCOORD_0": 11
          },
          "indices": 8,
          "material": 4,
          "mode": 4
        }
      ]
    },
    {
      "name": "08_W_Hardware",
      "primitives": [
        {
          "attributes": {
            "NORMAL": 14,
            "POSITION": 13,
            "TEXCOORD_0": 15
          },
          "indices": 12,
          "material": 3,
          "mode": 4
        }
      ]
    },
    {
      "name": "08_W_Glass",
      "primitives": [
        {
          "attributes": {
            "NORMAL": 18,
            "POSITION": 17,
            "TEXCOORD_0": 19
          },
          "indices": 16,
          "material": 1,
          "mode": 4
        }
      ]
    },
    {
      "name": "08_W_Spacer",
      "primitives": [
        {
          "attributes": {
            "NORMAL": 22,
            "POSITION": 21,
            "TEXCOORD_0": 23
          },
          "indices": 20,
          "material": 5,
          "mode": 4
        }
      ]
    }
  ],
  "nodes": [
    {
      "children": [
        1,
        3,
        5,
        7,
        9,
        11
      ],
      "name": "root",
      "scale": [
        1.07800495624542,
        1.07800495624542,
        1.07800495624542
      ],
      "translation": [
        0.0811299681663513,
        0.690746903419495,
        0.0872245579957962
      ]
    },
    {
      "children": [
        2
      ],
      "name": "08_W_Exterior"
    },
    {
      "mesh": 0,
      "name": "08_W_Exterior"
    },
    {
      "children": [
        4
      ],
      "name": "08_W_Gray"
    },
    {
      "mesh": 1,
      "name": "08_W_Gray"
    },
    {
      "children": [
        6
      ],
      "name": "08_W_Interior"
    },
    {
      "mesh": 2,
      "name": "08_W_Interior"
    },
    {
      "children": [
        8
      ],
      "name": "08_W_Hardware"
    },
    {
      "mesh": 3,
      "name": "08_W_Hardware"
    },
    {
      "children": [
        10
      ],
      "name": "08_W_Glass"
    },
    {
      "mesh": 4,
      "name": "08_W_Glass"
    },
    {
      "children": [
        12
      ],
      "name": "08_W_Spacer"
    },
    {
      "mesh": 5,
      "name": "08_W_Spacer"
    }
  ],
  "samplers": [
    {
      "magFilter": 9729,
      "minFilter": 9985,
      "wrapS": 10497,
      "wrapT": 10497
    }
  ],
  "scene": 0,
  "scenes": [
    {
      "name": "Scene",
      "nodes": [
        0
      ]
    }
  ],
  "textures": [
    {
      "sampler": 0,
      "source": 0
    },
    {
      "sampler": 0,
      "source": 1
    },
    {
      "sampler": 0,
      "source": 2
    },
    {
      "sampler": 0,
      "source": 3
    },
    {
      "sampler": 0,
      "source": 4
    },
    {
      "sampler": 0,
      "source": 5
    },
    {
      "sampler": 0,
      "source": 6
    },
    {
      "sampler": 0,
      "source": 7
    },
    {
      "sampler": 0,
      "source": 8
    },
    {
      "sampler": 0,
      "source": 9
    },
    {
      "sampler": 0,
      "source": 10
    },
    {
      "sampler": 0,
      "source": 11
    },
    {
      "sampler": 0,
      "source": 12
    },
    {
      "sampler": 0,
      "source": 13
    },
    {
      "sampler": 0,
      "source": 14
    },
    {
      "sampler": 0,
      "source": 15
    },
    {
      "sampler": 0,
      "source": 16
    },
    {
      "sampler": 0,
      "source": 17
    },
    {
      "sampler": 0,
      "source": 18
    },
    {
      "sampler": 0,
      "source": 19
    },
    {
      "sampler": 0,
      "source": 20
    },
    {
      "sampler": 0,
      "source": 21
    },
    {
      "sampler": 0,
      "source": 22
    },
    {
      "sampler": 0,
      "source": 23
    }
  ]
}