{
  "accessors": [
    {
      "bufferView": 0,
      "componentType": 5125,
      "count": 1080,
      "type": "SCALAR"
    },
    {
      "bufferView": 1,
      "componentType": 5126,
      "count": 624,
      "max": [
        1.44612658023834,
        0.877793550491333,
        0.162380918860435
      ],
      "min": [
        -1.44485712051392,
        -0.900134801864624,
        0.0832032263278961
      ],
      "type": "VEC3"
    },
    {
      "bufferView": 2,
      "componentType": 5126,
      "count": 624,
      "type": "VEC3"
    },
    {
      "bufferView": 3,
      "componentType": 5126,
      "count": 624,
      "type": "VEC2"
    },
    {
      "bufferView": 4,
      "componentType": 5125,
      "count": 72,
      "type": "SCALAR"
    },
    {
      "bufferView": 5,
      "componentType": 5126,
      "count": 48,
      "max": [
        1.44964218139648,
        0.881065249443054,
        0.167240023612976
      ],
      "min": [
        -1.44667828083038,
        -0.933842122554779,
        0.075806625187397
      ],
      "type": "VEC3"
    },
    {
      "bufferView": 6,
      "componentType": 5126,
      "count": 48,
      "type": "VEC3"
    },
    {
      "bufferView": 7,
      "componentType": 5126,
      "count": 48,
      "type": "VEC2"
    },
    {
      "bufferView": 8,
      "componentType": 5125,
      "count": 3756,
      "type": "SCALAR"
    },
    {
      "bufferView": 9,
      "componentType": 5126,
      "count": 1736,
      "max": [
        0.701833724975586,
        0.384980201721191,
        0.164090052247047
      ],
      "min": [
        -0.703827202320099,
        -0.410031795501709,
        0.105128400027752
      ],
      "type": "VEC3"
    },
    {
      "bufferView": 10,
      "componentType": 5126,
      "count": 1736,
      "type": "VEC3"
    },
    {
      "bufferView": 11,
      "componentType": 5126,
      "count": 1736,
      "type": "VEC2"
    },
    {
      "bufferView": 12,
      "componentType": 5125,
      "count": 10488,
      "type": "SCALAR"
    },
    {
      "bufferView": 13,
      "componentType": 5126,
      "count": 5434,
      "max": [
        1.52969896793365,
        0.960315823554993,
        0.189893513917923
      ],
      "min": [
        -1.52942168712616,
        -0.999998390674591,
        0.101365499198437
      ],
      "type": "VEC3"
    },
    {
      "bufferView": 14,
      "componentType": 5126,
      "count": 5434,
      "type": "VEC3"
    },
    {
      "bufferView": 15,
      "componentType": 5126,
      "count": 5434,
      "type": "VEC2"
    },
    {
      "bufferView": 16,
      "componentType": 5125,
      "count": 8346,
      "type": "SCALAR"
    },
    {
      "bufferView": 17,
      "componentType": 5126,
      "count": 4627,
      "max": [
        1.49472403526306,
        0.925339818000793,
        0.171980500221252
      ],
      "min": [
        -1.49444663524628,
        -0.968237817287445,
        0.0722736120223999
      ],
      "type": "VEC3"
    },
    {
      "bufferView": 18,
      "componentType": 5126,
      "count": 4627,
      "type": "VEC3"
    },
    {
      "bufferView": 19,
      "componentType": 5126,
      "count": 4627,
      "type": "VEC2"
    },
    {
      "bufferView": 20,
      "componentType": 5125,
      "count": 11238,
      "type": "SCALAR"
    },
    {
      "bufferView": 21,
      "componentType": 5126,
      "count": 6246,
      "max": [
        1.52965664863586,
        0.960273265838623,
        0.185445055365562
      ],
      "min": [
        -1.52950239181519,
        -1.0000821352005,
        0.0416027270257473
      ],
      "type": "VEC3"
    },
    {
      "bufferView": 22,
      "componentType": 5126,
      "count": 6246,
      "type": "VEC3"
    },
    {
      "bufferView": 23,
      "componentType": 5126,
      "count": 6246,
      "type": "VEC2"
    }
  ],
  "asset": {
    "generator": "Substance Painter 2019.2.1",
    "version": "2.0"
  },
  "bufferViews": [
    {
      "buffer": 0,
      "byteLength": 4320,
      "target": 34963
    },
    {
      "buffer": 0,
      "byteLength": 7488,
      "byteOffset": 4320,
      "target": 34962
    },
    {
      "buffer": 0,
      "byteLength": 7488,
      "byteOffset": 11808,
      "target": 34962
    },
    {
      "buffer": 0,
      "byteLength": 4992,
      "byteOffset": 19296,
      "target": 34962
    },
    {
      "buffer": 0,
      "byteLength": 288,
      "byteOffset": 24288,
      "target": 34963
    },
    {
      "buffer": 0,
      "byteLength": 576,
      "byteOffset": 24576,
      "target": 34962
    },
    {
      "buffer": 0,
      "byteLength": 576,
      "byteOffset": 25152,
      "target": 34962
    },
    {
      "buffer": 0,
      "byteLength": 384,
      "byteOffset": 25728,
      "target": 34962
    },
    {
      "buffer": 0,
      "byteLength": 15024,
      "byteOffset": 26112,
      "target": 34963
    },
    {
      "buffer": 0,
      "byteLength": 20832,
      "byteOffset": 41136,
      "target": 34962
    },
    {
      "buffer": 0,
      "byteLength": 20832,
      "byteOffset": 61968,
      "target": 34962
    },
    {
      "buffer": 0,
      "byteLength": 13888,
      "byteOffset": 82800,
      "target": 34962
    },
    {
      "buffer": 0,
      "byteLength": 41952,
      "byteOffset": 96688,
      "target": 34963
    },
    {
      "buffer": 0,
      "byteLength": 65208,
      "byteOffset": 138640,
      "target": 34962
    },
    {
      "buffer": 0,
      "byteLength": 65208,
      "byteOffset": 203848,
      "target": 34962
    },
    {
      "buffer": 0,
      "byteLength": 43472,
      "byteOffset": 269056,
      "target": 34962
    },
    {
      "buffer": 0,
      "byteLength": 33384,
      "byteOffset": 312528,
      "target": 34963
    },
    {
      "buffer": 0,
      "byteLength": 55524,
      "byteOffset": 345912,
      "target": 34962
    },
    {
      "buffer": 0,
      "byteLength": 55524,
      "byteOffset": 401436,
      "target": 34962
    },
    {
      "buffer": 0,
      "byteLength": 37016,
      "byteOffset": 456960,
      "target": 34962
    },
    {
      "buffer": 0,
      "byteLength": 44952,
      "byteOffset": 493976,
      "target": 34963
    },
    {
      "buffer": 0,
      "byteLength": 74952,
      "byteOffset": 538928,
      "target": 34962
    },
    {
      "buffer": 0,
      "byteLength": 74952,
      "byteOffset": 613880,
      "target": 34962
    },
    {
      "buffer": 0,
      "byteLength": 49968,
      "byteOffset": 688832,
      "target": 34962
    }
  ],
  "buffers": [
    {
      "byteLength": 738800,
      "uri": "08_W_GlidingTriple121.bin"
    }
  ],
  "images": [
    {
      "uri": "08_W_Exterior_baseColor.png"
    },
    {
      "uri": "08_W_Exterior_occlusionRoughnessMetallic.png"
    },
    {
      "uri": "08_W_Exterior_normal.png"
    },
    {
      "uri": "08_W_Exterior_emissive.png"
    },
    {
      "uri": "08_W_Glass_baseColor.png"
    },
    {
      "uri": "08_W_Glass_occlusionRoughnessMetallic.png"
    },
    {
      "uri": "08_W_Glass_normal.png"
    },
    {
      "uri": "08_W_Glass_emissive.png"
    },
    {
      "uri": "08_W_Gray_baseColor.png"
    },
    {
      "uri": "08_W_Gray_occlusionRoughnessMetallic.png"
    },
    {
      "uri": "08_W_Gray_normal.png"
    },
    {
      "uri": "08_W_Gray_emissive.png"
    },
    {
      "uri": "08_W_Hardware_baseColor.png"
    },
    {
      "uri": "08_W_Hardware_occlusionRoughnessMetallic.png"
    },
    {
      "uri": "08_W_Hardware_normal.png"
    },
    {
      "uri": "08_W_Hardware_emissive.png"
    },
    {
      "uri": "08_W_Interior_baseColor.png"
    },
    {
      "uri": "08_W_Interior_occlusionRoughnessMetallic.png"
    },
    {
      "uri": "08_W_Interior_normal.png"
    },
    {
      "uri": "08_W_Interior_emissive.png"
    },
    {
      "uri": "08_W_Spacers_baseColor.png"
    },
    {
      "uri": "08_W_Spacers_occlusionRoughnessMetallic.png"
    },
    {
      "uri": "08_W_Spacers_normal.png"
    },
    {
      "uri": "08_W_Spacers_emissive.png"
    }
  ],
  "materials": [
    {
      "alphaMode": "OPAQUE",
      "emissiveFactor": [
        1.0,
        1.0,
        1.0
      ],
      "emissiveTexture": {
        "index": 3
      },
      "name": "08_W_Exterior",
      "normalTexture": {
        "index": 2
      },
      "occlusionTexture": {
        "index": 1
      },
      "pbrMetallicRoughness": {
        "baseColorTexture": {
          "index": 0
        },
        "metallicRoughnessTexture": {
          "index": 1
        }
      }
    },
    {
      "alphaMode": "BLEND",
      "emissiveFactor": [
        1.0,
        1.0,
        1.0
      ],
      "emissiveTexture": {
        "index": 7
      },
      "name": "08_W_Glass",
      "normalTexture": {
        "index": 6
      },
      "occlusionTexture": {
        "index": 5
      },
      "pbrMetallicRoughness": {
        "baseColorTexture": {
          "index": 4
        },
        "metallicRoughnessTexture": {
          "index": 5
        }
      }
    },
    {
      "alphaMode": "OPAQUE",
      "emissiveFactor": [
        1.0,
        1.0,
        1.0
      ],
      "emissiveTexture": {
        "index": 11
      },
      "name": "08_W_Gray",
      "normalTexture": {
        "index": 10
      },
      "occlusionTexture": {
        "index": 9
      },
      "pbrMetallicRoughness": {
        "baseColorTexture": {
          "index": 8
        },
        "metallicRoughnessTexture": {
          "index": 9
        }
      }
    },
    {
      "alphaMode": "OPAQUE",
      "emissiveFactor": [
        1.0,
        1.0,
        1.0
      ],
      "emissiveTexture": {
        "index": 15
      },
      "name": "08_W_Hardware",
      "normalTexture": {
        "index": 14
      },
      "occlusionTexture": {
        "index": 13
      },
      "pbrMetallicRoughness": {
        "baseColorTexture": {
          "index": 12
        },
        "metallicRoughnessTexture": {
          "index": 13
        }
      }
    },
    {
      "alphaMode": "OPAQUE",
      "emissiveFactor": [
        1.0,
        1.0,
        1.0
      ],
      "emissiveTexture": {
        "index": 19
      },
      "name": "08_W_Interior",
      "normalTexture": {
        "index": 18
      },
      "occlusionTexture": {
        "index": 17
      },
      "pbrMetallicRoughness": {
        "baseColorTexture": {
          "index": 16
        },
        "metallicRoughnessTexture": {
          "index": 17
        }
      }
    },
    {
      "alphaMode": "OPAQUE",
      "emissiveFactor": [
        1.0,
        1.0,
        1.0
      ],
      "emissiveTexture": {
        "index": 23
      },
      "name": "08_W_Spacers",
      "normalTexture": {
        "index": 22
      },
      "occlusionTexture": {
        "index": 21
      },
      "pbrMetallicRoughness": {
        "baseColorTexture": {
          "index": 20
        },
        "metallicRoughnessTexture": {
          "index": 21
        }
      }
    }
  ],
  "meshes": [
    {
      "name": "08_W_Spacer",
      "primitives": [
        {
          "attributes": {
            "NORMAL": 2,
            "POSITION": 1,
            "TEXCOORD_0": 3
          },
          "indices": 0,
          "material": 5,
          "mode": 4
        }
      ]
    },
    {
      "name": "08_W_Glass",
      "primitives": [
        {
          "attributes": {
            "NORMAL": 6,
            "POSITION": 5,
            "TEXCOORD_0": 7
          },
          "indices": 4,
          "material": 1,
          "mode": 4
        }
      ]
    },
    {
      "name": "08_W_Hardware",
      "primitives": [
        {
          "attributes": {
            "NORMAL": 10,
            "POSITION": 9,
            "TEXCOORD_0": 11
          },
          "indices": 8,
          "material": 3,
          "mode": 4
        }
      ]
    },
    {
      "name": "08_W_Interior",
      "primitives": [
        {
          "attributes": {
            "NORMAL": 14,
            "POSITION": 13,
            "TEXCOORD_0": 15
          },
          "indices": 12,
          "material": 4,
          "mode": 4
        }
      ]
    },
    {
      "name": "08_W_Gray",
      "primitives": [
        {
          "attributes": {
            "NORMAL": 18,
            "POSITION": 17,
            "TEXCOORD_0": 19
          },
          "indices": 16,
          "material": 2,
          "mode": 4
        }
      ]
    },
    {
      "name": "08_W_Exterior",
      "primitives": [
        {
          "attributes": {
            "NORMAL": 22,
            "POSITION": 21,
            "TEXCOORD_0": 23
          },
          "indices": 20,
          "material": 0,
          "mode": 4
        }
      ]
    }
  ],
  "nodes": [
    {
      "children": [
        1,
        3,
        5,
        7,
        9,
        11
      ],
      "name": "root",
      "scale": [
        27.4793834686279,
        27.4793834686279,
        27.4793834686279
      ],
      "translation": [
        -0.002655029296875,
        27.479284286499,
        0.220285534858704
      ]
    },
    {
      "children": [
        2
      ],
      "name": "08_W_Spacer"
    },
    {
      "mesh": 0,
      "name": "08_W_Spacer"
    },
    {
      "children": [
        4
      ],
      "name": "08_W_Glass"
    },
    {
      "mesh": 1,
      "name": "08_W_Glass"
    },
    {
      "children": [
        6
      ],
      "name": "08_W_Hardware"
    },
    {
      "mesh": 2,
      "name": "08_W_Hardware"
    },
    {
      "children": [
        8
      ],
      "name": "08_W_Interior"
    },
    {
      "mesh": 3,
      "name": "08_W_Interior"
    },
    {
      "children": [
        10
      ],
      "name": "08_W_Gray"
    },
    {
      "mesh": 4,
      "name": "08_W_Gray"
    },
    {
      "children": [
        12
      ],
      "name": "08_W_Exterior"
    },
    {
      "mesh": 5,
      "name": "08_W_Exterior"
    }
  ],
  "samplers": [
    {
      "magFilter": 9729,
      "minFilter": 9985,
      "wrapS": 10497,
      "wrapT": 10497
    }
  ],
  "scene": 0,
  "scenes": [
    {
      "name": "Scene",
      "nodes": [
        0
      ]
    }
  ],
  "textures": [
    {
      "sampler": 0,
      "source": 0
    },
    {
      "sampler": 0,
      "source": 1
    },
    {
      "sampler": 0,
      "source": 2
    },
    {
      "sampler": 0,
      "source": 3
    },
    {
      "sampler": 0,
      "source": 4
    },
    {
      "sampler": 0,
      "source": 5
    },
    {
      "sampler": 0,
      "source": 6
    },
    {
      "sampler": 0,
      "source": 7
    },
    {
      "sampler": 0,
      "source": 8
    },
    {
      "sampler": 0,
      "source": 9
    },
    {
      "sampler": 0,
      "source": 10
    },
    {
      "sampler": 0,
      "source": 11
    },
    {
      "sampler": 0,
      "source": 12
    },
    {
      "sampler": 0,
      "source": 13
    },
    {
      "sampler": 0,
      "source": 14
    },
    {
      "sampler": 0,
      "source": 15
    },
    {
      "sampler": 0,
      "source": 16
    },
    {
      "sampler": 0,
      "source": 17
    },
    {
      "sampler": 0,
      "source": 18
    },
    {
      "sampler": 0,
      "source": 19
    },
    {
      "sampler": 0,
      "source": 20
    },
    {
      "sampler": 0,
      "source": 21
    },
    {
      "sampler": 0,
      "source": 22
    },
    {
      "sampler": 0,
      "source": 23
    }
  ]
}