{
  "accessors": [
    {
      "bufferView": 0,
      "componentType": 5125,
      "count": 846,
      "type": "SCALAR"
    },
    {
      "bufferView": 1,
      "componentType": 5126,
      "count": 265,
      "max": [
        1.30316829681396,
        -0.298371553421021,
        8.24212074279785
      ],
      "min": [
        -3.69683361053467,
        -1.05616283416748,
        3.24211978912354
      ],
      "type": "VEC3"
    },
    {
      "bufferView": 2,
      "componentType": 5126,
      "count": 265,
      "type": "VEC3"
    },
    {
      "bufferView": 3,
      "componentType": 5126,
      "count": 265,
      "type": "VEC2"
    },
    {
      "bufferView": 4,
      "componentType": 5125,
      "count": 407034,
      "type": "SCALAR"
    },
    {
      "bufferView": 5,
      "componentType": 5126,
      "count": 114859,
      "max": [
        3.8339147567749,
        2.60836958885193,
        8.24212265014648
      ],
      "min": [
        -3.69827628135681,
        -1.76737928390503,
        -0.0121140480041504
      ],
      "type": "VEC3"
    },
    {
      "bufferView": 6,
      "componentType": 5126,
      "count": 114859,
      "type": "VEC3"
    },
    {
      "bufferView": 7,
      "componentType": 5126,
      "count": 114859,
      "type": "VEC2"
    }
  ],
  "asset": {
    "generator": "Substance Painter 6.2.2",
    "version": "2.0"
  },
  "bufferViews": [
    {
      "buffer": 0,
      "byteLength": 3384,
      "target": 34963
    },
    {
      "buffer": 0,
      "byteLength": 3180,
      "byteOffset": 3384,
      "target": 34962
    },
    {
      "buffer": 0,
      "byteLength": 3180,
      "byteOffset": 6564,
      "target": 34962
    },
    {
      "buffer": 0,
      "byteLength": 2120,
      "byteOffset": 9744,
      "target": 34962
    },
    {
      "buffer": 0,
      "byteLength": 1628136,
      "byteOffset": 11864,
      "target": 34963
    },
    {
      "buffer": 0,
      "byteLength": 1378308,
      "byteOffset": 1640000,
      "target": 34962
    },
    {
      "buffer": 0,
      "byteLength": 1378308,
      "byteOffset": 3018308,
      "target": 34962
    },
    {
      "buffer": 0,
      "byteLength": 918872,
      "byteOffset": 4396616,
      "target": 34962
    }
  ],
  "buffers": [
    {
      "byteLength": 5315488,
      "uri": "DG_Corner_Sandtone.bin"
    }
  ],
  "images": [
    {
      "uri": "DG_Corner_M_baseColor.png"
    },
    {
      "uri": "DG_Corner_M_occlusionRoughnessMetallic.png"
    },
    {
      "uri": "DG_Corner_M_normal.png"
    },
    {
      "uri": "Glass_baseColor.png"
    },
    {
      "uri": "Glass_occlusionRoughnessMetallic.png"
    },
    {
      "uri": "Glass_normal.png"
    }
  ],
  "materials": [
    {
      "alphaMode": "BLEND",
      "name": "DG_Corner_M",
      "normalTexture": {
        "index": 2
      },
      "occlusionTexture": {
        "index": 1
      },
      "pbrMetallicRoughness": {
        "baseColorTexture": {
          "index": 0
        },
        "metallicRoughnessTexture": {
          "index": 1
        }
      }
    },
    {
      "alphaMode": "BLEND",
      "name": "Glass",
      "normalTexture": {
        "index": 5
      },
      "occlusionTexture": {
        "index": 4
      },
      "pbrMetallicRoughness": {
        "baseColorTexture": {
          "index": 3
        },
        "metallicRoughnessTexture": {
          "index": 4
        }
      }
    }
  ],
  "meshes": [
    {
      "name": "Glass",
      "primitives": [
        {
          "attributes": {
            "NORMAL": 2,
            "POSITION": 1,
            "TEXCOORD_0": 3
          },
          "indices": 0,
          "material": 1,
          "mode": 4
        }
      ]
    },
    {
      "name": "Corner",
      "primitives": [
        {
          "attributes": {
            "NORMAL": 6,
            "POSITION": 5,
            "TEXCOORD_0": 7
          },
          "indices": 4,
          "material": 0,
          "mode": 4
        }
      ]
    }
  ],
  "nodes": [
    {
      "children": [
        1,
        3
      ],
      "name": "RootNode"
    },
    {
      "children": [
        2
      ],
      "name": "Glass",
      "rotation": [
        -0.70710676908493,
        0.0,
        0.0,
        0.70710676908493
      ]
    },
    {
      "mesh": 0,
      "name": "Glass"
    },
    {
      "children": [
        4
      ],
      "name": "Corner",
      "rotation": [
        -0.70710676908493,
        0.0,
        0.0,
        0.70710676908493
      ]
    },
    {
      "mesh": 1,
      "name": "Corner"
    }
  ],
  "samplers": [
    {
      "magFilter": 9729,
      "minFilter": 9985,
      "wrapS": 10497,
      "wrapT": 10497
    }
  ],
  "scene": 0,
  "scenes": [
    {
      "name": "Scene",
      "nodes": [
        0
      ]
    }
  ],
  "textures": [
    {
      "sampler": 0,
      "source": 0
    },
    {
      "sampler": 0,
      "source": 1
    },
    {
      "sampler": 0,
      "source": 2
    },
    {
      "sampler": 0,
      "source": 3
    },
    {
      "sampler": 0,
      "source": 4
    },
    {
      "sampler": 0,
      "source": 5
    }
  ]
}