{
  "accessors": [
    {
      "bufferView": 0,
      "componentType": 5125,
      "count": 407034,
      "type": "SCALAR"
    },
    {
      "bufferView": 1,
      "componentType": 5126,
      "count": 117224,
      "max": [
        0.0978241488337517,
        0.0662806257605553,
        0.231602311134338
      ],
      "min": [
        -0.113829210400581,
        -0.0566772259771824,
        -0.000340424478054047
      ],
      "type": "VEC3"
    },
    {
      "bufferView": 2,
      "componentType": 5126,
      "count": 117224,
      "type": "VEC3"
    },
    {
      "bufferView": 3,
      "componentType": 5126,
      "count": 117224,
      "type": "VEC2"
    },
    {
      "bufferView": 4,
      "componentType": 5125,
      "count": 846,
      "type": "SCALAR"
    },
    {
      "bufferView": 5,
      "componentType": 5126,
      "count": 265,
      "max": [
        0.0366188175976276,
        -0.00838419049978256,
        0.231602266430855
      ],
      "min": [
        -0.103880427777767,
        -0.0296780057251453,
        0.0911030322313309
      ],
      "type": "VEC3"
    },
    {
      "bufferView": 6,
      "componentType": 5126,
      "count": 265,
      "type": "VEC3"
    },
    {
      "bufferView": 7,
      "componentType": 5126,
      "count": 265,
      "type": "VEC2"
    }
  ],
  "asset": {
    "generator": "Substance Painter 6.2.2",
    "version": "2.0"
  },
  "bufferViews": [
    {
      "buffer": 0,
      "byteLength": 1628136,
      "target": 34963
    },
    {
      "buffer": 0,
      "byteLength": 1406688,
      "byteOffset": 1628136,
      "target": 34962
    },
    {
      "buffer": 0,
      "byteLength": 1406688,
      "byteOffset": 3034824,
      "target": 34962
    },
    {
      "buffer": 0,
      "byteLength": 937792,
      "byteOffset": 4441512,
      "target": 34962
    },
    {
      "buffer": 0,
      "byteLength": 3384,
      "byteOffset": 5379304,
      "target": 34963
    },
    {
      "buffer": 0,
      "byteLength": 3180,
      "byteOffset": 5382688,
      "target": 34962
    },
    {
      "buffer": 0,
      "byteLength": 3180,
      "byteOffset": 5385868,
      "target": 34962
    },
    {
      "buffer": 0,
      "byteLength": 2120,
      "byteOffset": 5389048,
      "target": 34962
    }
  ],
  "buffers": [
    {
      "byteLength": 5391168,
      "uri": "Untitled.bin"
    }
  ],
  "images": [
    {
      "uri": "DG_Corner_Blank_baseColor.png"
    },
    {
      "uri": "DG_Corner_Blank_occlusionRoughnessMetallic.png"
    },
    {
      "uri": "DG_Corner_Blank_normal.png"
    },
    {
      "uri": "Glass_baseColor.png"
    },
    {
      "uri": "Glass_occlusionRoughnessMetallic.png"
    },
    {
      "uri": "Glass_normal.png"
    }
  ],
  "materials": [
    {
      "alphaMode": "OPAQUE",
      "name": "DG_Corner_Blank",
      "normalTexture": {
        "index": 2
      },
      "occlusionTexture": {
        "index": 1
      },
      "pbrMetallicRoughness": {
        "baseColorTexture": {
          "index": 0
        },
        "metallicRoughnessTexture": {
          "index": 1
        }
      }
    },
    {
      "alphaMode": "OPAQUE",
      "name": "Glass",
      "normalTexture": {
        "index": 5
      },
      "occlusionTexture": {
        "index": 4
      },
      "pbrMetallicRoughness": {
        "baseColorTexture": {
          "index": 3
        },
        "metallicRoughnessTexture": {
          "index": 4
        }
      }
    }
  ],
  "meshes": [
    {
      "name": "Corner",
      "primitives": [
        {
          "attributes": {
            "NORMAL": 2,
            "POSITION": 1,
            "TEXCOORD_0": 3
          },
          "indices": 0,
          "material": 0,
          "mode": 4
        }
      ]
    },
    {
      "name": "Glass",
      "primitives": [
        {
          "attributes": {
            "NORMAL": 6,
            "POSITION": 5,
            "TEXCOORD_0": 7
          },
          "indices": 4,
          "material": 1,
          "mode": 4
        }
      ]
    }
  ],
  "nodes": [
    {
      "children": [
        1,
        3
      ],
      "name": "RootNode"
    },
    {
      "children": [
        2
      ],
      "name": "Corner",
      "rotation": [
        -0.70710676908493,
        0.0,
        0.0,
        0.70710676908493
      ],
      "translation": [
        0.0,
        0.000344677740940824,
        0.0
      ]
    },
    {
      "mesh": 0,
      "name": "Corner"
    },
    {
      "children": [
        4
      ],
      "name": "Glass",
      "rotation": [
        -0.70710676908493,
        0.0,
        0.0,
        0.70710676908493
      ],
      "translation": [
        -0.00990824308246374,
        0.000344677740940824,
        0.00701415026560426
      ]
    },
    {
      "mesh": 1,
      "name": "Glass"
    }
  ],
  "samplers": [
    {
      "magFilter": 9729,
      "minFilter": 9985,
      "wrapS": 10497,
      "wrapT": 10497
    }
  ],
  "scene": 0,
  "scenes": [
    {
      "name": "Scene",
      "nodes": [
        0
      ]
    }
  ],
  "textures": [
    {
      "sampler": 0,
      "source": 0
    },
    {
      "sampler": 0,
      "source": 1
    },
    {
      "sampler": 0,
      "source": 2
    },
    {
      "sampler": 0,
      "source": 3
    },
    {
      "sampler": 0,
      "source": 4
    },
    {
      "sampler": 0,
      "source": 5
    }
  ]
}