{
  "accessors": [
    {
      "bufferView": 0,
      "componentType": 5125,
      "count": 27651,
      "type": "SCALAR"
    },
    {
      "bufferView": 1,
      "componentType": 5126,
      "count": 17844,
      "max": [
        0.920954346656799,
        0.999104917049408,
        0.0336144641041756
      ],
      "min": [
        -0.920831859111786,
        -1.0,
        -0.0710417479276657
      ],
      "type": "VEC3"
    },
    {
      "bufferView": 2,
      "componentType": 5126,
      "count": 17844,
      "type": "VEC3"
    },
    {
      "bufferView": 3,
      "componentType": 5126,
      "count": 17844,
      "type": "VEC2"
    },
    {
      "bufferView": 4,
      "componentType": 5125,
      "count": 17556,
      "type": "SCALAR"
    },
    {
      "bufferView": 5,
      "componentType": 5126,
      "count": 6427,
      "max": [
        0.896041333675385,
        -0.630965828895569,
        0.0710417479276657
      ],
      "min": [
        -0.89307177066803,
        -0.979578793048859,
        -0.0482145510613918
      ],
      "type": "VEC3"
    },
    {
      "bufferView": 6,
      "componentType": 5126,
      "count": 6427,
      "type": "VEC3"
    },
    {
      "bufferView": 7,
      "componentType": 5126,
      "count": 6427,
      "type": "VEC2"
    },
    {
      "bufferView": 8,
      "componentType": 5125,
      "count": 14616,
      "type": "SCALAR"
    },
    {
      "bufferView": 9,
      "componentType": 5126,
      "count": 8813,
      "max": [
        0.920682072639465,
        1.0,
        0.0484982132911682
      ],
      "min": [
        -0.92095422744751,
        -0.999104678630829,
        -0.036219198256731
      ],
      "type": "VEC3"
    },
    {
      "bufferView": 10,
      "componentType": 5126,
      "count": 8813,
      "type": "VEC3"
    },
    {
      "bufferView": 11,
      "componentType": 5126,
      "count": 8813,
      "type": "VEC2"
    },
    {
      "bufferView": 12,
      "componentType": 5125,
      "count": 1164,
      "type": "SCALAR"
    },
    {
      "bufferView": 13,
      "componentType": 5126,
      "count": 667,
      "max": [
        0.84097945690155,
        0.913161516189575,
        -0.0217945594340563
      ],
      "min": [
        -0.835546374320984,
        -0.916968643665314,
        -0.0391766354441643
      ],
      "type": "VEC3"
    },
    {
      "bufferView": 14,
      "componentType": 5126,
      "count": 667,
      "type": "VEC3"
    },
    {
      "bufferView": 15,
      "componentType": 5126,
      "count": 667,
      "type": "VEC2"
    },
    {
      "bufferView": 16,
      "componentType": 5125,
      "count": 48,
      "type": "SCALAR"
    },
    {
      "bufferView": 17,
      "componentType": 5126,
      "count": 32,
      "max": [
        0.840834081172943,
        0.916709005832672,
        -0.0250592138618231
      ],
      "min": [
        -0.834377467632294,
        -0.917052567005157,
        -0.0409029759466648
      ],
      "type": "VEC3"
    },
    {
      "bufferView": 18,
      "componentType": 5126,
      "count": 32,
      "type": "VEC3"
    },
    {
      "bufferView": 19,
      "componentType": 5126,
      "count": 32,
      "type": "VEC2"
    }
  ],
  "asset": {
    "generator": "Substance Painter 2019.2.1",
    "version": "2.0"
  },
  "bufferViews": [
    {
      "buffer": 0,
      "byteLength": 110604,
      "target": 34963
    },
    {
      "buffer": 0,
      "byteLength": 214128,
      "byteOffset": 110604,
      "target": 34962
    },
    {
      "buffer": 0,
      "byteLength": 214128,
      "byteOffset": 324732,
      "target": 34962
    },
    {
      "buffer": 0,
      "byteLength": 142752,
      "byteOffset": 538860,
      "target": 34962
    },
    {
      "buffer": 0,
      "byteLength": 70224,
      "byteOffset": 681612,
      "target": 34963
    },
    {
      "buffer": 0,
      "byteLength": 77124,
      "byteOffset": 751836,
      "target": 34962
    },
    {
      "buffer": 0,
      "byteLength": 77124,
      "byteOffset": 828960,
      "target": 34962
    },
    {
      "buffer": 0,
      "byteLength": 51416,
      "byteOffset": 906084,
      "target": 34962
    },
    {
      "buffer": 0,
      "byteLength": 58464,
      "byteOffset": 957500,
      "target": 34963
    },
    {
      "buffer": 0,
      "byteLength": 105756,
      "byteOffset": 1015964,
      "target": 34962
    },
    {
      "buffer": 0,
      "byteLength": 105756,
      "byteOffset": 1121720,
      "target": 34962
    },
    {
      "buffer": 0,
      "byteLength": 70504,
      "byteOffset": 1227476,
      "target": 34962
    },
    {
      "buffer": 0,
      "byteLength": 4656,
      "byteOffset": 1297980,
      "target": 34963
    },
    {
      "buffer": 0,
      "byteLength": 8004,
      "byteOffset": 1302636,
      "target": 34962
    },
    {
      "buffer": 0,
      "byteLength": 8004,
      "byteOffset": 1310640,
      "target": 34962
    },
    {
      "buffer": 0,
      "byteLength": 5336,
      "byteOffset": 1318644,
      "target": 34962
    },
    {
      "buffer": 0,
      "byteLength": 192,
      "byteOffset": 1323980,
      "target": 34963
    },
    {
      "buffer": 0,
      "byteLength": 384,
      "byteOffset": 1324172,
      "target": 34962
    },
    {
      "buffer": 0,
      "byteLength": 384,
      "byteOffset": 1324556,
      "target": 34962
    },
    {
      "buffer": 0,
      "byteLength": 256,
      "byteOffset": 1324940,
      "target": 34962
    }
  ],
  "buffers": [
    {
      "byteLength": 1325196,
      "uri": "05_W_CasementDouble_v01.bin"
    }
  ],
  "images": [
    {
      "uri": "05_W_Exterior_baseColor.png"
    },
    {
      "uri": "05_W_Exterior_occlusionRoughnessMetallic.png"
    },
    {
      "uri": "05_W_Exterior_normal.png"
    },
    {
      "uri": "05_W_Exterior_emissive.png"
    },
    {
      "uri": "05_W_Glass_baseColor.png"
    },
    {
      "uri": "05_W_Glass_occlusionRoughnessMetallic.png"
    },
    {
      "uri": "05_W_Glass_normal.png"
    },
    {
      "uri": "05_W_Glass_emissive.png"
    },
    {
      "uri": "05_W_Hardware_baseColor.png"
    },
    {
      "uri": "05_W_Hardware_occlusionRoughnessMetallic.png"
    },
    {
      "uri": "05_W_Hardware_normal.png"
    },
    {
      "uri": "05_W_Hardware_emissive.png"
    },
    {
      "uri": "05_W_Interior_baseColor.png"
    },
    {
      "uri": "05_W_Interior_occlusionRoughnessMetallic.png"
    },
    {
      "uri": "05_W_Interior_normal.png"
    },
    {
      "uri": "05_W_Interior_emissive.png"
    },
    {
      "uri": "05_W_Spacers_baseColor.png"
    },
    {
      "uri": "05_W_Spacers_occlusionRoughnessMetallic.png"
    },
    {
      "uri": "05_W_Spacers_normal.png"
    },
    {
      "uri": "05_W_Spacers_emissive.png"
    }
  ],
  "materials": [
    {
      "alphaMode": "OPAQUE",
      "emissiveFactor": [
        1.0,
        1.0,
        1.0
      ],
      "emissiveTexture": {
        "index": 3
      },
      "name": "05_W_Exterior",
      "normalTexture": {
        "index": 2
      },
      "occlusionTexture": {
        "index": 1
      },
      "pbrMetallicRoughness": {
        "baseColorTexture": {
          "index": 0
        },
        "metallicRoughnessTexture": {
          "index": 1
        }
      }
    },
    {
      "alphaMode": "BLEND",
      "emissiveFactor": [
        1.0,
        1.0,
        1.0
      ],
      "emissiveTexture": {
        "index": 7
      },
      "name": "05_W_Glass",
      "normalTexture": {
        "index": 6
      },
      "occlusionTexture": {
        "index": 5
      },
      "pbrMetallicRoughness": {
        "baseColorTexture": {
          "index": 4
        },
        "metallicRoughnessTexture": {
          "index": 5
        }
      }
    },
    {
      "alphaMode": "OPAQUE",
      "emissiveFactor": [
        1.0,
        1.0,
        1.0
      ],
      "emissiveTexture": {
        "index": 11
      },
      "name": "05_W_Hardware",
      "normalTexture": {
        "index": 10
      },
      "occlusionTexture": {
        "index": 9
      },
      "pbrMetallicRoughness": {
        "baseColorTexture": {
          "index": 8
        },
        "metallicRoughnessTexture": {
          "index": 9
        }
      }
    },
    {
      "alphaMode": "OPAQUE",
      "emissiveFactor": [
        1.0,
        1.0,
        1.0
      ],
      "emissiveTexture": {
        "index": 15
      },
      "name": "05_W_Interior",
      "normalTexture": {
        "index": 14
      },
      "occlusionTexture": {
        "index": 13
      },
      "pbrMetallicRoughness": {
        "baseColorTexture": {
          "index": 12
        },
        "metallicRoughnessTexture": {
          "index": 13
        }
      }
    },
    {
      "alphaMode": "OPAQUE",
      "emissiveFactor": [
        1.0,
        1.0,
        1.0
      ],
      "emissiveTexture": {
        "index": 19
      },
      "name": "05_W_Spacers",
      "normalTexture": {
        "index": 18
      },
      "occlusionTexture": {
        "index": 17
      },
      "pbrMetallicRoughness": {
        "baseColorTexture": {
          "index": 16
        },
        "metallicRoughnessTexture": {
          "index": 17
        }
      }
    }
  ],
  "meshes": [
    {
      "name": "05_W_Exterior",
      "primitives": [
        {
          "attributes": {
            "NORMAL": 2,
            "POSITION": 1,
            "TEXCOORD_0": 3
          },
          "indices": 0,
          "material": 0,
          "mode": 4
        }
      ]
    },
    {
      "name": "05_W_Hardware",
      "primitives": [
        {
          "attributes": {
            "NORMAL": 6,
            "POSITION": 5,
            "TEXCOORD_0": 7
          },
          "indices": 4,
          "material": 2,
          "mode": 4
        }
      ]
    },
    {
      "name": "05_W_Interior",
      "primitives": [
        {
          "attributes": {
            "NORMAL": 10,
            "POSITION": 9,
            "TEXCOORD_0": 11
          },
          "indices": 8,
          "material": 3,
          "mode": 4
        }
      ]
    },
    {
      "name": "05_W_Spacer",
      "primitives": [
        {
          "attributes": {
            "NORMAL": 14,
            "POSITION": 13,
            "TEXCOORD_0": 15
          },
          "indices": 12,
          "material": 4,
          "mode": 4
        }
      ]
    },
    {
      "name": "05_W_Glass",
      "primitives": [
        {
          "attributes": {
            "NORMAL": 18,
            "POSITION": 17,
            "TEXCOORD_0": 19
          },
          "indices": 16,
          "material": 1,
          "mode": 4
        }
      ]
    }
  ],
  "nodes": [
    {
      "children": [
        1,
        3,
        5,
        7,
        9
      ],
      "name": "root",
      "scale": [
        0.66441810131073,
        0.66441810131073,
        0.66441810131073
      ],
      "translation": [
        -4.06503677368164e-05,
        0.664418339729309,
        0.00692621991038322
      ]
    },
    {
      "children": [
        2
      ],
      "name": "05_W_Exterior"
    },
    {
      "mesh": 0,
      "name": "05_W_Exterior"
    },
    {
      "children": [
        4
      ],
      "name": "05_W_Hardware"
    },
    {
      "mesh": 1,
      "name": "05_W_Hardware"
    },
    {
      "children": [
        6
      ],
      "name": "05_W_Interior"
    },
    {
      "mesh": 2,
      "name": "05_W_Interior"
    },
    {
      "children": [
        8
      ],
      "name": "05_W_Spacer"
    },
    {
      "mesh": 3,
      "name": "05_W_Spacer"
    },
    {
      "children": [
        10
      ],
      "name": "05_W_Glass"
    },
    {
      "mesh": 4,
      "name": "05_W_Glass"
    }
  ],
  "samplers": [
    {
      "magFilter": 9729,
      "minFilter": 9985,
      "wrapS": 10497,
      "wrapT": 10497
    }
  ],
  "scene": 0,
  "scenes": [
    {
      "name": "Scene",
      "nodes": [
        0
      ]
    }
  ],
  "textures": [
    {
      "sampler": 0,
      "source": 0
    },
    {
      "sampler": 0,
      "source": 1
    },
    {
      "sampler": 0,
      "source": 2
    },
    {
      "sampler": 0,
      "source": 3
    },
    {
      "sampler": 0,
      "source": 4
    },
    {
      "sampler": 0,
      "source": 5
    },
    {
      "sampler": 0,
      "source": 6
    },
    {
      "sampler": 0,
      "source": 7
    },
    {
      "sampler": 0,
      "source": 8
    },
    {
      "sampler": 0,
      "source": 9
    },
    {
      "sampler": 0,
      "source": 10
    },
    {
      "sampler": 0,
      "source": 11
    },
    {
      "sampler": 0,
      "source": 12
    },
    {
      "sampler": 0,
      "source": 13
    },
    {
      "sampler": 0,
      "source": 14
    },
    {
      "sampler": 0,
      "source": 15
    },
    {
      "sampler": 0,
      "source": 16
    },
    {
      "sampler": 0,
      "source": 17
    },
    {
      "sampler": 0,
      "source": 18
    },
    {
      "sampler": 0,
      "source": 19
    }
  ]
}