{
  "accessors": [
    {
      "bufferView": 0,
      "componentType": 5125,
      "count": 27651,
      "type": "SCALAR"
    },
    {
      "bufferView": 1,
      "componentType": 5126,
      "count": 17806,
      "max": [
        0.880090236663818,
        0.910322189331055,
        0.0340663567185402
      ],
      "min": [
        -0.879896879196167,
        -0.999996483325958,
        -0.0659414604306221
      ],
      "type": "VEC3"
    },
    {
      "bufferView": 2,
      "componentType": 5126,
      "count": 17806,
      "type": "VEC3"
    },
    {
      "bufferView": 3,
      "componentType": 5126,
      "count": 17806,
      "type": "VEC2"
    },
    {
      "bufferView": 4,
      "componentType": 5125,
      "count": 17556,
      "type": "SCALAR"
    },
    {
      "bufferView": 5,
      "componentType": 5126,
      "count": 11609,
      "max": [
        0.856283605098724,
        -0.647352039813995,
        0.0698316842317581
      ],
      "min": [
        -0.853369653224945,
        -0.980482041835785,
        -0.0441280640661716
      ],
      "type": "VEC3"
    },
    {
      "bufferView": 6,
      "componentType": 5126,
      "count": 11609,
      "type": "VEC3"
    },
    {
      "bufferView": 7,
      "componentType": 5126,
      "count": 11609,
      "type": "VEC2"
    },
    {
      "bufferView": 8,
      "componentType": 5125,
      "count": 14616,
      "type": "SCALAR"
    },
    {
      "bufferView": 9,
      "componentType": 5126,
      "count": 8656,
      "max": [
        0.879830002784729,
        0.911178827285767,
        0.0482890494167805
      ],
      "min": [
        -0.880013942718506,
        -0.999139785766602,
        -0.0326655022799969
      ],
      "type": "VEC3"
    },
    {
      "bufferView": 10,
      "componentType": 5126,
      "count": 8656,
      "type": "VEC3"
    },
    {
      "bufferView": 11,
      "componentType": 5126,
      "count": 8656,
      "type": "VEC2"
    },
    {
      "bufferView": 12,
      "componentType": 5125,
      "count": 1164,
      "type": "SCALAR"
    },
    {
      "bufferView": 13,
      "componentType": 5126,
      "count": 656,
      "max": [
        0.803667187690735,
        0.828196406364441,
        -0.0188817791640759
      ],
      "min": [
        -0.798399031162262,
        -0.920652389526367,
        -0.0354915857315063
      ],
      "type": "VEC3"
    },
    {
      "bufferView": 14,
      "componentType": 5126,
      "count": 656,
      "type": "VEC3"
    },
    {
      "bufferView": 15,
      "componentType": 5126,
      "count": 656,
      "type": "VEC2"
    },
    {
      "bufferView": 16,
      "componentType": 5125,
      "count": 48,
      "type": "SCALAR"
    },
    {
      "bufferView": 17,
      "componentType": 5126,
      "count": 32,
      "max": [
        0.803528368473053,
        0.831585764884949,
        -0.0220014825463295
      ],
      "min": [
        -0.797282218933105,
        -0.920733153820038,
        -0.0371412858366966
      ],
      "type": "VEC3"
    },
    {
      "bufferView": 18,
      "componentType": 5126,
      "count": 32,
      "type": "VEC3"
    },
    {
      "bufferView": 19,
      "componentType": 5126,
      "count": 32,
      "type": "VEC2"
    }
  ],
  "asset": {
    "generator": "Substance Painter 2019.2.1",
    "version": "2.0"
  },
  "bufferViews": [
    {
      "buffer": 0,
      "byteLength": 110604,
      "target": 34963
    },
    {
      "buffer": 0,
      "byteLength": 213672,
      "byteOffset": 110604,
      "target": 34962
    },
    {
      "buffer": 0,
      "byteLength": 213672,
      "byteOffset": 324276,
      "target": 34962
    },
    {
      "buffer": 0,
      "byteLength": 142448,
      "byteOffset": 537948,
      "target": 34962
    },
    {
      "buffer": 0,
      "byteLength": 70224,
      "byteOffset": 680396,
      "target": 34963
    },
    {
      "buffer": 0,
      "byteLength": 139308,
      "byteOffset": 750620,
      "target": 34962
    },
    {
      "buffer": 0,
      "byteLength": 139308,
      "byteOffset": 889928,
      "target": 34962
    },
    {
      "buffer": 0,
      "byteLength": 92872,
      "byteOffset": 1029236,
      "target": 34962
    },
    {
      "buffer": 0,
      "byteLength": 58464,
      "byteOffset": 1122108,
      "target": 34963
    },
    {
      "buffer": 0,
      "byteLength": 103872,
      "byteOffset": 1180572,
      "target": 34962
    },
    {
      "buffer": 0,
      "byteLength": 103872,
      "byteOffset": 1284444,
      "target": 34962
    },
    {
      "buffer": 0,
      "byteLength": 69248,
      "byteOffset": 1388316,
      "target": 34962
    },
    {
      "buffer": 0,
      "byteLength": 4656,
      "byteOffset": 1457564,
      "target": 34963
    },
    {
      "buffer": 0,
      "byteLength": 7872,
      "byteOffset": 1462220,
      "target": 34962
    },
    {
      "buffer": 0,
      "byteLength": 7872,
      "byteOffset": 1470092,
      "target": 34962
    },
    {
      "buffer": 0,
      "byteLength": 5248,
      "byteOffset": 1477964,
      "target": 34962
    },
    {
      "buffer": 0,
      "byteLength": 192,
      "byteOffset": 1483212,
      "target": 34963
    },
    {
      "buffer": 0,
      "byteLength": 384,
      "byteOffset": 1483404,
      "target": 34962
    },
    {
      "buffer": 0,
      "byteLength": 384,
      "byteOffset": 1483788,
      "target": 34962
    },
    {
      "buffer": 0,
      "byteLength": 256,
      "byteOffset": 1484172,
      "target": 34962
    }
  ],
  "buffers": [
    {
      "byteLength": 1484428,
      "uri": "05_W_Casement_Double.bin"
    }
  ],
  "images": [
    {
      "uri": "05_W_Exterior_baseColor.png"
    },
    {
      "uri": "05_W_Exterior_occlusionRoughnessMetallic.png"
    },
    {
      "uri": "05_W_Exterior_normal.png"
    },
    {
      "uri": "05_W_Exterior_emissive.png"
    },
    {
      "uri": "05_W_Glass_baseColor.png"
    },
    {
      "uri": "05_W_Glass_occlusionRoughnessMetallic.png"
    },
    {
      "uri": "05_W_Glass_normal.png"
    },
    {
      "uri": "05_W_Glass_emissive.png"
    },
    {
      "uri": "05_W_Hardware_baseColor.png"
    },
    {
      "uri": "05_W_Hardware_occlusionRoughnessMetallic.png"
    },
    {
      "uri": "05_W_Hardware_normal.png"
    },
    {
      "uri": "05_W_Hardware_emissive.png"
    },
    {
      "uri": "05_W_Interior_baseColor.png"
    },
    {
      "uri": "05_W_Interior_occlusionRoughnessMetallic.png"
    },
    {
      "uri": "05_W_Interior_normal.png"
    },
    {
      "uri": "05_W_Interior_emissive.png"
    },
    {
      "uri": "05_W_Spacers_baseColor.png"
    },
    {
      "uri": "05_W_Spacers_occlusionRoughnessMetallic.png"
    },
    {
      "uri": "05_W_Spacers_normal.png"
    },
    {
      "uri": "05_W_Spacers_emissive.png"
    }
  ],
  "materials": [
    {
      "alphaMode": "OPAQUE",
      "emissiveFactor": [
        1.0,
        1.0,
        1.0
      ],
      "emissiveTexture": {
        "index": 3
      },
      "name": "05_W_Exterior",
      "normalTexture": {
        "index": 2
      },
      "occlusionTexture": {
        "index": 1
      },
      "pbrMetallicRoughness": {
        "baseColorTexture": {
          "index": 0
        },
        "metallicRoughnessTexture": {
          "index": 1
        }
      }
    },
    {
      "alphaMode": "BLEND",
      "emissiveFactor": [
        1.0,
        1.0,
        1.0
      ],
      "emissiveTexture": {
        "index": 7
      },
      "name": "05_W_Glass",
      "normalTexture": {
        "index": 6
      },
      "occlusionTexture": {
        "index": 5
      },
      "pbrMetallicRoughness": {
        "baseColorTexture": {
          "index": 4
        },
        "metallicRoughnessTexture": {
          "index": 5
        }
      }
    },
    {
      "alphaMode": "OPAQUE",
      "emissiveFactor": [
        1.0,
        1.0,
        1.0
      ],
      "emissiveTexture": {
        "index": 11
      },
      "name": "05_W_Hardware",
      "normalTexture": {
        "index": 10
      },
      "occlusionTexture": {
        "index": 9
      },
      "pbrMetallicRoughness": {
        "baseColorTexture": {
          "index": 8
        },
        "metallicRoughnessTexture": {
          "index": 9
        }
      }
    },
    {
      "alphaMode": "OPAQUE",
      "emissiveFactor": [
        1.0,
        1.0,
        1.0
      ],
      "emissiveTexture": {
        "index": 15
      },
      "name": "05_W_Interior",
      "normalTexture": {
        "index": 14
      },
      "occlusionTexture": {
        "index": 13
      },
      "pbrMetallicRoughness": {
        "baseColorTexture": {
          "index": 12
        },
        "metallicRoughnessTexture": {
          "index": 13
        }
      }
    },
    {
      "alphaMode": "OPAQUE",
      "emissiveFactor": [
        1.0,
        1.0,
        1.0
      ],
      "emissiveTexture": {
        "index": 19
      },
      "name": "05_W_Spacers",
      "normalTexture": {
        "index": 18
      },
      "occlusionTexture": {
        "index": 17
      },
      "pbrMetallicRoughness": {
        "baseColorTexture": {
          "index": 16
        },
        "metallicRoughnessTexture": {
          "index": 17
        }
      }
    }
  ],
  "meshes": [
    {
      "name": "05_W_Exterior",
      "primitives": [
        {
          "attributes": {
            "NORMAL": 2,
            "POSITION": 1,
            "TEXCOORD_0": 3
          },
          "indices": 0,
          "material": 0,
          "mode": 4
        }
      ]
    },
    {
      "name": "05_W_Hardware",
      "primitives": [
        {
          "attributes": {
            "NORMAL": 6,
            "POSITION": 5,
            "TEXCOORD_0": 7
          },
          "indices": 4,
          "material": 2,
          "mode": 4
        }
      ]
    },
    {
      "name": "05_W_Interior",
      "primitives": [
        {
          "attributes": {
            "NORMAL": 10,
            "POSITION": 9,
            "TEXCOORD_0": 11
          },
          "indices": 8,
          "material": 3,
          "mode": 4
        }
      ]
    },
    {
      "name": "05_W_Spacer",
      "primitives": [
        {
          "attributes": {
            "NORMAL": 14,
            "POSITION": 13,
            "TEXCOORD_0": 15
          },
          "indices": 12,
          "material": 4,
          "mode": 4
        }
      ]
    },
    {
      "name": "05_W_Glass",
      "primitives": [
        {
          "attributes": {
            "NORMAL": 18,
            "POSITION": 17,
            "TEXCOORD_0": 19
          },
          "indices": 16,
          "material": 1,
          "mode": 4
        }
      ]
    }
  ],
  "nodes": [
    {
      "children": [
        1,
        3,
        5,
        7,
        9
      ],
      "name": "root",
      "scale": [
        27.4793834686279,
        27.4793834686279,
        27.4793834686279
      ],
      "translation": [
        -0.002655029296875,
        27.479284286499,
        0.220285534858704
      ]
    },
    {
      "children": [
        2
      ],
      "name": "05_W_Exterior"
    },
    {
      "mesh": 0,
      "name": "05_W_Exterior"
    },
    {
      "children": [
        4
      ],
      "name": "05_W_Hardware"
    },
    {
      "mesh": 1,
      "name": "05_W_Hardware"
    },
    {
      "children": [
        6
      ],
      "name": "05_W_Interior"
    },
    {
      "mesh": 2,
      "name": "05_W_Interior"
    },
    {
      "children": [
        8
      ],
      "name": "05_W_Spacer"
    },
    {
      "mesh": 3,
      "name": "05_W_Spacer"
    },
    {
      "children": [
        10
      ],
      "name": "05_W_Glass"
    },
    {
      "mesh": 4,
      "name": "05_W_Glass"
    }
  ],
  "samplers": [
    {
      "magFilter": 9729,
      "minFilter": 9985,
      "wrapS": 10497,
      "wrapT": 10497
    }
  ],
  "scene": 0,
  "scenes": [
    {
      "name": "Scene",
      "nodes": [
        0
      ]
    }
  ],
  "textures": [
    {
      "sampler": 0,
      "source": 0
    },
    {
      "sampler": 0,
      "source": 1
    },
    {
      "sampler": 0,
      "source": 2
    },
    {
      "sampler": 0,
      "source": 3
    },
    {
      "sampler": 0,
      "source": 4
    },
    {
      "sampler": 0,
      "source": 5
    },
    {
      "sampler": 0,
      "source": 6
    },
    {
      "sampler": 0,
      "source": 7
    },
    {
      "sampler": 0,
      "source": 8
    },
    {
      "sampler": 0,
      "source": 9
    },
    {
      "sampler": 0,
      "source": 10
    },
    {
      "sampler": 0,
      "source": 11
    },
    {
      "sampler": 0,
      "source": 12
    },
    {
      "sampler": 0,
      "source": 13
    },
    {
      "sampler": 0,
      "source": 14
    },
    {
      "sampler": 0,
      "source": 15
    },
    {
      "sampler": 0,
      "source": 16
    },
    {
      "sampler": 0,
      "source": 17
    },
    {
      "sampler": 0,
      "source": 18
    },
    {
      "sampler": 0,
      "source": 19
    }
  ]
}