{
  "accessors": [
    {
      "bufferView": 0,
      "componentType": 5125,
      "count": 720,
      "type": "SCALAR"
    },
    {
      "bufferView": 1,
      "componentType": 5126,
      "count": 416,
      "max": [
        0.803667664527893,
        0.828196883201599,
        -0.0188820715993643
      ],
      "min": [
        -0.793541431427002,
        -0.920652985572815,
        -0.0354916043579578
      ],
      "type": "VEC3"
    },
    {
      "bufferView": 2,
      "componentType": 5126,
      "count": 416,
      "type": "VEC3"
    },
    {
      "bufferView": 3,
      "componentType": 5126,
      "count": 416,
      "type": "VEC2"
    },
    {
      "bufferView": 4,
      "componentType": 5125,
      "count": 48,
      "type": "SCALAR"
    },
    {
      "bufferView": 5,
      "componentType": 5126,
      "count": 32,
      "max": [
        0.803528845310211,
        0.831586360931396,
        -0.018271429464221
      ],
      "min": [
        -0.797282695770264,
        -0.920733690261841,
        -0.0408997684717178
      ],
      "type": "VEC3"
    },
    {
      "bufferView": 6,
      "componentType": 5126,
      "count": 32,
      "type": "VEC3"
    },
    {
      "bufferView": 7,
      "componentType": 5126,
      "count": 32,
      "type": "VEC2"
    },
    {
      "bufferView": 8,
      "componentType": 5125,
      "count": 27651,
      "type": "SCALAR"
    },
    {
      "bufferView": 9,
      "componentType": 5126,
      "count": 12276,
      "max": [
        0.880090773105621,
        0.910322785377502,
        0.0340662375092506
      ],
      "min": [
        -0.879897475242615,
        -0.999996960163116,
        -0.065941333770752
      ],
      "type": "VEC3"
    },
    {
      "bufferView": 10,
      "componentType": 5126,
      "count": 12276,
      "type": "VEC3"
    },
    {
      "bufferView": 11,
      "componentType": 5126,
      "count": 12276,
      "type": "VEC2"
    },
    {
      "bufferView": 12,
      "componentType": 5125,
      "count": 17556,
      "type": "SCALAR"
    },
    {
      "bufferView": 13,
      "componentType": 5126,
      "count": 8328,
      "max": [
        0.856284141540527,
        -0.647351980209351,
        0.0698317289352417
      ],
      "min": [
        -0.853370189666748,
        -0.980482161045074,
        -0.0441280715167522
      ],
      "type": "VEC3"
    },
    {
      "bufferView": 14,
      "componentType": 5126,
      "count": 8328,
      "type": "VEC3"
    },
    {
      "bufferView": 15,
      "componentType": 5126,
      "count": 8328,
      "type": "VEC2"
    },
    {
      "bufferView": 16,
      "componentType": 5125,
      "count": 14616,
      "type": "SCALAR"
    },
    {
      "bufferView": 17,
      "componentType": 5126,
      "count": 5789,
      "max": [
        0.880090713500977,
        0.910322785377502,
        0.0499083884060383
      ],
      "min": [
        -0.879754245281219,
        -0.999996900558472,
        -0.0310459285974503
      ],
      "type": "VEC3"
    },
    {
      "bufferView": 18,
      "componentType": 5126,
      "count": 5789,
      "type": "VEC3"
    },
    {
      "bufferView": 19,
      "componentType": 5126,
      "count": 5789,
      "type": "VEC2"
    }
  ],
  "asset": {
    "generator": "Substance Painter 2019.2.1",
    "version": "2.0"
  },
  "bufferViews": [
    {
      "buffer": 0,
      "byteLength": 2880,
      "target": 34963
    },
    {
      "buffer": 0,
      "byteLength": 4992,
      "byteOffset": 2880,
      "target": 34962
    },
    {
      "buffer": 0,
      "byteLength": 4992,
      "byteOffset": 7872,
      "target": 34962
    },
    {
      "buffer": 0,
      "byteLength": 3328,
      "byteOffset": 12864,
      "target": 34962
    },
    {
      "buffer": 0,
      "byteLength": 192,
      "byteOffset": 16192,
      "target": 34963
    },
    {
      "buffer": 0,
      "byteLength": 384,
      "byteOffset": 16384,
      "target": 34962
    },
    {
      "buffer": 0,
      "byteLength": 384,
      "byteOffset": 16768,
      "target": 34962
    },
    {
      "buffer": 0,
      "byteLength": 256,
      "byteOffset": 17152,
      "target": 34962
    },
    {
      "buffer": 0,
      "byteLength": 110604,
      "byteOffset": 17408,
      "target": 34963
    },
    {
      "buffer": 0,
      "byteLength": 147312,
      "byteOffset": 128012,
      "target": 34962
    },
    {
      "buffer": 0,
      "byteLength": 147312,
      "byteOffset": 275324,
      "target": 34962
    },
    {
      "buffer": 0,
      "byteLength": 98208,
      "byteOffset": 422636,
      "target": 34962
    },
    {
      "buffer": 0,
      "byteLength": 70224,
      "byteOffset": 520844,
      "target": 34963
    },
    {
      "buffer": 0,
      "byteLength": 99936,
      "byteOffset": 591068,
      "target": 34962
    },
    {
      "buffer": 0,
      "byteLength": 99936,
      "byteOffset": 691004,
      "target": 34962
    },
    {
      "buffer": 0,
      "byteLength": 66624,
      "byteOffset": 790940,
      "target": 34962
    },
    {
      "buffer": 0,
      "byteLength": 58464,
      "byteOffset": 857564,
      "target": 34963
    },
    {
      "buffer": 0,
      "byteLength": 69468,
      "byteOffset": 916028,
      "target": 34962
    },
    {
      "buffer": 0,
      "byteLength": 69468,
      "byteOffset": 985496,
      "target": 34962
    },
    {
      "buffer": 0,
      "byteLength": 46312,
      "byteOffset": 1054964,
      "target": 34962
    }
  ],
  "buffers": [
    {
      "byteLength": 1101276,
      "uri": "05_W_Casement_Double.bin"
    }
  ],
  "images": [
    {
      "uri": "05_W_Exterior_baseColor.png"
    },
    {
      "uri": "05_W_Exterior_occlusionRoughnessMetallic.png"
    },
    {
      "uri": "05_W_Exterior_normal.png"
    },
    {
      "uri": "05_W_Exterior_emissive.png"
    },
    {
      "uri": "05_W_Glass_baseColor.png"
    },
    {
      "uri": "05_W_Glass_occlusionRoughnessMetallic.png"
    },
    {
      "uri": "05_W_Glass_normal.png"
    },
    {
      "uri": "05_W_Glass_emissive.png"
    },
    {
      "uri": "05_W_Hardware_baseColor.png"
    },
    {
      "uri": "05_W_Hardware_occlusionRoughnessMetallic.png"
    },
    {
      "uri": "05_W_Hardware_normal.png"
    },
    {
      "uri": "05_W_Hardware_emissive.png"
    },
    {
      "uri": "05_W_Interior_baseColor.png"
    },
    {
      "uri": "05_W_Interior_occlusionRoughnessMetallic.png"
    },
    {
      "uri": "05_W_Interior_normal.png"
    },
    {
      "uri": "05_W_Interior_emissive.png"
    },
    {
      "uri": "05_W_Spacers_baseColor.png"
    },
    {
      "uri": "05_W_Spacers_occlusionRoughnessMetallic.png"
    },
    {
      "uri": "05_W_Spacers_normal.png"
    },
    {
      "uri": "05_W_Spacers_emissive.png"
    }
  ],
  "materials": [
    {
      "alphaMode": "OPAQUE",
      "emissiveFactor": [
        1.0,
        1.0,
        1.0
      ],
      "emissiveTexture": {
        "index": 3
      },
      "name": "05_W_Exterior",
      "normalTexture": {
        "index": 2
      },
      "occlusionTexture": {
        "index": 1
      },
      "pbrMetallicRoughness": {
        "baseColorTexture": {
          "index": 0
        },
        "metallicRoughnessTexture": {
          "index": 1
        }
      }
    },
    {
      "alphaMode": "BLEND",
      "emissiveFactor": [
        1.0,
        1.0,
        1.0
      ],
      "emissiveTexture": {
        "index": 7
      },
      "name": "05_W_Glass",
      "normalTexture": {
        "index": 6
      },
      "occlusionTexture": {
        "index": 5
      },
      "pbrMetallicRoughness": {
        "baseColorTexture": {
          "index": 4
        },
        "metallicRoughnessTexture": {
          "index": 5
        }
      }
    },
    {
      "alphaMode": "OPAQUE",
      "emissiveFactor": [
        1.0,
        1.0,
        1.0
      ],
      "emissiveTexture": {
        "index": 11
      },
      "name": "05_W_Hardware",
      "normalTexture": {
        "index": 10
      },
      "occlusionTexture": {
        "index": 9
      },
      "pbrMetallicRoughness": {
        "baseColorTexture": {
          "index": 8
        },
        "metallicRoughnessTexture": {
          "index": 9
        }
      }
    },
    {
      "alphaMode": "OPAQUE",
      "emissiveFactor": [
        1.0,
        1.0,
        1.0
      ],
      "emissiveTexture": {
        "index": 15
      },
      "name": "05_W_Interior",
      "normalTexture": {
        "index": 14
      },
      "occlusionTexture": {
        "index": 13
      },
      "pbrMetallicRoughness": {
        "baseColorTexture": {
          "index": 12
        },
        "metallicRoughnessTexture": {
          "index": 13
        }
      }
    },
    {
      "alphaMode": "OPAQUE",
      "emissiveFactor": [
        1.0,
        1.0,
        1.0
      ],
      "emissiveTexture": {
        "index": 19
      },
      "name": "05_W_Spacers",
      "normalTexture": {
        "index": 18
      },
      "occlusionTexture": {
        "index": 17
      },
      "pbrMetallicRoughness": {
        "baseColorTexture": {
          "index": 16
        },
        "metallicRoughnessTexture": {
          "index": 17
        }
      }
    }
  ],
  "meshes": [
    {
      "name": "05_W_Spacer",
      "primitives": [
        {
          "attributes": {
            "NORMAL": 2,
            "POSITION": 1,
            "TEXCOORD_0": 3
          },
          "indices": 0,
          "material": 4,
          "mode": 4
        }
      ]
    },
    {
      "name": "05_W_Glass",
      "primitives": [
        {
          "attributes": {
            "NORMAL": 6,
            "POSITION": 5,
            "TEXCOORD_0": 7
          },
          "indices": 4,
          "material": 1,
          "mode": 4
        }
      ]
    },
    {
      "name": "05_W_Exterior",
      "primitives": [
        {
          "attributes": {
            "NORMAL": 10,
            "POSITION": 9,
            "TEXCOORD_0": 11
          },
          "indices": 8,
          "material": 0,
          "mode": 4
        }
      ]
    },
    {
      "name": "05_W_Hardware",
      "primitives": [
        {
          "attributes": {
            "NORMAL": 14,
            "POSITION": 13,
            "TEXCOORD_0": 15
          },
          "indices": 12,
          "material": 2,
          "mode": 4
        }
      ]
    },
    {
      "name": "05_W_Interior",
      "primitives": [
        {
          "attributes": {
            "NORMAL": 18,
            "POSITION": 17,
            "TEXCOORD_0": 19
          },
          "indices": 16,
          "material": 3,
          "mode": 4
        }
      ]
    }
  ],
  "nodes": [
    {
      "children": [
        1,
        3,
        5,
        7,
        9
      ],
      "name": "root",
      "scale": [
        27.4793834686279,
        27.4793834686279,
        27.4793834686279
      ],
      "translation": [
        -0.002655029296875,
        27.479284286499,
        0.220285534858704
      ]
    },
    {
      "children": [
        2
      ],
      "name": "05_W_Spacer"
    },
    {
      "mesh": 0,
      "name": "05_W_Spacer"
    },
    {
      "children": [
        4
      ],
      "name": "05_W_Glass"
    },
    {
      "mesh": 1,
      "name": "05_W_Glass"
    },
    {
      "children": [
        6
      ],
      "name": "05_W_Exterior"
    },
    {
      "mesh": 2,
      "name": "05_W_Exterior"
    },
    {
      "children": [
        8
      ],
      "name": "05_W_Hardware"
    },
    {
      "mesh": 3,
      "name": "05_W_Hardware"
    },
    {
      "children": [
        10
      ],
      "name": "05_W_Interior"
    },
    {
      "mesh": 4,
      "name": "05_W_Interior"
    }
  ],
  "samplers": [
    {
      "magFilter": 9729,
      "minFilter": 9985,
      "wrapS": 10497,
      "wrapT": 10497
    }
  ],
  "scene": 0,
  "scenes": [
    {
      "name": "Scene",
      "nodes": [
        0
      ]
    }
  ],
  "textures": [
    {
      "sampler": 0,
      "source": 0
    },
    {
      "sampler": 0,
      "source": 1
    },
    {
      "sampler": 0,
      "source": 2
    },
    {
      "sampler": 0,
      "source": 3
    },
    {
      "sampler": 0,
      "source": 4
    },
    {
      "sampler": 0,
      "source": 5
    },
    {
      "sampler": 0,
      "source": 6
    },
    {
      "sampler": 0,
      "source": 7
    },
    {
      "sampler": 0,
      "source": 8
    },
    {
      "sampler": 0,
      "source": 9
    },
    {
      "sampler": 0,
      "source": 10
    },
    {
      "sampler": 0,
      "source": 11
    },
    {
      "sampler": 0,
      "source": 12
    },
    {
      "sampler": 0,
      "source": 13
    },
    {
      "sampler": 0,
      "source": 14
    },
    {
      "sampler": 0,
      "source": 15
    },
    {
      "sampler": 0,
      "source": 16
    },
    {
      "sampler": 0,
      "source": 17
    },
    {
      "sampler": 0,
      "source": 18
    },
    {
      "sampler": 0,
      "source": 19
    }
  ]
}