{
  "accessors": [
    {
      "bufferView": 0,
      "componentType": 5125,
      "count": 12174,
      "type": "SCALAR"
    },
    {
      "bufferView": 1,
      "componentType": 5126,
      "count": 8209,
      "max": [
        0.994515597820282,
        0.823710143566132,
        -0.0132923247292638
      ],
      "min": [
        -0.996720254421234,
        -0.823706030845642,
        -0.0548708848655224
      ],
      "type": "VEC3"
    },
    {
      "bufferView": 2,
      "componentType": 5126,
      "count": 8209,
      "type": "VEC3"
    },
    {
      "bufferView": 3,
      "componentType": 5126,
      "count": 8209,
      "type": "VEC2"
    },
    {
      "bufferView": 4,
      "componentType": 5125,
      "count": 72,
      "type": "SCALAR"
    },
    {
      "bufferView": 5,
      "componentType": 5126,
      "count": 48,
      "max": [
        0.959980726242065,
        0.760760068893433,
        -0.0135301202535629
      ],
      "min": [
        -0.951932311058044,
        -0.766382336616516,
        -0.0331180021166801
      ],
      "type": "VEC3"
    },
    {
      "bufferView": 6,
      "componentType": 5126,
      "count": 48,
      "type": "VEC3"
    },
    {
      "bufferView": 7,
      "componentType": 5126,
      "count": 48,
      "type": "VEC2"
    },
    {
      "bufferView": 8,
      "componentType": 5125,
      "count": 738,
      "type": "SCALAR"
    },
    {
      "bufferView": 9,
      "componentType": 5126,
      "count": 428,
      "max": [
        0.939512073993683,
        0.752984583377838,
        -0.0178221371024847
      ],
      "min": [
        -0.941849529743195,
        -0.748726487159729,
        -0.0312189217656851
      ],
      "type": "VEC3"
    },
    {
      "bufferView": 10,
      "componentType": 5126,
      "count": 428,
      "type": "VEC3"
    },
    {
      "bufferView": 11,
      "componentType": 5126,
      "count": 428,
      "type": "VEC2"
    },
    {
      "bufferView": 12,
      "componentType": 5125,
      "count": 8838,
      "type": "SCALAR"
    },
    {
      "bufferView": 13,
      "componentType": 5126,
      "count": 7252,
      "max": [
        0.999999940395355,
        0.826104998588562,
        0.0274264868348837
      ],
      "min": [
        -0.999999940395355,
        -0.826104998588562,
        -0.0538942441344261
      ],
      "type": "VEC3"
    },
    {
      "bufferView": 14,
      "componentType": 5126,
      "count": 7252,
      "type": "VEC3"
    },
    {
      "bufferView": 15,
      "componentType": 5126,
      "count": 7252,
      "type": "VEC2"
    },
    {
      "bufferView": 16,
      "componentType": 5125,
      "count": 8916,
      "type": "SCALAR"
    },
    {
      "bufferView": 17,
      "componentType": 5126,
      "count": 6725,
      "max": [
        0.994516313076019,
        0.825803756713867,
        0.0405399687588215
      ],
      "min": [
        -0.996778249740601,
        -0.821613430976868,
        -0.0341048017144203
      ],
      "type": "VEC3"
    },
    {
      "bufferView": 18,
      "componentType": 5126,
      "count": 6725,
      "type": "VEC3"
    },
    {
      "bufferView": 19,
      "componentType": 5126,
      "count": 6725,
      "type": "VEC2"
    },
    {
      "bufferView": 20,
      "componentType": 5125,
      "count": 87498,
      "type": "SCALAR"
    },
    {
      "bufferView": 21,
      "componentType": 5126,
      "count": 54067,
      "max": [
        0.906956493854523,
        0.742304146289825,
        0.0548708774149418
      ],
      "min": [
        -0.904980003833771,
        -0.805862724781036,
        -0.0418738275766373
      ],
      "type": "VEC3"
    },
    {
      "bufferView": 22,
      "componentType": 5126,
      "count": 54067,
      "type": "VEC3"
    },
    {
      "bufferView": 23,
      "componentType": 5126,
      "count": 54067,
      "type": "VEC2"
    }
  ],
  "asset": {
    "generator": "Substance Painter 2019.2.1",
    "version": "2.0"
  },
  "bufferViews": [
    {
      "buffer": 0,
      "byteLength": 48696,
      "target": 34963
    },
    {
      "buffer": 0,
      "byteLength": 98508,
      "byteOffset": 48696,
      "target": 34962
    },
    {
      "buffer": 0,
      "byteLength": 98508,
      "byteOffset": 147204,
      "target": 34962
    },
    {
      "buffer": 0,
      "byteLength": 65672,
      "byteOffset": 245712,
      "target": 34962
    },
    {
      "buffer": 0,
      "byteLength": 288,
      "byteOffset": 311384,
      "target": 34963
    },
    {
      "buffer": 0,
      "byteLength": 576,
      "byteOffset": 311672,
      "target": 34962
    },
    {
      "buffer": 0,
      "byteLength": 576,
      "byteOffset": 312248,
      "target": 34962
    },
    {
      "buffer": 0,
      "byteLength": 384,
      "byteOffset": 312824,
      "target": 34962
    },
    {
      "buffer": 0,
      "byteLength": 2952,
      "byteOffset": 313208,
      "target": 34963
    },
    {
      "buffer": 0,
      "byteLength": 5136,
      "byteOffset": 316160,
      "target": 34962
    },
    {
      "buffer": 0,
      "byteLength": 5136,
      "byteOffset": 321296,
      "target": 34962
    },
    {
      "buffer": 0,
      "byteLength": 3424,
      "byteOffset": 326432,
      "target": 34962
    },
    {
      "buffer": 0,
      "byteLength": 35352,
      "byteOffset": 329856,
      "target": 34963
    },
    {
      "buffer": 0,
      "byteLength": 87024,
      "byteOffset": 365208,
      "target": 34962
    },
    {
      "buffer": 0,
      "byteLength": 87024,
      "byteOffset": 452232,
      "target": 34962
    },
    {
      "buffer": 0,
      "byteLength": 58016,
      "byteOffset": 539256,
      "target": 34962
    },
    {
      "buffer": 0,
      "byteLength": 35664,
      "byteOffset": 597272,
      "target": 34963
    },
    {
      "buffer": 0,
      "byteLength": 80700,
      "byteOffset": 632936,
      "target": 34962
    },
    {
      "buffer": 0,
      "byteLength": 80700,
      "byteOffset": 713636,
      "target": 34962
    },
    {
      "buffer": 0,
      "byteLength": 53800,
      "byteOffset": 794336,
      "target": 34962
    },
    {
      "buffer": 0,
      "byteLength": 349992,
      "byteOffset": 848136,
      "target": 34963
    },
    {
      "buffer": 0,
      "byteLength": 648804,
      "byteOffset": 1198128,
      "target": 34962
    },
    {
      "buffer": 0,
      "byteLength": 648804,
      "byteOffset": 1846932,
      "target": 34962
    },
    {
      "buffer": 0,
      "byteLength": 432536,
      "byteOffset": 2495736,
      "target": 34962
    }
  ],
  "buffers": [
    {
      "byteLength": 2928272,
      "uri": "06_W_CasementTriple_v01.bin"
    }
  ],
  "images": [
    {
      "uri": "06_W_Exterior_baseColor.png"
    },
    {
      "uri": "06_W_Exterior_occlusionRoughnessMetallic.png"
    },
    {
      "uri": "06_W_Exterior_normal.png"
    },
    {
      "uri": "06_W_Exterior_emissive.png"
    },
    {
      "uri": "06_W_Glass_baseColor.png"
    },
    {
      "uri": "06_W_Glass_occlusionRoughnessMetallic.png"
    },
    {
      "uri": "06_W_Glass_normal.png"
    },
    {
      "uri": "06_W_Glass_emissive.png"
    },
    {
      "uri": "06_W_Gray_baseColor.png"
    },
    {
      "uri": "06_W_Gray_occlusionRoughnessMetallic.png"
    },
    {
      "uri": "06_W_Gray_normal.png"
    },
    {
      "uri": "06_W_Gray_emissive.png"
    },
    {
      "uri": "06_W_Hardware_baseColor.png"
    },
    {
      "uri": "06_W_Hardware_occlusionRoughnessMetallic.png"
    },
    {
      "uri": "06_W_Hardware_normal.png"
    },
    {
      "uri": "06_W_Hardware_emissive.png"
    },
    {
      "uri": "06_W_Interior_baseColor.png"
    },
    {
      "uri": "06_W_Interior_occlusionRoughnessMetallic.png"
    },
    {
      "uri": "06_W_Interior_normal.png"
    },
    {
      "uri": "06_W_Interior_emissive.png"
    },
    {
      "uri": "06_W_Spacer_baseColor.png"
    },
    {
      "uri": "06_W_Spacer_occlusionRoughnessMetallic.png"
    },
    {
      "uri": "06_W_Spacer_normal.png"
    }
  ],
  "materials": [
    {
      "alphaMode": "OPAQUE",
      "emissiveFactor": [
        1.0,
        1.0,
        1.0
      ],
      "emissiveTexture": {
        "index": 3
      },
      "name": "06_W_Exterior",
      "normalTexture": {
        "index": 2
      },
      "occlusionTexture": {
        "index": 1
      },
      "pbrMetallicRoughness": {
        "baseColorTexture": {
          "index": 0
        },
        "metallicRoughnessTexture": {
          "index": 1
        }
      }
    },
    {
      "alphaMode": "BLEND",
      "emissiveFactor": [
        1.0,
        1.0,
        1.0
      ],
      "emissiveTexture": {
        "index": 7
      },
      "name": "06_W_Glass",
      "normalTexture": {
        "index": 6
      },
      "occlusionTexture": {
        "index": 5
      },
      "pbrMetallicRoughness": {
        "baseColorTexture": {
          "index": 4
        },
        "metallicRoughnessTexture": {
          "index": 5
        }
      }
    },
    {
      "alphaMode": "OPAQUE",
      "emissiveFactor": [
        1.0,
        1.0,
        1.0
      ],
      "emissiveTexture": {
        "index": 11
      },
      "name": "06_W_Gray",
      "normalTexture": {
        "index": 10
      },
      "occlusionTexture": {
        "index": 9
      },
      "pbrMetallicRoughness": {
        "baseColorTexture": {
          "index": 8
        },
        "metallicRoughnessTexture": {
          "index": 9
        }
      }
    },
    {
      "alphaMode": "OPAQUE",
      "emissiveFactor": [
        1.0,
        1.0,
        1.0
      ],
      "emissiveTexture": {
        "index": 15
      },
      "name": "06_W_Hardware",
      "normalTexture": {
        "index": 14
      },
      "occlusionTexture": {
        "index": 13
      },
      "pbrMetallicRoughness": {
        "baseColorTexture": {
          "index": 12
        },
        "metallicRoughnessTexture": {
          "index": 13
        }
      }
    },
    {
      "alphaMode": "OPAQUE",
      "emissiveFactor": [
        1.0,
        1.0,
        1.0
      ],
      "emissiveTexture": {
        "index": 19
      },
      "name": "06_W_Interior",
      "normalTexture": {
        "index": 18
      },
      "occlusionTexture": {
        "index": 17
      },
      "pbrMetallicRoughness": {
        "baseColorTexture": {
          "index": 16
        },
        "metallicRoughnessTexture": {
          "index": 17
        }
      }
    },
    {
      "alphaMode": "OPAQUE",
      "name": "06_W_Spacer",
      "normalTexture": {
        "index": 22
      },
      "occlusionTexture": {
        "index": 21
      },
      "pbrMetallicRoughness": {
        "baseColorTexture": {
          "index": 20
        },
        "metallicRoughnessTexture": {
          "index": 21
        }
      }
    }
  ],
  "meshes": [
    {
      "name": "06_W_Exterior",
      "primitives": [
        {
          "attributes": {
            "NORMAL": 2,
            "POSITION": 1,
            "TEXCOORD_0": 3
          },
          "indices": 0,
          "material": 0,
          "mode": 4
        }
      ]
    },
    {
      "name": "06_W_Glass",
      "primitives": [
        {
          "attributes": {
            "NORMAL": 6,
            "POSITION": 5,
            "TEXCOORD_0": 7
          },
          "indices": 4,
          "material": 1,
          "mode": 4
        }
      ]
    },
    {
      "name": "06_W_Spacer",
      "primitives": [
        {
          "attributes": {
            "NORMAL": 10,
            "POSITION": 9,
            "TEXCOORD_0": 11
          },
          "indices": 8,
          "material": 5,
          "mode": 4
        }
      ]
    },
    {
      "name": "06_W_Gray",
      "primitives": [
        {
          "attributes": {
            "NORMAL": 14,
            "POSITION": 13,
            "TEXCOORD_0": 15
          },
          "indices": 12,
          "material": 2,
          "mode": 4
        }
      ]
    },
    {
      "name": "06_W_Interior",
      "primitives": [
        {
          "attributes": {
            "NORMAL": 18,
            "POSITION": 17,
            "TEXCOORD_0": 19
          },
          "indices": 16,
          "material": 4,
          "mode": 4
        }
      ]
    },
    {
      "name": "06_W_Hardware",
      "primitives": [
        {
          "attributes": {
            "NORMAL": 22,
            "POSITION": 21,
            "TEXCOORD_0": 23
          },
          "indices": 20,
          "material": 3,
          "mode": 4
        }
      ]
    }
  ],
  "nodes": [
    {
      "children": [
        1,
        3,
        5,
        7,
        9,
        11
      ],
      "name": "root",
      "scale": [
        0.8317751288414,
        0.8317751288414,
        0.8317751288414
      ],
      "translation": [
        0.00389701128005981,
        0.682803332805634,
        0.00518639385700226
      ]
    },
    {
      "children": [
        2
      ],
      "name": "06_W_Exterior"
    },
    {
      "mesh": 0,
      "name": "06_W_Exterior"
    },
    {
      "children": [
        4
      ],
      "name": "06_W_Glass"
    },
    {
      "mesh": 1,
      "name": "06_W_Glass"
    },
    {
      "children": [
        6
      ],
      "name": "06_W_Spacer"
    },
    {
      "mesh": 2,
      "name": "06_W_Spacer"
    },
    {
      "children": [
        8
      ],
      "name": "06_W_Gray"
    },
    {
      "mesh": 3,
      "name": "06_W_Gray"
    },
    {
      "children": [
        10
      ],
      "name": "06_W_Interior"
    },
    {
      "mesh": 4,
      "name": "06_W_Interior"
    },
    {
      "children": [
        12
      ],
      "name": "06_W_Hardware"
    },
    {
      "mesh": 5,
      "name": "06_W_Hardware"
    }
  ],
  "samplers": [
    {
      "magFilter": 9729,
      "minFilter": 9985,
      "wrapS": 10497,
      "wrapT": 10497
    }
  ],
  "scene": 0,
  "scenes": [
    {
      "name": "Scene",
      "nodes": [
        0
      ]
    }
  ],
  "textures": [
    {
      "sampler": 0,
      "source": 0
    },
    {
      "sampler": 0,
      "source": 1
    },
    {
      "sampler": 0,
      "source": 2
    },
    {
      "sampler": 0,
      "source": 3
    },
    {
      "sampler": 0,
      "source": 4
    },
    {
      "sampler": 0,
      "source": 5
    },
    {
      "sampler": 0,
      "source": 6
    },
    {
      "sampler": 0,
      "source": 7
    },
    {
      "sampler": 0,
      "source": 8
    },
    {
      "sampler": 0,
      "source": 9
    },
    {
      "sampler": 0,
      "source": 10
    },
    {
      "sampler": 0,
      "source": 11
    },
    {
      "sampler": 0,
      "source": 12
    },
    {
      "sampler": 0,
      "source": 13
    },
    {
      "sampler": 0,
      "source": 14
    },
    {
      "sampler": 0,
      "source": 15
    },
    {
      "sampler": 0,
      "source": 16
    },
    {
      "sampler": 0,
      "source": 17
    },
    {
      "sampler": 0,
      "source": 18
    },
    {
      "sampler": 0,
      "source": 19
    },
    {
      "sampler": 0,
      "source": 20
    },
    {
      "sampler": 0,
      "source": 21
    },
    {
      "sampler": 0,
      "source": 22
    }
  ]
}