{
  "accessors": [
    {
      "bufferView": 0,
      "componentType": 5125,
      "count": 8916,
      "type": "SCALAR"
    },
    {
      "bufferView": 1,
      "componentType": 5126,
      "count": 4500,
      "max": [
        1.53392493724823,
        1.52874827384949,
        0.0638127103447914
      ],
      "min": [
        -1.52398896217346,
        -1.00109362602234,
        -0.0508150868117809
      ],
      "type": "VEC3"
    },
    {
      "bufferView": 2,
      "componentType": 5126,
      "count": 4500,
      "type": "VEC3"
    },
    {
      "bufferView": 3,
      "componentType": 5126,
      "count": 4500,
      "type": "VEC2"
    },
    {
      "bufferView": 4,
      "componentType": 5125,
      "count": 12174,
      "type": "SCALAR"
    },
    {
      "bufferView": 5,
      "componentType": 5126,
      "count": 7013,
      "max": [
        1.53392374515533,
        1.5255331993103,
        -0.0188545919954777
      ],
      "min": [
        -1.52389991283417,
        -1.00430727005005,
        -0.08270363509655
      ],
      "type": "VEC3"
    },
    {
      "bufferView": 6,
      "componentType": 5126,
      "count": 7013,
      "type": "VEC3"
    },
    {
      "bufferView": 7,
      "componentType": 5126,
      "count": 7013,
      "type": "VEC2"
    },
    {
      "bufferView": 8,
      "componentType": 5125,
      "count": 72,
      "type": "SCALAR"
    },
    {
      "bufferView": 9,
      "componentType": 5126,
      "count": 48,
      "max": [
        1.48089075088501,
        1.42886447906494,
        -0.0192197598516941
      ],
      "min": [
        -1.45512175559998,
        -0.916278481483459,
        -0.0492985732853413
      ],
      "type": "VEC3"
    },
    {
      "bufferView": 10,
      "componentType": 5126,
      "count": 48,
      "type": "VEC3"
    },
    {
      "bufferView": 11,
      "componentType": 5126,
      "count": 48,
      "type": "VEC2"
    },
    {
      "bufferView": 12,
      "componentType": 5125,
      "count": 210,
      "type": "SCALAR"
    },
    {
      "bufferView": 13,
      "componentType": 5126,
      "count": 140,
      "max": [
        1.44945824146271,
        1.41692399978638,
        -0.0258107520639896
      ],
      "min": [
        -1.43963837623596,
        -0.88916552066803,
        -0.0463822744786739
      ],
      "type": "VEC3"
    },
    {
      "bufferView": 14,
      "componentType": 5126,
      "count": 140,
      "type": "VEC3"
    },
    {
      "bufferView": 15,
      "componentType": 5126,
      "count": 140,
      "type": "VEC2"
    },
    {
      "bufferView": 16,
      "componentType": 5125,
      "count": 8850,
      "type": "SCALAR"
    },
    {
      "bufferView": 17,
      "componentType": 5126,
      "count": 4537,
      "max": [
        1.5423458814621,
        1.52921080589294,
        0.0436748526990414
      ],
      "min": [
        -1.5289363861084,
        -1.00799107551575,
        -0.0812033787369728
      ],
      "type": "VEC3"
    },
    {
      "bufferView": 18,
      "componentType": 5126,
      "count": 4537,
      "type": "VEC3"
    },
    {
      "bufferView": 19,
      "componentType": 5126,
      "count": 4537,
      "type": "VEC2"
    },
    {
      "bufferView": 20,
      "componentType": 5125,
      "count": 32244,
      "type": "SCALAR"
    },
    {
      "bufferView": 21,
      "componentType": 5126,
      "count": 16032,
      "max": [
        1.39946448802948,
        1.40052270889282,
        0.0900723040103912
      ],
      "min": [
        -1.38302004337311,
        -0.97690623998642,
        -0.0627443492412567
      ],
      "type": "VEC3"
    },
    {
      "bufferView": 22,
      "componentType": 5126,
      "count": 16032,
      "type": "VEC3"
    },
    {
      "bufferView": 23,
      "componentType": 5126,
      "count": 16032,
      "type": "VEC2"
    }
  ],
  "asset": {
    "generator": "Substance Painter 2019.2.1",
    "version": "2.0"
  },
  "bufferViews": [
    {
      "buffer": 0,
      "byteLength": 35664,
      "target": 34963
    },
    {
      "buffer": 0,
      "byteLength": 54000,
      "byteOffset": 35664,
      "target": 34962
    },
    {
      "buffer": 0,
      "byteLength": 54000,
      "byteOffset": 89664,
      "target": 34962
    },
    {
      "buffer": 0,
      "byteLength": 36000,
      "byteOffset": 143664,
      "target": 34962
    },
    {
      "buffer": 0,
      "byteLength": 48696,
      "byteOffset": 179664,
      "target": 34963
    },
    {
      "buffer": 0,
      "byteLength": 84156,
      "byteOffset": 228360,
      "target": 34962
    },
    {
      "buffer": 0,
      "byteLength": 84156,
      "byteOffset": 312516,
      "target": 34962
    },
    {
      "buffer": 0,
      "byteLength": 56104,
      "byteOffset": 396672,
      "target": 34962
    },
    {
      "buffer": 0,
      "byteLength": 288,
      "byteOffset": 452776,
      "target": 34963
    },
    {
      "buffer": 0,
      "byteLength": 576,
      "byteOffset": 453064,
      "target": 34962
    },
    {
      "buffer": 0,
      "byteLength": 576,
      "byteOffset": 453640,
      "target": 34962
    },
    {
      "buffer": 0,
      "byteLength": 384,
      "byteOffset": 454216,
      "target": 34962
    },
    {
      "buffer": 0,
      "byteLength": 840,
      "byteOffset": 454600,
      "target": 34963
    },
    {
      "buffer": 0,
      "byteLength": 1680,
      "byteOffset": 455440,
      "target": 34962
    },
    {
      "buffer": 0,
      "byteLength": 1680,
      "byteOffset": 457120,
      "target": 34962
    },
    {
      "buffer": 0,
      "byteLength": 1120,
      "byteOffset": 458800,
      "target": 34962
    },
    {
      "buffer": 0,
      "byteLength": 35400,
      "byteOffset": 459920,
      "target": 34963
    },
    {
      "buffer": 0,
      "byteLength": 54444,
      "byteOffset": 495320,
      "target": 34962
    },
    {
      "buffer": 0,
      "byteLength": 54444,
      "byteOffset": 549764,
      "target": 34962
    },
    {
      "buffer": 0,
      "byteLength": 36296,
      "byteOffset": 604208,
      "target": 34962
    },
    {
      "buffer": 0,
      "byteLength": 128976,
      "byteOffset": 640504,
      "target": 34963
    },
    {
      "buffer": 0,
      "byteLength": 192384,
      "byteOffset": 769480,
      "target": 34962
    },
    {
      "buffer": 0,
      "byteLength": 192384,
      "byteOffset": 961864,
      "target": 34962
    },
    {
      "buffer": 0,
      "byteLength": 128256,
      "byteOffset": 1154248,
      "target": 34962
    }
  ],
  "buffers": [
    {
      "byteLength": 1282504,
      "uri": "06_W_CasementTripleFinal.bin"
    }
  ],
  "images": [
    {
      "uri": "06_W_Exterior_baseColor.png"
    },
    {
      "uri": "06_W_Exterior_occlusionRoughnessMetallic.png"
    },
    {
      "uri": "06_W_Exterior_normal.png"
    },
    {
      "uri": "06_W_Exterior_emissive.png"
    },
    {
      "uri": "06_W_Glass_baseColor.png"
    },
    {
      "uri": "06_W_Glass_occlusionRoughnessMetallic.png"
    },
    {
      "uri": "06_W_Glass_normal.png"
    },
    {
      "uri": "06_W_Glass_emissive.png"
    },
    {
      "uri": "06_W_Gray_baseColor.png"
    },
    {
      "uri": "06_W_Gray_occlusionRoughnessMetallic.png"
    },
    {
      "uri": "06_W_Gray_normal.png"
    },
    {
      "uri": "06_W_Gray_emissive.png"
    },
    {
      "uri": "06_W_Hardware_baseColor.png"
    },
    {
      "uri": "06_W_Hardware_occlusionRoughnessMetallic.png"
    },
    {
      "uri": "06_W_Hardware_normal.png"
    },
    {
      "uri": "06_W_Hardware_emissive.png"
    },
    {
      "uri": "06_W_Interior_baseColor.png"
    },
    {
      "uri": "06_W_Interior_occlusionRoughnessMetallic.png"
    },
    {
      "uri": "06_W_Interior_normal.png"
    },
    {
      "uri": "06_W_Interior_emissive.png"
    },
    {
      "uri": "06_W_Spacer_baseColor.png"
    },
    {
      "uri": "06_W_Spacer_occlusionRoughnessMetallic.png"
    },
    {
      "uri": "06_W_Spacer_normal.png"
    }
  ],
  "materials": [
    {
      "alphaMode": "OPAQUE",
      "emissiveFactor": [
        1.0,
        1.0,
        1.0
      ],
      "emissiveTexture": {
        "index": 3
      },
      "name": "06_W_Exterior",
      "normalTexture": {
        "index": 2
      },
      "occlusionTexture": {
        "index": 1
      },
      "pbrMetallicRoughness": {
        "baseColorTexture": {
          "index": 0
        },
        "metallicRoughnessTexture": {
          "index": 1
        }
      }
    },
    {
      "alphaMode": "BLEND",
      "emissiveFactor": [
        1.0,
        1.0,
        1.0
      ],
      "emissiveTexture": {
        "index": 7
      },
      "name": "06_W_Glass",
      "normalTexture": {
        "index": 6
      },
      "occlusionTexture": {
        "index": 5
      },
      "pbrMetallicRoughness": {
        "baseColorTexture": {
          "index": 4
        },
        "metallicRoughnessTexture": {
          "index": 5
        }
      }
    },
    {
      "alphaMode": "OPAQUE",
      "emissiveFactor": [
        1.0,
        1.0,
        1.0
      ],
      "emissiveTexture": {
        "index": 11
      },
      "name": "06_W_Gray",
      "normalTexture": {
        "index": 10
      },
      "occlusionTexture": {
        "index": 9
      },
      "pbrMetallicRoughness": {
        "baseColorTexture": {
          "index": 8
        },
        "metallicRoughnessTexture": {
          "index": 9
        }
      }
    },
    {
      "alphaMode": "OPAQUE",
      "emissiveFactor": [
        1.0,
        1.0,
        1.0
      ],
      "emissiveTexture": {
        "index": 15
      },
      "name": "06_W_Hardware",
      "normalTexture": {
        "index": 14
      },
      "occlusionTexture": {
        "index": 13
      },
      "pbrMetallicRoughness": {
        "baseColorTexture": {
          "index": 12
        },
        "metallicRoughnessTexture": {
          "index": 13
        }
      }
    },
    {
      "alphaMode": "OPAQUE",
      "emissiveFactor": [
        1.0,
        1.0,
        1.0
      ],
      "emissiveTexture": {
        "index": 19
      },
      "name": "06_W_Interior",
      "normalTexture": {
        "index": 18
      },
      "occlusionTexture": {
        "index": 17
      },
      "pbrMetallicRoughness": {
        "baseColorTexture": {
          "index": 16
        },
        "metallicRoughnessTexture": {
          "index": 17
        }
      }
    },
    {
      "alphaMode": "OPAQUE",
      "name": "06_W_Spacer",
      "normalTexture": {
        "index": 22
      },
      "occlusionTexture": {
        "index": 21
      },
      "pbrMetallicRoughness": {
        "baseColorTexture": {
          "index": 20
        },
        "metallicRoughnessTexture": {
          "index": 21
        }
      }
    }
  ],
  "meshes": [
    {
      "name": "06_W_Interior",
      "primitives": [
        {
          "attributes": {
            "NORMAL": 2,
            "POSITION": 1,
            "TEXCOORD_0": 3
          },
          "indices": 0,
          "material": 4,
          "mode": 4
        }
      ]
    },
    {
      "name": "06_W_Exterior",
      "primitives": [
        {
          "attributes": {
            "NORMAL": 6,
            "POSITION": 5,
            "TEXCOORD_0": 7
          },
          "indices": 4,
          "material": 0,
          "mode": 4
        }
      ]
    },
    {
      "name": "06_W_Glass",
      "primitives": [
        {
          "attributes": {
            "NORMAL": 10,
            "POSITION": 9,
            "TEXCOORD_0": 11
          },
          "indices": 8,
          "material": 1,
          "mode": 4
        }
      ]
    },
    {
      "name": "06_W_Spacer",
      "primitives": [
        {
          "attributes": {
            "NORMAL": 14,
            "POSITION": 13,
            "TEXCOORD_0": 15
          },
          "indices": 12,
          "material": 5,
          "mode": 4
        }
      ]
    },
    {
      "name": "06_W_Gray",
      "primitives": [
        {
          "attributes": {
            "NORMAL": 18,
            "POSITION": 17,
            "TEXCOORD_0": 19
          },
          "indices": 16,
          "material": 2,
          "mode": 4
        }
      ]
    },
    {
      "name": "06_W_Hardware",
      "primitives": [
        {
          "attributes": {
            "NORMAL": 22,
            "POSITION": 21,
            "TEXCOORD_0": 23
          },
          "indices": 20,
          "material": 3,
          "mode": 4
        }
      ]
    }
  ],
  "nodes": [
    {
      "children": [
        1,
        3,
        5,
        7,
        9,
        11
      ],
      "name": "root",
      "scale": [
        27.4793834686279,
        27.4793834686279,
        27.4793834686279
      ],
      "translation": [
        -0.002655029296875,
        27.479284286499,
        0.220285534858704
      ]
    },
    {
      "children": [
        2
      ],
      "name": "06_W_Interior"
    },
    {
      "mesh": 0,
      "name": "06_W_Interior"
    },
    {
      "children": [
        4
      ],
      "name": "06_W_Exterior"
    },
    {
      "mesh": 1,
      "name": "06_W_Exterior"
    },
    {
      "children": [
        6
      ],
      "name": "06_W_Glass"
    },
    {
      "mesh": 2,
      "name": "06_W_Glass"
    },
    {
      "children": [
        8
      ],
      "name": "06_W_Spacer"
    },
    {
      "mesh": 3,
      "name": "06_W_Spacer"
    },
    {
      "children": [
        10
      ],
      "name": "06_W_Gray"
    },
    {
      "mesh": 4,
      "name": "06_W_Gray"
    },
    {
      "children": [
        12
      ],
      "name": "06_W_Hardware"
    },
    {
      "mesh": 5,
      "name": "06_W_Hardware"
    }
  ],
  "samplers": [
    {
      "magFilter": 9729,
      "minFilter": 9985,
      "wrapS": 10497,
      "wrapT": 10497
    }
  ],
  "scene": 0,
  "scenes": [
    {
      "name": "Scene",
      "nodes": [
        0
      ]
    }
  ],
  "textures": [
    {
      "sampler": 0,
      "source": 0
    },
    {
      "sampler": 0,
      "source": 1
    },
    {
      "sampler": 0,
      "source": 2
    },
    {
      "sampler": 0,
      "source": 3
    },
    {
      "sampler": 0,
      "source": 4
    },
    {
      "sampler": 0,
      "source": 5
    },
    {
      "sampler": 0,
      "source": 6
    },
    {
      "sampler": 0,
      "source": 7
    },
    {
      "sampler": 0,
      "source": 8
    },
    {
      "sampler": 0,
      "source": 9
    },
    {
      "sampler": 0,
      "source": 10
    },
    {
      "sampler": 0,
      "source": 11
    },
    {
      "sampler": 0,
      "source": 12
    },
    {
      "sampler": 0,
      "source": 13
    },
    {
      "sampler": 0,
      "source": 14
    },
    {
      "sampler": 0,
      "source": 15
    },
    {
      "sampler": 0,
      "source": 16
    },
    {
      "sampler": 0,
      "source": 17
    },
    {
      "sampler": 0,
      "source": 18
    },
    {
      "sampler": 0,
      "source": 19
    },
    {
      "sampler": 0,
      "source": 20
    },
    {
      "sampler": 0,
      "source": 21
    },
    {
      "sampler": 0,
      "source": 22
    }
  ]
}