{
  "accessors": [
    {
      "bufferView": 0,
      "componentType": 5125,
      "count": 1065,
      "type": "SCALAR"
    },
    {
      "bufferView": 1,
      "componentType": 5126,
      "count": 520,
      "max": [
        -0.0246783625334501,
        -0.147599220275879,
        0.162363097071648
      ],
      "min": [
        -0.0535293407738209,
        -0.294655948877335,
        0.102267824113369
      ],
      "type": "VEC3"
    },
    {
      "bufferView": 2,
      "componentType": 5126,
      "count": 520,
      "type": "VEC3"
    },
    {
      "bufferView": 3,
      "componentType": 5126,
      "count": 520,
      "type": "VEC2"
    },
    {
      "bufferView": 4,
      "componentType": 5125,
      "count": 48,
      "type": "SCALAR"
    },
    {
      "bufferView": 5,
      "componentType": 5126,
      "count": 32,
      "max": [
        0.805901050567627,
        0.663728356361389,
        0.163951650261879
      ],
      "min": [
        -0.789982676506042,
        -0.897506058216095,
        0.0748555660247803
      ],
      "type": "VEC3"
    },
    {
      "bufferView": 6,
      "componentType": 5126,
      "count": 32,
      "type": "VEC3"
    },
    {
      "bufferView": 7,
      "componentType": 5126,
      "count": 32,
      "type": "VEC2"
    },
    {
      "bufferView": 8,
      "componentType": 5125,
      "count": 720,
      "type": "SCALAR"
    },
    {
      "bufferView": 9,
      "componentType": 5126,
      "count": 416,
      "max": [
        0.800150752067566,
        0.667652010917664,
        0.162785798311234
      ],
      "min": [
        -0.797144651412964,
        -0.890061914920807,
        0.0793031454086304
      ],
      "type": "VEC3"
    },
    {
      "bufferView": 10,
      "componentType": 5126,
      "count": 416,
      "type": "VEC3"
    },
    {
      "bufferView": 11,
      "componentType": 5126,
      "count": 416,
      "type": "VEC2"
    },
    {
      "bufferView": 12,
      "componentType": 5125,
      "count": 3816,
      "type": "SCALAR"
    },
    {
      "bufferView": 13,
      "componentType": 5126,
      "count": 2070,
      "max": [
        0.878584623336792,
        0.750502526760101,
        0.189373195171356
      ],
      "min": [
        -0.878473341464996,
        -0.999996960163116,
        0.0722387135028839
      ],
      "type": "VEC3"
    },
    {
      "bufferView": 14,
      "componentType": 5126,
      "count": 2070,
      "type": "VEC3"
    },
    {
      "bufferView": 15,
      "componentType": 5126,
      "count": 2070,
      "type": "VEC2"
    },
    {
      "bufferView": 16,
      "componentType": 5125,
      "count": 9918,
      "type": "SCALAR"
    },
    {
      "bufferView": 17,
      "componentType": 5126,
      "count": 5476,
      "max": [
        0.878667593002319,
        0.750459790229797,
        0.184837728738785
      ],
      "min": [
        -0.878430843353271,
        -1.00008356571198,
        0.0392444655299187
      ],
      "type": "VEC3"
    },
    {
      "bufferView": 18,
      "componentType": 5126,
      "count": 5476,
      "type": "VEC3"
    },
    {
      "bufferView": 19,
      "componentType": 5126,
      "count": 5476,
      "type": "VEC2"
    }
  ],
  "asset": {
    "generator": "Substance Painter 2019.2.1",
    "version": "2.0"
  },
  "bufferViews": [
    {
      "buffer": 0,
      "byteLength": 4260,
      "target": 34963
    },
    {
      "buffer": 0,
      "byteLength": 6240,
      "byteOffset": 4260,
      "target": 34962
    },
    {
      "buffer": 0,
      "byteLength": 6240,
      "byteOffset": 10500,
      "target": 34962
    },
    {
      "buffer": 0,
      "byteLength": 4160,
      "byteOffset": 16740,
      "target": 34962
    },
    {
      "buffer": 0,
      "byteLength": 192,
      "byteOffset": 20900,
      "target": 34963
    },
    {
      "buffer": 0,
      "byteLength": 384,
      "byteOffset": 21092,
      "target": 34962
    },
    {
      "buffer": 0,
      "byteLength": 384,
      "byteOffset": 21476,
      "target": 34962
    },
    {
      "buffer": 0,
      "byteLength": 256,
      "byteOffset": 21860,
      "target": 34962
    },
    {
      "buffer": 0,
      "byteLength": 2880,
      "byteOffset": 22116,
      "target": 34963
    },
    {
      "buffer": 0,
      "byteLength": 4992,
      "byteOffset": 24996,
      "target": 34962
    },
    {
      "buffer": 0,
      "byteLength": 4992,
      "byteOffset": 29988,
      "target": 34962
    },
    {
      "buffer": 0,
      "byteLength": 3328,
      "byteOffset": 34980,
      "target": 34962
    },
    {
      "buffer": 0,
      "byteLength": 15264,
      "byteOffset": 38308,
      "target": 34963
    },
    {
      "buffer": 0,
      "byteLength": 24840,
      "byteOffset": 53572,
      "target": 34962
    },
    {
      "buffer": 0,
      "byteLength": 24840,
      "byteOffset": 78412,
      "target": 34962
    },
    {
      "buffer": 0,
      "byteLength": 16560,
      "byteOffset": 103252,
      "target": 34962
    },
    {
      "buffer": 0,
      "byteLength": 39672,
      "byteOffset": 119812,
      "target": 34963
    },
    {
      "buffer": 0,
      "byteLength": 65712,
      "byteOffset": 159484,
      "target": 34962
    },
    {
      "buffer": 0,
      "byteLength": 65712,
      "byteOffset": 225196,
      "target": 34962
    },
    {
      "buffer": 0,
      "byteLength": 43808,
      "byteOffset": 290908,
      "target": 34962
    }
  ],
  "buffers": [
    {
      "byteLength": 334716,
      "uri": "19_W_GlidingDouble.bin"
    }
  ],
  "images": [
    {
      "uri": "19_W_Exterior_baseColor.png"
    },
    {
      "uri": "19_W_Exterior_occlusionRoughnessMetallic.png"
    },
    {
      "uri": "19_W_Exterior_normal.png"
    },
    {
      "uri": "19_W_Exterior_emissive.png"
    },
    {
      "uri": "19_W_Glass_baseColor.png"
    },
    {
      "uri": "19_W_Glass_occlusionRoughnessMetallic.png"
    },
    {
      "uri": "19_W_Glass_normal.png"
    },
    {
      "uri": "19_W_Glass_emissive.png"
    },
    {
      "uri": "19_W_Hardware_baseColor.png"
    },
    {
      "uri": "19_W_Hardware_occlusionRoughnessMetallic.png"
    },
    {
      "uri": "19_W_Hardware_normal.png"
    },
    {
      "uri": "19_W_Hardware_emissive.png"
    },
    {
      "uri": "19_W_Interior_baseColor.png"
    },
    {
      "uri": "19_W_Interior_occlusionRoughnessMetallic.png"
    },
    {
      "uri": "19_W_Interior_normal.png"
    },
    {
      "uri": "19_W_Interior_emissive.png"
    },
    {
      "uri": "19_W_Spacers_baseColor.png"
    },
    {
      "uri": "19_W_Spacers_occlusionRoughnessMetallic.png"
    },
    {
      "uri": "19_W_Spacers_normal.png"
    },
    {
      "uri": "19_W_Spacers_emissive.png"
    }
  ],
  "materials": [
    {
      "alphaMode": "OPAQUE",
      "emissiveFactor": [
        1.0,
        1.0,
        1.0
      ],
      "emissiveTexture": {
        "index": 3
      },
      "name": "19_W_Exterior",
      "normalTexture": {
        "index": 2
      },
      "occlusionTexture": {
        "index": 1
      },
      "pbrMetallicRoughness": {
        "baseColorTexture": {
          "index": 0
        },
        "metallicRoughnessTexture": {
          "index": 1
        }
      }
    },
    {
      "alphaMode": "BLEND",
      "emissiveFactor": [
        1.0,
        1.0,
        1.0
      ],
      "emissiveTexture": {
        "index": 7
      },
      "name": "19_W_Glass",
      "normalTexture": {
        "index": 6
      },
      "occlusionTexture": {
        "index": 5
      },
      "pbrMetallicRoughness": {
        "baseColorTexture": {
          "index": 4
        },
        "metallicRoughnessTexture": {
          "index": 5
        }
      }
    },
    {
      "alphaMode": "OPAQUE",
      "emissiveFactor": [
        1.0,
        1.0,
        1.0
      ],
      "emissiveTexture": {
        "index": 11
      },
      "name": "19_W_Hardware",
      "normalTexture": {
        "index": 10
      },
      "occlusionTexture": {
        "index": 9
      },
      "pbrMetallicRoughness": {
        "baseColorTexture": {
          "index": 8
        },
        "metallicRoughnessTexture": {
          "index": 9
        }
      }
    },
    {
      "alphaMode": "OPAQUE",
      "emissiveFactor": [
        1.0,
        1.0,
        1.0
      ],
      "emissiveTexture": {
        "index": 15
      },
      "name": "19_W_Interior",
      "normalTexture": {
        "index": 14
      },
      "occlusionTexture": {
        "index": 13
      },
      "pbrMetallicRoughness": {
        "baseColorTexture": {
          "index": 12
        },
        "metallicRoughnessTexture": {
          "index": 13
        }
      }
    },
    {
      "alphaMode": "OPAQUE",
      "emissiveFactor": [
        1.0,
        1.0,
        1.0
      ],
      "emissiveTexture": {
        "index": 19
      },
      "name": "19_W_Spacers",
      "normalTexture": {
        "index": 18
      },
      "occlusionTexture": {
        "index": 17
      },
      "pbrMetallicRoughness": {
        "baseColorTexture": {
          "index": 16
        },
        "metallicRoughnessTexture": {
          "index": 17
        }
      }
    }
  ],
  "meshes": [
    {
      "name": "19_W_Hardware",
      "primitives": [
        {
          "attributes": {
            "NORMAL": 2,
            "POSITION": 1,
            "TEXCOORD_0": 3
          },
          "indices": 0,
          "material": 2,
          "mode": 4
        }
      ]
    },
    {
      "name": "19_W_Glass",
      "primitives": [
        {
          "attributes": {
            "NORMAL": 6,
            "POSITION": 5,
            "TEXCOORD_0": 7
          },
          "indices": 4,
          "material": 1,
          "mode": 4
        }
      ]
    },
    {
      "name": "19_W_Spacers",
      "primitives": [
        {
          "attributes": {
            "NORMAL": 10,
            "POSITION": 9,
            "TEXCOORD_0": 11
          },
          "indices": 8,
          "material": 4,
          "mode": 4
        }
      ]
    },
    {
      "name": "19_W_Interior",
      "primitives": [
        {
          "attributes": {
            "NORMAL": 14,
            "POSITION": 13,
            "TEXCOORD_0": 15
          },
          "indices": 12,
          "material": 3,
          "mode": 4
        }
      ]
    },
    {
      "name": "19_W_Exterior",
      "primitives": [
        {
          "attributes": {
            "NORMAL": 18,
            "POSITION": 17,
            "TEXCOORD_0": 19
          },
          "indices": 16,
          "material": 0,
          "mode": 4
        }
      ]
    }
  ],
  "nodes": [
    {
      "children": [
        1,
        3,
        5,
        7,
        9
      ],
      "name": "root",
      "scale": [
        27.4793834686279,
        27.4793834686279,
        27.4793834686279
      ],
      "translation": [
        -0.002655029296875,
        27.479284286499,
        0.220285534858704
      ]
    },
    {
      "children": [
        2
      ],
      "name": "19_W_Hardware"
    },
    {
      "mesh": 0,
      "name": "19_W_Hardware"
    },
    {
      "children": [
        4
      ],
      "name": "19_W_Glass"
    },
    {
      "mesh": 1,
      "name": "19_W_Glass"
    },
    {
      "children": [
        6
      ],
      "name": "19_W_Spacers"
    },
    {
      "mesh": 2,
      "name": "19_W_Spacers"
    },
    {
      "children": [
        8
      ],
      "name": "19_W_Interior"
    },
    {
      "mesh": 3,
      "name": "19_W_Interior"
    },
    {
      "children": [
        10
      ],
      "name": "19_W_Exterior"
    },
    {
      "mesh": 4,
      "name": "19_W_Exterior"
    }
  ],
  "samplers": [
    {
      "magFilter": 9729,
      "minFilter": 9985,
      "wrapS": 10497,
      "wrapT": 10497
    }
  ],
  "scene": 0,
  "scenes": [
    {
      "name": "Scene",
      "nodes": [
        0
      ]
    }
  ],
  "textures": [
    {
      "sampler": 0,
      "source": 0
    },
    {
      "sampler": 0,
      "source": 1
    },
    {
      "sampler": 0,
      "source": 2
    },
    {
      "sampler": 0,
      "source": 3
    },
    {
      "sampler": 0,
      "source": 4
    },
    {
      "sampler": 0,
      "source": 5
    },
    {
      "sampler": 0,
      "source": 6
    },
    {
      "sampler": 0,
      "source": 7
    },
    {
      "sampler": 0,
      "source": 8
    },
    {
      "sampler": 0,
      "source": 9
    },
    {
      "sampler": 0,
      "source": 10
    },
    {
      "sampler": 0,
      "source": 11
    },
    {
      "sampler": 0,
      "source": 12
    },
    {
      "sampler": 0,
      "source": 13
    },
    {
      "sampler": 0,
      "source": 14
    },
    {
      "sampler": 0,
      "source": 15
    },
    {
      "sampler": 0,
      "source": 16
    },
    {
      "sampler": 0,
      "source": 17
    },
    {
      "sampler": 0,
      "source": 18
    },
    {
      "sampler": 0,
      "source": 19
    }
  ]
}