{
  "accessors": [
    {
      "bufferView": 0,
      "componentType": 5125,
      "count": 1065,
      "type": "SCALAR"
    },
    {
      "bufferView": 1,
      "componentType": 5126,
      "count": 578,
      "max": [
        -0.0281997732818127,
        -0.0259610321372747,
        0.0546959601342678
      ],
      "min": [
        -0.0610383227467537,
        -0.193342968821526,
        -0.0137052433565259
      ],
      "type": "VEC3"
    },
    {
      "bufferView": 2,
      "componentType": 5126,
      "count": 578,
      "type": "VEC3"
    },
    {
      "bufferView": 3,
      "componentType": 5126,
      "count": 578,
      "type": "VEC2"
    },
    {
      "bufferView": 4,
      "componentType": 5125,
      "count": 48,
      "type": "SCALAR"
    },
    {
      "bufferView": 5,
      "componentType": 5126,
      "count": 32,
      "max": [
        0.917176246643066,
        0.897502303123474,
        0.0565041527152061
      ],
      "min": [
        -0.899278819561005,
        -0.879514634609222,
        -0.0449062958359718
      ],
      "type": "VEC3"
    },
    {
      "bufferView": 6,
      "componentType": 5126,
      "count": 32,
      "type": "VEC3"
    },
    {
      "bufferView": 7,
      "componentType": 5126,
      "count": 32,
      "type": "VEC2"
    },
    {
      "bufferView": 8,
      "componentType": 5125,
      "count": 720,
      "type": "SCALAR"
    },
    {
      "bufferView": 9,
      "componentType": 5126,
      "count": 455,
      "max": [
        0.91063117980957,
        0.901968240737915,
        0.0551771745085716
      ],
      "min": [
        -0.907430648803711,
        -0.871041536331177,
        -0.0398439839482307
      ],
      "type": "VEC3"
    },
    {
      "bufferView": 10,
      "componentType": 5126,
      "count": 455,
      "type": "VEC3"
    },
    {
      "bufferView": 11,
      "componentType": 5126,
      "count": 455,
      "type": "VEC2"
    },
    {
      "bufferView": 12,
      "componentType": 5125,
      "count": 3816,
      "type": "SCALAR"
    },
    {
      "bufferView": 13,
      "componentType": 5126,
      "count": 2433,
      "max": [
        0.999905645847321,
        0.996269702911377,
        0.0854392871260643
      ],
      "min": [
        -1.0,
        -0.996171057224274,
        -0.0478848181664944
      ],
      "type": "VEC3"
    },
    {
      "bufferView": 14,
      "componentType": 5126,
      "count": 2433,
      "type": "VEC3"
    },
    {
      "bufferView": 15,
      "componentType": 5126,
      "count": 2433,
      "type": "VEC2"
    },
    {
      "bufferView": 16,
      "componentType": 5125,
      "count": 9918,
      "type": "SCALAR"
    },
    {
      "bufferView": 17,
      "componentType": 5126,
      "count": 7321,
      "max": [
        1.0,
        0.996221005916595,
        0.0802767723798752
      ],
      "min": [
        -0.999951660633087,
        -0.996269702911377,
        -0.0854393020272255
      ],
      "type": "VEC3"
    },
    {
      "bufferView": 18,
      "componentType": 5126,
      "count": 7321,
      "type": "VEC3"
    },
    {
      "bufferView": 19,
      "componentType": 5126,
      "count": 7321,
      "type": "VEC2"
    }
  ],
  "asset": {
    "generator": "Substance Painter 2019.2.1",
    "version": "2.0"
  },
  "bufferViews": [
    {
      "buffer": 0,
      "byteLength": 4260,
      "target": 34963
    },
    {
      "buffer": 0,
      "byteLength": 6936,
      "byteOffset": 4260,
      "target": 34962
    },
    {
      "buffer": 0,
      "byteLength": 6936,
      "byteOffset": 11196,
      "target": 34962
    },
    {
      "buffer": 0,
      "byteLength": 4624,
      "byteOffset": 18132,
      "target": 34962
    },
    {
      "buffer": 0,
      "byteLength": 192,
      "byteOffset": 22756,
      "target": 34963
    },
    {
      "buffer": 0,
      "byteLength": 384,
      "byteOffset": 22948,
      "target": 34962
    },
    {
      "buffer": 0,
      "byteLength": 384,
      "byteOffset": 23332,
      "target": 34962
    },
    {
      "buffer": 0,
      "byteLength": 256,
      "byteOffset": 23716,
      "target": 34962
    },
    {
      "buffer": 0,
      "byteLength": 2880,
      "byteOffset": 23972,
      "target": 34963
    },
    {
      "buffer": 0,
      "byteLength": 5460,
      "byteOffset": 26852,
      "target": 34962
    },
    {
      "buffer": 0,
      "byteLength": 5460,
      "byteOffset": 32312,
      "target": 34962
    },
    {
      "buffer": 0,
      "byteLength": 3640,
      "byteOffset": 37772,
      "target": 34962
    },
    {
      "buffer": 0,
      "byteLength": 15264,
      "byteOffset": 41412,
      "target": 34963
    },
    {
      "buffer": 0,
      "byteLength": 29196,
      "byteOffset": 56676,
      "target": 34962
    },
    {
      "buffer": 0,
      "byteLength": 29196,
      "byteOffset": 85872,
      "target": 34962
    },
    {
      "buffer": 0,
      "byteLength": 19464,
      "byteOffset": 115068,
      "target": 34962
    },
    {
      "buffer": 0,
      "byteLength": 39672,
      "byteOffset": 134532,
      "target": 34963
    },
    {
      "buffer": 0,
      "byteLength": 87852,
      "byteOffset": 174204,
      "target": 34962
    },
    {
      "buffer": 0,
      "byteLength": 87852,
      "byteOffset": 262056,
      "target": 34962
    },
    {
      "buffer": 0,
      "byteLength": 58568,
      "byteOffset": 349908,
      "target": 34962
    }
  ],
  "buffers": [
    {
      "byteLength": 408476,
      "uri": "19_W_GlidingDouble_v01.bin"
    }
  ],
  "images": [
    {
      "uri": "19_W_Exterior_baseColor.png"
    },
    {
      "uri": "19_W_Exterior_occlusionRoughnessMetallic.png"
    },
    {
      "uri": "19_W_Exterior_normal.png"
    },
    {
      "uri": "19_W_Glass_baseColor.png"
    },
    {
      "uri": "19_W_Glass_occlusionRoughnessMetallic.png"
    },
    {
      "uri": "19_W_Glass_normal.png"
    },
    {
      "uri": "19_W_Glass_emissive.png"
    },
    {
      "uri": "19_W_Hardware_baseColor.png"
    },
    {
      "uri": "19_W_Hardware_occlusionRoughnessMetallic.png"
    },
    {
      "uri": "19_W_Hardware_normal.png"
    },
    {
      "uri": "19_W_Interior_baseColor.png"
    },
    {
      "uri": "19_W_Interior_occlusionRoughnessMetallic.png"
    },
    {
      "uri": "19_W_Interior_normal.png"
    },
    {
      "uri": "19_W_Spacers_baseColor.png"
    },
    {
      "uri": "19_W_Spacers_occlusionRoughnessMetallic.png"
    },
    {
      "uri": "19_W_Spacers_normal.png"
    }
  ],
  "materials": [
    {
      "alphaMode": "OPAQUE",
      "name": "19_W_Exterior",
      "normalTexture": {
        "index": 2
      },
      "occlusionTexture": {
        "index": 1
      },
      "pbrMetallicRoughness": {
        "baseColorTexture": {
          "index": 0
        },
        "metallicRoughnessTexture": {
          "index": 1
        }
      }
    },
    {
      "alphaMode": "BLEND",
      "emissiveFactor": [
        1.0,
        1.0,
        1.0
      ],
      "emissiveTexture": {
        "index": 6
      },
      "name": "19_W_Glass",
      "normalTexture": {
        "index": 5
      },
      "occlusionTexture": {
        "index": 4
      },
      "pbrMetallicRoughness": {
        "baseColorTexture": {
          "index": 3
        },
        "metallicRoughnessTexture": {
          "index": 4
        }
      }
    },
    {
      "alphaMode": "OPAQUE",
      "name": "19_W_Hardware",
      "normalTexture": {
        "index": 9
      },
      "occlusionTexture": {
        "index": 8
      },
      "pbrMetallicRoughness": {
        "baseColorTexture": {
          "index": 7
        },
        "metallicRoughnessTexture": {
          "index": 8
        }
      }
    },
    {
      "alphaMode": "OPAQUE",
      "name": "19_W_Interior",
      "normalTexture": {
        "index": 12
      },
      "occlusionTexture": {
        "index": 11
      },
      "pbrMetallicRoughness": {
        "baseColorTexture": {
          "index": 10
        },
        "metallicRoughnessTexture": {
          "index": 11
        }
      }
    },
    {
      "alphaMode": "OPAQUE",
      "name": "19_W_Spacers",
      "normalTexture": {
        "index": 15
      },
      "occlusionTexture": {
        "index": 14
      },
      "pbrMetallicRoughness": {
        "baseColorTexture": {
          "index": 13
        },
        "metallicRoughnessTexture": {
          "index": 14
        }
      }
    }
  ],
  "meshes": [
    {
      "name": "19_W_Hardware",
      "primitives": [
        {
          "attributes": {
            "NORMAL": 2,
            "POSITION": 1,
            "TEXCOORD_0": 3
          },
          "indices": 0,
          "material": 2,
          "mode": 4
        }
      ]
    },
    {
      "name": "19_W_Glass",
      "primitives": [
        {
          "attributes": {
            "NORMAL": 6,
            "POSITION": 5,
            "TEXCOORD_0": 7
          },
          "indices": 4,
          "material": 1,
          "mode": 4
        }
      ]
    },
    {
      "name": "19_W_Spacers",
      "primitives": [
        {
          "attributes": {
            "NORMAL": 10,
            "POSITION": 9,
            "TEXCOORD_0": 11
          },
          "indices": 8,
          "material": 4,
          "mode": 4
        }
      ]
    },
    {
      "name": "19_W_Interior",
      "primitives": [
        {
          "attributes": {
            "NORMAL": 14,
            "POSITION": 13,
            "TEXCOORD_0": 15
          },
          "indices": 12,
          "material": 3,
          "mode": 4
        }
      ]
    },
    {
      "name": "19_W_Exterior",
      "primitives": [
        {
          "attributes": {
            "NORMAL": 18,
            "POSITION": 17,
            "TEXCOORD_0": 19
          },
          "indices": 16,
          "material": 0,
          "mode": 4
        }
      ]
    }
  ],
  "nodes": [
    {
      "children": [
        1,
        3,
        5,
        7,
        9
      ],
      "name": "root",
      "scale": [
        0.61951470375061,
        0.61951470375061,
        0.61951470375061
      ],
      "translation": [
        3.57627868652344e-07,
        0.617142200469971,
        0.0862564295530319
      ]
    },
    {
      "children": [
        2
      ],
      "name": "19_W_Hardware"
    },
    {
      "mesh": 0,
      "name": "19_W_Hardware"
    },
    {
      "children": [
        4
      ],
      "name": "19_W_Glass"
    },
    {
      "mesh": 1,
      "name": "19_W_Glass"
    },
    {
      "children": [
        6
      ],
      "name": "19_W_Spacers"
    },
    {
      "mesh": 2,
      "name": "19_W_Spacers"
    },
    {
      "children": [
        8
      ],
      "name": "19_W_Interior"
    },
    {
      "mesh": 3,
      "name": "19_W_Interior"
    },
    {
      "children": [
        10
      ],
      "name": "19_W_Exterior"
    },
    {
      "mesh": 4,
      "name": "19_W_Exterior"
    }
  ],
  "samplers": [
    {
      "magFilter": 9729,
      "minFilter": 9985,
      "wrapS": 10497,
      "wrapT": 10497
    }
  ],
  "scene": 0,
  "scenes": [
    {
      "name": "Scene",
      "nodes": [
        0
      ]
    }
  ],
  "textures": [
    {
      "sampler": 0,
      "source": 0
    },
    {
      "sampler": 0,
      "source": 1
    },
    {
      "sampler": 0,
      "source": 2
    },
    {
      "sampler": 0,
      "source": 3
    },
    {
      "sampler": 0,
      "source": 4
    },
    {
      "sampler": 0,
      "source": 5
    },
    {
      "sampler": 0,
      "source": 6
    },
    {
      "sampler": 0,
      "source": 7
    },
    {
      "sampler": 0,
      "source": 8
    },
    {
      "sampler": 0,
      "source": 9
    },
    {
      "sampler": 0,
      "source": 10
    },
    {
      "sampler": 0,
      "source": 11
    },
    {
      "sampler": 0,
      "source": 12
    },
    {
      "sampler": 0,
      "source": 13
    },
    {
      "sampler": 0,
      "source": 14
    },
    {
      "sampler": 0,
      "source": 15
    }
  ]
}