{
  "accessors": [
    {
      "bufferView": 0,
      "componentType": 5125,
      "count": 33552,
      "type": "SCALAR"
    },
    {
      "bufferView": 1,
      "componentType": 5126,
      "count": 6753,
      "max": [
        0.204821079969406,
        -0.527522683143616,
        0.188425406813622
      ],
      "min": [
        -0.486502587795258,
        -0.935653567314148,
        0.129620179533958
      ],
      "type": "VEC3"
    },
    {
      "bufferView": 2,
      "componentType": 5126,
      "count": 6753,
      "type": "VEC3"
    },
    {
      "bufferView": 3,
      "componentType": 5126,
      "count": 6753,
      "type": "VEC2"
    },
    {
      "bufferView": 4,
      "componentType": 5125,
      "count": 2082,
      "type": "SCALAR"
    },
    {
      "bufferView": 5,
      "componentType": 5126,
      "count": 1088,
      "max": [
        0.54781585931778,
        0.923951804637909,
        0.117470286786556
      ],
      "min": [
        -0.546749889850616,
        -0.962857663631439,
        -0.0310346111655235
      ],
      "type": "VEC3"
    },
    {
      "bufferView": 6,
      "componentType": 5126,
      "count": 1088,
      "type": "VEC3"
    },
    {
      "bufferView": 7,
      "componentType": 5126,
      "count": 1088,
      "type": "VEC2"
    },
    {
      "bufferView": 8,
      "componentType": 5125,
      "count": 540,
      "type": "SCALAR"
    },
    {
      "bufferView": 9,
      "componentType": 5126,
      "count": 240,
      "max": [
        0.43525430560112,
        0.803523778915405,
        0.0501142926514149
      ],
      "min": [
        -0.435524493455887,
        -0.874137341976166,
        0.0251540839672089
      ],
      "type": "VEC3"
    },
    {
      "bufferView": 10,
      "componentType": 5126,
      "count": 240,
      "type": "VEC3"
    },
    {
      "bufferView": 11,
      "componentType": 5126,
      "count": 240,
      "type": "VEC2"
    },
    {
      "bufferView": 12,
      "componentType": 5125,
      "count": 24,
      "type": "SCALAR"
    },
    {
      "bufferView": 13,
      "componentType": 5126,
      "count": 16,
      "max": [
        0.429643571376801,
        0.802006483078003,
        0.0570330582559109
      ],
      "min": [
        -0.423998415470123,
        -0.87105393409729,
        0.0142559334635735
      ],
      "type": "VEC3"
    },
    {
      "bufferView": 14,
      "componentType": 5126,
      "count": 16,
      "type": "VEC3"
    },
    {
      "bufferView": 15,
      "componentType": 5126,
      "count": 16,
      "type": "VEC2"
    },
    {
      "bufferView": 16,
      "componentType": 5125,
      "count": 18507,
      "type": "SCALAR"
    },
    {
      "bufferView": 17,
      "componentType": 5126,
      "count": 7879,
      "max": [
        0.55950254201889,
        0.923952460289001,
        0.139976263046265
      ],
      "min": [
        -0.559344112873077,
        -1.00049233436584,
        -0.0313751213252544
      ],
      "type": "VEC3"
    },
    {
      "bufferView": 18,
      "componentType": 5126,
      "count": 7879,
      "type": "VEC3"
    },
    {
      "bufferView": 19,
      "componentType": 5126,
      "count": 7879,
      "type": "VEC2"
    },
    {
      "bufferView": 20,
      "componentType": 5125,
      "count": 9495,
      "type": "SCALAR"
    },
    {
      "bufferView": 21,
      "componentType": 5126,
      "count": 2865,
      "max": [
        0.559537351131439,
        0.923952460289001,
        0.167058616876602
      ],
      "min": [
        -0.559344112873077,
        -1.00049245357513,
        0.00320810079574585
      ],
      "type": "VEC3"
    },
    {
      "bufferView": 22,
      "componentType": 5126,
      "count": 2865,
      "type": "VEC3"
    },
    {
      "bufferView": 23,
      "componentType": 5126,
      "count": 2865,
      "type": "VEC2"
    }
  ],
  "asset": {
    "generator": "Substance Painter 2019.2.1",
    "version": "2.0"
  },
  "bufferViews": [
    {
      "buffer": 0,
      "byteLength": 134208,
      "target": 34963
    },
    {
      "buffer": 0,
      "byteLength": 81036,
      "byteOffset": 134208,
      "target": 34962
    },
    {
      "buffer": 0,
      "byteLength": 81036,
      "byteOffset": 215244,
      "target": 34962
    },
    {
      "buffer": 0,
      "byteLength": 54024,
      "byteOffset": 296280,
      "target": 34962
    },
    {
      "buffer": 0,
      "byteLength": 8328,
      "byteOffset": 350304,
      "target": 34963
    },
    {
      "buffer": 0,
      "byteLength": 13056,
      "byteOffset": 358632,
      "target": 34962
    },
    {
      "buffer": 0,
      "byteLength": 13056,
      "byteOffset": 371688,
      "target": 34962
    },
    {
      "buffer": 0,
      "byteLength": 8704,
      "byteOffset": 384744,
      "target": 34962
    },
    {
      "buffer": 0,
      "byteLength": 2160,
      "byteOffset": 393448,
      "target": 34963
    },
    {
      "buffer": 0,
      "byteLength": 2880,
      "byteOffset": 395608,
      "target": 34962
    },
    {
      "buffer": 0,
      "byteLength": 2880,
      "byteOffset": 398488,
      "target": 34962
    },
    {
      "buffer": 0,
      "byteLength": 1920,
      "byteOffset": 401368,
      "target": 34962
    },
    {
      "buffer": 0,
      "byteLength": 96,
      "byteOffset": 403288,
      "target": 34963
    },
    {
      "buffer": 0,
      "byteLength": 192,
      "byteOffset": 403384,
      "target": 34962
    },
    {
      "buffer": 0,
      "byteLength": 192,
      "byteOffset": 403576,
      "target": 34962
    },
    {
      "buffer": 0,
      "byteLength": 128,
      "byteOffset": 403768,
      "target": 34962
    },
    {
      "buffer": 0,
      "byteLength": 74028,
      "byteOffset": 403896,
      "target": 34963
    },
    {
      "buffer": 0,
      "byteLength": 94548,
      "byteOffset": 477924,
      "target": 34962
    },
    {
      "buffer": 0,
      "byteLength": 94548,
      "byteOffset": 572472,
      "target": 34962
    },
    {
      "buffer": 0,
      "byteLength": 63032,
      "byteOffset": 667020,
      "target": 34962
    },
    {
      "buffer": 0,
      "byteLength": 37980,
      "byteOffset": 730052,
      "target": 34963
    },
    {
      "buffer": 0,
      "byteLength": 34380,
      "byteOffset": 768032,
      "target": 34962
    },
    {
      "buffer": 0,
      "byteLength": 34380,
      "byteOffset": 802412,
      "target": 34962
    },
    {
      "buffer": 0,
      "byteLength": 22920,
      "byteOffset": 836792,
      "target": 34962
    }
  ],
  "buffers": [
    {
      "byteLength": 859712,
      "uri": "18_CasementSingle.bin"
    }
  ],
  "images": [
    {
      "uri": "18_W_Exterior_baseColor.png"
    },
    {
      "uri": "18_W_Exterior_occlusionRoughnessMetallic.png"
    },
    {
      "uri": "18_W_Exterior_normal.png"
    },
    {
      "uri": "18_W_Exterior_emissive.png"
    },
    {
      "uri": "18_W_Glass_baseColor.png"
    },
    {
      "uri": "18_W_Glass_occlusionRoughnessMetallic.png"
    },
    {
      "uri": "18_W_Glass_normal.png"
    },
    {
      "uri": "18_W_Glass_emissive.png"
    },
    {
      "uri": "18_W_Gray_baseColor.png"
    },
    {
      "uri": "18_W_Gray_occlusionRoughnessMetallic.png"
    },
    {
      "uri": "18_W_Gray_normal.png"
    },
    {
      "uri": "18_W_Gray_emissive.png"
    },
    {
      "uri": "18_W_Hardware_baseColor.png"
    },
    {
      "uri": "18_W_Hardware_occlusionRoughnessMetallic.png"
    },
    {
      "uri": "18_W_Hardware_normal.png"
    },
    {
      "uri": "18_W_Hardware_emissive.png"
    },
    {
      "uri": "18_W_Interior_baseColor.png"
    },
    {
      "uri": "18_W_Interior_occlusionRoughnessMetallic.png"
    },
    {
      "uri": "18_W_Interior_normal.png"
    },
    {
      "uri": "18_W_Interior_emissive.png"
    },
    {
      "uri": "18_W_Spacers_baseColor.png"
    },
    {
      "uri": "18_W_Spacers_occlusionRoughnessMetallic.png"
    },
    {
      "uri": "18_W_Spacers_normal.png"
    },
    {
      "uri": "18_W_Spacers_emissive.png"
    }
  ],
  "materials": [
    {
      "alphaMode": "OPAQUE",
      "emissiveFactor": [
        1.0,
        1.0,
        1.0
      ],
      "emissiveTexture": {
        "index": 3
      },
      "name": "18_W_Exterior",
      "normalTexture": {
        "index": 2
      },
      "occlusionTexture": {
        "index": 1
      },
      "pbrMetallicRoughness": {
        "baseColorTexture": {
          "index": 0
        },
        "metallicRoughnessTexture": {
          "index": 1
        }
      }
    },
    {
      "alphaMode": "BLEND",
      "emissiveFactor": [
        1.0,
        1.0,
        1.0
      ],
      "emissiveTexture": {
        "index": 7
      },
      "name": "18_W_Glass",
      "normalTexture": {
        "index": 6
      },
      "occlusionTexture": {
        "index": 5
      },
      "pbrMetallicRoughness": {
        "baseColorTexture": {
          "index": 4
        },
        "metallicRoughnessTexture": {
          "index": 5
        }
      }
    },
    {
      "alphaMode": "OPAQUE",
      "emissiveFactor": [
        1.0,
        1.0,
        1.0
      ],
      "emissiveTexture": {
        "index": 11
      },
      "name": "18_W_Gray",
      "normalTexture": {
        "index": 10
      },
      "occlusionTexture": {
        "index": 9
      },
      "pbrMetallicRoughness": {
        "baseColorTexture": {
          "index": 8
        },
        "metallicRoughnessTexture": {
          "index": 9
        }
      }
    },
    {
      "alphaMode": "OPAQUE",
      "emissiveFactor": [
        1.0,
        1.0,
        1.0
      ],
      "emissiveTexture": {
        "index": 15
      },
      "name": "18_W_Hardware",
      "normalTexture": {
        "index": 14
      },
      "occlusionTexture": {
        "index": 13
      },
      "pbrMetallicRoughness": {
        "baseColorTexture": {
          "index": 12
        },
        "metallicRoughnessTexture": {
          "index": 13
        }
      }
    },
    {
      "alphaMode": "OPAQUE",
      "emissiveFactor": [
        1.0,
        1.0,
        1.0
      ],
      "emissiveTexture": {
        "index": 19
      },
      "name": "18_W_Interior",
      "normalTexture": {
        "index": 18
      },
      "occlusionTexture": {
        "index": 17
      },
      "pbrMetallicRoughness": {
        "baseColorTexture": {
          "index": 16
        },
        "metallicRoughnessTexture": {
          "index": 17
        }
      }
    },
    {
      "alphaMode": "OPAQUE",
      "emissiveFactor": [
        1.0,
        1.0,
        1.0
      ],
      "emissiveTexture": {
        "index": 23
      },
      "name": "18_W_Spacers",
      "normalTexture": {
        "index": 22
      },
      "occlusionTexture": {
        "index": 21
      },
      "pbrMetallicRoughness": {
        "baseColorTexture": {
          "index": 20
        },
        "metallicRoughnessTexture": {
          "index": 21
        }
      }
    }
  ],
  "meshes": [
    {
      "name": "18_W_Hardware",
      "primitives": [
        {
          "attributes": {
            "NORMAL": 2,
            "POSITION": 1,
            "TEXCOORD_0": 3
          },
          "indices": 0,
          "material": 3,
          "mode": 4
        }
      ]
    },
    {
      "name": "18_W_Gray",
      "primitives": [
        {
          "attributes": {
            "NORMAL": 6,
            "POSITION": 5,
            "TEXCOORD_0": 7
          },
          "indices": 4,
          "material": 2,
          "mode": 4
        }
      ]
    },
    {
      "name": "18_W_Spacers",
      "primitives": [
        {
          "attributes": {
            "NORMAL": 10,
            "POSITION": 9,
            "TEXCOORD_0": 11
          },
          "indices": 8,
          "material": 5,
          "mode": 4
        }
      ]
    },
    {
      "name": "18_W_Glass",
      "primitives": [
        {
          "attributes": {
            "NORMAL": 14,
            "POSITION": 13,
            "TEXCOORD_0": 15
          },
          "indices": 12,
          "material": 1,
          "mode": 4
        }
      ]
    },
    {
      "name": "18_W_Exterior",
      "primitives": [
        {
          "attributes": {
            "NORMAL": 18,
            "POSITION": 17,
            "TEXCOORD_0": 19
          },
          "indices": 16,
          "material": 0,
          "mode": 4
        }
      ]
    },
    {
      "name": "18_W_Interior",
      "primitives": [
        {
          "attributes": {
            "NORMAL": 22,
            "POSITION": 21,
            "TEXCOORD_0": 23
          },
          "indices": 20,
          "material": 4,
          "mode": 4
        }
      ]
    }
  ],
  "nodes": [
    {
      "children": [
        1,
        3,
        5,
        7,
        9,
        11
      ],
      "name": "root",
      "scale": [
        27.4793834686279,
        27.4793834686279,
        27.4793834686279
      ],
      "translation": [
        -0.002655029296875,
        27.479284286499,
        0.220285534858704
      ]
    },
    {
      "children": [
        2
      ],
      "name": "18_W_Hardware"
    },
    {
      "mesh": 0,
      "name": "18_W_Hardware"
    },
    {
      "children": [
        4
      ],
      "name": "18_W_Gray"
    },
    {
      "mesh": 1,
      "name": "18_W_Gray"
    },
    {
      "children": [
        6
      ],
      "name": "18_W_Spacers"
    },
    {
      "mesh": 2,
      "name": "18_W_Spacers"
    },
    {
      "children": [
        8
      ],
      "name": "18_W_Glass"
    },
    {
      "mesh": 3,
      "name": "18_W_Glass"
    },
    {
      "children": [
        10
      ],
      "name": "18_W_Exterior"
    },
    {
      "mesh": 4,
      "name": "18_W_Exterior"
    },
    {
      "children": [
        12
      ],
      "name": "18_W_Interior"
    },
    {
      "mesh": 5,
      "name": "18_W_Interior"
    }
  ],
  "samplers": [
    {
      "magFilter": 9729,
      "minFilter": 9985,
      "wrapS": 10497,
      "wrapT": 10497
    }
  ],
  "scene": 0,
  "scenes": [
    {
      "name": "Scene",
      "nodes": [
        0
      ]
    }
  ],
  "textures": [
    {
      "sampler": 0,
      "source": 0
    },
    {
      "sampler": 0,
      "source": 1
    },
    {
      "sampler": 0,
      "source": 2
    },
    {
      "sampler": 0,
      "source": 3
    },
    {
      "sampler": 0,
      "source": 4
    },
    {
      "sampler": 0,
      "source": 5
    },
    {
      "sampler": 0,
      "source": 6
    },
    {
      "sampler": 0,
      "source": 7
    },
    {
      "sampler": 0,
      "source": 8
    },
    {
      "sampler": 0,
      "source": 9
    },
    {
      "sampler": 0,
      "source": 10
    },
    {
      "sampler": 0,
      "source": 11
    },
    {
      "sampler": 0,
      "source": 12
    },
    {
      "sampler": 0,
      "source": 13
    },
    {
      "sampler": 0,
      "source": 14
    },
    {
      "sampler": 0,
      "source": 15
    },
    {
      "sampler": 0,
      "source": 16
    },
    {
      "sampler": 0,
      "source": 17
    },
    {
      "sampler": 0,
      "source": 18
    },
    {
      "sampler": 0,
      "source": 19
    },
    {
      "sampler": 0,
      "source": 20
    },
    {
      "sampler": 0,
      "source": 21
    },
    {
      "sampler": 0,
      "source": 22
    },
    {
      "sampler": 0,
      "source": 23
    }
  ]
}