{
  "accessors": [
    {
      "bufferView": 0,
      "componentType": 5125,
      "count": 33552,
      "type": "SCALAR"
    },
    {
      "bufferView": 1,
      "componentType": 5126,
      "count": 23073,
      "max": [
        0.212762072682381,
        -0.508461177349091,
        0.114214956760406
      ],
      "min": [
        -0.505703449249268,
        -0.932615578174591,
        0.053101010620594
      ],
      "type": "VEC3"
    },
    {
      "bufferView": 2,
      "componentType": 5126,
      "count": 23073,
      "type": "VEC3"
    },
    {
      "bufferView": 3,
      "componentType": 5126,
      "count": 23073,
      "type": "VEC2"
    },
    {
      "bufferView": 4,
      "componentType": 5125,
      "count": 2082,
      "type": "SCALAR"
    },
    {
      "bufferView": 5,
      "componentType": 5126,
      "count": 1719,
      "max": [
        0.569223165512085,
        0.999999225139618,
        0.0404742322862148
      ],
      "min": [
        -0.568316161632538,
        -0.960887670516968,
        -0.113861069083214
      ],
      "type": "VEC3"
    },
    {
      "bufferView": 6,
      "componentType": 5126,
      "count": 1719,
      "type": "VEC3"
    },
    {
      "bufferView": 7,
      "componentType": 5126,
      "count": 1719,
      "type": "VEC2"
    },
    {
      "bufferView": 8,
      "componentType": 5125,
      "count": 540,
      "type": "SCALAR"
    },
    {
      "bufferView": 9,
      "componentType": 5126,
      "count": 317,
      "max": [
        0.452242314815521,
        0.874843239784241,
        -0.0295262206345797
      ],
      "min": [
        -0.452723920345306,
        -0.868684113025665,
        -0.0554665774106979
      ],
      "type": "VEC3"
    },
    {
      "bufferView": 10,
      "componentType": 5126,
      "count": 317,
      "type": "VEC3"
    },
    {
      "bufferView": 11,
      "componentType": 5126,
      "count": 317,
      "type": "VEC2"
    },
    {
      "bufferView": 12,
      "componentType": 5125,
      "count": 24,
      "type": "SCALAR"
    },
    {
      "bufferView": 13,
      "componentType": 5126,
      "count": 16,
      "max": [
        0.446411311626434,
        0.873266398906708,
        -0.0223358105868101
      ],
      "min": [
        -0.440745294094086,
        -0.865479707717896,
        -0.0667925998568535
      ],
      "type": "VEC3"
    },
    {
      "bufferView": 14,
      "componentType": 5126,
      "count": 16,
      "type": "VEC3"
    },
    {
      "bufferView": 15,
      "componentType": 5126,
      "count": 16,
      "type": "VEC2"
    },
    {
      "bufferView": 16,
      "componentType": 5125,
      "count": 18507,
      "type": "SCALAR"
    },
    {
      "bufferView": 17,
      "componentType": 5126,
      "count": 13441,
      "max": [
        0.581368565559387,
        1.00000011920929,
        0.0638635978102684
      ],
      "min": [
        -0.581404805183411,
        -0.999999821186066,
        -0.114214949309826
      ],
      "type": "VEC3"
    },
    {
      "bufferView": 18,
      "componentType": 5126,
      "count": 13441,
      "type": "VEC3"
    },
    {
      "bufferView": 19,
      "componentType": 5126,
      "count": 13441,
      "type": "VEC2"
    },
    {
      "bufferView": 20,
      "componentType": 5125,
      "count": 9495,
      "type": "SCALAR"
    },
    {
      "bufferView": 21,
      "componentType": 5126,
      "count": 7038,
      "max": [
        0.581404745578766,
        0.999999940395355,
        0.0920094400644302
      ],
      "min": [
        -0.581404745578766,
        -1.0,
        -0.0782741829752922
      ],
      "type": "VEC3"
    },
    {
      "bufferView": 22,
      "componentType": 5126,
      "count": 7038,
      "type": "VEC3"
    },
    {
      "bufferView": 23,
      "componentType": 5126,
      "count": 7038,
      "type": "VEC2"
    }
  ],
  "asset": {
    "generator": "Substance Painter 2019.2.1",
    "version": "2.0"
  },
  "bufferViews": [
    {
      "buffer": 0,
      "byteLength": 134208,
      "target": 34963
    },
    {
      "buffer": 0,
      "byteLength": 276876,
      "byteOffset": 134208,
      "target": 34962
    },
    {
      "buffer": 0,
      "byteLength": 276876,
      "byteOffset": 411084,
      "target": 34962
    },
    {
      "buffer": 0,
      "byteLength": 184584,
      "byteOffset": 687960,
      "target": 34962
    },
    {
      "buffer": 0,
      "byteLength": 8328,
      "byteOffset": 872544,
      "target": 34963
    },
    {
      "buffer": 0,
      "byteLength": 20628,
      "byteOffset": 880872,
      "target": 34962
    },
    {
      "buffer": 0,
      "byteLength": 20628,
      "byteOffset": 901500,
      "target": 34962
    },
    {
      "buffer": 0,
      "byteLength": 13752,
      "byteOffset": 922128,
      "target": 34962
    },
    {
      "buffer": 0,
      "byteLength": 2160,
      "byteOffset": 935880,
      "target": 34963
    },
    {
      "buffer": 0,
      "byteLength": 3804,
      "byteOffset": 938040,
      "target": 34962
    },
    {
      "buffer": 0,
      "byteLength": 3804,
      "byteOffset": 941844,
      "target": 34962
    },
    {
      "buffer": 0,
      "byteLength": 2536,
      "byteOffset": 945648,
      "target": 34962
    },
    {
      "buffer": 0,
      "byteLength": 96,
      "byteOffset": 948184,
      "target": 34963
    },
    {
      "buffer": 0,
      "byteLength": 192,
      "byteOffset": 948280,
      "target": 34962
    },
    {
      "buffer": 0,
      "byteLength": 192,
      "byteOffset": 948472,
      "target": 34962
    },
    {
      "buffer": 0,
      "byteLength": 128,
      "byteOffset": 948664,
      "target": 34962
    },
    {
      "buffer": 0,
      "byteLength": 74028,
      "byteOffset": 948792,
      "target": 34963
    },
    {
      "buffer": 0,
      "byteLength": 161292,
      "byteOffset": 1022820,
      "target": 34962
    },
    {
      "buffer": 0,
      "byteLength": 161292,
      "byteOffset": 1184112,
      "target": 34962
    },
    {
      "buffer": 0,
      "byteLength": 107528,
      "byteOffset": 1345404,
      "target": 34962
    },
    {
      "buffer": 0,
      "byteLength": 37980,
      "byteOffset": 1452932,
      "target": 34963
    },
    {
      "buffer": 0,
      "byteLength": 84456,
      "byteOffset": 1490912,
      "target": 34962
    },
    {
      "buffer": 0,
      "byteLength": 84456,
      "byteOffset": 1575368,
      "target": 34962
    },
    {
      "buffer": 0,
      "byteLength": 56304,
      "byteOffset": 1659824,
      "target": 34962
    }
  ],
  "buffers": [
    {
      "byteLength": 1716128,
      "uri": "18_W_CasementSingle_v01.bin"
    }
  ],
  "images": [
    {
      "uri": "18_W_Exterior_baseColor.png"
    },
    {
      "uri": "18_W_Exterior_occlusionRoughnessMetallic.png"
    },
    {
      "uri": "18_W_Exterior_normal.png"
    },
    {
      "uri": "18_W_Exterior_emissive.png"
    },
    {
      "uri": "18_W_Glass_baseColor.png"
    },
    {
      "uri": "18_W_Glass_occlusionRoughnessMetallic.png"
    },
    {
      "uri": "18_W_Glass_normal.png"
    },
    {
      "uri": "18_W_Glass_emissive.png"
    },
    {
      "uri": "18_W_Gray_baseColor.png"
    },
    {
      "uri": "18_W_Gray_occlusionRoughnessMetallic.png"
    },
    {
      "uri": "18_W_Gray_normal.png"
    },
    {
      "uri": "18_W_Gray_emissive.png"
    },
    {
      "uri": "18_W_Hardware_baseColor.png"
    },
    {
      "uri": "18_W_Hardware_occlusionRoughnessMetallic.png"
    },
    {
      "uri": "18_W_Hardware_normal.png"
    },
    {
      "uri": "18_W_Hardware_emissive.png"
    },
    {
      "uri": "18_W_Interior_baseColor.png"
    },
    {
      "uri": "18_W_Interior_occlusionRoughnessMetallic.png"
    },
    {
      "uri": "18_W_Interior_normal.png"
    },
    {
      "uri": "18_W_Interior_emissive.png"
    },
    {
      "uri": "18_W_Spacers_baseColor.png"
    },
    {
      "uri": "18_W_Spacers_occlusionRoughnessMetallic.png"
    },
    {
      "uri": "18_W_Spacers_normal.png"
    },
    {
      "uri": "18_W_Spacers_emissive.png"
    }
  ],
  "materials": [
    {
      "alphaMode": "OPAQUE",
      "emissiveFactor": [
        1.0,
        1.0,
        1.0
      ],
      "emissiveTexture": {
        "index": 3
      },
      "name": "18_W_Exterior",
      "normalTexture": {
        "index": 2
      },
      "occlusionTexture": {
        "index": 1
      },
      "pbrMetallicRoughness": {
        "baseColorTexture": {
          "index": 0
        },
        "metallicRoughnessTexture": {
          "index": 1
        }
      }
    },
    {
      "alphaMode": "BLEND",
      "emissiveFactor": [
        1.0,
        1.0,
        1.0
      ],
      "emissiveTexture": {
        "index": 7
      },
      "name": "18_W_Glass",
      "normalTexture": {
        "index": 6
      },
      "occlusionTexture": {
        "index": 5
      },
      "pbrMetallicRoughness": {
        "baseColorTexture": {
          "index": 4
        },
        "metallicRoughnessTexture": {
          "index": 5
        }
      }
    },
    {
      "alphaMode": "OPAQUE",
      "emissiveFactor": [
        1.0,
        1.0,
        1.0
      ],
      "emissiveTexture": {
        "index": 11
      },
      "name": "18_W_Gray",
      "normalTexture": {
        "index": 10
      },
      "occlusionTexture": {
        "index": 9
      },
      "pbrMetallicRoughness": {
        "baseColorTexture": {
          "index": 8
        },
        "metallicRoughnessTexture": {
          "index": 9
        }
      }
    },
    {
      "alphaMode": "OPAQUE",
      "emissiveFactor": [
        1.0,
        1.0,
        1.0
      ],
      "emissiveTexture": {
        "index": 15
      },
      "name": "18_W_Hardware",
      "normalTexture": {
        "index": 14
      },
      "occlusionTexture": {
        "index": 13
      },
      "pbrMetallicRoughness": {
        "baseColorTexture": {
          "index": 12
        },
        "metallicRoughnessTexture": {
          "index": 13
        }
      }
    },
    {
      "alphaMode": "OPAQUE",
      "emissiveFactor": [
        1.0,
        1.0,
        1.0
      ],
      "emissiveTexture": {
        "index": 19
      },
      "name": "18_W_Interior",
      "normalTexture": {
        "index": 18
      },
      "occlusionTexture": {
        "index": 17
      },
      "pbrMetallicRoughness": {
        "baseColorTexture": {
          "index": 16
        },
        "metallicRoughnessTexture": {
          "index": 17
        }
      }
    },
    {
      "alphaMode": "OPAQUE",
      "emissiveFactor": [
        1.0,
        1.0,
        1.0
      ],
      "emissiveTexture": {
        "index": 23
      },
      "name": "18_W_Spacers",
      "normalTexture": {
        "index": 22
      },
      "occlusionTexture": {
        "index": 21
      },
      "pbrMetallicRoughness": {
        "baseColorTexture": {
          "index": 20
        },
        "metallicRoughnessTexture": {
          "index": 21
        }
      }
    }
  ],
  "meshes": [
    {
      "name": "18_W_Hardware",
      "primitives": [
        {
          "attributes": {
            "NORMAL": 2,
            "POSITION": 1,
            "TEXCOORD_0": 3
          },
          "indices": 0,
          "material": 3,
          "mode": 4
        }
      ]
    },
    {
      "name": "18_W_Gray",
      "primitives": [
        {
          "attributes": {
            "NORMAL": 6,
            "POSITION": 5,
            "TEXCOORD_0": 7
          },
          "indices": 4,
          "material": 2,
          "mode": 4
        }
      ]
    },
    {
      "name": "18_W_Spacers",
      "primitives": [
        {
          "attributes": {
            "NORMAL": 10,
            "POSITION": 9,
            "TEXCOORD_0": 11
          },
          "indices": 8,
          "material": 5,
          "mode": 4
        }
      ]
    },
    {
      "name": "18_W_Glass",
      "primitives": [
        {
          "attributes": {
            "NORMAL": 14,
            "POSITION": 13,
            "TEXCOORD_0": 15
          },
          "indices": 12,
          "material": 1,
          "mode": 4
        }
      ]
    },
    {
      "name": "18_W_Exterior",
      "primitives": [
        {
          "attributes": {
            "NORMAL": 18,
            "POSITION": 17,
            "TEXCOORD_0": 19
          },
          "indices": 16,
          "material": 0,
          "mode": 4
        }
      ]
    },
    {
      "name": "18_W_Interior",
      "primitives": [
        {
          "attributes": {
            "NORMAL": 22,
            "POSITION": 21,
            "TEXCOORD_0": 23
          },
          "indices": 20,
          "material": 4,
          "mode": 4
        }
      ]
    }
  ],
  "nodes": [
    {
      "children": [
        1,
        3,
        5,
        7,
        9,
        11
      ],
      "name": "root",
      "scale": [
        0.664296984672546,
        0.664296984672546,
        0.664296984672546
      ],
      "translation": [
        0.0,
        0.663954555988312,
        0.0597463771700859
      ]
    },
    {
      "children": [
        2
      ],
      "name": "18_W_Hardware"
    },
    {
      "mesh": 0,
      "name": "18_W_Hardware"
    },
    {
      "children": [
        4
      ],
      "name": "18_W_Gray"
    },
    {
      "mesh": 1,
      "name": "18_W_Gray"
    },
    {
      "children": [
        6
      ],
      "name": "18_W_Spacers"
    },
    {
      "mesh": 2,
      "name": "18_W_Spacers"
    },
    {
      "children": [
        8
      ],
      "name": "18_W_Glass"
    },
    {
      "mesh": 3,
      "name": "18_W_Glass"
    },
    {
      "children": [
        10
      ],
      "name": "18_W_Exterior"
    },
    {
      "mesh": 4,
      "name": "18_W_Exterior"
    },
    {
      "children": [
        12
      ],
      "name": "18_W_Interior"
    },
    {
      "mesh": 5,
      "name": "18_W_Interior"
    }
  ],
  "samplers": [
    {
      "magFilter": 9729,
      "minFilter": 9985,
      "wrapS": 10497,
      "wrapT": 10497
    }
  ],
  "scene": 0,
  "scenes": [
    {
      "name": "Scene",
      "nodes": [
        0
      ]
    }
  ],
  "textures": [
    {
      "sampler": 0,
      "source": 0
    },
    {
      "sampler": 0,
      "source": 1
    },
    {
      "sampler": 0,
      "source": 2
    },
    {
      "sampler": 0,
      "source": 3
    },
    {
      "sampler": 0,
      "source": 4
    },
    {
      "sampler": 0,
      "source": 5
    },
    {
      "sampler": 0,
      "source": 6
    },
    {
      "sampler": 0,
      "source": 7
    },
    {
      "sampler": 0,
      "source": 8
    },
    {
      "sampler": 0,
      "source": 9
    },
    {
      "sampler": 0,
      "source": 10
    },
    {
      "sampler": 0,
      "source": 11
    },
    {
      "sampler": 0,
      "source": 12
    },
    {
      "sampler": 0,
      "source": 13
    },
    {
      "sampler": 0,
      "source": 14
    },
    {
      "sampler": 0,
      "source": 15
    },
    {
      "sampler": 0,
      "source": 16
    },
    {
      "sampler": 0,
      "source": 17
    },
    {
      "sampler": 0,
      "source": 18
    },
    {
      "sampler": 0,
      "source": 19
    },
    {
      "sampler": 0,
      "source": 20
    },
    {
      "sampler": 0,
      "source": 21
    },
    {
      "sampler": 0,
      "source": 22
    },
    {
      "sampler": 0,
      "source": 23
    }
  ]
}