{
  "accessors": [
    {
      "bufferView": 0,
      "componentType": 5125,
      "count": 23919,
      "type": "SCALAR"
    },
    {
      "bufferView": 1,
      "componentType": 5126,
      "count": 11182,
      "max": [
        0.447595149278641,
        1.88224828243256,
        0.308775186538696
      ],
      "min": [
        -0.690645575523376,
        -0.84325897693634,
        0.0961517989635468
      ],
      "type": "VEC3"
    },
    {
      "bufferView": 2,
      "componentType": 5126,
      "count": 11182,
      "type": "VEC3"
    },
    {
      "bufferView": 3,
      "componentType": 5126,
      "count": 11182,
      "type": "VEC2"
    },
    {
      "bufferView": 4,
      "componentType": 5125,
      "count": 864,
      "type": "SCALAR"
    },
    {
      "bufferView": 5,
      "componentType": 5126,
      "count": 501,
      "max": [
        1.4881089925766,
        1.85795962810516,
        0.20955553650856
      ],
      "min": [
        -1.70558369159698,
        -0.634374499320984,
        0.194301635026932
      ],
      "type": "VEC3"
    },
    {
      "bufferView": 6,
      "componentType": 5126,
      "count": 501,
      "type": "VEC3"
    },
    {
      "bufferView": 7,
      "componentType": 5126,
      "count": 501,
      "type": "VEC2"
    },
    {
      "bufferView": 8,
      "componentType": 5125,
      "count": 36,
      "type": "SCALAR"
    },
    {
      "bufferView": 9,
      "componentType": 5126,
      "count": 24,
      "max": [
        1.49003994464874,
        1.8597127199173,
        0.214507892727852
      ],
      "min": [
        -1.70720207691193,
        -0.636151432991028,
        0.189049184322357
      ],
      "type": "VEC3"
    },
    {
      "bufferView": 10,
      "componentType": 5126,
      "count": 24,
      "type": "VEC3"
    },
    {
      "bufferView": 11,
      "componentType": 5126,
      "count": 24,
      "type": "VEC2"
    },
    {
      "bufferView": 12,
      "componentType": 5125,
      "count": 1212,
      "type": "SCALAR"
    },
    {
      "bufferView": 13,
      "componentType": 5126,
      "count": 656,
      "max": [
        1.62225162982941,
        -0.930599808692932,
        0.24675253033638
      ],
      "min": [
        -1.83935225009918,
        -0.999996185302734,
        0.0486319735646248
      ],
      "type": "VEC3"
    },
    {
      "bufferView": 14,
      "componentType": 5126,
      "count": 656,
      "type": "VEC3"
    },
    {
      "bufferView": 15,
      "componentType": 5126,
      "count": 656,
      "type": "VEC2"
    },
    {
      "bufferView": 16,
      "componentType": 5125,
      "count": 7656,
      "type": "SCALAR"
    },
    {
      "bufferView": 17,
      "componentType": 5126,
      "count": 4535,
      "max": [
        1.65134620666504,
        1.99744606018066,
        0.246976763010025
      ],
      "min": [
        -1.83611392974854,
        -0.99999737739563,
        0.0486320033669472
      ],
      "type": "VEC3"
    },
    {
      "bufferView": 18,
      "componentType": 5126,
      "count": 4535,
      "type": "VEC3"
    },
    {
      "bufferView": 19,
      "componentType": 5126,
      "count": 4535,
      "type": "VEC2"
    },
    {
      "bufferView": 20,
      "componentType": 5125,
      "count": 12036,
      "type": "SCALAR"
    },
    {
      "bufferView": 21,
      "componentType": 5126,
      "count": 7642,
      "max": [
        1.6514778137207,
        2.05132246017456,
        0.224277079105377
      ],
      "min": [
        -1.86857604980469,
        -0.994933485984802,
        0.059040404856205
      ],
      "type": "VEC3"
    },
    {
      "bufferView": 22,
      "componentType": 5126,
      "count": 7642,
      "type": "VEC3"
    },
    {
      "bufferView": 23,
      "componentType": 5126,
      "count": 7642,
      "type": "VEC2"
    },
    {
      "bufferView": 24,
      "componentType": 5125,
      "count": 7332,
      "type": "SCALAR"
    },
    {
      "bufferView": 25,
      "componentType": 5126,
      "count": 4548,
      "max": [
        1.6514778137207,
        2.05132246017456,
        0.246753931045532
      ],
      "min": [
        -1.86857604980469,
        -0.994965434074402,
        0.11121579259634
      ],
      "type": "VEC3"
    },
    {
      "bufferView": 26,
      "componentType": 5126,
      "count": 4548,
      "type": "VEC3"
    },
    {
      "bufferView": 27,
      "componentType": 5126,
      "count": 4548,
      "type": "VEC2"
    }
  ],
  "asset": {
    "generator": "Substance Painter 2019.2.1",
    "version": "2.0"
  },
  "bufferViews": [
    {
      "buffer": 0,
      "byteLength": 95676,
      "target": 34963
    },
    {
      "buffer": 0,
      "byteLength": 134184,
      "byteOffset": 95676,
      "target": 34962
    },
    {
      "buffer": 0,
      "byteLength": 134184,
      "byteOffset": 229860,
      "target": 34962
    },
    {
      "buffer": 0,
      "byteLength": 89456,
      "byteOffset": 364044,
      "target": 34962
    },
    {
      "buffer": 0,
      "byteLength": 3456,
      "byteOffset": 453500,
      "target": 34963
    },
    {
      "buffer": 0,
      "byteLength": 6012,
      "byteOffset": 456956,
      "target": 34962
    },
    {
      "buffer": 0,
      "byteLength": 6012,
      "byteOffset": 462968,
      "target": 34962
    },
    {
      "buffer": 0,
      "byteLength": 4008,
      "byteOffset": 468980,
      "target": 34962
    },
    {
      "buffer": 0,
      "byteLength": 144,
      "byteOffset": 472988,
      "target": 34963
    },
    {
      "buffer": 0,
      "byteLength": 288,
      "byteOffset": 473132,
      "target": 34962
    },
    {
      "buffer": 0,
      "byteLength": 288,
      "byteOffset": 473420,
      "target": 34962
    },
    {
      "buffer": 0,
      "byteLength": 192,
      "byteOffset": 473708,
      "target": 34962
    },
    {
      "buffer": 0,
      "byteLength": 4848,
      "byteOffset": 473900,
      "target": 34963
    },
    {
      "buffer": 0,
      "byteLength": 7872,
      "byteOffset": 478748,
      "target": 34962
    },
    {
      "buffer": 0,
      "byteLength": 7872,
      "byteOffset": 486620,
      "target": 34962
    },
    {
      "buffer": 0,
      "byteLength": 5248,
      "byteOffset": 494492,
      "target": 34962
    },
    {
      "buffer": 0,
      "byteLength": 30624,
      "byteOffset": 499740,
      "target": 34963
    },
    {
      "buffer": 0,
      "byteLength": 54420,
      "byteOffset": 530364,
      "target": 34962
    },
    {
      "buffer": 0,
      "byteLength": 54420,
      "byteOffset": 584784,
      "target": 34962
    },
    {
      "buffer": 0,
      "byteLength": 36280,
      "byteOffset": 639204,
      "target": 34962
    },
    {
      "buffer": 0,
      "byteLength": 48144,
      "byteOffset": 675484,
      "target": 34963
    },
    {
      "buffer": 0,
      "byteLength": 91704,
      "byteOffset": 723628,
      "target": 34962
    },
    {
      "buffer": 0,
      "byteLength": 91704,
      "byteOffset": 815332,
      "target": 34962
    },
    {
      "buffer": 0,
      "byteLength": 61136,
      "byteOffset": 907036,
      "target": 34962
    },
    {
      "buffer": 0,
      "byteLength": 29328,
      "byteOffset": 968172,
      "target": 34963
    },
    {
      "buffer": 0,
      "byteLength": 54576,
      "byteOffset": 997500,
      "target": 34962
    },
    {
      "buffer": 0,
      "byteLength": 54576,
      "byteOffset": 1052076,
      "target": 34962
    },
    {
      "buffer": 0,
      "byteLength": 36384,
      "byteOffset": 1106652,
      "target": 34962
    }
  ],
  "buffers": [
    {
      "byteLength": 1143036,
      "uri": "16_D_FWAInswingTriple.bin"
    }
  ],
  "images": [
    {
      "uri": "16_D_Exterior_baseColor.png"
    },
    {
      "uri": "16_D_Exterior_occlusionRoughnessMetallic.png"
    },
    {
      "uri": "16_D_Exterior_normal.png"
    },
    {
      "uri": "16_D_Exterior_emissive.png"
    },
    {
      "uri": "16_D_Glass_baseColor.png"
    },
    {
      "uri": "16_D_Glass_occlusionRoughnessMetallic.png"
    },
    {
      "uri": "16_D_Glass_normal.png"
    },
    {
      "uri": "16_D_Glass_emissive.png"
    },
    {
      "uri": "16_D_Gray_baseColor.png"
    },
    {
      "uri": "16_D_Gray_occlusionRoughnessMetallic.png"
    },
    {
      "uri": "16_D_Gray_normal.png"
    },
    {
      "uri": "16_D_Gray_emissive.png"
    },
    {
      "uri": "16_D_Hardware_baseColor.png"
    },
    {
      "uri": "16_D_Hardware_occlusionRoughnessMetallic.png"
    },
    {
      "uri": "16_D_Hardware_normal.png"
    },
    {
      "uri": "16_D_Hardware_emissive.png"
    },
    {
      "uri": "16_D_Interior_baseColor.png"
    },
    {
      "uri": "16_D_Interior_occlusionRoughnessMetallic.png"
    },
    {
      "uri": "16_D_Interior_normal.png"
    },
    {
      "uri": "16_D_Interior_emissive.png"
    },
    {
      "uri": "16_D_Sill_baseColor.png"
    },
    {
      "uri": "16_D_Sill_occlusionRoughnessMetallic.png"
    },
    {
      "uri": "16_D_Sill_normal.png"
    },
    {
      "uri": "16_D_Sill_emissive.png"
    },
    {
      "uri": "16_D_Spacers_baseColor.png"
    },
    {
      "uri": "16_D_Spacers_occlusionRoughnessMetallic.png"
    },
    {
      "uri": "16_D_Spacers_normal.png"
    },
    {
      "uri": "16_D_Spacers_emissive.png"
    }
  ],
  "materials": [
    {
      "alphaMode": "OPAQUE",
      "emissiveFactor": [
        1.0,
        1.0,
        1.0
      ],
      "emissiveTexture": {
        "index": 3
      },
      "name": "16_D_Exterior",
      "normalTexture": {
        "index": 2
      },
      "occlusionTexture": {
        "index": 1
      },
      "pbrMetallicRoughness": {
        "baseColorTexture": {
          "index": 0
        },
        "metallicRoughnessTexture": {
          "index": 1
        }
      }
    },
    {
      "alphaMode": "BLEND",
      "emissiveFactor": [
        1.0,
        1.0,
        1.0
      ],
      "emissiveTexture": {
        "index": 7
      },
      "name": "16_D_Glass",
      "normalTexture": {
        "index": 6
      },
      "occlusionTexture": {
        "index": 5
      },
      "pbrMetallicRoughness": {
        "baseColorTexture": {
          "index": 4
        },
        "metallicRoughnessTexture": {
          "index": 5
        }
      }
    },
    {
      "alphaMode": "OPAQUE",
      "emissiveFactor": [
        1.0,
        1.0,
        1.0
      ],
      "emissiveTexture": {
        "index": 11
      },
      "name": "16_D_Gray",
      "normalTexture": {
        "index": 10
      },
      "occlusionTexture": {
        "index": 9
      },
      "pbrMetallicRoughness": {
        "baseColorTexture": {
          "index": 8
        },
        "metallicRoughnessTexture": {
          "index": 9
        }
      }
    },
    {
      "alphaMode": "OPAQUE",
      "emissiveFactor": [
        1.0,
        1.0,
        1.0
      ],
      "emissiveTexture": {
        "index": 15
      },
      "name": "16_D_Hardware",
      "normalTexture": {
        "index": 14
      },
      "occlusionTexture": {
        "index": 13
      },
      "pbrMetallicRoughness": {
        "baseColorTexture": {
          "index": 12
        },
        "metallicRoughnessTexture": {
          "index": 13
        }
      }
    },
    {
      "alphaMode": "OPAQUE",
      "emissiveFactor": [
        1.0,
        1.0,
        1.0
      ],
      "emissiveTexture": {
        "index": 19
      },
      "name": "16_D_Interior",
      "normalTexture": {
        "index": 18
      },
      "occlusionTexture": {
        "index": 17
      },
      "pbrMetallicRoughness": {
        "baseColorTexture": {
          "index": 16
        },
        "metallicRoughnessTexture": {
          "index": 17
        }
      }
    },
    {
      "alphaMode": "OPAQUE",
      "emissiveFactor": [
        1.0,
        1.0,
        1.0
      ],
      "emissiveTexture": {
        "index": 23
      },
      "name": "16_D_Sill",
      "normalTexture": {
        "index": 22
      },
      "occlusionTexture": {
        "index": 21
      },
      "pbrMetallicRoughness": {
        "baseColorTexture": {
          "index": 20
        },
        "metallicRoughnessTexture": {
          "index": 21
        }
      }
    },
    {
      "alphaMode": "OPAQUE",
      "emissiveFactor": [
        1.0,
        1.0,
        1.0
      ],
      "emissiveTexture": {
        "index": 27
      },
      "name": "16_D_Spacers",
      "normalTexture": {
        "index": 26
      },
      "occlusionTexture": {
        "index": 25
      },
      "pbrMetallicRoughness": {
        "baseColorTexture": {
          "index": 24
        },
        "metallicRoughnessTexture": {
          "index": 25
        }
      }
    }
  ],
  "meshes": [
    {
      "name": "16_D_Hardware",
      "primitives": [
        {
          "attributes": {
            "NORMAL": 2,
            "POSITION": 1,
            "TEXCOORD_0": 3
          },
          "indices": 0,
          "material": 3,
          "mode": 4
        }
      ]
    },
    {
      "name": "16_D_Spacers",
      "primitives": [
        {
          "attributes": {
            "NORMAL": 6,
            "POSITION": 5,
            "TEXCOORD_0": 7
          },
          "indices": 4,
          "material": 6,
          "mode": 4
        }
      ]
    },
    {
      "name": "16_D_Glass",
      "primitives": [
        {
          "attributes": {
            "NORMAL": 10,
            "POSITION": 9,
            "TEXCOORD_0": 11
          },
          "indices": 8,
          "material": 1,
          "mode": 4
        }
      ]
    },
    {
      "name": "16_D_Sill",
      "primitives": [
        {
          "attributes": {
            "NORMAL": 14,
            "POSITION": 13,
            "TEXCOORD_0": 15
          },
          "indices": 12,
          "material": 5,
          "mode": 4
        }
      ]
    },
    {
      "name": "16_D_Gray",
      "primitives": [
        {
          "attributes": {
            "NORMAL": 18,
            "POSITION": 17,
            "TEXCOORD_0": 19
          },
          "indices": 16,
          "material": 2,
          "mode": 4
        }
      ]
    },
    {
      "name": "16_D_Exterior",
      "primitives": [
        {
          "attributes": {
            "NORMAL": 22,
            "POSITION": 21,
            "TEXCOORD_0": 23
          },
          "indices": 20,
          "material": 0,
          "mode": 4
        }
      ]
    },
    {
      "name": "16_D_Interior",
      "primitives": [
        {
          "attributes": {
            "NORMAL": 26,
            "POSITION": 25,
            "TEXCOORD_0": 27
          },
          "indices": 24,
          "material": 4,
          "mode": 4
        }
      ]
    }
  ],
  "nodes": [
    {
      "children": [
        1,
        3,
        5,
        7,
        9,
        11,
        13
      ],
      "name": "root",
      "scale": [
        27.4793834686279,
        27.4793834686279,
        27.4793834686279
      ],
      "translation": [
        -0.002655029296875,
        27.479284286499,
        0.220285534858704
      ]
    },
    {
      "children": [
        2
      ],
      "name": "16_D_Hardware"
    },
    {
      "mesh": 0,
      "name": "16_D_Hardware"
    },
    {
      "children": [
        4
      ],
      "name": "16_D_Spacers"
    },
    {
      "mesh": 1,
      "name": "16_D_Spacers"
    },
    {
      "children": [
        6
      ],
      "name": "16_D_Glass"
    },
    {
      "mesh": 2,
      "name": "16_D_Glass"
    },
    {
      "children": [
        8
      ],
      "name": "16_D_Sill"
    },
    {
      "mesh": 3,
      "name": "16_D_Sill"
    },
    {
      "children": [
        10
      ],
      "name": "16_D_Gray"
    },
    {
      "mesh": 4,
      "name": "16_D_Gray"
    },
    {
      "children": [
        12
      ],
      "name": "16_D_Exterior"
    },
    {
      "mesh": 5,
      "name": "16_D_Exterior"
    },
    {
      "children": [
        14
      ],
      "name": "16_D_Interior"
    },
    {
      "mesh": 6,
      "name": "16_D_Interior"
    }
  ],
  "samplers": [
    {
      "magFilter": 9729,
      "minFilter": 9985,
      "wrapS": 10497,
      "wrapT": 10497
    }
  ],
  "scene": 0,
  "scenes": [
    {
      "name": "Scene",
      "nodes": [
        0
      ]
    }
  ],
  "textures": [
    {
      "sampler": 0,
      "source": 0
    },
    {
      "sampler": 0,
      "source": 1
    },
    {
      "sampler": 0,
      "source": 2
    },
    {
      "sampler": 0,
      "source": 3
    },
    {
      "sampler": 0,
      "source": 4
    },
    {
      "sampler": 0,
      "source": 5
    },
    {
      "sampler": 0,
      "source": 6
    },
    {
      "sampler": 0,
      "source": 7
    },
    {
      "sampler": 0,
      "source": 8
    },
    {
      "sampler": 0,
      "source": 9
    },
    {
      "sampler": 0,
      "source": 10
    },
    {
      "sampler": 0,
      "source": 11
    },
    {
      "sampler": 0,
      "source": 12
    },
    {
      "sampler": 0,
      "source": 13
    },
    {
      "sampler": 0,
      "source": 14
    },
    {
      "sampler": 0,
      "source": 15
    },
    {
      "sampler": 0,
      "source": 16
    },
    {
      "sampler": 0,
      "source": 17
    },
    {
      "sampler": 0,
      "source": 18
    },
    {
      "sampler": 0,
      "source": 19
    },
    {
      "sampler": 0,
      "source": 20
    },
    {
      "sampler": 0,
      "source": 21
    },
    {
      "sampler": 0,
      "source": 22
    },
    {
      "sampler": 0,
      "source": 23
    },
    {
      "sampler": 0,
      "source": 24
    },
    {
      "sampler": 0,
      "source": 25
    },
    {
      "sampler": 0,
      "source": 26
    },
    {
      "sampler": 0,
      "source": 27
    }
  ]
}