{
  "accessors": [
    {
      "bufferView": 0,
      "componentType": 5125,
      "count": 23919,
      "type": "SCALAR"
    },
    {
      "bufferView": 1,
      "componentType": 5126,
      "count": 15493,
      "max": [
        0.315986335277557,
        0.770774364471436,
        0.0739032775163651
      ],
      "min": [
        -0.330731451511383,
        -0.777785360813141,
        -0.0469036065042019
      ],
      "type": "VEC3"
    },
    {
      "bufferView": 2,
      "componentType": 5126,
      "count": 15493,
      "type": "VEC3"
    },
    {
      "bufferView": 3,
      "componentType": 5126,
      "count": 15493,
      "type": "VEC2"
    },
    {
      "bufferView": 4,
      "componentType": 5125,
      "count": 864,
      "type": "SCALAR"
    },
    {
      "bufferView": 5,
      "componentType": 5126,
      "count": 507,
      "max": [
        0.907178282737732,
        0.756975054740906,
        0.0175295528024435
      ],
      "min": [
        -0.907391965389252,
        -0.659102022647858,
        0.00886253826320171
      ],
      "type": "VEC3"
    },
    {
      "bufferView": 6,
      "componentType": 5126,
      "count": 507,
      "type": "VEC3"
    },
    {
      "bufferView": 7,
      "componentType": 5126,
      "count": 507,
      "type": "VEC2"
    },
    {
      "bufferView": 8,
      "componentType": 5125,
      "count": 36,
      "type": "SCALAR"
    },
    {
      "bufferView": 9,
      "componentType": 5126,
      "count": 24,
      "max": [
        0.908275425434113,
        0.757970750331879,
        0.020343542098999
      ],
      "min": [
        -0.908311605453491,
        -0.660112023353577,
        0.00587841728702188
      ],
      "type": "VEC3"
    },
    {
      "bufferView": 10,
      "componentType": 5126,
      "count": 24,
      "type": "VEC3"
    },
    {
      "bufferView": 11,
      "componentType": 5126,
      "count": 24,
      "type": "VEC2"
    },
    {
      "bufferView": 12,
      "componentType": 5125,
      "count": 1212,
      "type": "SCALAR"
    },
    {
      "bufferView": 13,
      "componentType": 5126,
      "count": 824,
      "max": [
        0.98339456319809,
        -0.827408969402313,
        0.0386634692549706
      ],
      "min": [
        -0.98339569568634,
        -0.866838097572327,
        -0.0739032849669456
      ],
      "type": "VEC3"
    },
    {
      "bufferView": 14,
      "componentType": 5126,
      "count": 824,
      "type": "VEC3"
    },
    {
      "bufferView": 15,
      "componentType": 5126,
      "count": 824,
      "type": "VEC2"
    },
    {
      "bufferView": 16,
      "componentType": 5125,
      "count": 7656,
      "type": "SCALAR"
    },
    {
      "bufferView": 17,
      "componentType": 5126,
      "count": 5016,
      "max": [
        0.999925374984741,
        0.836227536201477,
        0.0387910567224026
      ],
      "min": [
        -0.981555640697479,
        -0.866839289665222,
        -0.0739030987024307
      ],
      "type": "VEC3"
    },
    {
      "bufferView": 18,
      "componentType": 5126,
      "count": 5016,
      "type": "VEC3"
    },
    {
      "bufferView": 19,
      "componentType": 5126,
      "count": 5016,
      "type": "VEC2"
    },
    {
      "bufferView": 20,
      "componentType": 5125,
      "count": 12036,
      "type": "SCALAR"
    },
    {
      "bufferView": 21,
      "componentType": 5126,
      "count": 5089,
      "max": [
        1.0,
        0.866838812828064,
        0.0258937794715166
      ],
      "min": [
        -1.0,
        -0.863961815834045,
        -0.0679894536733627
      ],
      "type": "VEC3"
    },
    {
      "bufferView": 22,
      "componentType": 5126,
      "count": 5089,
      "type": "VEC3"
    },
    {
      "bufferView": 23,
      "componentType": 5126,
      "count": 5089,
      "type": "VEC2"
    },
    {
      "bufferView": 24,
      "componentType": 5125,
      "count": 7332,
      "type": "SCALAR"
    },
    {
      "bufferView": 25,
      "componentType": 5126,
      "count": 4999,
      "max": [
        1.0,
        0.866839408874512,
        0.0386647209525108
      ],
      "min": [
        -1.0,
        -0.863979458808899,
        -0.0383445844054222
      ],
      "type": "VEC3"
    },
    {
      "bufferView": 26,
      "componentType": 5126,
      "count": 4999,
      "type": "VEC3"
    },
    {
      "bufferView": 27,
      "componentType": 5126,
      "count": 4999,
      "type": "VEC2"
    }
  ],
  "asset": {
    "generator": "Substance Painter 2019.2.1",
    "version": "2.0"
  },
  "bufferViews": [
    {
      "buffer": 0,
      "byteLength": 95676,
      "target": 34963
    },
    {
      "buffer": 0,
      "byteLength": 185916,
      "byteOffset": 95676,
      "target": 34962
    },
    {
      "buffer": 0,
      "byteLength": 185916,
      "byteOffset": 281592,
      "target": 34962
    },
    {
      "buffer": 0,
      "byteLength": 123944,
      "byteOffset": 467508,
      "target": 34962
    },
    {
      "buffer": 0,
      "byteLength": 3456,
      "byteOffset": 591452,
      "target": 34963
    },
    {
      "buffer": 0,
      "byteLength": 6084,
      "byteOffset": 594908,
      "target": 34962
    },
    {
      "buffer": 0,
      "byteLength": 6084,
      "byteOffset": 600992,
      "target": 34962
    },
    {
      "buffer": 0,
      "byteLength": 4056,
      "byteOffset": 607076,
      "target": 34962
    },
    {
      "buffer": 0,
      "byteLength": 144,
      "byteOffset": 611132,
      "target": 34963
    },
    {
      "buffer": 0,
      "byteLength": 288,
      "byteOffset": 611276,
      "target": 34962
    },
    {
      "buffer": 0,
      "byteLength": 288,
      "byteOffset": 611564,
      "target": 34962
    },
    {
      "buffer": 0,
      "byteLength": 192,
      "byteOffset": 611852,
      "target": 34962
    },
    {
      "buffer": 0,
      "byteLength": 4848,
      "byteOffset": 612044,
      "target": 34963
    },
    {
      "buffer": 0,
      "byteLength": 9888,
      "byteOffset": 616892,
      "target": 34962
    },
    {
      "buffer": 0,
      "byteLength": 9888,
      "byteOffset": 626780,
      "target": 34962
    },
    {
      "buffer": 0,
      "byteLength": 6592,
      "byteOffset": 636668,
      "target": 34962
    },
    {
      "buffer": 0,
      "byteLength": 30624,
      "byteOffset": 643260,
      "target": 34963
    },
    {
      "buffer": 0,
      "byteLength": 60192,
      "byteOffset": 673884,
      "target": 34962
    },
    {
      "buffer": 0,
      "byteLength": 60192,
      "byteOffset": 734076,
      "target": 34962
    },
    {
      "buffer": 0,
      "byteLength": 40128,
      "byteOffset": 794268,
      "target": 34962
    },
    {
      "buffer": 0,
      "byteLength": 48144,
      "byteOffset": 834396,
      "target": 34963
    },
    {
      "buffer": 0,
      "byteLength": 61068,
      "byteOffset": 882540,
      "target": 34962
    },
    {
      "buffer": 0,
      "byteLength": 61068,
      "byteOffset": 943608,
      "target": 34962
    },
    {
      "buffer": 0,
      "byteLength": 40712,
      "byteOffset": 1004676,
      "target": 34962
    },
    {
      "buffer": 0,
      "byteLength": 29328,
      "byteOffset": 1045388,
      "target": 34963
    },
    {
      "buffer": 0,
      "byteLength": 59988,
      "byteOffset": 1074716,
      "target": 34962
    },
    {
      "buffer": 0,
      "byteLength": 59988,
      "byteOffset": 1134704,
      "target": 34962
    },
    {
      "buffer": 0,
      "byteLength": 39992,
      "byteOffset": 1194692,
      "target": 34962
    }
  ],
  "buffers": [
    {
      "byteLength": 1234684,
      "uri": "16_D_FWAInsingTriple_v01.bin"
    }
  ],
  "images": [
    {
      "uri": "16_D_Exterior_baseColor.png"
    },
    {
      "uri": "16_D_Exterior_occlusionRoughnessMetallic.png"
    },
    {
      "uri": "16_D_Exterior_normal.png"
    },
    {
      "uri": "16_D_Glass_baseColor.png"
    },
    {
      "uri": "16_D_Glass_occlusionRoughnessMetallic.png"
    },
    {
      "uri": "16_D_Glass_normal.png"
    },
    {
      "uri": "16_D_Glass_emissive.png"
    },
    {
      "uri": "16_D_Gray_baseColor.png"
    },
    {
      "uri": "16_D_Gray_occlusionRoughnessMetallic.png"
    },
    {
      "uri": "16_D_Gray_normal.png"
    },
    {
      "uri": "16_D_Gray_emissive.png"
    },
    {
      "uri": "16_D_Hardware_baseColor.png"
    },
    {
      "uri": "16_D_Hardware_occlusionRoughnessMetallic.png"
    },
    {
      "uri": "16_D_Hardware_normal.png"
    },
    {
      "uri": "16_D_Hardware_emissive.png"
    },
    {
      "uri": "16_D_Interior_baseColor.png"
    },
    {
      "uri": "16_D_Interior_occlusionRoughnessMetallic.png"
    },
    {
      "uri": "16_D_Interior_normal.png"
    },
    {
      "uri": "16_D_Interior_emissive.png"
    },
    {
      "uri": "16_D_Sill_baseColor.png"
    },
    {
      "uri": "16_D_Sill_occlusionRoughnessMetallic.png"
    },
    {
      "uri": "16_D_Sill_normal.png"
    },
    {
      "uri": "16_D_Sill_emissive.png"
    },
    {
      "uri": "16_D_Spacers_baseColor.png"
    },
    {
      "uri": "16_D_Spacers_occlusionRoughnessMetallic.png"
    },
    {
      "uri": "16_D_Spacers_normal.png"
    },
    {
      "uri": "16_D_Spacers_emissive.png"
    }
  ],
  "materials": [
    {
      "alphaMode": "OPAQUE",
      "name": "16_D_Exterior",
      "normalTexture": {
        "index": 2
      },
      "occlusionTexture": {
        "index": 1
      },
      "pbrMetallicRoughness": {
        "baseColorTexture": {
          "index": 0
        },
        "metallicRoughnessTexture": {
          "index": 1
        }
      }
    },
    {
      "alphaMode": "BLEND",
      "emissiveFactor": [
        1.0,
        1.0,
        1.0
      ],
      "emissiveTexture": {
        "index": 6
      },
      "name": "16_D_Glass",
      "normalTexture": {
        "index": 5
      },
      "occlusionTexture": {
        "index": 4
      },
      "pbrMetallicRoughness": {
        "baseColorTexture": {
          "index": 3
        },
        "metallicRoughnessTexture": {
          "index": 4
        }
      }
    },
    {
      "alphaMode": "OPAQUE",
      "emissiveFactor": [
        1.0,
        1.0,
        1.0
      ],
      "emissiveTexture": {
        "index": 10
      },
      "name": "16_D_Gray",
      "normalTexture": {
        "index": 9
      },
      "occlusionTexture": {
        "index": 8
      },
      "pbrMetallicRoughness": {
        "baseColorTexture": {
          "index": 7
        },
        "metallicRoughnessTexture": {
          "index": 8
        }
      }
    },
    {
      "alphaMode": "OPAQUE",
      "emissiveFactor": [
        1.0,
        1.0,
        1.0
      ],
      "emissiveTexture": {
        "index": 14
      },
      "name": "16_D_Hardware",
      "normalTexture": {
        "index": 13
      },
      "occlusionTexture": {
        "index": 12
      },
      "pbrMetallicRoughness": {
        "baseColorTexture": {
          "index": 11
        },
        "metallicRoughnessTexture": {
          "index": 12
        }
      }
    },
    {
      "alphaMode": "OPAQUE",
      "emissiveFactor": [
        1.0,
        1.0,
        1.0
      ],
      "emissiveTexture": {
        "index": 18
      },
      "name": "16_D_Interior",
      "normalTexture": {
        "index": 17
      },
      "occlusionTexture": {
        "index": 16
      },
      "pbrMetallicRoughness": {
        "baseColorTexture": {
          "index": 15
        },
        "metallicRoughnessTexture": {
          "index": 16
        }
      }
    },
    {
      "alphaMode": "OPAQUE",
      "emissiveFactor": [
        1.0,
        1.0,
        1.0
      ],
      "emissiveTexture": {
        "index": 22
      },
      "name": "16_D_Sill",
      "normalTexture": {
        "index": 21
      },
      "occlusionTexture": {
        "index": 20
      },
      "pbrMetallicRoughness": {
        "baseColorTexture": {
          "index": 19
        },
        "metallicRoughnessTexture": {
          "index": 20
        }
      }
    },
    {
      "alphaMode": "OPAQUE",
      "emissiveFactor": [
        1.0,
        1.0,
        1.0
      ],
      "emissiveTexture": {
        "index": 26
      },
      "name": "16_D_Spacers",
      "normalTexture": {
        "index": 25
      },
      "occlusionTexture": {
        "index": 24
      },
      "pbrMetallicRoughness": {
        "baseColorTexture": {
          "index": 23
        },
        "metallicRoughnessTexture": {
          "index": 24
        }
      }
    }
  ],
  "meshes": [
    {
      "name": "16_D_Hardware",
      "primitives": [
        {
          "attributes": {
            "NORMAL": 2,
            "POSITION": 1,
            "TEXCOORD_0": 3
          },
          "indices": 0,
          "material": 3,
          "mode": 4
        }
      ]
    },
    {
      "name": "16_D_Spacers",
      "primitives": [
        {
          "attributes": {
            "NORMAL": 6,
            "POSITION": 5,
            "TEXCOORD_0": 7
          },
          "indices": 4,
          "material": 6,
          "mode": 4
        }
      ]
    },
    {
      "name": "16_D_Glass",
      "primitives": [
        {
          "attributes": {
            "NORMAL": 10,
            "POSITION": 9,
            "TEXCOORD_0": 11
          },
          "indices": 8,
          "material": 1,
          "mode": 4
        }
      ]
    },
    {
      "name": "16_D_Sill",
      "primitives": [
        {
          "attributes": {
            "NORMAL": 14,
            "POSITION": 13,
            "TEXCOORD_0": 15
          },
          "indices": 12,
          "material": 5,
          "mode": 4
        }
      ]
    },
    {
      "name": "16_D_Gray",
      "primitives": [
        {
          "attributes": {
            "NORMAL": 18,
            "POSITION": 17,
            "TEXCOORD_0": 19
          },
          "indices": 16,
          "material": 2,
          "mode": 4
        }
      ]
    },
    {
      "name": "16_D_Exterior",
      "primitives": [
        {
          "attributes": {
            "NORMAL": 22,
            "POSITION": 21,
            "TEXCOORD_0": 23
          },
          "indices": 20,
          "material": 0,
          "mode": 4
        }
      ]
    },
    {
      "name": "16_D_Interior",
      "primitives": [
        {
          "attributes": {
            "NORMAL": 26,
            "POSITION": 25,
            "TEXCOORD_0": 27
          },
          "indices": 24,
          "material": 4,
          "mode": 4
        }
      ]
    }
  ],
  "nodes": [
    {
      "children": [
        1,
        3,
        5,
        7,
        9,
        11,
        13
      ],
      "name": "root",
      "scale": [
        1.20238614082336,
        1.20238614082336,
        1.20238614082336
      ],
      "translation": [
        -0.0742229223251343,
        1.04227423667908,
        0.127560168504715
      ]
    },
    {
      "children": [
        2
      ],
      "name": "16_D_Hardware"
    },
    {
      "mesh": 0,
      "name": "16_D_Hardware"
    },
    {
      "children": [
        4
      ],
      "name": "16_D_Spacers"
    },
    {
      "mesh": 1,
      "name": "16_D_Spacers"
    },
    {
      "children": [
        6
      ],
      "name": "16_D_Glass"
    },
    {
      "mesh": 2,
      "name": "16_D_Glass"
    },
    {
      "children": [
        8
      ],
      "name": "16_D_Sill"
    },
    {
      "mesh": 3,
      "name": "16_D_Sill"
    },
    {
      "children": [
        10
      ],
      "name": "16_D_Gray"
    },
    {
      "mesh": 4,
      "name": "16_D_Gray"
    },
    {
      "children": [
        12
      ],
      "name": "16_D_Exterior"
    },
    {
      "mesh": 5,
      "name": "16_D_Exterior"
    },
    {
      "children": [
        14
      ],
      "name": "16_D_Interior"
    },
    {
      "mesh": 6,
      "name": "16_D_Interior"
    }
  ],
  "samplers": [
    {
      "magFilter": 9729,
      "minFilter": 9985,
      "wrapS": 10497,
      "wrapT": 10497
    }
  ],
  "scene": 0,
  "scenes": [
    {
      "name": "Scene",
      "nodes": [
        0
      ]
    }
  ],
  "textures": [
    {
      "sampler": 0,
      "source": 0
    },
    {
      "sampler": 0,
      "source": 1
    },
    {
      "sampler": 0,
      "source": 2
    },
    {
      "sampler": 0,
      "source": 3
    },
    {
      "sampler": 0,
      "source": 4
    },
    {
      "sampler": 0,
      "source": 5
    },
    {
      "sampler": 0,
      "source": 6
    },
    {
      "sampler": 0,
      "source": 7
    },
    {
      "sampler": 0,
      "source": 8
    },
    {
      "sampler": 0,
      "source": 9
    },
    {
      "sampler": 0,
      "source": 10
    },
    {
      "sampler": 0,
      "source": 11
    },
    {
      "sampler": 0,
      "source": 12
    },
    {
      "sampler": 0,
      "source": 13
    },
    {
      "sampler": 0,
      "source": 14
    },
    {
      "sampler": 0,
      "source": 15
    },
    {
      "sampler": 0,
      "source": 16
    },
    {
      "sampler": 0,
      "source": 17
    },
    {
      "sampler": 0,
      "source": 18
    },
    {
      "sampler": 0,
      "source": 19
    },
    {
      "sampler": 0,
      "source": 20
    },
    {
      "sampler": 0,
      "source": 21
    },
    {
      "sampler": 0,
      "source": 22
    },
    {
      "sampler": 0,
      "source": 23
    },
    {
      "sampler": 0,
      "source": 24
    },
    {
      "sampler": 0,
      "source": 25
    },
    {
      "sampler": 0,
      "source": 26
    }
  ]
}