{
  "accessors": [
    {
      "bufferView": 0,
      "componentType": 5125,
      "count": 360,
      "type": "SCALAR"
    },
    {
      "bufferView": 1,
      "componentType": 5126,
      "count": 208,
      "max": [
        0.894144594669342,
        0.468080371618271,
        -0.0261203609406948
      ],
      "min": [
        -0.901491820812225,
        -0.468948870897293,
        -0.0444526933133602
      ],
      "type": "VEC3"
    },
    {
      "bufferView": 2,
      "componentType": 5126,
      "count": 208,
      "type": "VEC3"
    },
    {
      "bufferView": 3,
      "componentType": 5126,
      "count": 208,
      "type": "VEC2"
    },
    {
      "bufferView": 4,
      "componentType": 5125,
      "count": 4770,
      "type": "SCALAR"
    },
    {
      "bufferView": 5,
      "componentType": 5126,
      "count": 2482,
      "max": [
        0.999999940395355,
        0.569036900997162,
        0.0619455464184284
      ],
      "min": [
        -0.999767899513245,
        -0.570782124996185,
        -0.0580336153507233
      ],
      "type": "VEC3"
    },
    {
      "bufferView": 6,
      "componentType": 5126,
      "count": 2482,
      "type": "VEC3"
    },
    {
      "bufferView": 7,
      "componentType": 5126,
      "count": 2482,
      "type": "VEC2"
    },
    {
      "bufferView": 8,
      "componentType": 5125,
      "count": 4068,
      "type": "SCALAR"
    },
    {
      "bufferView": 9,
      "componentType": 5126,
      "count": 2386,
      "max": [
        0.999999940395355,
        0.569036900997162,
        -0.00627342611551285
      ],
      "min": [
        -0.999614536762238,
        -0.570782124996185,
        -0.0834320709109306
      ],
      "type": "VEC3"
    },
    {
      "bufferView": 10,
      "componentType": 5126,
      "count": 2386,
      "type": "VEC3"
    },
    {
      "bufferView": 11,
      "componentType": 5126,
      "count": 2386,
      "type": "VEC2"
    },
    {
      "bufferView": 12,
      "componentType": 5125,
      "count": 9516,
      "type": "SCALAR"
    },
    {
      "bufferView": 13,
      "componentType": 5126,
      "count": 5039,
      "max": [
        0.943227350711823,
        0.53944855928421,
        0.0431349761784077
      ],
      "min": [
        -0.969629764556885,
        -0.527616858482361,
        -0.0568141303956509
      ],
      "type": "VEC3"
    },
    {
      "bufferView": 14,
      "componentType": 5126,
      "count": 5039,
      "type": "VEC3"
    },
    {
      "bufferView": 15,
      "componentType": 5126,
      "count": 5039,
      "type": "VEC2"
    },
    {
      "bufferView": 16,
      "componentType": 5125,
      "count": 24,
      "type": "SCALAR"
    },
    {
      "bufferView": 17,
      "componentType": 5126,
      "count": 16,
      "max": [
        0.932706594467163,
        0.5047287940979,
        -0.0216761101037264
      ],
      "min": [
        -0.931885004043579,
        -0.46737802028656,
        -0.048821184784174
      ],
      "type": "VEC3"
    },
    {
      "bufferView": 18,
      "componentType": 5126,
      "count": 16,
      "type": "VEC3"
    },
    {
      "bufferView": 19,
      "componentType": 5126,
      "count": 16,
      "type": "VEC2"
    },
    {
      "bufferView": 20,
      "componentType": 5125,
      "count": 13017,
      "type": "SCALAR"
    },
    {
      "bufferView": 21,
      "componentType": 5126,
      "count": 6164,
      "max": [
        0.999765455722809,
        0.57078218460083,
        0.0847648680210114
      ],
      "min": [
        -1.0,
        -0.568388044834137,
        -0.0847648605704308
      ],
      "type": "VEC3"
    },
    {
      "bufferView": 22,
      "componentType": 5126,
      "count": 6164,
      "type": "VEC3"
    },
    {
      "bufferView": 23,
      "componentType": 5126,
      "count": 6164,
      "type": "VEC2"
    }
  ],
  "asset": {
    "generator": "Substance Painter 2019.2.1",
    "version": "2.0"
  },
  "bufferViews": [
    {
      "buffer": 0,
      "byteLength": 1440,
      "target": 34963
    },
    {
      "buffer": 0,
      "byteLength": 2496,
      "byteOffset": 1440,
      "target": 34962
    },
    {
      "buffer": 0,
      "byteLength": 2496,
      "byteOffset": 3936,
      "target": 34962
    },
    {
      "buffer": 0,
      "byteLength": 1664,
      "byteOffset": 6432,
      "target": 34962
    },
    {
      "buffer": 0,
      "byteLength": 19080,
      "byteOffset": 8096,
      "target": 34963
    },
    {
      "buffer": 0,
      "byteLength": 29784,
      "byteOffset": 27176,
      "target": 34962
    },
    {
      "buffer": 0,
      "byteLength": 29784,
      "byteOffset": 56960,
      "target": 34962
    },
    {
      "buffer": 0,
      "byteLength": 19856,
      "byteOffset": 86744,
      "target": 34962
    },
    {
      "buffer": 0,
      "byteLength": 16272,
      "byteOffset": 106600,
      "target": 34963
    },
    {
      "buffer": 0,
      "byteLength": 28632,
      "byteOffset": 122872,
      "target": 34962
    },
    {
      "buffer": 0,
      "byteLength": 28632,
      "byteOffset": 151504,
      "target": 34962
    },
    {
      "buffer": 0,
      "byteLength": 19088,
      "byteOffset": 180136,
      "target": 34962
    },
    {
      "buffer": 0,
      "byteLength": 38064,
      "byteOffset": 199224,
      "target": 34963
    },
    {
      "buffer": 0,
      "byteLength": 60468,
      "byteOffset": 237288,
      "target": 34962
    },
    {
      "buffer": 0,
      "byteLength": 60468,
      "byteOffset": 297756,
      "target": 34962
    },
    {
      "buffer": 0,
      "byteLength": 40312,
      "byteOffset": 358224,
      "target": 34962
    },
    {
      "buffer": 0,
      "byteLength": 96,
      "byteOffset": 398536,
      "target": 34963
    },
    {
      "buffer": 0,
      "byteLength": 192,
      "byteOffset": 398632,
      "target": 34962
    },
    {
      "buffer": 0,
      "byteLength": 192,
      "byteOffset": 398824,
      "target": 34962
    },
    {
      "buffer": 0,
      "byteLength": 128,
      "byteOffset": 399016,
      "target": 34962
    },
    {
      "buffer": 0,
      "byteLength": 52068,
      "byteOffset": 399144,
      "target": 34963
    },
    {
      "buffer": 0,
      "byteLength": 73968,
      "byteOffset": 451212,
      "target": 34962
    },
    {
      "buffer": 0,
      "byteLength": 73968,
      "byteOffset": 525180,
      "target": 34962
    },
    {
      "buffer": 0,
      "byteLength": 49312,
      "byteOffset": 599148,
      "target": 34962
    }
  ],
  "buffers": [
    {
      "byteLength": 648460,
      "uri": "24_W_Awning_v01.bin"
    }
  ],
  "images": [
    {
      "uri": "24_W_Exterior_baseColor.png"
    },
    {
      "uri": "24_W_Exterior_occlusionRoughnessMetallic.png"
    },
    {
      "uri": "24_W_Exterior_normal.png"
    },
    {
      "uri": "24_W_Exterior_emissive.png"
    },
    {
      "uri": "24_W_Glass_baseColor.png"
    },
    {
      "uri": "24_W_Glass_occlusionRoughnessMetallic.png"
    },
    {
      "uri": "24_W_Glass_normal.png"
    },
    {
      "uri": "24_W_Glass_emissive.png"
    },
    {
      "uri": "24_W_Gray_baseColor.png"
    },
    {
      "uri": "24_W_Gray_occlusionRoughnessMetallic.png"
    },
    {
      "uri": "24_W_Gray_normal.png"
    },
    {
      "uri": "24_W_Gray_emissive.png"
    },
    {
      "uri": "24_W_Hardware_baseColor.png"
    },
    {
      "uri": "24_W_Hardware_occlusionRoughnessMetallic.png"
    },
    {
      "uri": "24_W_Hardware_normal.png"
    },
    {
      "uri": "24_W_Hardware_emissive.png"
    },
    {
      "uri": "24_W_Interior_baseColor.png"
    },
    {
      "uri": "24_W_Interior_occlusionRoughnessMetallic.png"
    },
    {
      "uri": "24_W_Interior_normal.png"
    },
    {
      "uri": "24_W_Interior_emissive.png"
    },
    {
      "uri": "24_W_Spacers_baseColor.png"
    },
    {
      "uri": "24_W_Spacers_occlusionRoughnessMetallic.png"
    },
    {
      "uri": "24_W_Spacers_normal.png"
    },
    {
      "uri": "24_W_Spacers_emissive.png"
    }
  ],
  "materials": [
    {
      "alphaMode": "OPAQUE",
      "emissiveFactor": [
        1.0,
        1.0,
        1.0
      ],
      "emissiveTexture": {
        "index": 3
      },
      "name": "24_W_Exterior",
      "normalTexture": {
        "index": 2
      },
      "occlusionTexture": {
        "index": 1
      },
      "pbrMetallicRoughness": {
        "baseColorTexture": {
          "index": 0
        },
        "metallicRoughnessTexture": {
          "index": 1
        }
      }
    },
    {
      "alphaMode": "BLEND",
      "emissiveFactor": [
        1.0,
        1.0,
        1.0
      ],
      "emissiveTexture": {
        "index": 7
      },
      "name": "24_W_Glass",
      "normalTexture": {
        "index": 6
      },
      "occlusionTexture": {
        "index": 5
      },
      "pbrMetallicRoughness": {
        "baseColorTexture": {
          "index": 4
        },
        "metallicRoughnessTexture": {
          "index": 5
        }
      }
    },
    {
      "alphaMode": "OPAQUE",
      "emissiveFactor": [
        1.0,
        1.0,
        1.0
      ],
      "emissiveTexture": {
        "index": 11
      },
      "name": "24_W_Gray",
      "normalTexture": {
        "index": 10
      },
      "occlusionTexture": {
        "index": 9
      },
      "pbrMetallicRoughness": {
        "baseColorTexture": {
          "index": 8
        },
        "metallicRoughnessTexture": {
          "index": 9
        }
      }
    },
    {
      "alphaMode": "OPAQUE",
      "emissiveFactor": [
        1.0,
        1.0,
        1.0
      ],
      "emissiveTexture": {
        "index": 15
      },
      "name": "24_W_Hardware",
      "normalTexture": {
        "index": 14
      },
      "occlusionTexture": {
        "index": 13
      },
      "pbrMetallicRoughness": {
        "baseColorTexture": {
          "index": 12
        },
        "metallicRoughnessTexture": {
          "index": 13
        }
      }
    },
    {
      "alphaMode": "OPAQUE",
      "emissiveFactor": [
        1.0,
        1.0,
        1.0
      ],
      "emissiveTexture": {
        "index": 19
      },
      "name": "24_W_Interior",
      "normalTexture": {
        "index": 18
      },
      "occlusionTexture": {
        "index": 17
      },
      "pbrMetallicRoughness": {
        "baseColorTexture": {
          "index": 16
        },
        "metallicRoughnessTexture": {
          "index": 17
        }
      }
    },
    {
      "alphaMode": "OPAQUE",
      "emissiveFactor": [
        1.0,
        1.0,
        1.0
      ],
      "emissiveTexture": {
        "index": 23
      },
      "name": "24_W_Spacers",
      "normalTexture": {
        "index": 22
      },
      "occlusionTexture": {
        "index": 21
      },
      "pbrMetallicRoughness": {
        "baseColorTexture": {
          "index": 20
        },
        "metallicRoughnessTexture": {
          "index": 21
        }
      }
    }
  ],
  "meshes": [
    {
      "name": "24_W_Spacers",
      "primitives": [
        {
          "attributes": {
            "NORMAL": 2,
            "POSITION": 1,
            "TEXCOORD_0": 3
          },
          "indices": 0,
          "material": 5,
          "mode": 4
        }
      ]
    },
    {
      "name": "24_W_Interior",
      "primitives": [
        {
          "attributes": {
            "NORMAL": 6,
            "POSITION": 5,
            "TEXCOORD_0": 7
          },
          "indices": 4,
          "material": 4,
          "mode": 4
        }
      ]
    },
    {
      "name": "24_W_Exterior",
      "primitives": [
        {
          "attributes": {
            "NORMAL": 10,
            "POSITION": 9,
            "TEXCOORD_0": 11
          },
          "indices": 8,
          "material": 0,
          "mode": 4
        }
      ]
    },
    {
      "name": "24_W_Gray",
      "primitives": [
        {
          "attributes": {
            "NORMAL": 14,
            "POSITION": 13,
            "TEXCOORD_0": 15
          },
          "indices": 12,
          "material": 2,
          "mode": 4
        }
      ]
    },
    {
      "name": "24_W_Glass",
      "primitives": [
        {
          "attributes": {
            "NORMAL": 18,
            "POSITION": 17,
            "TEXCOORD_0": 19
          },
          "indices": 16,
          "material": 1,
          "mode": 4
        }
      ]
    },
    {
      "name": "24_W_Hardware",
      "primitives": [
        {
          "attributes": {
            "NORMAL": 22,
            "POSITION": 21,
            "TEXCOORD_0": 23
          },
          "indices": 20,
          "material": 3,
          "mode": 4
        }
      ]
    }
  ],
  "nodes": [
    {
      "children": [
        1,
        3,
        5,
        7,
        9,
        11
      ],
      "name": "root",
      "scale": [
        0.451929330825806,
        0.451929330825806,
        0.451929330825806
      ],
      "translation": [
        -0.0238920450210571,
        0.257802456617355,
        0.0326346717774868
      ]
    },
    {
      "children": [
        2
      ],
      "name": "24_W_Spacers"
    },
    {
      "mesh": 0,
      "name": "24_W_Spacers"
    },
    {
      "children": [
        4
      ],
      "name": "24_W_Interior"
    },
    {
      "mesh": 1,
      "name": "24_W_Interior"
    },
    {
      "children": [
        6
      ],
      "name": "24_W_Exterior"
    },
    {
      "mesh": 2,
      "name": "24_W_Exterior"
    },
    {
      "children": [
        8
      ],
      "name": "24_W_Gray"
    },
    {
      "mesh": 3,
      "name": "24_W_Gray"
    },
    {
      "children": [
        10
      ],
      "name": "24_W_Glass"
    },
    {
      "mesh": 4,
      "name": "24_W_Glass"
    },
    {
      "children": [
        12
      ],
      "name": "24_W_Hardware"
    },
    {
      "mesh": 5,
      "name": "24_W_Hardware"
    }
  ],
  "samplers": [
    {
      "magFilter": 9729,
      "minFilter": 9985,
      "wrapS": 10497,
      "wrapT": 10497
    }
  ],
  "scene": 0,
  "scenes": [
    {
      "name": "Scene",
      "nodes": [
        0
      ]
    }
  ],
  "textures": [
    {
      "sampler": 0,
      "source": 0
    },
    {
      "sampler": 0,
      "source": 1
    },
    {
      "sampler": 0,
      "source": 2
    },
    {
      "sampler": 0,
      "source": 3
    },
    {
      "sampler": 0,
      "source": 4
    },
    {
      "sampler": 0,
      "source": 5
    },
    {
      "sampler": 0,
      "source": 6
    },
    {
      "sampler": 0,
      "source": 7
    },
    {
      "sampler": 0,
      "source": 8
    },
    {
      "sampler": 0,
      "source": 9
    },
    {
      "sampler": 0,
      "source": 10
    },
    {
      "sampler": 0,
      "source": 11
    },
    {
      "sampler": 0,
      "source": 12
    },
    {
      "sampler": 0,
      "source": 13
    },
    {
      "sampler": 0,
      "source": 14
    },
    {
      "sampler": 0,
      "source": 15
    },
    {
      "sampler": 0,
      "source": 16
    },
    {
      "sampler": 0,
      "source": 17
    },
    {
      "sampler": 0,
      "source": 18
    },
    {
      "sampler": 0,
      "source": 19
    },
    {
      "sampler": 0,
      "source": 20
    },
    {
      "sampler": 0,
      "source": 21
    },
    {
      "sampler": 0,
      "source": 22
    },
    {
      "sampler": 0,
      "source": 23
    }
  ]
}