{
  "accessors": [
    {
      "bufferView": 0,
      "componentType": 5125,
      "count": 360,
      "type": "SCALAR"
    },
    {
      "bufferView": 1,
      "componentType": 5126,
      "count": 208,
      "max": [
        0.590232253074646,
        -0.314656972885132,
        0.022400040179491
      ],
      "min": [
        -0.594732701778412,
        -0.9330153465271,
        0.0103022819384933
      ],
      "type": "VEC3"
    },
    {
      "bufferView": 2,
      "componentType": 5126,
      "count": 208,
      "type": "VEC3"
    },
    {
      "bufferView": 3,
      "componentType": 5126,
      "count": 208,
      "type": "VEC2"
    },
    {
      "bufferView": 4,
      "componentType": 5125,
      "count": 4770,
      "type": "SCALAR"
    },
    {
      "bufferView": 5,
      "componentType": 5126,
      "count": 2482,
      "max": [
        0.660087585449219,
        -0.248034477233887,
        0.0805159285664558
      ],
      "min": [
        -0.659586429595947,
        -1.00021648406982,
        0.00134004559367895
      ],
      "type": "VEC3"
    },
    {
      "bufferView": 6,
      "componentType": 5126,
      "count": 2482,
      "type": "VEC3"
    },
    {
      "bufferView": 7,
      "componentType": 5126,
      "count": 2482,
      "type": "VEC2"
    },
    {
      "bufferView": 8,
      "componentType": 5125,
      "count": 4068,
      "type": "SCALAR"
    },
    {
      "bufferView": 9,
      "componentType": 5126,
      "count": 2386,
      "max": [
        0.660087645053864,
        -0.248034477233887,
        0.0354973040521145
      ],
      "min": [
        -0.659485280513763,
        -1.00021648406982,
        -0.0154207423329353
      ],
      "type": "VEC3"
    },
    {
      "bufferView": 10,
      "componentType": 5126,
      "count": 2386,
      "type": "VEC3"
    },
    {
      "bufferView": 11,
      "componentType": 5126,
      "count": 2386,
      "type": "VEC2"
    },
    {
      "bufferView": 12,
      "componentType": 5125,
      "count": 9516,
      "type": "SCALAR"
    },
    {
      "bufferView": 13,
      "componentType": 5126,
      "count": 5039,
      "max": [
        0.622622609138489,
        -0.267560184001923,
        0.0681025832891464
      ],
      "min": [
        -0.639697849750519,
        -0.971731126308441,
        0.00214479956775904
      ],
      "type": "VEC3"
    },
    {
      "bufferView": 14,
      "componentType": 5126,
      "count": 5039,
      "type": "VEC3"
    },
    {
      "bufferView": 15,
      "componentType": 5126,
      "count": 5039,
      "type": "VEC2"
    },
    {
      "bufferView": 16,
      "componentType": 5125,
      "count": 24,
      "type": "SCALAR"
    },
    {
      "bufferView": 17,
      "componentType": 5126,
      "count": 16,
      "max": [
        0.615679860115051,
        -0.290472209453583,
        0.025332860648632
      ],
      "min": [
        -0.614789605140686,
        -0.931978702545166,
        0.00741945393383503
      ],
      "type": "VEC3"
    },
    {
      "bufferView": 18,
      "componentType": 5126,
      "count": 16,
      "type": "VEC3"
    },
    {
      "bufferView": 19,
      "componentType": 5126,
      "count": 16,
      "type": "VEC2"
    },
    {
      "bufferView": 20,
      "componentType": 5125,
      "count": 11202,
      "type": "SCALAR"
    },
    {
      "bufferView": 21,
      "componentType": 5126,
      "count": 5243,
      "max": [
        0.659932851791382,
        -0.246882677078247,
        0.095574714243412
      ],
      "min": [
        -0.658903241157532,
        -0.998636603355408,
        -0.016300268471241
      ],
      "type": "VEC3"
    },
    {
      "bufferView": 22,
      "componentType": 5126,
      "count": 5243,
      "type": "VEC3"
    },
    {
      "bufferView": 23,
      "componentType": 5126,
      "count": 5243,
      "type": "VEC2"
    }
  ],
  "asset": {
    "generator": "Substance Painter 2019.2.1",
    "version": "2.0"
  },
  "bufferViews": [
    {
      "buffer": 0,
      "byteLength": 1440,
      "target": 34963
    },
    {
      "buffer": 0,
      "byteLength": 2496,
      "byteOffset": 1440,
      "target": 34962
    },
    {
      "buffer": 0,
      "byteLength": 2496,
      "byteOffset": 3936,
      "target": 34962
    },
    {
      "buffer": 0,
      "byteLength": 1664,
      "byteOffset": 6432,
      "target": 34962
    },
    {
      "buffer": 0,
      "byteLength": 19080,
      "byteOffset": 8096,
      "target": 34963
    },
    {
      "buffer": 0,
      "byteLength": 29784,
      "byteOffset": 27176,
      "target": 34962
    },
    {
      "buffer": 0,
      "byteLength": 29784,
      "byteOffset": 56960,
      "target": 34962
    },
    {
      "buffer": 0,
      "byteLength": 19856,
      "byteOffset": 86744,
      "target": 34962
    },
    {
      "buffer": 0,
      "byteLength": 16272,
      "byteOffset": 106600,
      "target": 34963
    },
    {
      "buffer": 0,
      "byteLength": 28632,
      "byteOffset": 122872,
      "target": 34962
    },
    {
      "buffer": 0,
      "byteLength": 28632,
      "byteOffset": 151504,
      "target": 34962
    },
    {
      "buffer": 0,
      "byteLength": 19088,
      "byteOffset": 180136,
      "target": 34962
    },
    {
      "buffer": 0,
      "byteLength": 38064,
      "byteOffset": 199224,
      "target": 34963
    },
    {
      "buffer": 0,
      "byteLength": 60468,
      "byteOffset": 237288,
      "target": 34962
    },
    {
      "buffer": 0,
      "byteLength": 60468,
      "byteOffset": 297756,
      "target": 34962
    },
    {
      "buffer": 0,
      "byteLength": 40312,
      "byteOffset": 358224,
      "target": 34962
    },
    {
      "buffer": 0,
      "byteLength": 96,
      "byteOffset": 398536,
      "target": 34963
    },
    {
      "buffer": 0,
      "byteLength": 192,
      "byteOffset": 398632,
      "target": 34962
    },
    {
      "buffer": 0,
      "byteLength": 192,
      "byteOffset": 398824,
      "target": 34962
    },
    {
      "buffer": 0,
      "byteLength": 128,
      "byteOffset": 399016,
      "target": 34962
    },
    {
      "buffer": 0,
      "byteLength": 44808,
      "byteOffset": 399144,
      "target": 34963
    },
    {
      "buffer": 0,
      "byteLength": 62916,
      "byteOffset": 443952,
      "target": 34962
    },
    {
      "buffer": 0,
      "byteLength": 62916,
      "byteOffset": 506868,
      "target": 34962
    },
    {
      "buffer": 0,
      "byteLength": 41944,
      "byteOffset": 569784,
      "target": 34962
    }
  ],
  "buffers": [
    {
      "byteLength": 611728,
      "uri": "24_W_Awning.bin"
    }
  ],
  "images": [
    {
      "uri": "24_W_Exterior_baseColor.png"
    },
    {
      "uri": "24_W_Exterior_occlusionRoughnessMetallic.png"
    },
    {
      "uri": "24_W_Exterior_normal.png"
    },
    {
      "uri": "24_W_Exterior_emissive.png"
    },
    {
      "uri": "24_W_Glass_baseColor.png"
    },
    {
      "uri": "24_W_Glass_occlusionRoughnessMetallic.png"
    },
    {
      "uri": "24_W_Glass_normal.png"
    },
    {
      "uri": "24_W_Glass_emissive.png"
    },
    {
      "uri": "24_W_Gray_baseColor.png"
    },
    {
      "uri": "24_W_Gray_occlusionRoughnessMetallic.png"
    },
    {
      "uri": "24_W_Gray_normal.png"
    },
    {
      "uri": "24_W_Gray_emissive.png"
    },
    {
      "uri": "24_W_Hardware_baseColor.png"
    },
    {
      "uri": "24_W_Hardware_occlusionRoughnessMetallic.png"
    },
    {
      "uri": "24_W_Hardware_normal.png"
    },
    {
      "uri": "24_W_Hardware_emissive.png"
    },
    {
      "uri": "24_W_Interior_baseColor.png"
    },
    {
      "uri": "24_W_Interior_occlusionRoughnessMetallic.png"
    },
    {
      "uri": "24_W_Interior_normal.png"
    },
    {
      "uri": "24_W_Interior_emissive.png"
    },
    {
      "uri": "24_W_Spacers_baseColor.png"
    },
    {
      "uri": "24_W_Spacers_occlusionRoughnessMetallic.png"
    },
    {
      "uri": "24_W_Spacers_normal.png"
    },
    {
      "uri": "24_W_Spacers_emissive.png"
    }
  ],
  "materials": [
    {
      "alphaMode": "OPAQUE",
      "emissiveFactor": [
        1.0,
        1.0,
        1.0
      ],
      "emissiveTexture": {
        "index": 3
      },
      "name": "24_W_Exterior",
      "normalTexture": {
        "index": 2
      },
      "occlusionTexture": {
        "index": 1
      },
      "pbrMetallicRoughness": {
        "baseColorTexture": {
          "index": 0
        },
        "metallicRoughnessTexture": {
          "index": 1
        }
      }
    },
    {
      "alphaMode": "BLEND",
      "emissiveFactor": [
        1.0,
        1.0,
        1.0
      ],
      "emissiveTexture": {
        "index": 7
      },
      "name": "24_W_Glass",
      "normalTexture": {
        "index": 6
      },
      "occlusionTexture": {
        "index": 5
      },
      "pbrMetallicRoughness": {
        "baseColorTexture": {
          "index": 4
        },
        "metallicRoughnessTexture": {
          "index": 5
        }
      }
    },
    {
      "alphaMode": "OPAQUE",
      "emissiveFactor": [
        1.0,
        1.0,
        1.0
      ],
      "emissiveTexture": {
        "index": 11
      },
      "name": "24_W_Gray",
      "normalTexture": {
        "index": 10
      },
      "occlusionTexture": {
        "index": 9
      },
      "pbrMetallicRoughness": {
        "baseColorTexture": {
          "index": 8
        },
        "metallicRoughnessTexture": {
          "index": 9
        }
      }
    },
    {
      "alphaMode": "OPAQUE",
      "emissiveFactor": [
        1.0,
        1.0,
        1.0
      ],
      "emissiveTexture": {
        "index": 15
      },
      "name": "24_W_Hardware",
      "normalTexture": {
        "index": 14
      },
      "occlusionTexture": {
        "index": 13
      },
      "pbrMetallicRoughness": {
        "baseColorTexture": {
          "index": 12
        },
        "metallicRoughnessTexture": {
          "index": 13
        }
      }
    },
    {
      "alphaMode": "OPAQUE",
      "emissiveFactor": [
        1.0,
        1.0,
        1.0
      ],
      "emissiveTexture": {
        "index": 19
      },
      "name": "24_W_Interior",
      "normalTexture": {
        "index": 18
      },
      "occlusionTexture": {
        "index": 17
      },
      "pbrMetallicRoughness": {
        "baseColorTexture": {
          "index": 16
        },
        "metallicRoughnessTexture": {
          "index": 17
        }
      }
    },
    {
      "alphaMode": "OPAQUE",
      "emissiveFactor": [
        1.0,
        1.0,
        1.0
      ],
      "emissiveTexture": {
        "index": 23
      },
      "name": "24_W_Spacers",
      "normalTexture": {
        "index": 22
      },
      "occlusionTexture": {
        "index": 21
      },
      "pbrMetallicRoughness": {
        "baseColorTexture": {
          "index": 20
        },
        "metallicRoughnessTexture": {
          "index": 21
        }
      }
    }
  ],
  "meshes": [
    {
      "name": "24_W_Spacers",
      "primitives": [
        {
          "attributes": {
            "NORMAL": 2,
            "POSITION": 1,
            "TEXCOORD_0": 3
          },
          "indices": 0,
          "material": 5,
          "mode": 4
        }
      ]
    },
    {
      "name": "24_W_Interior",
      "primitives": [
        {
          "attributes": {
            "NORMAL": 6,
            "POSITION": 5,
            "TEXCOORD_0": 7
          },
          "indices": 4,
          "material": 4,
          "mode": 4
        }
      ]
    },
    {
      "name": "24_W_Exterior",
      "primitives": [
        {
          "attributes": {
            "NORMAL": 10,
            "POSITION": 9,
            "TEXCOORD_0": 11
          },
          "indices": 8,
          "material": 0,
          "mode": 4
        }
      ]
    },
    {
      "name": "24_W_Gray",
      "primitives": [
        {
          "attributes": {
            "NORMAL": 14,
            "POSITION": 13,
            "TEXCOORD_0": 15
          },
          "indices": 12,
          "material": 2,
          "mode": 4
        }
      ]
    },
    {
      "name": "24_W_Glass",
      "primitives": [
        {
          "attributes": {
            "NORMAL": 18,
            "POSITION": 17,
            "TEXCOORD_0": 19
          },
          "indices": 16,
          "material": 1,
          "mode": 4
        }
      ]
    },
    {
      "name": "24_W_Hardware",
      "primitives": [
        {
          "attributes": {
            "NORMAL": 22,
            "POSITION": 21,
            "TEXCOORD_0": 23
          },
          "indices": 20,
          "material": 3,
          "mode": 4
        }
      ]
    }
  ],
  "nodes": [
    {
      "children": [
        1,
        3,
        5,
        7,
        9,
        11
      ],
      "name": "root",
      "scale": [
        27.4793834686279,
        27.4793834686279,
        27.4793834686279
      ],
      "translation": [
        -0.002655029296875,
        27.479284286499,
        0.220285534858704
      ]
    },
    {
      "children": [
        2
      ],
      "name": "24_W_Spacers"
    },
    {
      "mesh": 0,
      "name": "24_W_Spacers"
    },
    {
      "children": [
        4
      ],
      "name": "24_W_Interior"
    },
    {
      "mesh": 1,
      "name": "24_W_Interior"
    },
    {
      "children": [
        6
      ],
      "name": "24_W_Exterior"
    },
    {
      "mesh": 2,
      "name": "24_W_Exterior"
    },
    {
      "children": [
        8
      ],
      "name": "24_W_Gray"
    },
    {
      "mesh": 3,
      "name": "24_W_Gray"
    },
    {
      "children": [
        10
      ],
      "name": "24_W_Glass"
    },
    {
      "mesh": 4,
      "name": "24_W_Glass"
    },
    {
      "children": [
        12
      ],
      "name": "24_W_Hardware"
    },
    {
      "mesh": 5,
      "name": "24_W_Hardware"
    }
  ],
  "samplers": [
    {
      "magFilter": 9729,
      "minFilter": 9985,
      "wrapS": 10497,
      "wrapT": 10497
    }
  ],
  "scene": 0,
  "scenes": [
    {
      "name": "Scene",
      "nodes": [
        0
      ]
    }
  ],
  "textures": [
    {
      "sampler": 0,
      "source": 0
    },
    {
      "sampler": 0,
      "source": 1
    },
    {
      "sampler": 0,
      "source": 2
    },
    {
      "sampler": 0,
      "source": 3
    },
    {
      "sampler": 0,
      "source": 4
    },
    {
      "sampler": 0,
      "source": 5
    },
    {
      "sampler": 0,
      "source": 6
    },
    {
      "sampler": 0,
      "source": 7
    },
    {
      "sampler": 0,
      "source": 8
    },
    {
      "sampler": 0,
      "source": 9
    },
    {
      "sampler": 0,
      "source": 10
    },
    {
      "sampler": 0,
      "source": 11
    },
    {
      "sampler": 0,
      "source": 12
    },
    {
      "sampler": 0,
      "source": 13
    },
    {
      "sampler": 0,
      "source": 14
    },
    {
      "sampler": 0,
      "source": 15
    },
    {
      "sampler": 0,
      "source": 16
    },
    {
      "sampler": 0,
      "source": 17
    },
    {
      "sampler": 0,
      "source": 18
    },
    {
      "sampler": 0,
      "source": 19
    },
    {
      "sampler": 0,
      "source": 20
    },
    {
      "sampler": 0,
      "source": 21
    },
    {
      "sampler": 0,
      "source": 22
    },
    {
      "sampler": 0,
      "source": 23
    }
  ]
}