{
  "accessors": [
    {
      "bufferView": 0,
      "componentType": 5125,
      "count": 9186,
      "type": "SCALAR"
    },
    {
      "bufferView": 1,
      "componentType": 5126,
      "count": 4105,
      "max": [
        0.882712483406067,
        0.773808836936951,
        0.176906704902649
      ],
      "min": [
        -0.880252063274384,
        -1.00028681755066,
        0.0689801648259163
      ],
      "type": "VEC3"
    },
    {
      "bufferView": 2,
      "componentType": 5126,
      "count": 4105,
      "type": "VEC3"
    },
    {
      "bufferView": 3,
      "componentType": 5126,
      "count": 4105,
      "type": "VEC2"
    },
    {
      "bufferView": 4,
      "componentType": 5125,
      "count": 5631,
      "type": "SCALAR"
    },
    {
      "bufferView": 5,
      "componentType": 5126,
      "count": 2999,
      "max": [
        0.880822062492371,
        0.751763820648193,
        0.140510633587837
      ],
      "min": [
        -0.873152375221252,
        -0.990395128726959,
        0.0781822055578232
      ],
      "type": "VEC3"
    },
    {
      "bufferView": 6,
      "componentType": 5126,
      "count": 2999,
      "type": "VEC3"
    },
    {
      "bufferView": 7,
      "componentType": 5126,
      "count": 2999,
      "type": "VEC2"
    },
    {
      "bufferView": 8,
      "componentType": 5125,
      "count": 21984,
      "type": "SCALAR"
    },
    {
      "bufferView": 9,
      "componentType": 5126,
      "count": 10472,
      "max": [
        0.882712543010712,
        0.773808836936951,
        0.161036461591721
      ],
      "min": [
        -0.880395352840424,
        -1.00028681755066,
        0.0608516409993172
      ],
      "type": "VEC3"
    },
    {
      "bufferView": 10,
      "componentType": 5126,
      "count": 10472,
      "type": "VEC3"
    },
    {
      "bufferView": 11,
      "componentType": 5126,
      "count": 10472,
      "type": "VEC2"
    },
    {
      "bufferView": 12,
      "componentType": 5125,
      "count": 720,
      "type": "SCALAR"
    },
    {
      "bufferView": 13,
      "componentType": 5126,
      "count": 416,
      "max": [
        0.806154131889343,
        0.691537499427795,
        0.107994429767132
      ],
      "min": [
        -0.793886244297028,
        -0.920802056789398,
        0.0913554430007935
      ],
      "type": "VEC3"
    },
    {
      "bufferView": 14,
      "componentType": 5126,
      "count": 416,
      "type": "VEC3"
    },
    {
      "bufferView": 15,
      "componentType": 5126,
      "count": 416,
      "type": "VEC2"
    },
    {
      "bufferView": 16,
      "componentType": 5125,
      "count": 48,
      "type": "SCALAR"
    },
    {
      "bufferView": 17,
      "componentType": 5126,
      "count": 32,
      "max": [
        0.806014895439148,
        0.694932699203491,
        0.108605995774269
      ],
      "min": [
        -0.797634303569794,
        -0.920883059501648,
        0.085937537252903
      ],
      "type": "VEC3"
    },
    {
      "bufferView": 18,
      "componentType": 5126,
      "count": 32,
      "type": "VEC3"
    },
    {
      "bufferView": 19,
      "componentType": 5126,
      "count": 32,
      "type": "VEC2"
    },
    {
      "bufferView": 20,
      "componentType": 5125,
      "count": 10128,
      "type": "SCALAR"
    },
    {
      "bufferView": 21,
      "componentType": 5126,
      "count": 4179,
      "max": [
        0.724143385887146,
        -0.660404562950134,
        0.201102510094643
      ],
      "min": [
        -0.770643889904022,
        -0.96964293718338,
        0.0931394398212433
      ],
      "type": "VEC3"
    },
    {
      "bufferView": 22,
      "componentType": 5126,
      "count": 4179,
      "type": "VEC3"
    },
    {
      "bufferView": 23,
      "componentType": 5126,
      "count": 4179,
      "type": "VEC2"
    }
  ],
  "asset": {
    "generator": "Substance Painter 2019.2.1",
    "version": "2.0"
  },
  "bufferViews": [
    {
      "buffer": 0,
      "byteLength": 36744,
      "target": 34963
    },
    {
      "buffer": 0,
      "byteLength": 49260,
      "byteOffset": 36744,
      "target": 34962
    },
    {
      "buffer": 0,
      "byteLength": 49260,
      "byteOffset": 86004,
      "target": 34962
    },
    {
      "buffer": 0,
      "byteLength": 32840,
      "byteOffset": 135264,
      "target": 34962
    },
    {
      "buffer": 0,
      "byteLength": 22524,
      "byteOffset": 168104,
      "target": 34963
    },
    {
      "buffer": 0,
      "byteLength": 35988,
      "byteOffset": 190628,
      "target": 34962
    },
    {
      "buffer": 0,
      "byteLength": 35988,
      "byteOffset": 226616,
      "target": 34962
    },
    {
      "buffer": 0,
      "byteLength": 23992,
      "byteOffset": 262604,
      "target": 34962
    },
    {
      "buffer": 0,
      "byteLength": 87936,
      "byteOffset": 286596,
      "target": 34963
    },
    {
      "buffer": 0,
      "byteLength": 125664,
      "byteOffset": 374532,
      "target": 34962
    },
    {
      "buffer": 0,
      "byteLength": 125664,
      "byteOffset": 500196,
      "target": 34962
    },
    {
      "buffer": 0,
      "byteLength": 83776,
      "byteOffset": 625860,
      "target": 34962
    },
    {
      "buffer": 0,
      "byteLength": 2880,
      "byteOffset": 709636,
      "target": 34963
    },
    {
      "buffer": 0,
      "byteLength": 4992,
      "byteOffset": 712516,
      "target": 34962
    },
    {
      "buffer": 0,
      "byteLength": 4992,
      "byteOffset": 717508,
      "target": 34962
    },
    {
      "buffer": 0,
      "byteLength": 3328,
      "byteOffset": 722500,
      "target": 34962
    },
    {
      "buffer": 0,
      "byteLength": 192,
      "byteOffset": 725828,
      "target": 34963
    },
    {
      "buffer": 0,
      "byteLength": 384,
      "byteOffset": 726020,
      "target": 34962
    },
    {
      "buffer": 0,
      "byteLength": 384,
      "byteOffset": 726404,
      "target": 34962
    },
    {
      "buffer": 0,
      "byteLength": 256,
      "byteOffset": 726788,
      "target": 34962
    },
    {
      "buffer": 0,
      "byteLength": 40512,
      "byteOffset": 727044,
      "target": 34963
    },
    {
      "buffer": 0,
      "byteLength": 50148,
      "byteOffset": 767556,
      "target": 34962
    },
    {
      "buffer": 0,
      "byteLength": 50148,
      "byteOffset": 817704,
      "target": 34962
    },
    {
      "buffer": 0,
      "byteLength": 33432,
      "byteOffset": 867852,
      "target": 34962
    }
  ],
  "buffers": [
    {
      "byteLength": 901284,
      "uri": "20_W_CasementDouble.bin"
    }
  ],
  "images": [
    {
      "uri": "20_W_Exterior_baseColor.png"
    },
    {
      "uri": "20_W_Exterior_occlusionRoughnessMetallic.png"
    },
    {
      "uri": "20_W_Exterior_normal.png"
    },
    {
      "uri": "20_W_Exterior_emissive.png"
    },
    {
      "uri": "20_W_Glass_baseColor.png"
    },
    {
      "uri": "20_W_Glass_occlusionRoughnessMetallic.png"
    },
    {
      "uri": "20_W_Glass_normal.png"
    },
    {
      "uri": "20_W_Glass_emissive.png"
    },
    {
      "uri": "20_W_Gray_baseColor.png"
    },
    {
      "uri": "20_W_Gray_occlusionRoughnessMetallic.png"
    },
    {
      "uri": "20_W_Gray_normal.png"
    },
    {
      "uri": "20_W_Gray_emissive.png"
    },
    {
      "uri": "20_W_Hardware_baseColor.png"
    },
    {
      "uri": "20_W_Hardware_occlusionRoughnessMetallic.png"
    },
    {
      "uri": "20_W_Hardware_normal.png"
    },
    {
      "uri": "20_W_Hardware_emissive.png"
    },
    {
      "uri": "20_W_Interior_baseColor.png"
    },
    {
      "uri": "20_W_Interior_occlusionRoughnessMetallic.png"
    },
    {
      "uri": "20_W_Interior_normal.png"
    },
    {
      "uri": "20_W_Interior_emissive.png"
    },
    {
      "uri": "20_W_Spacers_baseColor.png"
    },
    {
      "uri": "20_W_Spacers_occlusionRoughnessMetallic.png"
    },
    {
      "uri": "20_W_Spacers_normal.png"
    },
    {
      "uri": "20_W_Spacers_emissive.png"
    }
  ],
  "materials": [
    {
      "alphaMode": "OPAQUE",
      "emissiveFactor": [
        1.0,
        1.0,
        1.0
      ],
      "emissiveTexture": {
        "index": 3
      },
      "name": "20_W_Exterior",
      "normalTexture": {
        "index": 2
      },
      "occlusionTexture": {
        "index": 1
      },
      "pbrMetallicRoughness": {
        "baseColorTexture": {
          "index": 0
        },
        "metallicRoughnessTexture": {
          "index": 1
        }
      }
    },
    {
      "alphaMode": "BLEND",
      "emissiveFactor": [
        1.0,
        1.0,
        1.0
      ],
      "emissiveTexture": {
        "index": 7
      },
      "name": "20_W_Glass",
      "normalTexture": {
        "index": 6
      },
      "occlusionTexture": {
        "index": 5
      },
      "pbrMetallicRoughness": {
        "baseColorTexture": {
          "index": 4
        },
        "metallicRoughnessTexture": {
          "index": 5
        }
      }
    },
    {
      "alphaMode": "OPAQUE",
      "emissiveFactor": [
        1.0,
        1.0,
        1.0
      ],
      "emissiveTexture": {
        "index": 11
      },
      "name": "20_W_Gray",
      "normalTexture": {
        "index": 10
      },
      "occlusionTexture": {
        "index": 9
      },
      "pbrMetallicRoughness": {
        "baseColorTexture": {
          "index": 8
        },
        "metallicRoughnessTexture": {
          "index": 9
        }
      }
    },
    {
      "alphaMode": "OPAQUE",
      "emissiveFactor": [
        1.0,
        1.0,
        1.0
      ],
      "emissiveTexture": {
        "index": 15
      },
      "name": "20_W_Hardware",
      "normalTexture": {
        "index": 14
      },
      "occlusionTexture": {
        "index": 13
      },
      "pbrMetallicRoughness": {
        "baseColorTexture": {
          "index": 12
        },
        "metallicRoughnessTexture": {
          "index": 13
        }
      }
    },
    {
      "alphaMode": "OPAQUE",
      "emissiveFactor": [
        1.0,
        1.0,
        1.0
      ],
      "emissiveTexture": {
        "index": 19
      },
      "name": "20_W_Interior",
      "normalTexture": {
        "index": 18
      },
      "occlusionTexture": {
        "index": 17
      },
      "pbrMetallicRoughness": {
        "baseColorTexture": {
          "index": 16
        },
        "metallicRoughnessTexture": {
          "index": 17
        }
      }
    },
    {
      "alphaMode": "OPAQUE",
      "emissiveFactor": [
        1.0,
        1.0,
        1.0
      ],
      "emissiveTexture": {
        "index": 23
      },
      "name": "20_W_Spacers",
      "normalTexture": {
        "index": 22
      },
      "occlusionTexture": {
        "index": 21
      },
      "pbrMetallicRoughness": {
        "baseColorTexture": {
          "index": 20
        },
        "metallicRoughnessTexture": {
          "index": 21
        }
      }
    }
  ],
  "meshes": [
    {
      "name": "20_W_Interior",
      "primitives": [
        {
          "attributes": {
            "NORMAL": 2,
            "POSITION": 1,
            "TEXCOORD_0": 3
          },
          "indices": 0,
          "material": 4,
          "mode": 4
        }
      ]
    },
    {
      "name": "20_W_Gray",
      "primitives": [
        {
          "attributes": {
            "NORMAL": 6,
            "POSITION": 5,
            "TEXCOORD_0": 7
          },
          "indices": 4,
          "material": 2,
          "mode": 4
        }
      ]
    },
    {
      "name": "20_W_Exterior",
      "primitives": [
        {
          "attributes": {
            "NORMAL": 10,
            "POSITION": 9,
            "TEXCOORD_0": 11
          },
          "indices": 8,
          "material": 0,
          "mode": 4
        }
      ]
    },
    {
      "name": "20_W_Spacers",
      "primitives": [
        {
          "attributes": {
            "NORMAL": 14,
            "POSITION": 13,
            "TEXCOORD_0": 15
          },
          "indices": 12,
          "material": 5,
          "mode": 4
        }
      ]
    },
    {
      "name": "20_W_Glass",
      "primitives": [
        {
          "attributes": {
            "NORMAL": 18,
            "POSITION": 17,
            "TEXCOORD_0": 19
          },
          "indices": 16,
          "material": 1,
          "mode": 4
        }
      ]
    },
    {
      "name": "20_W_Hardware",
      "primitives": [
        {
          "attributes": {
            "NORMAL": 22,
            "POSITION": 21,
            "TEXCOORD_0": 23
          },
          "indices": 20,
          "material": 3,
          "mode": 4
        }
      ]
    }
  ],
  "nodes": [
    {
      "children": [
        1,
        3,
        5,
        7,
        9,
        11
      ],
      "name": "root",
      "scale": [
        27.4793834686279,
        27.4793834686279,
        27.4793834686279
      ],
      "translation": [
        -0.002655029296875,
        27.479284286499,
        0.220285534858704
      ]
    },
    {
      "children": [
        2
      ],
      "name": "20_W_Interior"
    },
    {
      "mesh": 0,
      "name": "20_W_Interior"
    },
    {
      "children": [
        4
      ],
      "name": "20_W_Gray"
    },
    {
      "mesh": 1,
      "name": "20_W_Gray"
    },
    {
      "children": [
        6
      ],
      "name": "20_W_Exterior"
    },
    {
      "mesh": 2,
      "name": "20_W_Exterior"
    },
    {
      "children": [
        8
      ],
      "name": "20_W_Spacers"
    },
    {
      "mesh": 3,
      "name": "20_W_Spacers"
    },
    {
      "children": [
        10
      ],
      "name": "20_W_Glass"
    },
    {
      "mesh": 4,
      "name": "20_W_Glass"
    },
    {
      "children": [
        12
      ],
      "name": "20_W_Hardware"
    },
    {
      "mesh": 5,
      "name": "20_W_Hardware"
    }
  ],
  "samplers": [
    {
      "magFilter": 9729,
      "minFilter": 9985,
      "wrapS": 10497,
      "wrapT": 10497
    }
  ],
  "scene": 0,
  "scenes": [
    {
      "name": "Scene",
      "nodes": [
        0
      ]
    }
  ],
  "textures": [
    {
      "sampler": 0,
      "source": 0
    },
    {
      "sampler": 0,
      "source": 1
    },
    {
      "sampler": 0,
      "source": 2
    },
    {
      "sampler": 0,
      "source": 3
    },
    {
      "sampler": 0,
      "source": 4
    },
    {
      "sampler": 0,
      "source": 5
    },
    {
      "sampler": 0,
      "source": 6
    },
    {
      "sampler": 0,
      "source": 7
    },
    {
      "sampler": 0,
      "source": 8
    },
    {
      "sampler": 0,
      "source": 9
    },
    {
      "sampler": 0,
      "source": 10
    },
    {
      "sampler": 0,
      "source": 11
    },
    {
      "sampler": 0,
      "source": 12
    },
    {
      "sampler": 0,
      "source": 13
    },
    {
      "sampler": 0,
      "source": 14
    },
    {
      "sampler": 0,
      "source": 15
    },
    {
      "sampler": 0,
      "source": 16
    },
    {
      "sampler": 0,
      "source": 17
    },
    {
      "sampler": 0,
      "source": 18
    },
    {
      "sampler": 0,
      "source": 19
    },
    {
      "sampler": 0,
      "source": 20
    },
    {
      "sampler": 0,
      "source": 21
    },
    {
      "sampler": 0,
      "source": 22
    },
    {
      "sampler": 0,
      "source": 23
    }
  ]
}