{
  "accessors": [
    {
      "bufferView": 0,
      "componentType": 5125,
      "count": 210,
      "type": "SCALAR"
    },
    {
      "bufferView": 1,
      "componentType": 5126,
      "count": 140,
      "max": [
        0.944825708866119,
        0.57511031627655,
        -0.0187599565833807
      ],
      "min": [
        -0.94234973192215,
        -0.572943568229675,
        -0.0321975573897362
      ],
      "type": "VEC3"
    },
    {
      "bufferView": 2,
      "componentType": 5126,
      "count": 140,
      "type": "VEC3"
    },
    {
      "bufferView": 3,
      "componentType": 5126,
      "count": 140,
      "type": "VEC2"
    },
    {
      "bufferView": 4,
      "componentType": 5125,
      "count": 6516,
      "type": "SCALAR"
    },
    {
      "bufferView": 5,
      "componentType": 5126,
      "count": 5358,
      "max": [
        1.0,
        0.648155152797699,
        0.0397824570536613
      ],
      "min": [
        -0.997448205947876,
        -0.646055638790131,
        -0.0350929759442806
      ],
      "type": "VEC3"
    },
    {
      "bufferView": 6,
      "componentType": 5126,
      "count": 5358,
      "type": "VEC3"
    },
    {
      "bufferView": 7,
      "componentType": 5126,
      "count": 5358,
      "type": "VEC2"
    },
    {
      "bufferView": 8,
      "componentType": 5125,
      "count": 72,
      "type": "SCALAR"
    },
    {
      "bufferView": 9,
      "componentType": 5126,
      "count": 48,
      "max": [
        0.965357780456543,
        0.582910656929016,
        -0.0144546870142221
      ],
      "min": [
        -0.952463686466217,
        -0.590653836727142,
        -0.03410255163908
      ],
      "type": "VEC3"
    },
    {
      "bufferView": 10,
      "componentType": 5126,
      "count": 48,
      "type": "VEC3"
    },
    {
      "bufferView": 11,
      "componentType": 5126,
      "count": 48,
      "type": "VEC2"
    },
    {
      "bufferView": 12,
      "componentType": 5125,
      "count": 17142,
      "type": "SCALAR"
    },
    {
      "bufferView": 13,
      "componentType": 5126,
      "count": 13601,
      "max": [
        0.99999988079071,
        0.647713005542755,
        0.0266909152269363
      ],
      "min": [
        -1.0,
        -0.648155152797699,
        -0.0559503398835659
      ],
      "type": "VEC3"
    },
    {
      "bufferView": 14,
      "componentType": 5126,
      "count": 13601,
      "type": "VEC3"
    },
    {
      "bufferView": 15,
      "componentType": 5126,
      "count": 13601,
      "type": "VEC2"
    },
    {
      "bufferView": 16,
      "componentType": 5125,
      "count": 5604,
      "type": "SCALAR"
    },
    {
      "bufferView": 17,
      "componentType": 5126,
      "count": 3862,
      "max": [
        0.84479033946991,
        -0.4195157289505,
        0.0559503361582756
      ],
      "min": [
        -0.84479033946991,
        -0.617987811565399,
        0.0125392908230424
      ],
      "type": "VEC3"
    },
    {
      "bufferView": 18,
      "componentType": 5126,
      "count": 3862,
      "type": "VEC3"
    },
    {
      "bufferView": 19,
      "componentType": 5126,
      "count": 3862,
      "type": "VEC2"
    }
  ],
  "asset": {
    "generator": "Substance Painter 2019.2.1",
    "version": "2.0"
  },
  "bufferViews": [
    {
      "buffer": 0,
      "byteLength": 840,
      "target": 34963
    },
    {
      "buffer": 0,
      "byteLength": 1680,
      "byteOffset": 840,
      "target": 34962
    },
    {
      "buffer": 0,
      "byteLength": 1680,
      "byteOffset": 2520,
      "target": 34962
    },
    {
      "buffer": 0,
      "byteLength": 1120,
      "byteOffset": 4200,
      "target": 34962
    },
    {
      "buffer": 0,
      "byteLength": 26064,
      "byteOffset": 5320,
      "target": 34963
    },
    {
      "buffer": 0,
      "byteLength": 64296,
      "byteOffset": 31384,
      "target": 34962
    },
    {
      "buffer": 0,
      "byteLength": 64296,
      "byteOffset": 95680,
      "target": 34962
    },
    {
      "buffer": 0,
      "byteLength": 42864,
      "byteOffset": 159976,
      "target": 34962
    },
    {
      "buffer": 0,
      "byteLength": 288,
      "byteOffset": 202840,
      "target": 34963
    },
    {
      "buffer": 0,
      "byteLength": 576,
      "byteOffset": 203128,
      "target": 34962
    },
    {
      "buffer": 0,
      "byteLength": 576,
      "byteOffset": 203704,
      "target": 34962
    },
    {
      "buffer": 0,
      "byteLength": 384,
      "byteOffset": 204280,
      "target": 34962
    },
    {
      "buffer": 0,
      "byteLength": 68568,
      "byteOffset": 204664,
      "target": 34963
    },
    {
      "buffer": 0,
      "byteLength": 163212,
      "byteOffset": 273232,
      "target": 34962
    },
    {
      "buffer": 0,
      "byteLength": 163212,
      "byteOffset": 436444,
      "target": 34962
    },
    {
      "buffer": 0,
      "byteLength": 108808,
      "byteOffset": 599656,
      "target": 34962
    },
    {
      "buffer": 0,
      "byteLength": 22416,
      "byteOffset": 708464,
      "target": 34963
    },
    {
      "buffer": 0,
      "byteLength": 46344,
      "byteOffset": 730880,
      "target": 34962
    },
    {
      "buffer": 0,
      "byteLength": 46344,
      "byteOffset": 777224,
      "target": 34962
    },
    {
      "buffer": 0,
      "byteLength": 30896,
      "byteOffset": 823568,
      "target": 34962
    }
  ],
  "buffers": [
    {
      "byteLength": 854464,
      "uri": "21_W_CasementTriple121_v01.bin"
    }
  ],
  "images": [
    {
      "uri": "21_W_Exterior_baseColor.png"
    },
    {
      "uri": "21_W_Exterior_occlusionRoughnessMetallic.png"
    },
    {
      "uri": "21_W_Exterior_normal.png"
    },
    {
      "uri": "21_W_Exterior_emissive.png"
    },
    {
      "uri": "21_W_Glass_baseColor.png"
    },
    {
      "uri": "21_W_Glass_occlusionRoughnessMetallic.png"
    },
    {
      "uri": "21_W_Glass_normal.png"
    },
    {
      "uri": "21_W_Glass_emissive.png"
    },
    {
      "uri": "21_W_Hardware_baseColor.png"
    },
    {
      "uri": "21_W_Hardware_occlusionRoughnessMetallic.png"
    },
    {
      "uri": "21_W_Hardware_normal.png"
    },
    {
      "uri": "21_W_Hardware_emissive.png"
    },
    {
      "uri": "21_W_Interior_baseColor.png"
    },
    {
      "uri": "21_W_Interior_occlusionRoughnessMetallic.png"
    },
    {
      "uri": "21_W_Interior_normal.png"
    },
    {
      "uri": "21_W_Interior_emissive.png"
    },
    {
      "uri": "21_W_Spacer_baseColor.png"
    },
    {
      "uri": "21_W_Spacer_occlusionRoughnessMetallic.png"
    },
    {
      "uri": "21_W_Spacer_normal.png"
    },
    {
      "uri": "21_W_Spacer_emissive.png"
    }
  ],
  "materials": [
    {
      "alphaMode": "OPAQUE",
      "emissiveFactor": [
        1.0,
        1.0,
        1.0
      ],
      "emissiveTexture": {
        "index": 3
      },
      "name": "21_W_Exterior",
      "normalTexture": {
        "index": 2
      },
      "occlusionTexture": {
        "index": 1
      },
      "pbrMetallicRoughness": {
        "baseColorTexture": {
          "index": 0
        },
        "metallicRoughnessTexture": {
          "index": 1
        }
      }
    },
    {
      "alphaMode": "BLEND",
      "emissiveFactor": [
        1.0,
        1.0,
        1.0
      ],
      "emissiveTexture": {
        "index": 7
      },
      "name": "21_W_Glass",
      "normalTexture": {
        "index": 6
      },
      "occlusionTexture": {
        "index": 5
      },
      "pbrMetallicRoughness": {
        "baseColorTexture": {
          "index": 4
        },
        "metallicRoughnessTexture": {
          "index": 5
        }
      }
    },
    {
      "alphaMode": "OPAQUE",
      "emissiveFactor": [
        1.0,
        1.0,
        1.0
      ],
      "emissiveTexture": {
        "index": 11
      },
      "name": "21_W_Hardware",
      "normalTexture": {
        "index": 10
      },
      "occlusionTexture": {
        "index": 9
      },
      "pbrMetallicRoughness": {
        "baseColorTexture": {
          "index": 8
        },
        "metallicRoughnessTexture": {
          "index": 9
        }
      }
    },
    {
      "alphaMode": "OPAQUE",
      "emissiveFactor": [
        1.0,
        1.0,
        1.0
      ],
      "emissiveTexture": {
        "index": 15
      },
      "name": "21_W_Interior",
      "normalTexture": {
        "index": 14
      },
      "occlusionTexture": {
        "index": 13
      },
      "pbrMetallicRoughness": {
        "baseColorTexture": {
          "index": 12
        },
        "metallicRoughnessTexture": {
          "index": 13
        }
      }
    },
    {
      "alphaMode": "OPAQUE",
      "emissiveFactor": [
        1.0,
        1.0,
        1.0
      ],
      "emissiveTexture": {
        "index": 19
      },
      "name": "21_W_Spacer",
      "normalTexture": {
        "index": 18
      },
      "occlusionTexture": {
        "index": 17
      },
      "pbrMetallicRoughness": {
        "baseColorTexture": {
          "index": 16
        },
        "metallicRoughnessTexture": {
          "index": 17
        }
      }
    }
  ],
  "meshes": [
    {
      "name": "21_W_Spacer",
      "primitives": [
        {
          "attributes": {
            "NORMAL": 2,
            "POSITION": 1,
            "TEXCOORD_0": 3
          },
          "indices": 0,
          "material": 4,
          "mode": 4
        }
      ]
    },
    {
      "name": "21_W_Interior",
      "primitives": [
        {
          "attributes": {
            "NORMAL": 6,
            "POSITION": 5,
            "TEXCOORD_0": 7
          },
          "indices": 4,
          "material": 3,
          "mode": 4
        }
      ]
    },
    {
      "name": "21_W_Glass",
      "primitives": [
        {
          "attributes": {
            "NORMAL": 10,
            "POSITION": 9,
            "TEXCOORD_0": 11
          },
          "indices": 8,
          "material": 1,
          "mode": 4
        }
      ]
    },
    {
      "name": "21_W_Exterior",
      "primitives": [
        {
          "attributes": {
            "NORMAL": 14,
            "POSITION": 13,
            "TEXCOORD_0": 15
          },
          "indices": 12,
          "material": 0,
          "mode": 4
        }
      ]
    },
    {
      "name": "21_W_Hardware",
      "primitives": [
        {
          "attributes": {
            "NORMAL": 18,
            "POSITION": 17,
            "TEXCOORD_0": 19
          },
          "indices": 16,
          "material": 2,
          "mode": 4
        }
      ]
    }
  ],
  "nodes": [
    {
      "children": [
        1,
        3,
        5,
        7,
        9
      ],
      "name": "root",
      "scale": [
        1.05868589878082,
        1.05868589878082,
        1.05868589878082
      ],
      "translation": [
        0.0,
        0.683211207389832,
        0.0060499869287014
      ]
    },
    {
      "children": [
        2
      ],
      "name": "21_W_Spacer"
    },
    {
      "mesh": 0,
      "name": "21_W_Spacer"
    },
    {
      "children": [
        4
      ],
      "name": "21_W_Interior"
    },
    {
      "mesh": 1,
      "name": "21_W_Interior"
    },
    {
      "children": [
        6
      ],
      "name": "21_W_Glass"
    },
    {
      "mesh": 2,
      "name": "21_W_Glass"
    },
    {
      "children": [
        8
      ],
      "name": "21_W_Exterior"
    },
    {
      "mesh": 3,
      "name": "21_W_Exterior"
    },
    {
      "children": [
        10
      ],
      "name": "21_W_Hardware"
    },
    {
      "mesh": 4,
      "name": "21_W_Hardware"
    }
  ],
  "samplers": [
    {
      "magFilter": 9729,
      "minFilter": 9985,
      "wrapS": 10497,
      "wrapT": 10497
    }
  ],
  "scene": 0,
  "scenes": [
    {
      "name": "Scene",
      "nodes": [
        0
      ]
    }
  ],
  "textures": [
    {
      "sampler": 0,
      "source": 0
    },
    {
      "sampler": 0,
      "source": 1
    },
    {
      "sampler": 0,
      "source": 2
    },
    {
      "sampler": 0,
      "source": 3
    },
    {
      "sampler": 0,
      "source": 4
    },
    {
      "sampler": 0,
      "source": 5
    },
    {
      "sampler": 0,
      "source": 6
    },
    {
      "sampler": 0,
      "source": 7
    },
    {
      "sampler": 0,
      "source": 8
    },
    {
      "sampler": 0,
      "source": 9
    },
    {
      "sampler": 0,
      "source": 10
    },
    {
      "sampler": 0,
      "source": 11
    },
    {
      "sampler": 0,
      "source": 12
    },
    {
      "sampler": 0,
      "source": 13
    },
    {
      "sampler": 0,
      "source": 14
    },
    {
      "sampler": 0,
      "source": 15
    },
    {
      "sampler": 0,
      "source": 16
    },
    {
      "sampler": 0,
      "source": 17
    },
    {
      "sampler": 0,
      "source": 18
    },
    {
      "sampler": 0,
      "source": 19
    }
  ]
}