{
  "accessors": [
    {
      "bufferView": 0,
      "componentType": 5125,
      "count": 210,
      "type": "SCALAR"
    },
    {
      "bufferView": 1,
      "componentType": 5126,
      "count": 140,
      "max": [
        1.44654011726379,
        0.868402242660522,
        0.57726001739502
      ],
      "min": [
        -1.44255638122559,
        -0.88916552066803,
        0.556688547134399
      ],
      "type": "VEC3"
    },
    {
      "bufferView": 2,
      "componentType": 5126,
      "count": 140,
      "type": "VEC3"
    },
    {
      "bufferView": 3,
      "componentType": 5126,
      "count": 140,
      "type": "VEC2"
    },
    {
      "bufferView": 4,
      "componentType": 5125,
      "count": 6516,
      "type": "SCALAR"
    },
    {
      "bufferView": 5,
      "componentType": 5126,
      "count": 3770,
      "max": [
        1.53100681304932,
        0.980227112770081,
        0.66688346862793
      ],
      "min": [
        -1.52690720558167,
        -1.00109362602234,
        0.552255630493164
      ],
      "type": "VEC3"
    },
    {
      "bufferView": 6,
      "componentType": 5126,
      "count": 3770,
      "type": "VEC3"
    },
    {
      "bufferView": 7,
      "componentType": 5126,
      "count": 3770,
      "type": "VEC2"
    },
    {
      "bufferView": 8,
      "componentType": 5125,
      "count": 72,
      "type": "SCALAR"
    },
    {
      "bufferView": 9,
      "componentType": 5126,
      "count": 48,
      "max": [
        1.4779726266861,
        0.880343556404114,
        0.583850979804993
      ],
      "min": [
        -1.45804011821747,
        -0.916278481483459,
        0.553772151470184
      ],
      "type": "VEC3"
    },
    {
      "bufferView": 10,
      "componentType": 5126,
      "count": 48,
      "type": "VEC3"
    },
    {
      "bufferView": 11,
      "componentType": 5126,
      "count": 48,
      "type": "VEC2"
    },
    {
      "bufferView": 12,
      "componentType": 5125,
      "count": 17142,
      "type": "SCALAR"
    },
    {
      "bufferView": 13,
      "componentType": 5126,
      "count": 9738,
      "max": [
        1.53100657463074,
        0.979550242424011,
        0.64684122800827
      ],
      "min": [
        -1.53081369400024,
        -1.00430774688721,
        0.520325183868408
      ],
      "type": "VEC3"
    },
    {
      "bufferView": 14,
      "componentType": 5126,
      "count": 9738,
      "type": "VEC3"
    },
    {
      "bufferView": 15,
      "componentType": 5126,
      "count": 9738,
      "type": "VEC2"
    },
    {
      "bufferView": 16,
      "componentType": 5125,
      "count": 5604,
      "type": "SCALAR"
    },
    {
      "bufferView": 17,
      "componentType": 5126,
      "count": 1936,
      "max": [
        1.29339492321014,
        -0.654281258583069,
        0.691635072231293
      ],
      "min": [
        -1.29320180416107,
        -0.958124160766602,
        0.625176608562469
      ],
      "type": "VEC3"
    },
    {
      "bufferView": 18,
      "componentType": 5126,
      "count": 1936,
      "type": "VEC3"
    },
    {
      "bufferView": 19,
      "componentType": 5126,
      "count": 1936,
      "type": "VEC2"
    }
  ],
  "asset": {
    "generator": "Substance Painter 2019.2.1",
    "version": "2.0"
  },
  "bufferViews": [
    {
      "buffer": 0,
      "byteLength": 840,
      "target": 34963
    },
    {
      "buffer": 0,
      "byteLength": 1680,
      "byteOffset": 840,
      "target": 34962
    },
    {
      "buffer": 0,
      "byteLength": 1680,
      "byteOffset": 2520,
      "target": 34962
    },
    {
      "buffer": 0,
      "byteLength": 1120,
      "byteOffset": 4200,
      "target": 34962
    },
    {
      "buffer": 0,
      "byteLength": 26064,
      "byteOffset": 5320,
      "target": 34963
    },
    {
      "buffer": 0,
      "byteLength": 45240,
      "byteOffset": 31384,
      "target": 34962
    },
    {
      "buffer": 0,
      "byteLength": 45240,
      "byteOffset": 76624,
      "target": 34962
    },
    {
      "buffer": 0,
      "byteLength": 30160,
      "byteOffset": 121864,
      "target": 34962
    },
    {
      "buffer": 0,
      "byteLength": 288,
      "byteOffset": 152024,
      "target": 34963
    },
    {
      "buffer": 0,
      "byteLength": 576,
      "byteOffset": 152312,
      "target": 34962
    },
    {
      "buffer": 0,
      "byteLength": 576,
      "byteOffset": 152888,
      "target": 34962
    },
    {
      "buffer": 0,
      "byteLength": 384,
      "byteOffset": 153464,
      "target": 34962
    },
    {
      "buffer": 0,
      "byteLength": 68568,
      "byteOffset": 153848,
      "target": 34963
    },
    {
      "buffer": 0,
      "byteLength": 116856,
      "byteOffset": 222416,
      "target": 34962
    },
    {
      "buffer": 0,
      "byteLength": 116856,
      "byteOffset": 339272,
      "target": 34962
    },
    {
      "buffer": 0,
      "byteLength": 77904,
      "byteOffset": 456128,
      "target": 34962
    },
    {
      "buffer": 0,
      "byteLength": 22416,
      "byteOffset": 534032,
      "target": 34963
    },
    {
      "buffer": 0,
      "byteLength": 23232,
      "byteOffset": 556448,
      "target": 34962
    },
    {
      "buffer": 0,
      "byteLength": 23232,
      "byteOffset": 579680,
      "target": 34962
    },
    {
      "buffer": 0,
      "byteLength": 15488,
      "byteOffset": 602912,
      "target": 34962
    }
  ],
  "buffers": [
    {
      "byteLength": 618400,
      "uri": "21_W_CasementTriple121.bin"
    }
  ],
  "images": [
    {
      "uri": "21_W_Exterior_baseColor.png"
    },
    {
      "uri": "21_W_Exterior_occlusionRoughnessMetallic.png"
    },
    {
      "uri": "21_W_Exterior_normal.png"
    },
    {
      "uri": "21_W_Exterior_emissive.png"
    },
    {
      "uri": "21_W_Glass_baseColor.png"
    },
    {
      "uri": "21_W_Glass_occlusionRoughnessMetallic.png"
    },
    {
      "uri": "21_W_Glass_normal.png"
    },
    {
      "uri": "21_W_Glass_emissive.png"
    },
    {
      "uri": "21_W_Hardware_baseColor.png"
    },
    {
      "uri": "21_W_Hardware_occlusionRoughnessMetallic.png"
    },
    {
      "uri": "21_W_Hardware_normal.png"
    },
    {
      "uri": "21_W_Hardware_emissive.png"
    },
    {
      "uri": "21_W_Interior_baseColor.png"
    },
    {
      "uri": "21_W_Interior_occlusionRoughnessMetallic.png"
    },
    {
      "uri": "21_W_Interior_normal.png"
    },
    {
      "uri": "21_W_Interior_emissive.png"
    },
    {
      "uri": "21_W_Spacer_baseColor.png"
    },
    {
      "uri": "21_W_Spacer_occlusionRoughnessMetallic.png"
    },
    {
      "uri": "21_W_Spacer_normal.png"
    },
    {
      "uri": "21_W_Spacer_emissive.png"
    }
  ],
  "materials": [
    {
      "alphaMode": "OPAQUE",
      "emissiveFactor": [
        1.0,
        1.0,
        1.0
      ],
      "emissiveTexture": {
        "index": 3
      },
      "name": "21_W_Exterior",
      "normalTexture": {
        "index": 2
      },
      "occlusionTexture": {
        "index": 1
      },
      "pbrMetallicRoughness": {
        "baseColorTexture": {
          "index": 0
        },
        "metallicRoughnessTexture": {
          "index": 1
        }
      }
    },
    {
      "alphaMode": "BLEND",
      "emissiveFactor": [
        1.0,
        1.0,
        1.0
      ],
      "emissiveTexture": {
        "index": 7
      },
      "name": "21_W_Glass",
      "normalTexture": {
        "index": 6
      },
      "occlusionTexture": {
        "index": 5
      },
      "pbrMetallicRoughness": {
        "baseColorTexture": {
          "index": 4
        },
        "metallicRoughnessTexture": {
          "index": 5
        }
      }
    },
    {
      "alphaMode": "OPAQUE",
      "emissiveFactor": [
        1.0,
        1.0,
        1.0
      ],
      "emissiveTexture": {
        "index": 11
      },
      "name": "21_W_Hardware",
      "normalTexture": {
        "index": 10
      },
      "occlusionTexture": {
        "index": 9
      },
      "pbrMetallicRoughness": {
        "baseColorTexture": {
          "index": 8
        },
        "metallicRoughnessTexture": {
          "index": 9
        }
      }
    },
    {
      "alphaMode": "OPAQUE",
      "emissiveFactor": [
        1.0,
        1.0,
        1.0
      ],
      "emissiveTexture": {
        "index": 15
      },
      "name": "21_W_Interior",
      "normalTexture": {
        "index": 14
      },
      "occlusionTexture": {
        "index": 13
      },
      "pbrMetallicRoughness": {
        "baseColorTexture": {
          "index": 12
        },
        "metallicRoughnessTexture": {
          "index": 13
        }
      }
    },
    {
      "alphaMode": "OPAQUE",
      "emissiveFactor": [
        1.0,
        1.0,
        1.0
      ],
      "emissiveTexture": {
        "index": 19
      },
      "name": "21_W_Spacer",
      "normalTexture": {
        "index": 18
      },
      "occlusionTexture": {
        "index": 17
      },
      "pbrMetallicRoughness": {
        "baseColorTexture": {
          "index": 16
        },
        "metallicRoughnessTexture": {
          "index": 17
        }
      }
    }
  ],
  "meshes": [
    {
      "name": "21_W_Spacer",
      "primitives": [
        {
          "attributes": {
            "NORMAL": 2,
            "POSITION": 1,
            "TEXCOORD_0": 3
          },
          "indices": 0,
          "material": 4,
          "mode": 4
        }
      ]
    },
    {
      "name": "21_W_Interior",
      "primitives": [
        {
          "attributes": {
            "NORMAL": 6,
            "POSITION": 5,
            "TEXCOORD_0": 7
          },
          "indices": 4,
          "material": 3,
          "mode": 4
        }
      ]
    },
    {
      "name": "21_W_Glass",
      "primitives": [
        {
          "attributes": {
            "NORMAL": 10,
            "POSITION": 9,
            "TEXCOORD_0": 11
          },
          "indices": 8,
          "material": 1,
          "mode": 4
        }
      ]
    },
    {
      "name": "21_W_Exterior",
      "primitives": [
        {
          "attributes": {
            "NORMAL": 14,
            "POSITION": 13,
            "TEXCOORD_0": 15
          },
          "indices": 12,
          "material": 0,
          "mode": 4
        }
      ]
    },
    {
      "name": "21_W_Hardware",
      "primitives": [
        {
          "attributes": {
            "NORMAL": 18,
            "POSITION": 17,
            "TEXCOORD_0": 19
          },
          "indices": 16,
          "material": 2,
          "mode": 4
        }
      ]
    }
  ],
  "nodes": [
    {
      "children": [
        1,
        3,
        5,
        7,
        9
      ],
      "name": "root",
      "scale": [
        27.4793834686279,
        27.4793834686279,
        27.4793834686279
      ],
      "translation": [
        -0.002655029296875,
        27.479284286499,
        0.220285534858704
      ]
    },
    {
      "children": [
        2
      ],
      "name": "21_W_Spacer"
    },
    {
      "mesh": 0,
      "name": "21_W_Spacer"
    },
    {
      "children": [
        4
      ],
      "name": "21_W_Interior"
    },
    {
      "mesh": 1,
      "name": "21_W_Interior"
    },
    {
      "children": [
        6
      ],
      "name": "21_W_Glass"
    },
    {
      "mesh": 2,
      "name": "21_W_Glass"
    },
    {
      "children": [
        8
      ],
      "name": "21_W_Exterior"
    },
    {
      "mesh": 3,
      "name": "21_W_Exterior"
    },
    {
      "children": [
        10
      ],
      "name": "21_W_Hardware"
    },
    {
      "mesh": 4,
      "name": "21_W_Hardware"
    }
  ],
  "samplers": [
    {
      "magFilter": 9729,
      "minFilter": 9985,
      "wrapS": 10497,
      "wrapT": 10497
    }
  ],
  "scene": 0,
  "scenes": [
    {
      "name": "Scene",
      "nodes": [
        0
      ]
    }
  ],
  "textures": [
    {
      "sampler": 0,
      "source": 0
    },
    {
      "sampler": 0,
      "source": 1
    },
    {
      "sampler": 0,
      "source": 2
    },
    {
      "sampler": 0,
      "source": 3
    },
    {
      "sampler": 0,
      "source": 4
    },
    {
      "sampler": 0,
      "source": 5
    },
    {
      "sampler": 0,
      "source": 6
    },
    {
      "sampler": 0,
      "source": 7
    },
    {
      "sampler": 0,
      "source": 8
    },
    {
      "sampler": 0,
      "source": 9
    },
    {
      "sampler": 0,
      "source": 10
    },
    {
      "sampler": 0,
      "source": 11
    },
    {
      "sampler": 0,
      "source": 12
    },
    {
      "sampler": 0,
      "source": 13
    },
    {
      "sampler": 0,
      "source": 14
    },
    {
      "sampler": 0,
      "source": 15
    },
    {
      "sampler": 0,
      "source": 16
    },
    {
      "sampler": 0,
      "source": 17
    },
    {
      "sampler": 0,
      "source": 18
    },
    {
      "sampler": 0,
      "source": 19
    }
  ]
}