{
  "accessors": [
    {
      "bufferView": 0,
      "componentType": 5125,
      "count": 17802,
      "type": "SCALAR"
    },
    {
      "bufferView": 1,
      "componentType": 5126,
      "count": 9834,
      "max": [
        0.693197250366211,
        2.06200194358826,
        0.0854563117027283
      ],
      "min": [
        -0.696450889110565,
        -0.99999475479126,
        -0.0901545807719231
      ],
      "type": "VEC3"
    },
    {
      "bufferView": 2,
      "componentType": 5126,
      "count": 9834,
      "type": "VEC3"
    },
    {
      "bufferView": 3,
      "componentType": 5126,
      "count": 9834,
      "type": "VEC2"
    },
    {
      "bufferView": 4,
      "componentType": 5125,
      "count": 720,
      "type": "SCALAR"
    },
    {
      "bufferView": 5,
      "componentType": 5126,
      "count": 416,
      "max": [
        0.57752388715744,
        1.95668351650238,
        0.0677200928330421
      ],
      "min": [
        -0.577285408973694,
        -0.843939006328583,
        -0.0488863587379456
      ],
      "type": "VEC3"
    },
    {
      "bufferView": 6,
      "componentType": 5126,
      "count": 416,
      "type": "VEC3"
    },
    {
      "bufferView": 7,
      "componentType": 5126,
      "count": 416,
      "type": "VEC2"
    },
    {
      "bufferView": 8,
      "componentType": 5125,
      "count": 1218,
      "type": "SCALAR"
    },
    {
      "bufferView": 9,
      "componentType": 5126,
      "count": 463,
      "max": [
        0.693335831165314,
        -0.883864879608154,
        0.111718341708183
      ],
      "min": [
        -0.696588575839996,
        -1.00010764598846,
        -0.109027735888958
      ],
      "type": "VEC3"
    },
    {
      "bufferView": 10,
      "componentType": 5126,
      "count": 463,
      "type": "VEC3"
    },
    {
      "bufferView": 11,
      "componentType": 5126,
      "count": 463,
      "type": "VEC2"
    },
    {
      "bufferView": 12,
      "componentType": 5125,
      "count": 6927,
      "type": "SCALAR"
    },
    {
      "bufferView": 13,
      "componentType": 5126,
      "count": 3346,
      "max": [
        0.693335771560669,
        2.07811236381531,
        0.111720956861973
      ],
      "min": [
        -0.699477732181549,
        -1.00010895729065,
        -0.0569902509450912
      ],
      "type": "VEC3"
    },
    {
      "bufferView": 14,
      "componentType": 5126,
      "count": 3346,
      "type": "VEC3"
    },
    {
      "bufferView": 15,
      "componentType": 5126,
      "count": 3346,
      "type": "VEC2"
    },
    {
      "bufferView": 16,
      "componentType": 5125,
      "count": 24,
      "type": "SCALAR"
    },
    {
      "bufferView": 17,
      "componentType": 5126,
      "count": 16,
      "max": [
        0.555867195129395,
        1.92476499080658,
        0.0772774964570999
      ],
      "min": [
        -0.561062514781952,
        -0.8229940533638,
        -0.0568412803113461
      ],
      "type": "VEC3"
    },
    {
      "bufferView": 18,
      "componentType": 5126,
      "count": 16,
      "type": "VEC3"
    },
    {
      "bufferView": 19,
      "componentType": 5126,
      "count": 16,
      "type": "VEC2"
    },
    {
      "bufferView": 20,
      "componentType": 5125,
      "count": 7914,
      "type": "SCALAR"
    },
    {
      "bufferView": 21,
      "componentType": 5126,
      "count": 3773,
      "max": [
        0.693336546421051,
        2.0782732963562,
        0.106108583509922
      ],
      "min": [
        -0.699746489524841,
        -1.0000696182251,
        -0.109028033912182
      ],
      "type": "VEC3"
    },
    {
      "bufferView": 22,
      "componentType": 5126,
      "count": 3773,
      "type": "VEC3"
    },
    {
      "bufferView": 23,
      "componentType": 5126,
      "count": 3773,
      "type": "VEC2"
    },
    {
      "bufferView": 24,
      "componentType": 5125,
      "count": 11286,
      "type": "SCALAR"
    },
    {
      "bufferView": 25,
      "componentType": 5126,
      "count": 3860,
      "max": [
        0.397453546524048,
        0.117297947406769,
        0.132952749729156
      ],
      "min": [
        -0.377248167991638,
        -0.873037457466125,
        -0.0100330710411072
      ],
      "type": "VEC3"
    },
    {
      "bufferView": 26,
      "componentType": 5126,
      "count": 3860,
      "type": "VEC3"
    },
    {
      "bufferView": 27,
      "componentType": 5126,
      "count": 3860,
      "type": "VEC2"
    }
  ],
  "asset": {
    "generator": "Substance Painter 2019.2.1",
    "version": "2.0"
  },
  "bufferViews": [
    {
      "buffer": 0,
      "byteLength": 71208,
      "target": 34963
    },
    {
      "buffer": 0,
      "byteLength": 118008,
      "byteOffset": 71208,
      "target": 34962
    },
    {
      "buffer": 0,
      "byteLength": 118008,
      "byteOffset": 189216,
      "target": 34962
    },
    {
      "buffer": 0,
      "byteLength": 78672,
      "byteOffset": 307224,
      "target": 34962
    },
    {
      "buffer": 0,
      "byteLength": 2880,
      "byteOffset": 385896,
      "target": 34963
    },
    {
      "buffer": 0,
      "byteLength": 4992,
      "byteOffset": 388776,
      "target": 34962
    },
    {
      "buffer": 0,
      "byteLength": 4992,
      "byteOffset": 393768,
      "target": 34962
    },
    {
      "buffer": 0,
      "byteLength": 3328,
      "byteOffset": 398760,
      "target": 34962
    },
    {
      "buffer": 0,
      "byteLength": 4872,
      "byteOffset": 402088,
      "target": 34963
    },
    {
      "buffer": 0,
      "byteLength": 5556,
      "byteOffset": 406960,
      "target": 34962
    },
    {
      "buffer": 0,
      "byteLength": 5556,
      "byteOffset": 412516,
      "target": 34962
    },
    {
      "buffer": 0,
      "byteLength": 3704,
      "byteOffset": 418072,
      "target": 34962
    },
    {
      "buffer": 0,
      "byteLength": 27708,
      "byteOffset": 421776,
      "target": 34963
    },
    {
      "buffer": 0,
      "byteLength": 40152,
      "byteOffset": 449484,
      "target": 34962
    },
    {
      "buffer": 0,
      "byteLength": 40152,
      "byteOffset": 489636,
      "target": 34962
    },
    {
      "buffer": 0,
      "byteLength": 26768,
      "byteOffset": 529788,
      "target": 34962
    },
    {
      "buffer": 0,
      "byteLength": 96,
      "byteOffset": 556556,
      "target": 34963
    },
    {
      "buffer": 0,
      "byteLength": 192,
      "byteOffset": 556652,
      "target": 34962
    },
    {
      "buffer": 0,
      "byteLength": 192,
      "byteOffset": 556844,
      "target": 34962
    },
    {
      "buffer": 0,
      "byteLength": 128,
      "byteOffset": 557036,
      "target": 34962
    },
    {
      "buffer": 0,
      "byteLength": 31656,
      "byteOffset": 557164,
      "target": 34963
    },
    {
      "buffer": 0,
      "byteLength": 45276,
      "byteOffset": 588820,
      "target": 34962
    },
    {
      "buffer": 0,
      "byteLength": 45276,
      "byteOffset": 634096,
      "target": 34962
    },
    {
      "buffer": 0,
      "byteLength": 30184,
      "byteOffset": 679372,
      "target": 34962
    },
    {
      "buffer": 0,
      "byteLength": 45144,
      "byteOffset": 709556,
      "target": 34963
    },
    {
      "buffer": 0,
      "byteLength": 46320,
      "byteOffset": 754700,
      "target": 34962
    },
    {
      "buffer": 0,
      "byteLength": 46320,
      "byteOffset": 801020,
      "target": 34962
    },
    {
      "buffer": 0,
      "byteLength": 30880,
      "byteOffset": 847340,
      "target": 34962
    }
  ],
  "buffers": [
    {
      "byteLength": 878220,
      "uri": "22_W_DoublehungDG.bin"
    }
  ],
  "images": [
    {
      "uri": "22_W_Exterior_baseColor.png"
    },
    {
      "uri": "22_W_Exterior_occlusionRoughnessMetallic.png"
    },
    {
      "uri": "22_W_Exterior_normal.png"
    },
    {
      "uri": "22_W_Exterior_emissive.png"
    },
    {
      "uri": "22_W_Fibrex_baseColor.png"
    },
    {
      "uri": "22_W_Fibrex_occlusionRoughnessMetallic.png"
    },
    {
      "uri": "22_W_Fibrex_normal.png"
    },
    {
      "uri": "22_W_Fibrex_emissive.png"
    },
    {
      "uri": "22_W_Glass_baseColor.png"
    },
    {
      "uri": "22_W_Glass_occlusionRoughnessMetallic.png"
    },
    {
      "uri": "22_W_Glass_normal.png"
    },
    {
      "uri": "22_W_Glass_emissive.png"
    },
    {
      "uri": "22_W_Gray_baseColor.png"
    },
    {
      "uri": "22_W_Gray_occlusionRoughnessMetallic.png"
    },
    {
      "uri": "22_W_Gray_normal.png"
    },
    {
      "uri": "22_W_Gray_emissive.png"
    },
    {
      "uri": "22_W_Hardware_baseColor.png"
    },
    {
      "uri": "22_W_Hardware_occlusionRoughnessMetallic.png"
    },
    {
      "uri": "22_W_Hardware_normal.png"
    },
    {
      "uri": "22_W_Hardware_emissive.png"
    },
    {
      "uri": "22_W_Interior_baseColor.png"
    },
    {
      "uri": "22_W_Interior_occlusionRoughnessMetallic.png"
    },
    {
      "uri": "22_W_Interior_normal.png"
    },
    {
      "uri": "22_W_Interior_emissive.png"
    },
    {
      "uri": "22_W_Spacers_baseColor.png"
    },
    {
      "uri": "22_W_Spacers_occlusionRoughnessMetallic.png"
    },
    {
      "uri": "22_W_Spacers_normal.png"
    },
    {
      "uri": "22_W_Spacers_emissive.png"
    }
  ],
  "materials": [
    {
      "alphaMode": "OPAQUE",
      "emissiveFactor": [
        1.0,
        1.0,
        1.0
      ],
      "emissiveTexture": {
        "index": 3
      },
      "name": "22_W_Exterior",
      "normalTexture": {
        "index": 2
      },
      "occlusionTexture": {
        "index": 1
      },
      "pbrMetallicRoughness": {
        "baseColorTexture": {
          "index": 0
        },
        "metallicRoughnessTexture": {
          "index": 1
        }
      }
    },
    {
      "alphaMode": "OPAQUE",
      "emissiveFactor": [
        1.0,
        1.0,
        1.0
      ],
      "emissiveTexture": {
        "index": 7
      },
      "name": "22_W_Fibrex",
      "normalTexture": {
        "index": 6
      },
      "occlusionTexture": {
        "index": 5
      },
      "pbrMetallicRoughness": {
        "baseColorTexture": {
          "index": 4
        },
        "metallicRoughnessTexture": {
          "index": 5
        }
      }
    },
    {
      "alphaMode": "BLEND",
      "emissiveFactor": [
        1.0,
        1.0,
        1.0
      ],
      "emissiveTexture": {
        "index": 11
      },
      "name": "22_W_Glass",
      "normalTexture": {
        "index": 10
      },
      "occlusionTexture": {
        "index": 9
      },
      "pbrMetallicRoughness": {
        "baseColorTexture": {
          "index": 8
        },
        "metallicRoughnessTexture": {
          "index": 9
        }
      }
    },
    {
      "alphaMode": "OPAQUE",
      "emissiveFactor": [
        1.0,
        1.0,
        1.0
      ],
      "emissiveTexture": {
        "index": 15
      },
      "name": "22_W_Gray",
      "normalTexture": {
        "index": 14
      },
      "occlusionTexture": {
        "index": 13
      },
      "pbrMetallicRoughness": {
        "baseColorTexture": {
          "index": 12
        },
        "metallicRoughnessTexture": {
          "index": 13
        }
      }
    },
    {
      "alphaMode": "OPAQUE",
      "emissiveFactor": [
        1.0,
        1.0,
        1.0
      ],
      "emissiveTexture": {
        "index": 19
      },
      "name": "22_W_Hardware",
      "normalTexture": {
        "index": 18
      },
      "occlusionTexture": {
        "index": 17
      },
      "pbrMetallicRoughness": {
        "baseColorTexture": {
          "index": 16
        },
        "metallicRoughnessTexture": {
          "index": 17
        }
      }
    },
    {
      "alphaMode": "OPAQUE",
      "emissiveFactor": [
        1.0,
        1.0,
        1.0
      ],
      "emissiveTexture": {
        "index": 23
      },
      "name": "22_W_Interior",
      "normalTexture": {
        "index": 22
      },
      "occlusionTexture": {
        "index": 21
      },
      "pbrMetallicRoughness": {
        "baseColorTexture": {
          "index": 20
        },
        "metallicRoughnessTexture": {
          "index": 21
        }
      }
    },
    {
      "alphaMode": "OPAQUE",
      "emissiveFactor": [
        1.0,
        1.0,
        1.0
      ],
      "emissiveTexture": {
        "index": 27
      },
      "name": "22_W_Spacers",
      "normalTexture": {
        "index": 26
      },
      "occlusionTexture": {
        "index": 25
      },
      "pbrMetallicRoughness": {
        "baseColorTexture": {
          "index": 24
        },
        "metallicRoughnessTexture": {
          "index": 25
        }
      }
    }
  ],
  "meshes": [
    {
      "name": "22_W_Gray",
      "primitives": [
        {
          "attributes": {
            "NORMAL": 2,
            "POSITION": 1,
            "TEXCOORD_0": 3
          },
          "indices": 0,
          "material": 3,
          "mode": 4
        }
      ]
    },
    {
      "name": "22_W_Spacers",
      "primitives": [
        {
          "attributes": {
            "NORMAL": 6,
            "POSITION": 5,
            "TEXCOORD_0": 7
          },
          "indices": 4,
          "material": 6,
          "mode": 4
        }
      ]
    },
    {
      "name": "22_W_Fibrex",
      "primitives": [
        {
          "attributes": {
            "NORMAL": 10,
            "POSITION": 9,
            "TEXCOORD_0": 11
          },
          "indices": 8,
          "material": 1,
          "mode": 4
        }
      ]
    },
    {
      "name": "22_W_Interior",
      "primitives": [
        {
          "attributes": {
            "NORMAL": 14,
            "POSITION": 13,
            "TEXCOORD_0": 15
          },
          "indices": 12,
          "material": 5,
          "mode": 4
        }
      ]
    },
    {
      "name": "22_W_Glass",
      "primitives": [
        {
          "attributes": {
            "NORMAL": 18,
            "POSITION": 17,
            "TEXCOORD_0": 19
          },
          "indices": 16,
          "material": 2,
          "mode": 4
        }
      ]
    },
    {
      "name": "22_W_Exterior",
      "primitives": [
        {
          "attributes": {
            "NORMAL": 22,
            "POSITION": 21,
            "TEXCOORD_0": 23
          },
          "indices": 20,
          "material": 0,
          "mode": 4
        }
      ]
    },
    {
      "name": "22_W_Hardware",
      "primitives": [
        {
          "attributes": {
            "NORMAL": 26,
            "POSITION": 25,
            "TEXCOORD_0": 27
          },
          "indices": 24,
          "material": 4,
          "mode": 4
        }
      ]
    }
  ],
  "nodes": [
    {
      "children": [
        1,
        3,
        5,
        7,
        9,
        11,
        13
      ],
      "name": "root",
      "scale": [
        27.4793834686279,
        27.4793834686279,
        27.4793834686279
      ],
      "translation": [
        -0.002655029296875,
        27.479284286499,
        0.220285534858704
      ]
    },
    {
      "children": [
        2
      ],
      "name": "22_W_Gray"
    },
    {
      "mesh": 0,
      "name": "22_W_Gray"
    },
    {
      "children": [
        4
      ],
      "name": "22_W_Spacers"
    },
    {
      "mesh": 1,
      "name": "22_W_Spacers"
    },
    {
      "children": [
        6
      ],
      "name": "22_W_Fibrex"
    },
    {
      "mesh": 2,
      "name": "22_W_Fibrex"
    },
    {
      "children": [
        8
      ],
      "name": "22_W_Interior"
    },
    {
      "mesh": 3,
      "name": "22_W_Interior"
    },
    {
      "children": [
        10
      ],
      "name": "22_W_Glass"
    },
    {
      "mesh": 4,
      "name": "22_W_Glass"
    },
    {
      "children": [
        12
      ],
      "name": "22_W_Exterior"
    },
    {
      "mesh": 5,
      "name": "22_W_Exterior"
    },
    {
      "children": [
        14
      ],
      "name": "22_W_Hardware"
    },
    {
      "mesh": 6,
      "name": "22_W_Hardware"
    }
  ],
  "samplers": [
    {
      "magFilter": 9729,
      "minFilter": 9985,
      "wrapS": 10497,
      "wrapT": 10497
    }
  ],
  "scene": 0,
  "scenes": [
    {
      "name": "Scene",
      "nodes": [
        0
      ]
    }
  ],
  "textures": [
    {
      "sampler": 0,
      "source": 0
    },
    {
      "sampler": 0,
      "source": 1
    },
    {
      "sampler": 0,
      "source": 2
    },
    {
      "sampler": 0,
      "source": 3
    },
    {
      "sampler": 0,
      "source": 4
    },
    {
      "sampler": 0,
      "source": 5
    },
    {
      "sampler": 0,
      "source": 6
    },
    {
      "sampler": 0,
      "source": 7
    },
    {
      "sampler": 0,
      "source": 8
    },
    {
      "sampler": 0,
      "source": 9
    },
    {
      "sampler": 0,
      "source": 10
    },
    {
      "sampler": 0,
      "source": 11
    },
    {
      "sampler": 0,
      "source": 12
    },
    {
      "sampler": 0,
      "source": 13
    },
    {
      "sampler": 0,
      "source": 14
    },
    {
      "sampler": 0,
      "source": 15
    },
    {
      "sampler": 0,
      "source": 16
    },
    {
      "sampler": 0,
      "source": 17
    },
    {
      "sampler": 0,
      "source": 18
    },
    {
      "sampler": 0,
      "source": 19
    },
    {
      "sampler": 0,
      "source": 20
    },
    {
      "sampler": 0,
      "source": 21
    },
    {
      "sampler": 0,
      "source": 22
    },
    {
      "sampler": 0,
      "source": 23
    },
    {
      "sampler": 0,
      "source": 24
    },
    {
      "sampler": 0,
      "source": 25
    },
    {
      "sampler": 0,
      "source": 26
    },
    {
      "sampler": 0,
      "source": 27
    }
  ]
}