{
  "accessors": [
    {
      "bufferView": 0,
      "componentType": 5125,
      "count": 7914,
      "type": "SCALAR"
    },
    {
      "bufferView": 1,
      "componentType": 5126,
      "count": 3772,
      "max": [
        0.452537387609482,
        1.0,
        0.0680631026625633
      ],
      "min": [
        -0.452537387609482,
        -0.999974429607391,
        -0.0717094168066978
      ],
      "type": "VEC3"
    },
    {
      "bufferView": 2,
      "componentType": 5126,
      "count": 3772,
      "type": "VEC3"
    },
    {
      "bufferView": 3,
      "componentType": 5126,
      "count": 3772,
      "type": "VEC2"
    },
    {
      "bufferView": 4,
      "componentType": 5125,
      "count": 24,
      "type": "SCALAR"
    },
    {
      "bufferView": 5,
      "componentType": 5126,
      "count": 16,
      "max": [
        0.363224625587463,
        0.900266945362091,
        0.0493317879736423
      ],
      "min": [
        -0.362435549497604,
        -0.884929835796356,
        -0.0378040969371796
      ],
      "type": "VEC3"
    },
    {
      "bufferView": 6,
      "componentType": 5126,
      "count": 16,
      "type": "VEC3"
    },
    {
      "bufferView": 7,
      "componentType": 5126,
      "count": 16,
      "type": "VEC2"
    },
    {
      "bufferView": 8,
      "componentType": 5125,
      "count": 7011,
      "type": "SCALAR"
    },
    {
      "bufferView": 9,
      "componentType": 5126,
      "count": 3402,
      "max": [
        0.452536880970001,
        0.999895393848419,
        0.0717094242572784
      ],
      "min": [
        -0.452362775802612,
        -1.0,
        -0.0379008837044239
      ],
      "type": "VEC3"
    },
    {
      "bufferView": 10,
      "componentType": 5126,
      "count": 3402,
      "type": "VEC3"
    },
    {
      "bufferView": 11,
      "componentType": 5126,
      "count": 3402,
      "type": "VEC2"
    },
    {
      "bufferView": 12,
      "componentType": 5125,
      "count": 1218,
      "type": "SCALAR"
    },
    {
      "bufferView": 13,
      "componentType": 5126,
      "count": 463,
      "max": [
        0.452536880970001,
        -0.924477159976959,
        0.0717077255249023
      ],
      "min": [
        -0.45048576593399,
        -0.999999165534973,
        -0.0717092081904411
      ],
      "type": "VEC3"
    },
    {
      "bufferView": 14,
      "componentType": 5126,
      "count": 463,
      "type": "VEC3"
    },
    {
      "bufferView": 15,
      "componentType": 5126,
      "count": 463,
      "type": "VEC2"
    },
    {
      "bufferView": 16,
      "componentType": 5125,
      "count": 720,
      "type": "SCALAR"
    },
    {
      "bufferView": 17,
      "componentType": 5126,
      "count": 416,
      "max": [
        0.377294838428497,
        0.921004056930542,
        0.0431224219501019
      ],
      "min": [
        -0.372975409030914,
        -0.898537576198578,
        -0.0326358489692211
      ],
      "type": "VEC3"
    },
    {
      "bufferView": 18,
      "componentType": 5126,
      "count": 416,
      "type": "VEC3"
    },
    {
      "bufferView": 19,
      "componentType": 5126,
      "count": 416,
      "type": "VEC2"
    },
    {
      "bufferView": 20,
      "componentType": 5125,
      "count": 17802,
      "type": "SCALAR"
    },
    {
      "bufferView": 21,
      "componentType": 5126,
      "count": 9835,
      "max": [
        0.452446848154068,
        0.989428579807281,
        0.0546454936265945
      ],
      "min": [
        -0.450396299362183,
        -0.999925792217255,
        -0.0594474785029888
      ],
      "type": "VEC3"
    },
    {
      "bufferView": 22,
      "componentType": 5126,
      "count": 9835,
      "type": "VEC3"
    },
    {
      "bufferView": 23,
      "componentType": 5126,
      "count": 9835,
      "type": "VEC2"
    },
    {
      "bufferView": 24,
      "componentType": 5125,
      "count": 12546,
      "type": "SCALAR"
    },
    {
      "bufferView": 25,
      "componentType": 5126,
      "count": 2626,
      "max": [
        0.258166134357452,
        -0.274029821157455,
        0.0700893253087997
      ],
      "min": [
        -0.241900503635406,
        -0.91671884059906,
        -0.00739318318665028
      ],
      "type": "VEC3"
    },
    {
      "bufferView": 26,
      "componentType": 5126,
      "count": 2626,
      "type": "VEC3"
    },
    {
      "bufferView": 27,
      "componentType": 5126,
      "count": 2626,
      "type": "VEC2"
    }
  ],
  "asset": {
    "generator": "Substance Painter 2019.2.1",
    "version": "2.0"
  },
  "bufferViews": [
    {
      "buffer": 0,
      "byteLength": 31656,
      "target": 34963
    },
    {
      "buffer": 0,
      "byteLength": 45264,
      "byteOffset": 31656,
      "target": 34962
    },
    {
      "buffer": 0,
      "byteLength": 45264,
      "byteOffset": 76920,
      "target": 34962
    },
    {
      "buffer": 0,
      "byteLength": 30176,
      "byteOffset": 122184,
      "target": 34962
    },
    {
      "buffer": 0,
      "byteLength": 96,
      "byteOffset": 152360,
      "target": 34963
    },
    {
      "buffer": 0,
      "byteLength": 192,
      "byteOffset": 152456,
      "target": 34962
    },
    {
      "buffer": 0,
      "byteLength": 192,
      "byteOffset": 152648,
      "target": 34962
    },
    {
      "buffer": 0,
      "byteLength": 128,
      "byteOffset": 152840,
      "target": 34962
    },
    {
      "buffer": 0,
      "byteLength": 28044,
      "byteOffset": 152968,
      "target": 34963
    },
    {
      "buffer": 0,
      "byteLength": 40824,
      "byteOffset": 181012,
      "target": 34962
    },
    {
      "buffer": 0,
      "byteLength": 40824,
      "byteOffset": 221836,
      "target": 34962
    },
    {
      "buffer": 0,
      "byteLength": 27216,
      "byteOffset": 262660,
      "target": 34962
    },
    {
      "buffer": 0,
      "byteLength": 4872,
      "byteOffset": 289876,
      "target": 34963
    },
    {
      "buffer": 0,
      "byteLength": 5556,
      "byteOffset": 294748,
      "target": 34962
    },
    {
      "buffer": 0,
      "byteLength": 5556,
      "byteOffset": 300304,
      "target": 34962
    },
    {
      "buffer": 0,
      "byteLength": 3704,
      "byteOffset": 305860,
      "target": 34962
    },
    {
      "buffer": 0,
      "byteLength": 2880,
      "byteOffset": 309564,
      "target": 34963
    },
    {
      "buffer": 0,
      "byteLength": 4992,
      "byteOffset": 312444,
      "target": 34962
    },
    {
      "buffer": 0,
      "byteLength": 4992,
      "byteOffset": 317436,
      "target": 34962
    },
    {
      "buffer": 0,
      "byteLength": 3328,
      "byteOffset": 322428,
      "target": 34962
    },
    {
      "buffer": 0,
      "byteLength": 71208,
      "byteOffset": 325756,
      "target": 34963
    },
    {
      "buffer": 0,
      "byteLength": 118020,
      "byteOffset": 396964,
      "target": 34962
    },
    {
      "buffer": 0,
      "byteLength": 118020,
      "byteOffset": 514984,
      "target": 34962
    },
    {
      "buffer": 0,
      "byteLength": 78680,
      "byteOffset": 633004,
      "target": 34962
    },
    {
      "buffer": 0,
      "byteLength": 50184,
      "byteOffset": 711684,
      "target": 34963
    },
    {
      "buffer": 0,
      "byteLength": 31512,
      "byteOffset": 761868,
      "target": 34962
    },
    {
      "buffer": 0,
      "byteLength": 31512,
      "byteOffset": 793380,
      "target": 34962
    },
    {
      "buffer": 0,
      "byteLength": 21008,
      "byteOffset": 824892,
      "target": 34962
    }
  ],
  "buffers": [
    {
      "byteLength": 845900,
      "uri": "22_W_DoubleHungDG_v01.bin"
    }
  ],
  "images": [
    {
      "uri": "22_W_Exterior_baseColor.png"
    },
    {
      "uri": "22_W_Exterior_occlusionRoughnessMetallic.png"
    },
    {
      "uri": "22_W_Exterior_normal.png"
    },
    {
      "uri": "22_W_Exterior_emissive.png"
    },
    {
      "uri": "22_W_Fibrex_baseColor.png"
    },
    {
      "uri": "22_W_Fibrex_occlusionRoughnessMetallic.png"
    },
    {
      "uri": "22_W_Fibrex_normal.png"
    },
    {
      "uri": "22_W_Fibrex_emissive.png"
    },
    {
      "uri": "22_W_Glass_baseColor.png"
    },
    {
      "uri": "22_W_Glass_occlusionRoughnessMetallic.png"
    },
    {
      "uri": "22_W_Glass_normal.png"
    },
    {
      "uri": "22_W_Glass_emissive.png"
    },
    {
      "uri": "22_W_Gray_baseColor.png"
    },
    {
      "uri": "22_W_Gray_occlusionRoughnessMetallic.png"
    },
    {
      "uri": "22_W_Gray_normal.png"
    },
    {
      "uri": "22_W_Gray_emissive.png"
    },
    {
      "uri": "22_W_Hardware_baseColor.png"
    },
    {
      "uri": "22_W_Hardware_occlusionRoughnessMetallic.png"
    },
    {
      "uri": "22_W_Hardware_normal.png"
    },
    {
      "uri": "22_W_Hardware_emissive.png"
    },
    {
      "uri": "22_W_Interior_baseColor.png"
    },
    {
      "uri": "22_W_Interior_occlusionRoughnessMetallic.png"
    },
    {
      "uri": "22_W_Interior_normal.png"
    },
    {
      "uri": "22_W_Interior_emissive.png"
    },
    {
      "uri": "22_W_Spacers_baseColor.png"
    },
    {
      "uri": "22_W_Spacers_occlusionRoughnessMetallic.png"
    },
    {
      "uri": "22_W_Spacers_normal.png"
    },
    {
      "uri": "22_W_Spacers_emissive.png"
    }
  ],
  "materials": [
    {
      "alphaMode": "OPAQUE",
      "emissiveFactor": [
        1.0,
        1.0,
        1.0
      ],
      "emissiveTexture": {
        "index": 3
      },
      "name": "22_W_Exterior",
      "normalTexture": {
        "index": 2
      },
      "occlusionTexture": {
        "index": 1
      },
      "pbrMetallicRoughness": {
        "baseColorTexture": {
          "index": 0
        },
        "metallicRoughnessTexture": {
          "index": 1
        }
      }
    },
    {
      "alphaMode": "OPAQUE",
      "emissiveFactor": [
        1.0,
        1.0,
        1.0
      ],
      "emissiveTexture": {
        "index": 7
      },
      "name": "22_W_Fibrex",
      "normalTexture": {
        "index": 6
      },
      "occlusionTexture": {
        "index": 5
      },
      "pbrMetallicRoughness": {
        "baseColorTexture": {
          "index": 4
        },
        "metallicRoughnessTexture": {
          "index": 5
        }
      }
    },
    {
      "alphaMode": "BLEND",
      "emissiveFactor": [
        1.0,
        1.0,
        1.0
      ],
      "emissiveTexture": {
        "index": 11
      },
      "name": "22_W_Glass",
      "normalTexture": {
        "index": 10
      },
      "occlusionTexture": {
        "index": 9
      },
      "pbrMetallicRoughness": {
        "baseColorTexture": {
          "index": 8
        },
        "metallicRoughnessTexture": {
          "index": 9
        }
      }
    },
    {
      "alphaMode": "OPAQUE",
      "emissiveFactor": [
        1.0,
        1.0,
        1.0
      ],
      "emissiveTexture": {
        "index": 15
      },
      "name": "22_W_Gray",
      "normalTexture": {
        "index": 14
      },
      "occlusionTexture": {
        "index": 13
      },
      "pbrMetallicRoughness": {
        "baseColorTexture": {
          "index": 12
        },
        "metallicRoughnessTexture": {
          "index": 13
        }
      }
    },
    {
      "alphaMode": "OPAQUE",
      "emissiveFactor": [
        1.0,
        1.0,
        1.0
      ],
      "emissiveTexture": {
        "index": 19
      },
      "name": "22_W_Hardware",
      "normalTexture": {
        "index": 18
      },
      "occlusionTexture": {
        "index": 17
      },
      "pbrMetallicRoughness": {
        "baseColorTexture": {
          "index": 16
        },
        "metallicRoughnessTexture": {
          "index": 17
        }
      }
    },
    {
      "alphaMode": "OPAQUE",
      "emissiveFactor": [
        1.0,
        1.0,
        1.0
      ],
      "emissiveTexture": {
        "index": 23
      },
      "name": "22_W_Interior",
      "normalTexture": {
        "index": 22
      },
      "occlusionTexture": {
        "index": 21
      },
      "pbrMetallicRoughness": {
        "baseColorTexture": {
          "index": 20
        },
        "metallicRoughnessTexture": {
          "index": 21
        }
      }
    },
    {
      "alphaMode": "OPAQUE",
      "emissiveFactor": [
        1.0,
        1.0,
        1.0
      ],
      "emissiveTexture": {
        "index": 27
      },
      "name": "22_W_Spacers",
      "normalTexture": {
        "index": 26
      },
      "occlusionTexture": {
        "index": 25
      },
      "pbrMetallicRoughness": {
        "baseColorTexture": {
          "index": 24
        },
        "metallicRoughnessTexture": {
          "index": 25
        }
      }
    }
  ],
  "meshes": [
    {
      "name": "22_W_Exterior",
      "primitives": [
        {
          "attributes": {
            "NORMAL": 2,
            "POSITION": 1,
            "TEXCOORD_0": 3
          },
          "indices": 0,
          "material": 0,
          "mode": 4
        }
      ]
    },
    {
      "name": "22_W_Glass",
      "primitives": [
        {
          "attributes": {
            "NORMAL": 6,
            "POSITION": 5,
            "TEXCOORD_0": 7
          },
          "indices": 4,
          "material": 2,
          "mode": 4
        }
      ]
    },
    {
      "name": "22_W_Interior",
      "primitives": [
        {
          "attributes": {
            "NORMAL": 10,
            "POSITION": 9,
            "TEXCOORD_0": 11
          },
          "indices": 8,
          "material": 5,
          "mode": 4
        }
      ]
    },
    {
      "name": "22_W_Fibrex",
      "primitives": [
        {
          "attributes": {
            "NORMAL": 14,
            "POSITION": 13,
            "TEXCOORD_0": 15
          },
          "indices": 12,
          "material": 1,
          "mode": 4
        }
      ]
    },
    {
      "name": "22_W_Spacers",
      "primitives": [
        {
          "attributes": {
            "NORMAL": 18,
            "POSITION": 17,
            "TEXCOORD_0": 19
          },
          "indices": 16,
          "material": 6,
          "mode": 4
        }
      ]
    },
    {
      "name": "22_W_Gray",
      "primitives": [
        {
          "attributes": {
            "NORMAL": 22,
            "POSITION": 21,
            "TEXCOORD_0": 23
          },
          "indices": 20,
          "material": 3,
          "mode": 4
        }
      ]
    },
    {
      "name": "22_W_Hardware",
      "primitives": [
        {
          "attributes": {
            "NORMAL": 26,
            "POSITION": 25,
            "TEXCOORD_0": 27
          },
          "indices": 24,
          "material": 4,
          "mode": 4
        }
      ]
    }
  ],
  "nodes": [
    {
      "children": [
        1,
        3,
        5,
        7,
        9,
        11,
        13
      ],
      "name": "root",
      "scale": [
        1.0602240562439,
        1.0602240562439,
        1.0602240562439
      ],
      "translation": [
        -0.00227418541908264,
        1.06014657020569,
        0.00644930452108383
      ]
    },
    {
      "children": [
        2
      ],
      "name": "22_W_Exterior"
    },
    {
      "mesh": 0,
      "name": "22_W_Exterior"
    },
    {
      "children": [
        4
      ],
      "name": "22_W_Glass"
    },
    {
      "mesh": 1,
      "name": "22_W_Glass"
    },
    {
      "children": [
        6
      ],
      "name": "22_W_Interior"
    },
    {
      "mesh": 2,
      "name": "22_W_Interior"
    },
    {
      "children": [
        8
      ],
      "name": "22_W_Fibrex"
    },
    {
      "mesh": 3,
      "name": "22_W_Fibrex"
    },
    {
      "children": [
        10
      ],
      "name": "22_W_Spacers"
    },
    {
      "mesh": 4,
      "name": "22_W_Spacers"
    },
    {
      "children": [
        12
      ],
      "name": "22_W_Gray"
    },
    {
      "mesh": 5,
      "name": "22_W_Gray"
    },
    {
      "children": [
        14
      ],
      "name": "22_W_Hardware"
    },
    {
      "mesh": 6,
      "name": "22_W_Hardware"
    }
  ],
  "samplers": [
    {
      "magFilter": 9729,
      "minFilter": 9985,
      "wrapS": 10497,
      "wrapT": 10497
    }
  ],
  "scene": 0,
  "scenes": [
    {
      "name": "Scene",
      "nodes": [
        0
      ]
    }
  ],
  "textures": [
    {
      "sampler": 0,
      "source": 0
    },
    {
      "sampler": 0,
      "source": 1
    },
    {
      "sampler": 0,
      "source": 2
    },
    {
      "sampler": 0,
      "source": 3
    },
    {
      "sampler": 0,
      "source": 4
    },
    {
      "sampler": 0,
      "source": 5
    },
    {
      "sampler": 0,
      "source": 6
    },
    {
      "sampler": 0,
      "source": 7
    },
    {
      "sampler": 0,
      "source": 8
    },
    {
      "sampler": 0,
      "source": 9
    },
    {
      "sampler": 0,
      "source": 10
    },
    {
      "sampler": 0,
      "source": 11
    },
    {
      "sampler": 0,
      "source": 12
    },
    {
      "sampler": 0,
      "source": 13
    },
    {
      "sampler": 0,
      "source": 14
    },
    {
      "sampler": 0,
      "source": 15
    },
    {
      "sampler": 0,
      "source": 16
    },
    {
      "sampler": 0,
      "source": 17
    },
    {
      "sampler": 0,
      "source": 18
    },
    {
      "sampler": 0,
      "source": 19
    },
    {
      "sampler": 0,
      "source": 20
    },
    {
      "sampler": 0,
      "source": 21
    },
    {
      "sampler": 0,
      "source": 22
    },
    {
      "sampler": 0,
      "source": 23
    },
    {
      "sampler": 0,
      "source": 24
    },
    {
      "sampler": 0,
      "source": 25
    },
    {
      "sampler": 0,
      "source": 26
    },
    {
      "sampler": 0,
      "source": 27
    }
  ]
}