{
  "accessors": [
    {
      "bufferView": 0,
      "componentType": 5125,
      "count": 50268,
      "type": "SCALAR"
    },
    {
      "bufferView": 1,
      "componentType": 5126,
      "count": 11220,
      "max": [
        1.26017022132874,
        0.833098173141479,
        0.420159876346588
      ],
      "min": [
        1.16186380386353,
        0.2984219789505,
        0.205823868513107
      ],
      "type": "VEC3"
    },
    {
      "bufferView": 2,
      "componentType": 5126,
      "count": 11220,
      "type": "VEC3"
    },
    {
      "bufferView": 3,
      "componentType": 5126,
      "count": 11220,
      "type": "VEC2"
    },
    {
      "bufferView": 4,
      "componentType": 5125,
      "count": 1962,
      "type": "SCALAR"
    },
    {
      "bufferView": 5,
      "componentType": 5126,
      "count": 996,
      "max": [
        1.34246349334717,
        1.94080555438995,
        0.349488973617554
      ],
      "min": [
        -1.32690286636353,
        -1.00045502185822,
        0.152550980448723
      ],
      "type": "VEC3"
    },
    {
      "bufferView": 6,
      "componentType": 5126,
      "count": 996,
      "type": "VEC3"
    },
    {
      "bufferView": 7,
      "componentType": 5126,
      "count": 996,
      "type": "VEC2"
    },
    {
      "bufferView": 8,
      "componentType": 5125,
      "count": 1536,
      "type": "SCALAR"
    },
    {
      "bufferView": 9,
      "componentType": 5126,
      "count": 720,
      "max": [
        1.19176721572876,
        1.81833684444427,
        0.320959806442261
      ],
      "min": [
        -1.17756986618042,
        -0.803510904312134,
        0.182288885116577
      ],
      "type": "VEC3"
    },
    {
      "bufferView": 10,
      "componentType": 5126,
      "count": 720,
      "type": "VEC3"
    },
    {
      "bufferView": 11,
      "componentType": 5126,
      "count": 720,
      "type": "VEC2"
    },
    {
      "bufferView": 12,
      "componentType": 5125,
      "count": 7065,
      "type": "SCALAR"
    },
    {
      "bufferView": 13,
      "componentType": 5126,
      "count": 4113,
      "max": [
        1.34629833698273,
        2.00087451934814,
        0.386223167181015
      ],
      "min": [
        -1.33002626895905,
        -0.996346354484558,
        0.0968524366617203
      ],
      "type": "VEC3"
    },
    {
      "bufferView": 14,
      "componentType": 5126,
      "count": 4113,
      "type": "VEC3"
    },
    {
      "bufferView": 15,
      "componentType": 5126,
      "count": 4113,
      "type": "VEC2"
    },
    {
      "bufferView": 16,
      "componentType": 5125,
      "count": 3087,
      "type": "SCALAR"
    },
    {
      "bufferView": 17,
      "componentType": 5126,
      "count": 1731,
      "max": [
        1.30644726753235,
        1.95427119731903,
        0.386093586683273
      ],
      "min": [
        -1.27965497970581,
        -0.976199984550476,
        0.160016179084778
      ],
      "type": "VEC3"
    },
    {
      "bufferView": 18,
      "componentType": 5126,
      "count": 1731,
      "type": "VEC3"
    },
    {
      "bufferView": 19,
      "componentType": 5126,
      "count": 1731,
      "type": "VEC2"
    },
    {
      "bufferView": 20,
      "componentType": 5125,
      "count": 144,
      "type": "SCALAR"
    },
    {
      "bufferView": 21,
      "componentType": 5126,
      "count": 96,
      "max": [
        1.21230781078339,
        1.84475767612457,
        0.329344779253006
      ],
      "min": [
        -1.2089296579361,
        -0.829648613929749,
        0.175383746623993
      ],
      "type": "VEC3"
    },
    {
      "bufferView": 22,
      "componentType": 5126,
      "count": 96,
      "type": "VEC3"
    },
    {
      "bufferView": 23,
      "componentType": 5126,
      "count": 96,
      "type": "VEC2"
    },
    {
      "bufferView": 24,
      "componentType": 5125,
      "count": 4332,
      "type": "SCALAR"
    },
    {
      "bufferView": 25,
      "componentType": 5126,
      "count": 1954,
      "max": [
        1.34239614009857,
        -0.901762962341309,
        0.353239059448242
      ],
      "min": [
        -1.32698857784271,
        -1.00045132637024,
        0.0867948979139328
      ],
      "type": "VEC3"
    },
    {
      "bufferView": 26,
      "componentType": 5126,
      "count": 1954,
      "type": "VEC3"
    },
    {
      "bufferView": 27,
      "componentType": 5126,
      "count": 1954,
      "type": "VEC2"
    }
  ],
  "asset": {
    "generator": "Substance Painter 2019.2.1",
    "version": "2.0"
  },
  "bufferViews": [
    {
      "buffer": 0,
      "byteLength": 201072,
      "target": 34963
    },
    {
      "buffer": 0,
      "byteLength": 134640,
      "byteOffset": 201072,
      "target": 34962
    },
    {
      "buffer": 0,
      "byteLength": 134640,
      "byteOffset": 335712,
      "target": 34962
    },
    {
      "buffer": 0,
      "byteLength": 89760,
      "byteOffset": 470352,
      "target": 34962
    },
    {
      "buffer": 0,
      "byteLength": 7848,
      "byteOffset": 560112,
      "target": 34963
    },
    {
      "buffer": 0,
      "byteLength": 11952,
      "byteOffset": 567960,
      "target": 34962
    },
    {
      "buffer": 0,
      "byteLength": 11952,
      "byteOffset": 579912,
      "target": 34962
    },
    {
      "buffer": 0,
      "byteLength": 7968,
      "byteOffset": 591864,
      "target": 34962
    },
    {
      "buffer": 0,
      "byteLength": 6144,
      "byteOffset": 599832,
      "target": 34963
    },
    {
      "buffer": 0,
      "byteLength": 8640,
      "byteOffset": 605976,
      "target": 34962
    },
    {
      "buffer": 0,
      "byteLength": 8640,
      "byteOffset": 614616,
      "target": 34962
    },
    {
      "buffer": 0,
      "byteLength": 5760,
      "byteOffset": 623256,
      "target": 34962
    },
    {
      "buffer": 0,
      "byteLength": 28260,
      "byteOffset": 629016,
      "target": 34963
    },
    {
      "buffer": 0,
      "byteLength": 49356,
      "byteOffset": 657276,
      "target": 34962
    },
    {
      "buffer": 0,
      "byteLength": 49356,
      "byteOffset": 706632,
      "target": 34962
    },
    {
      "buffer": 0,
      "byteLength": 32904,
      "byteOffset": 755988,
      "target": 34962
    },
    {
      "buffer": 0,
      "byteLength": 12348,
      "byteOffset": 788892,
      "target": 34963
    },
    {
      "buffer": 0,
      "byteLength": 20772,
      "byteOffset": 801240,
      "target": 34962
    },
    {
      "buffer": 0,
      "byteLength": 20772,
      "byteOffset": 822012,
      "target": 34962
    },
    {
      "buffer": 0,
      "byteLength": 13848,
      "byteOffset": 842784,
      "target": 34962
    },
    {
      "buffer": 0,
      "byteLength": 576,
      "byteOffset": 856632,
      "target": 34963
    },
    {
      "buffer": 0,
      "byteLength": 1152,
      "byteOffset": 857208,
      "target": 34962
    },
    {
      "buffer": 0,
      "byteLength": 1152,
      "byteOffset": 858360,
      "target": 34962
    },
    {
      "buffer": 0,
      "byteLength": 768,
      "byteOffset": 859512,
      "target": 34962
    },
    {
      "buffer": 0,
      "byteLength": 17328,
      "byteOffset": 860280,
      "target": 34963
    },
    {
      "buffer": 0,
      "byteLength": 23448,
      "byteOffset": 877608,
      "target": 34962
    },
    {
      "buffer": 0,
      "byteLength": 23448,
      "byteOffset": 901056,
      "target": 34962
    },
    {
      "buffer": 0,
      "byteLength": 15632,
      "byteOffset": 924504,
      "target": 34962
    }
  ],
  "buffers": [
    {
      "byteLength": 940136,
      "uri": "14_D_PS200Gliding.bin"
    }
  ],
  "images": [
    {
      "uri": "14_D_Exterior_baseColor.png"
    },
    {
      "uri": "14_D_Exterior_occlusionRoughnessMetallic.png"
    },
    {
      "uri": "14_D_Exterior_normal.png"
    },
    {
      "uri": "14_D_Exterior_emissive.png"
    },
    {
      "uri": "14_D_Glass_baseColor.png"
    },
    {
      "uri": "14_D_Glass_occlusionRoughnessMetallic.png"
    },
    {
      "uri": "14_D_Glass_normal.png"
    },
    {
      "uri": "14_D_Glass_emissive.png"
    },
    {
      "uri": "14_D_Gray_baseColor.png"
    },
    {
      "uri": "14_D_Gray_occlusionRoughnessMetallic.png"
    },
    {
      "uri": "14_D_Gray_normal.png"
    },
    {
      "uri": "14_D_Gray_emissive.png"
    },
    {
      "uri": "14_D_Hardware_baseColor.png"
    },
    {
      "uri": "14_D_Hardware_occlusionRoughnessMetallic.png"
    },
    {
      "uri": "14_D_Hardware_normal.png"
    },
    {
      "uri": "14_D_Hardware_emissive.png"
    },
    {
      "uri": "14_D_Interior_baseColor.png"
    },
    {
      "uri": "14_D_Interior_occlusionRoughnessMetallic.png"
    },
    {
      "uri": "14_D_Interior_normal.png"
    },
    {
      "uri": "14_D_Interior_emissive.png"
    },
    {
      "uri": "14_D_Sill_baseColor.png"
    },
    {
      "uri": "14_D_Sill_occlusionRoughnessMetallic.png"
    },
    {
      "uri": "14_D_Sill_normal.png"
    },
    {
      "uri": "14_D_Sill_emissive.png"
    },
    {
      "uri": "14_D_Spacers_baseColor.png"
    },
    {
      "uri": "14_D_Spacers_occlusionRoughnessMetallic.png"
    },
    {
      "uri": "14_D_Spacers_normal.png"
    },
    {
      "uri": "14_D_Spacers_emissive.png"
    }
  ],
  "materials": [
    {
      "alphaMode": "OPAQUE",
      "emissiveFactor": [
        1.0,
        1.0,
        1.0
      ],
      "emissiveTexture": {
        "index": 3
      },
      "name": "14_D_Exterior",
      "normalTexture": {
        "index": 2
      },
      "occlusionTexture": {
        "index": 1
      },
      "pbrMetallicRoughness": {
        "baseColorTexture": {
          "index": 0
        },
        "metallicRoughnessTexture": {
          "index": 1
        }
      }
    },
    {
      "alphaMode": "BLEND",
      "emissiveFactor": [
        1.0,
        1.0,
        1.0
      ],
      "emissiveTexture": {
        "index": 7
      },
      "name": "14_D_Glass",
      "normalTexture": {
        "index": 6
      },
      "occlusionTexture": {
        "index": 5
      },
      "pbrMetallicRoughness": {
        "baseColorTexture": {
          "index": 4
        },
        "metallicRoughnessTexture": {
          "index": 5
        }
      }
    },
    {
      "alphaMode": "OPAQUE",
      "emissiveFactor": [
        1.0,
        1.0,
        1.0
      ],
      "emissiveTexture": {
        "index": 11
      },
      "name": "14_D_Gray",
      "normalTexture": {
        "index": 10
      },
      "occlusionTexture": {
        "index": 9
      },
      "pbrMetallicRoughness": {
        "baseColorTexture": {
          "index": 8
        },
        "metallicRoughnessTexture": {
          "index": 9
        }
      }
    },
    {
      "alphaMode": "OPAQUE",
      "emissiveFactor": [
        1.0,
        1.0,
        1.0
      ],
      "emissiveTexture": {
        "index": 15
      },
      "name": "14_D_Hardware",
      "normalTexture": {
        "index": 14
      },
      "occlusionTexture": {
        "index": 13
      },
      "pbrMetallicRoughness": {
        "baseColorTexture": {
          "index": 12
        },
        "metallicRoughnessTexture": {
          "index": 13
        }
      }
    },
    {
      "alphaMode": "OPAQUE",
      "emissiveFactor": [
        1.0,
        1.0,
        1.0
      ],
      "emissiveTexture": {
        "index": 19
      },
      "name": "14_D_Interior",
      "normalTexture": {
        "index": 18
      },
      "occlusionTexture": {
        "index": 17
      },
      "pbrMetallicRoughness": {
        "baseColorTexture": {
          "index": 16
        },
        "metallicRoughnessTexture": {
          "index": 17
        }
      }
    },
    {
      "alphaMode": "OPAQUE",
      "emissiveFactor": [
        1.0,
        1.0,
        1.0
      ],
      "emissiveTexture": {
        "index": 23
      },
      "name": "14_D_Sill",
      "normalTexture": {
        "index": 22
      },
      "occlusionTexture": {
        "index": 21
      },
      "pbrMetallicRoughness": {
        "baseColorTexture": {
          "index": 20
        },
        "metallicRoughnessTexture": {
          "index": 21
        }
      }
    },
    {
      "alphaMode": "OPAQUE",
      "emissiveFactor": [
        1.0,
        1.0,
        1.0
      ],
      "emissiveTexture": {
        "index": 27
      },
      "name": "14_D_Spacers",
      "normalTexture": {
        "index": 26
      },
      "occlusionTexture": {
        "index": 25
      },
      "pbrMetallicRoughness": {
        "baseColorTexture": {
          "index": 24
        },
        "metallicRoughnessTexture": {
          "index": 25
        }
      }
    }
  ],
  "meshes": [
    {
      "name": "14_D_Harware",
      "primitives": [
        {
          "attributes": {
            "NORMAL": 2,
            "POSITION": 1,
            "TEXCOORD_0": 3
          },
          "indices": 0,
          "material": 3,
          "mode": 4
        }
      ]
    },
    {
      "name": "14_D_Gray",
      "primitives": [
        {
          "attributes": {
            "NORMAL": 6,
            "POSITION": 5,
            "TEXCOORD_0": 7
          },
          "indices": 4,
          "material": 2,
          "mode": 4
        }
      ]
    },
    {
      "name": "14_D_Spacers",
      "primitives": [
        {
          "attributes": {
            "NORMAL": 10,
            "POSITION": 9,
            "TEXCOORD_0": 11
          },
          "indices": 8,
          "material": 6,
          "mode": 4
        }
      ]
    },
    {
      "name": "14_D_Exterior",
      "primitives": [
        {
          "attributes": {
            "NORMAL": 14,
            "POSITION": 13,
            "TEXCOORD_0": 15
          },
          "indices": 12,
          "material": 0,
          "mode": 4
        }
      ]
    },
    {
      "name": "14_D_Interior",
      "primitives": [
        {
          "attributes": {
            "NORMAL": 18,
            "POSITION": 17,
            "TEXCOORD_0": 19
          },
          "indices": 16,
          "material": 4,
          "mode": 4
        }
      ]
    },
    {
      "name": "14_D_Glass",
      "primitives": [
        {
          "attributes": {
            "NORMAL": 22,
            "POSITION": 21,
            "TEXCOORD_0": 23
          },
          "indices": 20,
          "material": 1,
          "mode": 4
        }
      ]
    },
    {
      "name": "14_D_Sill",
      "primitives": [
        {
          "attributes": {
            "NORMAL": 26,
            "POSITION": 25,
            "TEXCOORD_0": 27
          },
          "indices": 24,
          "material": 5,
          "mode": 4
        }
      ]
    }
  ],
  "nodes": [
    {
      "children": [
        1,
        3,
        5,
        7,
        9,
        11,
        13
      ],
      "name": "root",
      "scale": [
        27.4793834686279,
        27.4793834686279,
        27.4793834686279
      ],
      "translation": [
        -0.002655029296875,
        27.479284286499,
        0.220285534858704
      ]
    },
    {
      "children": [
        2
      ],
      "name": "14_D_Harware"
    },
    {
      "mesh": 0,
      "name": "14_D_Harware"
    },
    {
      "children": [
        4
      ],
      "name": "14_D_Gray"
    },
    {
      "mesh": 1,
      "name": "14_D_Gray"
    },
    {
      "children": [
        6
      ],
      "name": "14_D_Spacers"
    },
    {
      "mesh": 2,
      "name": "14_D_Spacers"
    },
    {
      "children": [
        8
      ],
      "name": "14_D_Exterior"
    },
    {
      "mesh": 3,
      "name": "14_D_Exterior"
    },
    {
      "children": [
        10
      ],
      "name": "14_D_Interior"
    },
    {
      "mesh": 4,
      "name": "14_D_Interior"
    },
    {
      "children": [
        12
      ],
      "name": "14_D_Glass"
    },
    {
      "mesh": 5,
      "name": "14_D_Glass"
    },
    {
      "children": [
        14
      ],
      "name": "14_D_Sill"
    },
    {
      "mesh": 6,
      "name": "14_D_Sill"
    }
  ],
  "samplers": [
    {
      "magFilter": 9729,
      "minFilter": 9985,
      "wrapS": 10497,
      "wrapT": 10497
    }
  ],
  "scene": 0,
  "scenes": [
    {
      "name": "Scene",
      "nodes": [
        0
      ]
    }
  ],
  "textures": [
    {
      "sampler": 0,
      "source": 0
    },
    {
      "sampler": 0,
      "source": 1
    },
    {
      "sampler": 0,
      "source": 2
    },
    {
      "sampler": 0,
      "source": 3
    },
    {
      "sampler": 0,
      "source": 4
    },
    {
      "sampler": 0,
      "source": 5
    },
    {
      "sampler": 0,
      "source": 6
    },
    {
      "sampler": 0,
      "source": 7
    },
    {
      "sampler": 0,
      "source": 8
    },
    {
      "sampler": 0,
      "source": 9
    },
    {
      "sampler": 0,
      "source": 10
    },
    {
      "sampler": 0,
      "source": 11
    },
    {
      "sampler": 0,
      "source": 12
    },
    {
      "sampler": 0,
      "source": 13
    },
    {
      "sampler": 0,
      "source": 14
    },
    {
      "sampler": 0,
      "source": 15
    },
    {
      "sampler": 0,
      "source": 16
    },
    {
      "sampler": 0,
      "source": 17
    },
    {
      "sampler": 0,
      "source": 18
    },
    {
      "sampler": 0,
      "source": 19
    },
    {
      "sampler": 0,
      "source": 20
    },
    {
      "sampler": 0,
      "source": 21
    },
    {
      "sampler": 0,
      "source": 22
    },
    {
      "sampler": 0,
      "source": 23
    },
    {
      "sampler": 0,
      "source": 24
    },
    {
      "sampler": 0,
      "source": 25
    },
    {
      "sampler": 0,
      "source": 26
    },
    {
      "sampler": 0,
      "source": 27
    }
  ]
}