{
  "accessors": [
    {
      "bufferView": 0,
      "componentType": 5125,
      "count": 50268,
      "type": "SCALAR"
    },
    {
      "bufferView": 1,
      "componentType": 5126,
      "count": 33231,
      "max": [
        0.834319651126862,
        0.221826985478401,
        0.111072450876236
      ],
      "min": [
        0.768811166286469,
        -0.134465903043747,
        -0.0317548625171185
      ],
      "type": "VEC3"
    },
    {
      "bufferView": 2,
      "componentType": 5126,
      "count": 33231,
      "type": "VEC3"
    },
    {
      "bufferView": 3,
      "componentType": 5126,
      "count": 33231,
      "type": "VEC2"
    },
    {
      "bufferView": 4,
      "componentType": 5125,
      "count": 1962,
      "type": "SCALAR"
    },
    {
      "bufferView": 5,
      "componentType": 5126,
      "count": 1230,
      "max": [
        0.88915741443634,
        0.95997142791748,
        0.0639792159199715
      ],
      "min": [
        -0.889631569385529,
        -1.0,
        -0.0672539845108986
      ],
      "type": "VEC3"
    },
    {
      "bufferView": 6,
      "componentType": 5126,
      "count": 1230,
      "type": "VEC3"
    },
    {
      "bufferView": 7,
      "componentType": 5126,
      "count": 1230,
      "type": "VEC2"
    },
    {
      "bufferView": 8,
      "componentType": 5125,
      "count": 1536,
      "type": "SCALAR"
    },
    {
      "bufferView": 9,
      "componentType": 5126,
      "count": 941,
      "max": [
        0.788737773895264,
        0.878361821174622,
        0.0449687950313091
      ],
      "min": [
        -0.790120303630829,
        -0.868762075901031,
        -0.0474380813539028
      ],
      "type": "VEC3"
    },
    {
      "bufferView": 10,
      "componentType": 5126,
      "count": 941,
      "type": "VEC3"
    },
    {
      "bufferView": 11,
      "componentType": 5126,
      "count": 941,
      "type": "VEC2"
    },
    {
      "bufferView": 12,
      "componentType": 5125,
      "count": 7065,
      "type": "SCALAR"
    },
    {
      "bufferView": 13,
      "componentType": 5126,
      "count": 5383,
      "max": [
        0.89171290397644,
        1.0,
        0.0884584486484528
      ],
      "min": [
        -0.89171290397644,
        -0.997262001037598,
        -0.104369916021824
      ],
      "type": "VEC3"
    },
    {
      "bufferView": 14,
      "componentType": 5126,
      "count": 5383,
      "type": "VEC3"
    },
    {
      "bufferView": 15,
      "componentType": 5126,
      "count": 5383,
      "type": "VEC2"
    },
    {
      "bufferView": 16,
      "componentType": 5125,
      "count": 3087,
      "type": "SCALAR"
    },
    {
      "bufferView": 17,
      "componentType": 5126,
      "count": 2212,
      "max": [
        0.86515736579895,
        0.968944728374481,
        0.0883720442652702
      ],
      "min": [
        -0.858146965503693,
        -0.983836889266968,
        -0.0622799284756184
      ],
      "type": "VEC3"
    },
    {
      "bufferView": 18,
      "componentType": 5126,
      "count": 2212,
      "type": "VEC3"
    },
    {
      "bufferView": 19,
      "componentType": 5126,
      "count": 2212,
      "type": "VEC2"
    },
    {
      "bufferView": 20,
      "componentType": 5125,
      "count": 144,
      "type": "SCALAR"
    },
    {
      "bufferView": 21,
      "componentType": 5126,
      "count": 96,
      "max": [
        0.802425503730774,
        0.895968198776245,
        0.0505562946200371
      ],
      "min": [
        -0.811017572879791,
        -0.886179327964783,
        -0.0520394816994667
      ],
      "type": "VEC3"
    },
    {
      "bufferView": 22,
      "componentType": 5126,
      "count": 96,
      "type": "VEC3"
    },
    {
      "bufferView": 23,
      "componentType": 5126,
      "count": 96,
      "type": "VEC2"
    },
    {
      "bufferView": 24,
      "componentType": 5125,
      "count": 4332,
      "type": "SCALAR"
    },
    {
      "bufferView": 25,
      "componentType": 5126,
      "count": 2521,
      "max": [
        0.889112532138824,
        -0.934234380722046,
        0.0664782971143723
      ],
      "min": [
        -0.889688611030579,
        -0.999997496604919,
        -0.111072450876236
      ],
      "type": "VEC3"
    },
    {
      "bufferView": 26,
      "componentType": 5126,
      "count": 2521,
      "type": "VEC3"
    },
    {
      "bufferView": 27,
      "componentType": 5126,
      "count": 2521,
      "type": "VEC2"
    }
  ],
  "asset": {
    "generator": "Substance Painter 2019.2.1",
    "version": "2.0"
  },
  "bufferViews": [
    {
      "buffer": 0,
      "byteLength": 201072,
      "target": 34963
    },
    {
      "buffer": 0,
      "byteLength": 398772,
      "byteOffset": 201072,
      "target": 34962
    },
    {
      "buffer": 0,
      "byteLength": 398772,
      "byteOffset": 599844,
      "target": 34962
    },
    {
      "buffer": 0,
      "byteLength": 265848,
      "byteOffset": 998616,
      "target": 34962
    },
    {
      "buffer": 0,
      "byteLength": 7848,
      "byteOffset": 1264464,
      "target": 34963
    },
    {
      "buffer": 0,
      "byteLength": 14760,
      "byteOffset": 1272312,
      "target": 34962
    },
    {
      "buffer": 0,
      "byteLength": 14760,
      "byteOffset": 1287072,
      "target": 34962
    },
    {
      "buffer": 0,
      "byteLength": 9840,
      "byteOffset": 1301832,
      "target": 34962
    },
    {
      "buffer": 0,
      "byteLength": 6144,
      "byteOffset": 1311672,
      "target": 34963
    },
    {
      "buffer": 0,
      "byteLength": 11292,
      "byteOffset": 1317816,
      "target": 34962
    },
    {
      "buffer": 0,
      "byteLength": 11292,
      "byteOffset": 1329108,
      "target": 34962
    },
    {
      "buffer": 0,
      "byteLength": 7528,
      "byteOffset": 1340400,
      "target": 34962
    },
    {
      "buffer": 0,
      "byteLength": 28260,
      "byteOffset": 1347928,
      "target": 34963
    },
    {
      "buffer": 0,
      "byteLength": 64596,
      "byteOffset": 1376188,
      "target": 34962
    },
    {
      "buffer": 0,
      "byteLength": 64596,
      "byteOffset": 1440784,
      "target": 34962
    },
    {
      "buffer": 0,
      "byteLength": 43064,
      "byteOffset": 1505380,
      "target": 34962
    },
    {
      "buffer": 0,
      "byteLength": 12348,
      "byteOffset": 1548444,
      "target": 34963
    },
    {
      "buffer": 0,
      "byteLength": 26544,
      "byteOffset": 1560792,
      "target": 34962
    },
    {
      "buffer": 0,
      "byteLength": 26544,
      "byteOffset": 1587336,
      "target": 34962
    },
    {
      "buffer": 0,
      "byteLength": 17696,
      "byteOffset": 1613880,
      "target": 34962
    },
    {
      "buffer": 0,
      "byteLength": 576,
      "byteOffset": 1631576,
      "target": 34963
    },
    {
      "buffer": 0,
      "byteLength": 1152,
      "byteOffset": 1632152,
      "target": 34962
    },
    {
      "buffer": 0,
      "byteLength": 1152,
      "byteOffset": 1633304,
      "target": 34962
    },
    {
      "buffer": 0,
      "byteLength": 768,
      "byteOffset": 1634456,
      "target": 34962
    },
    {
      "buffer": 0,
      "byteLength": 17328,
      "byteOffset": 1635224,
      "target": 34963
    },
    {
      "buffer": 0,
      "byteLength": 30252,
      "byteOffset": 1652552,
      "target": 34962
    },
    {
      "buffer": 0,
      "byteLength": 30252,
      "byteOffset": 1682804,
      "target": 34962
    },
    {
      "buffer": 0,
      "byteLength": 20168,
      "byteOffset": 1713056,
      "target": 34962
    }
  ],
  "buffers": [
    {
      "byteLength": 1733224,
      "uri": "14_D_PS200Gliding_v01.bin"
    }
  ],
  "images": [
    {
      "uri": "14_D_Exterior_baseColor.png"
    },
    {
      "uri": "14_D_Exterior_occlusionRoughnessMetallic.png"
    },
    {
      "uri": "14_D_Exterior_normal.png"
    },
    {
      "uri": "14_D_Exterior_emissive.png"
    },
    {
      "uri": "14_D_Glass_baseColor.png"
    },
    {
      "uri": "14_D_Glass_occlusionRoughnessMetallic.png"
    },
    {
      "uri": "14_D_Glass_normal.png"
    },
    {
      "uri": "14_D_Glass_emissive.png"
    },
    {
      "uri": "14_D_Gray_baseColor.png"
    },
    {
      "uri": "14_D_Gray_occlusionRoughnessMetallic.png"
    },
    {
      "uri": "14_D_Gray_normal.png"
    },
    {
      "uri": "14_D_Hardware_baseColor.png"
    },
    {
      "uri": "14_D_Hardware_occlusionRoughnessMetallic.png"
    },
    {
      "uri": "14_D_Hardware_normal.png"
    },
    {
      "uri": "14_D_Hardware_emissive.png"
    },
    {
      "uri": "14_D_Interior_baseColor.png"
    },
    {
      "uri": "14_D_Interior_occlusionRoughnessMetallic.png"
    },
    {
      "uri": "14_D_Interior_normal.png"
    },
    {
      "uri": "14_D_Interior_emissive.png"
    },
    {
      "uri": "14_D_Sill_baseColor.png"
    },
    {
      "uri": "14_D_Sill_occlusionRoughnessMetallic.png"
    },
    {
      "uri": "14_D_Sill_normal.png"
    },
    {
      "uri": "14_D_Sill_emissive.png"
    },
    {
      "uri": "14_D_Spacers_baseColor.png"
    },
    {
      "uri": "14_D_Spacers_occlusionRoughnessMetallic.png"
    },
    {
      "uri": "14_D_Spacers_normal.png"
    },
    {
      "uri": "14_D_Spacers_emissive.png"
    }
  ],
  "materials": [
    {
      "alphaMode": "OPAQUE",
      "emissiveFactor": [
        1.0,
        1.0,
        1.0
      ],
      "emissiveTexture": {
        "index": 3
      },
      "name": "14_D_Exterior",
      "normalTexture": {
        "index": 2
      },
      "occlusionTexture": {
        "index": 1
      },
      "pbrMetallicRoughness": {
        "baseColorTexture": {
          "index": 0
        },
        "metallicRoughnessTexture": {
          "index": 1
        }
      }
    },
    {
      "alphaMode": "BLEND",
      "emissiveFactor": [
        1.0,
        1.0,
        1.0
      ],
      "emissiveTexture": {
        "index": 7
      },
      "name": "14_D_Glass",
      "normalTexture": {
        "index": 6
      },
      "occlusionTexture": {
        "index": 5
      },
      "pbrMetallicRoughness": {
        "baseColorTexture": {
          "index": 4
        },
        "metallicRoughnessTexture": {
          "index": 5
        }
      }
    },
    {
      "alphaMode": "OPAQUE",
      "name": "14_D_Gray",
      "normalTexture": {
        "index": 10
      },
      "occlusionTexture": {
        "index": 9
      },
      "pbrMetallicRoughness": {
        "baseColorTexture": {
          "index": 8
        },
        "metallicRoughnessTexture": {
          "index": 9
        }
      }
    },
    {
      "alphaMode": "OPAQUE",
      "emissiveFactor": [
        1.0,
        1.0,
        1.0
      ],
      "emissiveTexture": {
        "index": 14
      },
      "name": "14_D_Hardware",
      "normalTexture": {
        "index": 13
      },
      "occlusionTexture": {
        "index": 12
      },
      "pbrMetallicRoughness": {
        "baseColorTexture": {
          "index": 11
        },
        "metallicRoughnessTexture": {
          "index": 12
        }
      }
    },
    {
      "alphaMode": "OPAQUE",
      "emissiveFactor": [
        1.0,
        1.0,
        1.0
      ],
      "emissiveTexture": {
        "index": 18
      },
      "name": "14_D_Interior",
      "normalTexture": {
        "index": 17
      },
      "occlusionTexture": {
        "index": 16
      },
      "pbrMetallicRoughness": {
        "baseColorTexture": {
          "index": 15
        },
        "metallicRoughnessTexture": {
          "index": 16
        }
      }
    },
    {
      "alphaMode": "OPAQUE",
      "emissiveFactor": [
        1.0,
        1.0,
        1.0
      ],
      "emissiveTexture": {
        "index": 22
      },
      "name": "14_D_Sill",
      "normalTexture": {
        "index": 21
      },
      "occlusionTexture": {
        "index": 20
      },
      "pbrMetallicRoughness": {
        "baseColorTexture": {
          "index": 19
        },
        "metallicRoughnessTexture": {
          "index": 20
        }
      }
    },
    {
      "alphaMode": "OPAQUE",
      "emissiveFactor": [
        1.0,
        1.0,
        1.0
      ],
      "emissiveTexture": {
        "index": 26
      },
      "name": "14_D_Spacers",
      "normalTexture": {
        "index": 25
      },
      "occlusionTexture": {
        "index": 24
      },
      "pbrMetallicRoughness": {
        "baseColorTexture": {
          "index": 23
        },
        "metallicRoughnessTexture": {
          "index": 24
        }
      }
    }
  ],
  "meshes": [
    {
      "name": "14_D_Harware",
      "primitives": [
        {
          "attributes": {
            "NORMAL": 2,
            "POSITION": 1,
            "TEXCOORD_0": 3
          },
          "indices": 0,
          "material": 3,
          "mode": 4
        }
      ]
    },
    {
      "name": "14_D_Gray",
      "primitives": [
        {
          "attributes": {
            "NORMAL": 6,
            "POSITION": 5,
            "TEXCOORD_0": 7
          },
          "indices": 4,
          "material": 2,
          "mode": 4
        }
      ]
    },
    {
      "name": "14_D_Spacers",
      "primitives": [
        {
          "attributes": {
            "NORMAL": 10,
            "POSITION": 9,
            "TEXCOORD_0": 11
          },
          "indices": 8,
          "material": 6,
          "mode": 4
        }
      ]
    },
    {
      "name": "14_D_Exterior",
      "primitives": [
        {
          "attributes": {
            "NORMAL": 14,
            "POSITION": 13,
            "TEXCOORD_0": 15
          },
          "indices": 12,
          "material": 0,
          "mode": 4
        }
      ]
    },
    {
      "name": "14_D_Interior",
      "primitives": [
        {
          "attributes": {
            "NORMAL": 18,
            "POSITION": 17,
            "TEXCOORD_0": 19
          },
          "indices": 16,
          "material": 4,
          "mode": 4
        }
      ]
    },
    {
      "name": "14_D_Glass",
      "primitives": [
        {
          "attributes": {
            "NORMAL": 22,
            "POSITION": 21,
            "TEXCOORD_0": 23
          },
          "indices": 20,
          "material": 1,
          "mode": 4
        }
      ]
    },
    {
      "name": "14_D_Sill",
      "primitives": [
        {
          "attributes": {
            "NORMAL": 26,
            "POSITION": 25,
            "TEXCOORD_0": 27
          },
          "indices": 24,
          "material": 5,
          "mode": 4
        }
      ]
    }
  ],
  "nodes": [
    {
      "children": [
        1,
        3,
        5,
        7,
        9,
        11,
        13
      ],
      "name": "root",
      "scale": [
        1.03479027748108,
        1.03479027748108,
        1.03479027748108
      ],
      "translation": [
        0.0202898383140564,
        1.03447389602661,
        -0.00286713242530823
      ]
    },
    {
      "children": [
        2
      ],
      "name": "14_D_Harware"
    },
    {
      "mesh": 0,
      "name": "14_D_Harware"
    },
    {
      "children": [
        4
      ],
      "name": "14_D_Gray"
    },
    {
      "mesh": 1,
      "name": "14_D_Gray"
    },
    {
      "children": [
        6
      ],
      "name": "14_D_Spacers"
    },
    {
      "mesh": 2,
      "name": "14_D_Spacers"
    },
    {
      "children": [
        8
      ],
      "name": "14_D_Exterior"
    },
    {
      "mesh": 3,
      "name": "14_D_Exterior"
    },
    {
      "children": [
        10
      ],
      "name": "14_D_Interior"
    },
    {
      "mesh": 4,
      "name": "14_D_Interior"
    },
    {
      "children": [
        12
      ],
      "name": "14_D_Glass"
    },
    {
      "mesh": 5,
      "name": "14_D_Glass"
    },
    {
      "children": [
        14
      ],
      "name": "14_D_Sill"
    },
    {
      "mesh": 6,
      "name": "14_D_Sill"
    }
  ],
  "samplers": [
    {
      "magFilter": 9729,
      "minFilter": 9985,
      "wrapS": 10497,
      "wrapT": 10497
    }
  ],
  "scene": 0,
  "scenes": [
    {
      "name": "Scene",
      "nodes": [
        0
      ]
    }
  ],
  "textures": [
    {
      "sampler": 0,
      "source": 0
    },
    {
      "sampler": 0,
      "source": 1
    },
    {
      "sampler": 0,
      "source": 2
    },
    {
      "sampler": 0,
      "source": 3
    },
    {
      "sampler": 0,
      "source": 4
    },
    {
      "sampler": 0,
      "source": 5
    },
    {
      "sampler": 0,
      "source": 6
    },
    {
      "sampler": 0,
      "source": 7
    },
    {
      "sampler": 0,
      "source": 8
    },
    {
      "sampler": 0,
      "source": 9
    },
    {
      "sampler": 0,
      "source": 10
    },
    {
      "sampler": 0,
      "source": 11
    },
    {
      "sampler": 0,
      "source": 12
    },
    {
      "sampler": 0,
      "source": 13
    },
    {
      "sampler": 0,
      "source": 14
    },
    {
      "sampler": 0,
      "source": 15
    },
    {
      "sampler": 0,
      "source": 16
    },
    {
      "sampler": 0,
      "source": 17
    },
    {
      "sampler": 0,
      "source": 18
    },
    {
      "sampler": 0,
      "source": 19
    },
    {
      "sampler": 0,
      "source": 20
    },
    {
      "sampler": 0,
      "source": 21
    },
    {
      "sampler": 0,
      "source": 22
    },
    {
      "sampler": 0,
      "source": 23
    },
    {
      "sampler": 0,
      "source": 24
    },
    {
      "sampler": 0,
      "source": 25
    },
    {
      "sampler": 0,
      "source": 26
    }
  ]
}