<?xml version="1.0" encoding="utf-8"?>
<!-- Generator: Adobe Illustrator 24.1.2, SVG Export Plug-In . SVG Version: 6.00 Build 0)  -->
<svg version="1.1" id="Layer_1" xmlns="http://www.w3.org/2000/svg" xmlns:xlink="http://www.w3.org/1999/xlink" x="0px" y="0px"
	 viewBox="0 0 412 105" style="enable-background:new 0 0 412 105;" xml:space="preserve">
<style type="text/css">
	.st0{fill:#828F69;}
	.st1{clip-path:url(#SVGID_2_);}
	.st2{fill:#FFFFFF;}
	.st3{opacity:0.2;}
	.st4{clip-path:url(#SVGID_4_);}
	.st5{clip-path:url(#SVGID_6_);}
	.st6{clip-path:url(#SVGID_8_);}
	.st7{clip-path:url(#SVGID_10_);}
	.st8{clip-path:url(#SVGID_12_);}
	.st9{clip-path:url(#SVGID_14_);}
	.st10{clip-path:url(#SVGID_16_);}
	.st11{clip-path:url(#SVGID_18_);}
	.st12{clip-path:url(#SVGID_20_);}
</style>
<path class="st0" d="M14.3,0h383.5c7.9,0,14.3,6.4,14.3,14.3v76.5c0,7.9-6.4,14.3-14.3,14.3H14.3C6.4,105,0,98.6,0,90.8V14.3
	C0,6.4,6.4,0,14.3,0z"/>
<g>
	<g>
		<defs>
			<rect id="SVGID_1_" x="22.4" y="17.8" width="60.3" height="69.2"/>
		</defs>
		<clipPath id="SVGID_2_">
			<use xlink:href="#SVGID_1_"  style="overflow:visible;"/>
		</clipPath>
		<g class="st1">
			<path class="st2" d="M60.8,25.5c-0.3,0-0.5-0.1-0.7-0.2l-7.6-4.4l-7.7,4.4c-0.7,0.4-1.6,0.2-2-0.5s-0.2-1.6,0.5-2l8.4-4.8
				c0.4-0.3,1-0.3,1.4,0l8.4,4.8c0.7,0.4,0.9,1.3,0.5,2C61.9,25.2,61.4,25.5,60.8,25.5"/>
			<path class="st2" d="M52.5,63.5c-0.8,0-1.4-0.6-1.4-1.4c0,0,0,0,0-0.1v-9.6c0-0.8,0.6-1.4,1.4-1.4c0.8,0,1.4,0.6,1.4,1.4V62
				C53.9,62.8,53.3,63.4,52.5,63.5"/>
			<path class="st2" d="M23.8,46.9c-0.8,0-1.4-0.6-1.4-1.4v-9.7c0-0.8,0.6-1.4,1.4-1.4s1.4,0.6,1.4,1.4l0,0v9.7
				C25.2,46.2,24.6,46.9,23.8,46.9"/>
			<path class="st2" d="M81.2,46.9c-0.8,0-1.4-0.6-1.4-1.4l0,0v-9.7c0-0.8,0.6-1.4,1.4-1.4s1.4,0.6,1.4,1.4l0,0v9.7
				C82.6,46.2,82,46.9,81.2,46.9L81.2,46.9"/>
			<path class="st2" d="M81.2,70.4c-0.8,0-1.4-0.6-1.4-1.4v-9.7c0-0.8,0.6-1.4,1.4-1.4l0,0l0,0c0.8,0,1.4,0.6,1.4,1.4l0,0V69
				C82.6,69.8,82,70.4,81.2,70.4L81.2,70.4L81.2,70.4z"/>
			<path class="st2" d="M23.8,70.4c-0.8,0-1.4-0.6-1.4-1.4v-9.7c0-0.8,0.6-1.4,1.4-1.4s1.4,0.6,1.4,1.4V69
				C25.2,69.8,24.6,70.4,23.8,70.4L23.8,70.4"/>
			<path class="st2" d="M52.5,31.2c-0.8,0-1.4-0.6-1.4-1.4V19.2c0-0.8,0.6-1.4,1.4-1.4c0.8,0,1.4,0.6,1.4,1.4v10.5
				C53.9,30.6,53.3,31.2,52.5,31.2L52.5,31.2"/>
			<path class="st2" d="M52.5,87c-0.8,0-1.4-0.6-1.4-1.4l0,0V76c0-0.8,0.6-1.4,1.4-1.4c0.8,0,1.4,0.6,1.4,1.4v9.7
				C53.9,86.4,53.3,87,52.5,87"/>
			<path class="st2" d="M52.5,87c-0.3,0-0.5-0.1-0.7-0.2L43.4,82c-0.7-0.4-0.9-1.3-0.5-2s1.3-0.9,2-0.5l7.7,4.4l7.6-4.4
				c0.7-0.3,1.6,0.1,1.8,0.9c0.2,0.6,0,1.2-0.4,1.6l-8.3,4.8C53,86.9,52.8,87,52.5,87"/>
			<path class="st2" d="M52.5,53.8c-0.3,0-0.5-0.1-0.7-0.2l-8.4-4.8c-0.7-0.4-0.9-1.3-0.5-2s1.3-0.9,2-0.5l7.7,4.4l7.6-4.4
				c0.7-0.4,1.6-0.1,1.9,0.6c0.3,0.7,0.1,1.5-0.5,1.9l-8.4,4.8C53,53.7,52.8,53.8,52.5,53.8"/>
			<path class="st2" d="M72.8,42.1c-0.8,0-1.4-0.6-1.4-1.4c0-0.5,0.3-1,0.7-1.3l8.4-4.8c0.7-0.3,1.6,0.1,1.9,0.8
				c0.2,0.6,0.1,1.2-0.4,1.6l-8.4,4.8C73.3,42,73.1,42,72.8,42.1"/>
			<path class="st2" d="M81.2,37.2c-0.3,0-0.5-0.1-0.7-0.2l-8.4-4.8c-0.7-0.4-0.9-1.3-0.5-2s1.3-0.9,2-0.5l8.4,4.8
				c0.7,0.4,0.9,1.3,0.5,2C82.2,37,81.7,37.2,81.2,37.2"/>
			<path class="st2" d="M32.2,42.1c-0.3,0-0.5-0.1-0.7-0.2L23.1,37c-0.7-0.4-0.9-1.3-0.5-2s1.3-0.9,2-0.5l8.4,4.8
				c0.7,0.4,0.9,1.3,0.5,2C33.2,41.7,32.7,42,32.2,42.1"/>
			<path class="st2" d="M23.8,37.2c-0.8,0-1.4-0.6-1.4-1.4c0-0.5,0.3-1,0.7-1.3l8.4-4.8c0.7-0.4,1.6-0.2,2,0.5s0.2,1.6-0.5,2
				L24.5,37C24.3,37.1,24.1,37.2,23.8,37.2"/>
			<path class="st2" d="M72.8,75.2c-0.8,0-1.4-0.6-1.4-1.4c0-0.5,0.3-1,0.7-1.3l8.4-4.8c0.7-0.4,1.6-0.2,2,0.5s0.2,1.6-0.5,2l0,0
				L73.5,75C73.3,75.2,73.1,75.2,72.8,75.2"/>
			<path class="st2" d="M81.2,70.4c-0.3,0-0.5-0.1-0.7-0.2l-8.4-4.8c-0.7-0.4-0.9-1.3-0.5-2c0.4-0.7,1.3-0.9,2-0.5l8.4,4.8
				c0.7,0.4,0.9,1.3,0.5,2C82.2,70.1,81.7,70.4,81.2,70.4"/>
			<path class="st2" d="M32.2,75.3c-0.3,0-0.5-0.1-0.7-0.2l-8.4-4.8c-0.7-0.4-0.9-1.3-0.5-2s1.3-0.9,2-0.5l8.4,4.8
				c0.7,0.4,0.9,1.3,0.5,2C33.2,75,32.7,75.3,32.2,75.3"/>
			<path class="st2" d="M23.8,70.4c-0.8,0-1.4-0.6-1.4-1.4c0-0.5,0.3-1,0.7-1.3l8.4-4.8c0.7-0.4,1.6-0.2,2,0.5s0.2,1.6-0.5,2l0,0
				l-8.4,4.8C24.3,70.3,24.1,70.4,23.8,70.4"/>
			<g class="st3">
				<g>
					<g>
						<defs>
							<rect id="SVGID_3_" x="23" y="18.4" width="30.4" height="18.2"/>
						</defs>
						<clipPath id="SVGID_4_">
							<use xlink:href="#SVGID_3_"  style="overflow:visible;"/>
						</clipPath>
						<g class="st4">
							<path class="st2" d="M23.8,36.6c-0.5,0-0.8-0.4-0.8-0.8c0-0.3,0.2-0.6,0.4-0.7l28.7-16.6c0.4-0.2,0.9-0.1,1.1,0.3
								c0.2,0.4,0.1,0.9-0.3,1.1L24.2,36.5C24.1,36.6,23.9,36.6,23.8,36.6"/>
						</g>
					</g>
				</g>
			</g>
			<g class="st3">
				<g>
					<g>
						<defs>
							<rect id="SVGID_5_" x="23" y="35" width="59" height="34.8"/>
						</defs>
						<clipPath id="SVGID_6_">
							<use xlink:href="#SVGID_5_"  style="overflow:visible;"/>
						</clipPath>
						<g class="st5">
							<path class="st2" d="M23.8,69.8c-0.5,0-0.8-0.4-0.8-0.8c0-0.3,0.2-0.6,0.4-0.7l57.4-33.2c0.4-0.2,0.9-0.1,1.1,0.3
								c0.2,0.4,0.1,0.9-0.3,1.1L24.2,69.7C24.1,69.8,23.9,69.8,23.8,69.8"/>
						</g>
					</g>
				</g>
			</g>
			<g class="st3">
				<g>
					<g>
						<defs>
							<rect id="SVGID_7_" x="51.7" y="18.4" width="30.3" height="18.2"/>
						</defs>
						<clipPath id="SVGID_8_">
							<use xlink:href="#SVGID_7_"  style="overflow:visible;"/>
						</clipPath>
						<g class="st6">
							<path class="st2" d="M81.2,36.6c-0.1,0-0.3,0-0.4-0.1L52.1,19.9c-0.4-0.2-0.5-0.7-0.3-1.1s0.7-0.5,1.1-0.3l28.7,16.6
								c0.4,0.2,0.5,0.7,0.3,1.1C81.7,36.5,81.5,36.6,81.2,36.6"/>
						</g>
					</g>
				</g>
			</g>
			<g class="st3">
				<g>
					<g>
						<defs>
							<rect id="SVGID_9_" x="23" y="35" width="59" height="34.8"/>
						</defs>
						<clipPath id="SVGID_10_">
							<use xlink:href="#SVGID_9_"  style="overflow:visible;"/>
						</clipPath>
						<g class="st7">
							<path class="st2" d="M81.2,69.8c-0.1,0-0.3,0-0.4-0.1L23.4,36.5c-0.4-0.2-0.5-0.7-0.3-1.1c0.2-0.4,0.7-0.5,1.1-0.3l57.4,33.2
								c0.4,0.2,0.5,0.7,0.3,1.1C81.7,69.6,81.5,69.8,81.2,69.8"/>
						</g>
					</g>
				</g>
			</g>
			<g class="st3">
				<g>
					<g>
						<defs>
							<rect id="SVGID_11_" x="23" y="68.2" width="30.4" height="18.3"/>
						</defs>
						<clipPath id="SVGID_12_">
							<use xlink:href="#SVGID_11_"  style="overflow:visible;"/>
						</clipPath>
						<g class="st8">
							<path class="st2" d="M52.5,86.4c-0.1,0-0.3,0-0.4-0.1L23.4,69.7c-0.4-0.2-0.5-0.7-0.3-1.1s0.7-0.5,1.1-0.3l28.7,16.6
								c0.4,0.2,0.5,0.7,0.3,1.1C53.1,86.2,52.8,86.4,52.5,86.4"/>
						</g>
					</g>
				</g>
			</g>
			<g class="st3">
				<g>
					<g>
						<defs>
							<rect id="SVGID_13_" x="51.7" y="68.1" width="30.3" height="18.3"/>
						</defs>
						<clipPath id="SVGID_14_">
							<use xlink:href="#SVGID_13_"  style="overflow:visible;"/>
						</clipPath>
						<g class="st9">
							<path class="st2" d="M52.5,86.4c-0.5,0-0.8-0.4-0.8-0.8c0-0.3,0.2-0.6,0.4-0.7l28.7-16.6c0.4-0.2,0.9-0.1,1.1,0.3
								s0.1,0.9-0.3,1.1L52.9,86.3C52.8,86.4,52.7,86.4,52.5,86.4"/>
						</g>
					</g>
				</g>
			</g>
			<g class="st3">
				<g>
					<g>
						<defs>
							<rect id="SVGID_15_" x="23" y="35" width="1.6" height="34.8"/>
						</defs>
						<clipPath id="SVGID_16_">
							<use xlink:href="#SVGID_15_"  style="overflow:visible;"/>
						</clipPath>
						<g class="st10">
							<path class="st2" d="M23.8,69.8c-0.4,0-0.8-0.4-0.8-0.8V35.8c0-0.5,0.4-0.8,0.8-0.8s0.8,0.4,0.8,0.8l0,0V69
								C24.6,69.5,24.3,69.8,23.8,69.8"/>
						</g>
					</g>
				</g>
			</g>
			<g class="st3">
				<g>
					<g>
						<defs>
							<rect id="SVGID_17_" x="80.3" y="35" width="1.7" height="34.8"/>
						</defs>
						<clipPath id="SVGID_18_">
							<use xlink:href="#SVGID_17_"  style="overflow:visible;"/>
						</clipPath>
						<g class="st11">
							<path class="st2" d="M81.2,69.8c-0.5,0-0.8-0.4-0.8-0.8V35.8c0-0.5,0.4-0.8,0.8-0.8s0.8,0.4,0.8,0.8l0,0V69
								C82,69.5,81.6,69.8,81.2,69.8"/>
						</g>
					</g>
				</g>
			</g>
			<g class="st3">
				<g>
					<g>
						<defs>
							<rect id="SVGID_19_" x="51.7" y="18.4" width="1.6" height="67.9"/>
						</defs>
						<clipPath id="SVGID_20_">
							<use xlink:href="#SVGID_19_"  style="overflow:visible;"/>
						</clipPath>
						<g class="st12">
							<path class="st2" d="M52.5,86.3c-0.5,0-0.8-0.4-0.8-0.8V19.2c0-0.5,0.4-0.8,0.8-0.8c0.5,0,0.8,0.4,0.8,0.8v66.3
								C53.3,85.9,53,86.3,52.5,86.3"/>
						</g>
					</g>
				</g>
			</g>
		</g>
	</g>
</g>
<path class="st2" d="M115.3,73.8l-14.8-40.3h5.3l11.8,33.8h0.5l11.8-33.8h5.3l-14.9,40.3H115.3z"/>
<path class="st2" d="M141.8,34.3c0-1.9,1.5-3.4,3.4-3.4s3.3,1.5,3.3,3.3c0,1.9-1.5,3.3-3.3,3.4C143.3,37.6,141.8,36.1,141.8,34.3z
	 M142.8,43.8h4.8v30.1h-4.8V43.8z"/>
<path class="st2" d="M182.6,66c-1.4,5.2-6.1,8.3-12.7,8.3c-8.3,0-13.6-6-13.6-15.5s5.3-15.6,13.6-15.6S183,49,183,58.3v1.8h-21.6
	v0.2c0.3,5.9,3.6,9.7,8.7,9.7c3.9,0,6.5-1.4,7.8-4.1L182.6,66z M161.4,56.3H178c-0.1-5.3-3.3-8.9-8.1-8.9S161.7,51,161.4,56.3z"/>
<path class="st2" d="M219.9,73.8H215l-6.7-23.3h-0.4l-6.7,23.3h-4.9l-8.4-30.1h4.9l5.9,24.1h0.4l6.7-24.1h4.6l6.7,24.1h0.4l5.9-24.1
	h4.8L219.9,73.8z"/>
<path class="st2" d="M251.2,34.3c0-1.9,1.5-3.4,3.4-3.4c1.9,0,3.4,1.5,3.4,3.3c0,1.9-1.5,3.3-3.4,3.4
	C252.7,37.6,251.2,36.1,251.2,34.3z M252.2,43.8h4.8v30.1h-4.8V43.8z"/>
<path class="st2" d="M266.1,43.8h4.6v4.7h0.5c1.5-3.3,4.4-5.3,9-5.3c6.8,0,10.5,4,10.5,11.1v19.5h-4.8V55.5c0-5.4-2.3-8-7.1-8
	s-7.9,3.2-7.9,8.5v17.8h-4.8L266.1,43.8z"/>
<path class="st2" d="M339.5,62.3h-16l-4,11.5h-5.3L329,33.6h5l14.8,40.3h-5.3L339.5,62.3z M324.9,58H338l-6.3-18h-0.5L324.9,58z"/>
<path class="st2" d="M360.9,73.8h-5V33.6h15.4c7.8,0,12.8,4.7,12.8,12c0,5.6-3,10-8.1,11.5l9.3,16.7h-5.9l-8.6-15.9h-9.9L360.9,73.8
	z M360.9,53.4h9.9c5.2,0,8.1-2.8,8.1-7.7s-3.1-7.7-8.3-7.7h-9.7V53.4z"/>
</svg>
