{
  "accessors": [
    {
      "bufferView": 0,
      "componentType": 5125,
      "count": 24,
      "type": "SCALAR"
    },
    {
      "bufferView": 1,
      "componentType": 5126,
      "count": 16,
      "max": [
        0.485710114240646,
        0.830795407295227,
        0.0772774815559387
      ],
      "min": [
        -0.484302282333374,
        -0.822993993759155,
        -0.0568413063883781
      ],
      "type": "VEC3"
    },
    {
      "bufferView": 2,
      "componentType": 5126,
      "count": 16,
      "type": "VEC3"
    },
    {
      "bufferView": 3,
      "componentType": 5126,
      "count": 16,
      "type": "VEC2"
    },
    {
      "bufferView": 4,
      "componentType": 5125,
      "count": 6927,
      "type": "SCALAR"
    },
    {
      "bufferView": 5,
      "componentType": 5126,
      "count": 3343,
      "max": [
        0.623178660869598,
        0.984142541885376,
        0.111720934510231
      ],
      "min": [
        -0.622717499732971,
        -1.00010895729065,
        -0.0569902770221233
      ],
      "type": "VEC3"
    },
    {
      "bufferView": 6,
      "componentType": 5126,
      "count": 3343,
      "type": "VEC3"
    },
    {
      "bufferView": 7,
      "componentType": 5126,
      "count": 3343,
      "type": "VEC2"
    },
    {
      "bufferView": 8,
      "componentType": 5125,
      "count": 1218,
      "type": "SCALAR"
    },
    {
      "bufferView": 9,
      "componentType": 5126,
      "count": 463,
      "max": [
        0.623178720474243,
        -0.883864879608154,
        0.111718334257603
      ],
      "min": [
        -0.619828402996063,
        -1.00010764598846,
        -0.109027735888958
      ],
      "type": "VEC3"
    },
    {
      "bufferView": 10,
      "componentType": 5126,
      "count": 463,
      "type": "VEC3"
    },
    {
      "bufferView": 11,
      "componentType": 5126,
      "count": 463,
      "type": "VEC2"
    },
    {
      "bufferView": 12,
      "componentType": 5125,
      "count": 7914,
      "type": "SCALAR"
    },
    {
      "bufferView": 13,
      "componentType": 5126,
      "count": 3776,
      "max": [
        0.623179495334625,
        0.984303593635559,
        0.106108613312244
      ],
      "min": [
        -0.622986257076263,
        -1.0000696182251,
        -0.109028004109859
      ],
      "type": "VEC3"
    },
    {
      "bufferView": 14,
      "componentType": 5126,
      "count": 3776,
      "type": "VEC3"
    },
    {
      "bufferView": 15,
      "componentType": 5126,
      "count": 3776,
      "type": "VEC2"
    },
    {
      "bufferView": 16,
      "componentType": 5125,
      "count": 5643,
      "type": "SCALAR"
    },
    {
      "bufferView": 17,
      "componentType": 5126,
      "count": 1927,
      "max": [
        0.101700909435749,
        0.0517500638961792,
        0.132952749729156
      ],
      "min": [
        -0.0489555858075619,
        -0.87303763628006,
        -0.0100330710411072
      ],
      "type": "VEC3"
    },
    {
      "bufferView": 18,
      "componentType": 5126,
      "count": 1927,
      "type": "VEC3"
    },
    {
      "bufferView": 19,
      "componentType": 5126,
      "count": 1927,
      "type": "VEC2"
    },
    {
      "bufferView": 20,
      "componentType": 5125,
      "count": 17802,
      "type": "SCALAR"
    },
    {
      "bufferView": 21,
      "componentType": 5126,
      "count": 9834,
      "max": [
        0.623040199279785,
        0.968032002449036,
        0.0854563042521477
      ],
      "min": [
        -0.619690656661987,
        -0.999994695186615,
        -0.0901545807719231
      ],
      "type": "VEC3"
    },
    {
      "bufferView": 22,
      "componentType": 5126,
      "count": 9834,
      "type": "VEC3"
    },
    {
      "bufferView": 23,
      "componentType": 5126,
      "count": 9834,
      "type": "VEC2"
    },
    {
      "bufferView": 24,
      "componentType": 5125,
      "count": 720,
      "type": "SCALAR"
    },
    {
      "bufferView": 25,
      "componentType": 5126,
      "count": 416,
      "max": [
        0.507366895675659,
        0.862713813781738,
        0.0677201151847839
      ],
      "min": [
        -0.500525116920471,
        -0.843938946723938,
        -0.0488863363862038
      ],
      "type": "VEC3"
    },
    {
      "bufferView": 26,
      "componentType": 5126,
      "count": 416,
      "type": "VEC3"
    },
    {
      "bufferView": 27,
      "componentType": 5126,
      "count": 416,
      "type": "VEC2"
    }
  ],
  "asset": {
    "generator": "Substance Painter 2019.2.1",
    "version": "2.0"
  },
  "bufferViews": [
    {
      "buffer": 0,
      "byteLength": 96,
      "target": 34963
    },
    {
      "buffer": 0,
      "byteLength": 192,
      "byteOffset": 96,
      "target": 34962
    },
    {
      "buffer": 0,
      "byteLength": 192,
      "byteOffset": 288,
      "target": 34962
    },
    {
      "buffer": 0,
      "byteLength": 128,
      "byteOffset": 480,
      "target": 34962
    },
    {
      "buffer": 0,
      "byteLength": 27708,
      "byteOffset": 608,
      "target": 34963
    },
    {
      "buffer": 0,
      "byteLength": 40116,
      "byteOffset": 28316,
      "target": 34962
    },
    {
      "buffer": 0,
      "byteLength": 40116,
      "byteOffset": 68432,
      "target": 34962
    },
    {
      "buffer": 0,
      "byteLength": 26744,
      "byteOffset": 108548,
      "target": 34962
    },
    {
      "buffer": 0,
      "byteLength": 4872,
      "byteOffset": 135292,
      "target": 34963
    },
    {
      "buffer": 0,
      "byteLength": 5556,
      "byteOffset": 140164,
      "target": 34962
    },
    {
      "buffer": 0,
      "byteLength": 5556,
      "byteOffset": 145720,
      "target": 34962
    },
    {
      "buffer": 0,
      "byteLength": 3704,
      "byteOffset": 151276,
      "target": 34962
    },
    {
      "buffer": 0,
      "byteLength": 31656,
      "byteOffset": 154980,
      "target": 34963
    },
    {
      "buffer": 0,
      "byteLength": 45312,
      "byteOffset": 186636,
      "target": 34962
    },
    {
      "buffer": 0,
      "byteLength": 45312,
      "byteOffset": 231948,
      "target": 34962
    },
    {
      "buffer": 0,
      "byteLength": 30208,
      "byteOffset": 277260,
      "target": 34962
    },
    {
      "buffer": 0,
      "byteLength": 22572,
      "byteOffset": 307468,
      "target": 34963
    },
    {
      "buffer": 0,
      "byteLength": 23124,
      "byteOffset": 330040,
      "target": 34962
    },
    {
      "buffer": 0,
      "byteLength": 23124,
      "byteOffset": 353164,
      "target": 34962
    },
    {
      "buffer": 0,
      "byteLength": 15416,
      "byteOffset": 376288,
      "target": 34962
    },
    {
      "buffer": 0,
      "byteLength": 71208,
      "byteOffset": 391704,
      "target": 34963
    },
    {
      "buffer": 0,
      "byteLength": 118008,
      "byteOffset": 462912,
      "target": 34962
    },
    {
      "buffer": 0,
      "byteLength": 118008,
      "byteOffset": 580920,
      "target": 34962
    },
    {
      "buffer": 0,
      "byteLength": 78672,
      "byteOffset": 698928,
      "target": 34962
    },
    {
      "buffer": 0,
      "byteLength": 2880,
      "byteOffset": 777600,
      "target": 34963
    },
    {
      "buffer": 0,
      "byteLength": 4992,
      "byteOffset": 780480,
      "target": 34962
    },
    {
      "buffer": 0,
      "byteLength": 4992,
      "byteOffset": 785472,
      "target": 34962
    },
    {
      "buffer": 0,
      "byteLength": 3328,
      "byteOffset": 790464,
      "target": 34962
    }
  ],
  "buffers": [
    {
      "byteLength": 793792,
      "uri": "17_W_DoubleHungDG.bin"
    }
  ],
  "images": [
    {
      "uri": "17_W_Exterior_baseColor.png"
    },
    {
      "uri": "17_W_Exterior_occlusionRoughnessMetallic.png"
    },
    {
      "uri": "17_W_Exterior_normal.png"
    },
    {
      "uri": "17_W_Exterior_emissive.png"
    },
    {
      "uri": "17_W_Fibrex_baseColor.png"
    },
    {
      "uri": "17_W_Fibrex_occlusionRoughnessMetallic.png"
    },
    {
      "uri": "17_W_Fibrex_normal.png"
    },
    {
      "uri": "17_W_Fibrex_emissive.png"
    },
    {
      "uri": "17_W_Glass_baseColor.png"
    },
    {
      "uri": "17_W_Glass_occlusionRoughnessMetallic.png"
    },
    {
      "uri": "17_W_Glass_normal.png"
    },
    {
      "uri": "17_W_Glass_emissive.png"
    },
    {
      "uri": "17_W_Gray_baseColor.png"
    },
    {
      "uri": "17_W_Gray_occlusionRoughnessMetallic.png"
    },
    {
      "uri": "17_W_Gray_normal.png"
    },
    {
      "uri": "17_W_Gray_emissive.png"
    },
    {
      "uri": "17_W_Hardware_baseColor.png"
    },
    {
      "uri": "17_W_Hardware_occlusionRoughnessMetallic.png"
    },
    {
      "uri": "17_W_Hardware_normal.png"
    },
    {
      "uri": "17_W_Hardware_emissive.png"
    },
    {
      "uri": "17_W_Interior_baseColor.png"
    },
    {
      "uri": "17_W_Interior_occlusionRoughnessMetallic.png"
    },
    {
      "uri": "17_W_Interior_normal.png"
    },
    {
      "uri": "17_W_Interior_emissive.png"
    },
    {
      "uri": "17_W_Spacers_baseColor.png"
    },
    {
      "uri": "17_W_Spacers_occlusionRoughnessMetallic.png"
    },
    {
      "uri": "17_W_Spacers_normal.png"
    },
    {
      "uri": "17_W_Spacers_emissive.png"
    }
  ],
  "materials": [
    {
      "alphaMode": "OPAQUE",
      "emissiveFactor": [
        1.0,
        1.0,
        1.0
      ],
      "emissiveTexture": {
        "index": 3
      },
      "name": "17_W_Exterior",
      "normalTexture": {
        "index": 2
      },
      "occlusionTexture": {
        "index": 1
      },
      "pbrMetallicRoughness": {
        "baseColorTexture": {
          "index": 0
        },
        "metallicRoughnessTexture": {
          "index": 1
        }
      }
    },
    {
      "alphaMode": "OPAQUE",
      "emissiveFactor": [
        1.0,
        1.0,
        1.0
      ],
      "emissiveTexture": {
        "index": 7
      },
      "name": "17_W_Fibrex",
      "normalTexture": {
        "index": 6
      },
      "occlusionTexture": {
        "index": 5
      },
      "pbrMetallicRoughness": {
        "baseColorTexture": {
          "index": 4
        },
        "metallicRoughnessTexture": {
          "index": 5
        }
      }
    },
    {
      "alphaMode": "BLEND",
      "emissiveFactor": [
        1.0,
        1.0,
        1.0
      ],
      "emissiveTexture": {
        "index": 11
      },
      "name": "17_W_Glass",
      "normalTexture": {
        "index": 10
      },
      "occlusionTexture": {
        "index": 9
      },
      "pbrMetallicRoughness": {
        "baseColorTexture": {
          "index": 8
        },
        "metallicRoughnessTexture": {
          "index": 9
        }
      }
    },
    {
      "alphaMode": "OPAQUE",
      "emissiveFactor": [
        1.0,
        1.0,
        1.0
      ],
      "emissiveTexture": {
        "index": 15
      },
      "name": "17_W_Gray",
      "normalTexture": {
        "index": 14
      },
      "occlusionTexture": {
        "index": 13
      },
      "pbrMetallicRoughness": {
        "baseColorTexture": {
          "index": 12
        },
        "metallicRoughnessTexture": {
          "index": 13
        }
      }
    },
    {
      "alphaMode": "OPAQUE",
      "emissiveFactor": [
        1.0,
        1.0,
        1.0
      ],
      "emissiveTexture": {
        "index": 19
      },
      "name": "17_W_Hardware",
      "normalTexture": {
        "index": 18
      },
      "occlusionTexture": {
        "index": 17
      },
      "pbrMetallicRoughness": {
        "baseColorTexture": {
          "index": 16
        },
        "metallicRoughnessTexture": {
          "index": 17
        }
      }
    },
    {
      "alphaMode": "OPAQUE",
      "emissiveFactor": [
        1.0,
        1.0,
        1.0
      ],
      "emissiveTexture": {
        "index": 23
      },
      "name": "17_W_Interior",
      "normalTexture": {
        "index": 22
      },
      "occlusionTexture": {
        "index": 21
      },
      "pbrMetallicRoughness": {
        "baseColorTexture": {
          "index": 20
        },
        "metallicRoughnessTexture": {
          "index": 21
        }
      }
    },
    {
      "alphaMode": "OPAQUE",
      "emissiveFactor": [
        1.0,
        1.0,
        1.0
      ],
      "emissiveTexture": {
        "index": 27
      },
      "name": "17_W_Spacers",
      "normalTexture": {
        "index": 26
      },
      "occlusionTexture": {
        "index": 25
      },
      "pbrMetallicRoughness": {
        "baseColorTexture": {
          "index": 24
        },
        "metallicRoughnessTexture": {
          "index": 25
        }
      }
    }
  ],
  "meshes": [
    {
      "name": "17_W_Glass",
      "primitives": [
        {
          "attributes": {
            "NORMAL": 2,
            "POSITION": 1,
            "TEXCOORD_0": 3
          },
          "indices": 0,
          "material": 2,
          "mode": 4
        }
      ]
    },
    {
      "name": "17_W_Interior",
      "primitives": [
        {
          "attributes": {
            "NORMAL": 6,
            "POSITION": 5,
            "TEXCOORD_0": 7
          },
          "indices": 4,
          "material": 5,
          "mode": 4
        }
      ]
    },
    {
      "name": "17_W_Fibrex",
      "primitives": [
        {
          "attributes": {
            "NORMAL": 10,
            "POSITION": 9,
            "TEXCOORD_0": 11
          },
          "indices": 8,
          "material": 1,
          "mode": 4
        }
      ]
    },
    {
      "name": "17_W_Exterior",
      "primitives": [
        {
          "attributes": {
            "NORMAL": 14,
            "POSITION": 13,
            "TEXCOORD_0": 15
          },
          "indices": 12,
          "material": 0,
          "mode": 4
        }
      ]
    },
    {
      "name": "17_W_Hardware",
      "primitives": [
        {
          "attributes": {
            "NORMAL": 18,
            "POSITION": 17,
            "TEXCOORD_0": 19
          },
          "indices": 16,
          "material": 4,
          "mode": 4
        }
      ]
    },
    {
      "name": "17_W_Gray",
      "primitives": [
        {
          "attributes": {
            "NORMAL": 22,
            "POSITION": 21,
            "TEXCOORD_0": 23
          },
          "indices": 20,
          "material": 3,
          "mode": 4
        }
      ]
    },
    {
      "name": "17_W_Spacers",
      "primitives": [
        {
          "attributes": {
            "NORMAL": 26,
            "POSITION": 25,
            "TEXCOORD_0": 27
          },
          "indices": 24,
          "material": 6,
          "mode": 4
        }
      ]
    }
  ],
  "nodes": [
    {
      "children": [
        1,
        3,
        5,
        7,
        9,
        11,
        13
      ],
      "name": "root",
      "scale": [
        27.4793834686279,
        27.4793834686279,
        27.4793834686279
      ],
      "translation": [
        -0.002655029296875,
        27.479284286499,
        0.220285534858704
      ]
    },
    {
      "children": [
        2
      ],
      "name": "17_W_Glass"
    },
    {
      "mesh": 0,
      "name": "17_W_Glass"
    },
    {
      "children": [
        4
      ],
      "name": "17_W_Interior"
    },
    {
      "mesh": 1,
      "name": "17_W_Interior"
    },
    {
      "children": [
        6
      ],
      "name": "17_W_Fibrex"
    },
    {
      "mesh": 2,
      "name": "17_W_Fibrex"
    },
    {
      "children": [
        8
      ],
      "name": "17_W_Exterior"
    },
    {
      "mesh": 3,
      "name": "17_W_Exterior"
    },
    {
      "children": [
        10
      ],
      "name": "17_W_Hardware"
    },
    {
      "mesh": 4,
      "name": "17_W_Hardware"
    },
    {
      "children": [
        12
      ],
      "name": "17_W_Gray"
    },
    {
      "mesh": 5,
      "name": "17_W_Gray"
    },
    {
      "children": [
        14
      ],
      "name": "17_W_Spacers"
    },
    {
      "mesh": 6,
      "name": "17_W_Spacers"
    }
  ],
  "samplers": [
    {
      "magFilter": 9729,
      "minFilter": 9985,
      "wrapS": 10497,
      "wrapT": 10497
    }
  ],
  "scene": 0,
  "scenes": [
    {
      "name": "Scene",
      "nodes": [
        0
      ]
    }
  ],
  "textures": [
    {
      "sampler": 0,
      "source": 0
    },
    {
      "sampler": 0,
      "source": 1
    },
    {
      "sampler": 0,
      "source": 2
    },
    {
      "sampler": 0,
      "source": 3
    },
    {
      "sampler": 0,
      "source": 4
    },
    {
      "sampler": 0,
      "source": 5
    },
    {
      "sampler": 0,
      "source": 6
    },
    {
      "sampler": 0,
      "source": 7
    },
    {
      "sampler": 0,
      "source": 8
    },
    {
      "sampler": 0,
      "source": 9
    },
    {
      "sampler": 0,
      "source": 10
    },
    {
      "sampler": 0,
      "source": 11
    },
    {
      "sampler": 0,
      "source": 12
    },
    {
      "sampler": 0,
      "source": 13
    },
    {
      "sampler": 0,
      "source": 14
    },
    {
      "sampler": 0,
      "source": 15
    },
    {
      "sampler": 0,
      "source": 16
    },
    {
      "sampler": 0,
      "source": 17
    },
    {
      "sampler": 0,
      "source": 18
    },
    {
      "sampler": 0,
      "source": 19
    },
    {
      "sampler": 0,
      "source": 20
    },
    {
      "sampler": 0,
      "source": 21
    },
    {
      "sampler": 0,
      "source": 22
    },
    {
      "sampler": 0,
      "source": 23
    },
    {
      "sampler": 0,
      "source": 24
    },
    {
      "sampler": 0,
      "source": 25
    },
    {
      "sampler": 0,
      "source": 26
    },
    {
      "sampler": 0,
      "source": 27
    }
  ]
}