{
  "accessors": [
    {
      "bufferView": 0,
      "componentType": 5125,
      "count": 24,
      "type": "SCALAR"
    },
    {
      "bufferView": 1,
      "componentType": 5126,
      "count": 16,
      "max": [
        0.48942756652832,
        0.845287024974823,
        0.076527401804924
      ],
      "min": [
        -0.488203406333923,
        -0.821491420269012,
        -0.0586447604000568
      ],
      "type": "VEC3"
    },
    {
      "bufferView": 2,
      "componentType": 5126,
      "count": 16,
      "type": "VEC3"
    },
    {
      "bufferView": 3,
      "componentType": 5126,
      "count": 16,
      "type": "VEC2"
    },
    {
      "bufferView": 4,
      "componentType": 5125,
      "count": 6927,
      "type": "SCALAR"
    },
    {
      "bufferView": 5,
      "componentType": 5126,
      "count": 5066,
      "max": [
        0.627975821495056,
        0.999835848808289,
        0.1112414970994
      ],
      "min": [
        -0.627705752849579,
        -1.0,
        -0.0587948076426983
      ],
      "type": "VEC3"
    },
    {
      "bufferView": 6,
      "componentType": 5126,
      "count": 5066,
      "type": "VEC3"
    },
    {
      "bufferView": 7,
      "componentType": 5126,
      "count": 5066,
      "type": "VEC2"
    },
    {
      "bufferView": 8,
      "componentType": 5125,
      "count": 1218,
      "type": "SCALAR"
    },
    {
      "bufferView": 9,
      "componentType": 5126,
      "count": 750,
      "max": [
        0.627975821495056,
        -0.88284170627594,
        0.111238591372967
      ],
      "min": [
        -0.624793887138367,
        -0.999997496604919,
        -0.111241236329079
      ],
      "type": "VEC3"
    },
    {
      "bufferView": 10,
      "componentType": 5126,
      "count": 750,
      "type": "VEC3"
    },
    {
      "bufferView": 11,
      "componentType": 5126,
      "count": 750,
      "type": "VEC2"
    },
    {
      "bufferView": 12,
      "componentType": 5125,
      "count": 7914,
      "type": "SCALAR"
    },
    {
      "bufferView": 13,
      "componentType": 5126,
      "count": 5981,
      "max": [
        0.627976596355438,
        1.0,
        0.105584837496281
      ],
      "min": [
        -0.627976596355438,
        -0.999958753585815,
        -0.1112414970994
      ],
      "type": "VEC3"
    },
    {
      "bufferView": 14,
      "componentType": 5126,
      "count": 5981,
      "type": "VEC3"
    },
    {
      "bufferView": 15,
      "componentType": 5126,
      "count": 5981,
      "type": "VEC2"
    },
    {
      "bufferView": 16,
      "componentType": 5125,
      "count": 17802,
      "type": "SCALAR"
    },
    {
      "bufferView": 17,
      "componentType": 5126,
      "count": 13911,
      "max": [
        0.627836227416992,
        0.983599841594696,
        0.0847706124186516
      ],
      "min": [
        -0.624655187129974,
        -0.999883890151978,
        -0.0922198668122292
      ],
      "type": "VEC3"
    },
    {
      "bufferView": 18,
      "componentType": 5126,
      "count": 13911,
      "type": "VEC3"
    },
    {
      "bufferView": 19,
      "componentType": 5126,
      "count": 13911,
      "type": "VEC2"
    },
    {
      "bufferView": 20,
      "componentType": 5125,
      "count": 720,
      "type": "SCALAR"
    },
    {
      "bufferView": 21,
      "componentType": 5126,
      "count": 473,
      "max": [
        0.5112544298172,
        0.877454817295074,
        0.0668949484825134
      ],
      "min": [
        -0.50455367565155,
        -0.842602252960205,
        -0.0506273284554482
      ],
      "type": "VEC3"
    },
    {
      "bufferView": 22,
      "componentType": 5126,
      "count": 473,
      "type": "VEC3"
    },
    {
      "bufferView": 23,
      "componentType": 5126,
      "count": 473,
      "type": "VEC2"
    },
    {
      "bufferView": 24,
      "componentType": 5125,
      "count": 6315,
      "type": "SCALAR"
    },
    {
      "bufferView": 25,
      "componentType": 5126,
      "count": 1579,
      "max": [
        0.0658597275614738,
        0.0601226501166821,
        0.108637489378452
      ],
      "min": [
        -0.0658597871661186,
        -0.865696430206299,
        -0.011468936689198
      ],
      "type": "VEC3"
    },
    {
      "bufferView": 26,
      "componentType": 5126,
      "count": 1579,
      "type": "VEC3"
    },
    {
      "bufferView": 27,
      "componentType": 5126,
      "count": 1579,
      "type": "VEC2"
    }
  ],
  "asset": {
    "generator": "Substance Painter 2019.2.1",
    "version": "2.0"
  },
  "bufferViews": [
    {
      "buffer": 0,
      "byteLength": 96,
      "target": 34963
    },
    {
      "buffer": 0,
      "byteLength": 192,
      "byteOffset": 96,
      "target": 34962
    },
    {
      "buffer": 0,
      "byteLength": 192,
      "byteOffset": 288,
      "target": 34962
    },
    {
      "buffer": 0,
      "byteLength": 128,
      "byteOffset": 480,
      "target": 34962
    },
    {
      "buffer": 0,
      "byteLength": 27708,
      "byteOffset": 608,
      "target": 34963
    },
    {
      "buffer": 0,
      "byteLength": 60792,
      "byteOffset": 28316,
      "target": 34962
    },
    {
      "buffer": 0,
      "byteLength": 60792,
      "byteOffset": 89108,
      "target": 34962
    },
    {
      "buffer": 0,
      "byteLength": 40528,
      "byteOffset": 149900,
      "target": 34962
    },
    {
      "buffer": 0,
      "byteLength": 4872,
      "byteOffset": 190428,
      "target": 34963
    },
    {
      "buffer": 0,
      "byteLength": 9000,
      "byteOffset": 195300,
      "target": 34962
    },
    {
      "buffer": 0,
      "byteLength": 9000,
      "byteOffset": 204300,
      "target": 34962
    },
    {
      "buffer": 0,
      "byteLength": 6000,
      "byteOffset": 213300,
      "target": 34962
    },
    {
      "buffer": 0,
      "byteLength": 31656,
      "byteOffset": 219300,
      "target": 34963
    },
    {
      "buffer": 0,
      "byteLength": 71772,
      "byteOffset": 250956,
      "target": 34962
    },
    {
      "buffer": 0,
      "byteLength": 71772,
      "byteOffset": 322728,
      "target": 34962
    },
    {
      "buffer": 0,
      "byteLength": 47848,
      "byteOffset": 394500,
      "target": 34962
    },
    {
      "buffer": 0,
      "byteLength": 71208,
      "byteOffset": 442348,
      "target": 34963
    },
    {
      "buffer": 0,
      "byteLength": 166932,
      "byteOffset": 513556,
      "target": 34962
    },
    {
      "buffer": 0,
      "byteLength": 166932,
      "byteOffset": 680488,
      "target": 34962
    },
    {
      "buffer": 0,
      "byteLength": 111288,
      "byteOffset": 847420,
      "target": 34962
    },
    {
      "buffer": 0,
      "byteLength": 2880,
      "byteOffset": 958708,
      "target": 34963
    },
    {
      "buffer": 0,
      "byteLength": 5676,
      "byteOffset": 961588,
      "target": 34962
    },
    {
      "buffer": 0,
      "byteLength": 5676,
      "byteOffset": 967264,
      "target": 34962
    },
    {
      "buffer": 0,
      "byteLength": 3784,
      "byteOffset": 972940,
      "target": 34962
    },
    {
      "buffer": 0,
      "byteLength": 25260,
      "byteOffset": 976724,
      "target": 34963
    },
    {
      "buffer": 0,
      "byteLength": 18948,
      "byteOffset": 1001984,
      "target": 34962
    },
    {
      "buffer": 0,
      "byteLength": 18948,
      "byteOffset": 1020932,
      "target": 34962
    },
    {
      "buffer": 0,
      "byteLength": 12632,
      "byteOffset": 1039880,
      "target": 34962
    }
  ],
  "buffers": [
    {
      "byteLength": 1052512,
      "uri": "17_W_DoubleHungDG_v01.bin"
    }
  ],
  "images": [
    {
      "uri": "17_W_Exterior_baseColor.png"
    },
    {
      "uri": "17_W_Exterior_occlusionRoughnessMetallic.png"
    },
    {
      "uri": "17_W_Exterior_normal.png"
    },
    {
      "uri": "17_W_Exterior_emissive.png"
    },
    {
      "uri": "17_W_Fibrex_baseColor.png"
    },
    {
      "uri": "17_W_Fibrex_occlusionRoughnessMetallic.png"
    },
    {
      "uri": "17_W_Fibrex_normal.png"
    },
    {
      "uri": "17_W_Fibrex_emissive.png"
    },
    {
      "uri": "17_W_Glass_baseColor.png"
    },
    {
      "uri": "17_W_Glass_occlusionRoughnessMetallic.png"
    },
    {
      "uri": "17_W_Glass_normal.png"
    },
    {
      "uri": "17_W_Glass_emissive.png"
    },
    {
      "uri": "17_W_Gray_baseColor.png"
    },
    {
      "uri": "17_W_Gray_occlusionRoughnessMetallic.png"
    },
    {
      "uri": "17_W_Gray_normal.png"
    },
    {
      "uri": "17_W_Gray_emissive.png"
    },
    {
      "uri": "17_W_Hardware_baseColor.png"
    },
    {
      "uri": "17_W_Hardware_occlusionRoughnessMetallic.png"
    },
    {
      "uri": "17_W_Hardware_normal.png"
    },
    {
      "uri": "17_W_Hardware_emissive.png"
    },
    {
      "uri": "17_W_Interior_baseColor.png"
    },
    {
      "uri": "17_W_Interior_occlusionRoughnessMetallic.png"
    },
    {
      "uri": "17_W_Interior_normal.png"
    },
    {
      "uri": "17_W_Interior_emissive.png"
    },
    {
      "uri": "17_W_Spacers_baseColor.png"
    },
    {
      "uri": "17_W_Spacers_occlusionRoughnessMetallic.png"
    },
    {
      "uri": "17_W_Spacers_normal.png"
    },
    {
      "uri": "17_W_Spacers_emissive.png"
    }
  ],
  "materials": [
    {
      "alphaMode": "OPAQUE",
      "emissiveFactor": [
        1.0,
        1.0,
        1.0
      ],
      "emissiveTexture": {
        "index": 3
      },
      "name": "17_W_Exterior",
      "normalTexture": {
        "index": 2
      },
      "occlusionTexture": {
        "index": 1
      },
      "pbrMetallicRoughness": {
        "baseColorTexture": {
          "index": 0
        },
        "metallicRoughnessTexture": {
          "index": 1
        }
      }
    },
    {
      "alphaMode": "OPAQUE",
      "emissiveFactor": [
        1.0,
        1.0,
        1.0
      ],
      "emissiveTexture": {
        "index": 7
      },
      "name": "17_W_Fibrex",
      "normalTexture": {
        "index": 6
      },
      "occlusionTexture": {
        "index": 5
      },
      "pbrMetallicRoughness": {
        "baseColorTexture": {
          "index": 4
        },
        "metallicRoughnessTexture": {
          "index": 5
        }
      }
    },
    {
      "alphaMode": "BLEND",
      "emissiveFactor": [
        1.0,
        1.0,
        1.0
      ],
      "emissiveTexture": {
        "index": 11
      },
      "name": "17_W_Glass",
      "normalTexture": {
        "index": 10
      },
      "occlusionTexture": {
        "index": 9
      },
      "pbrMetallicRoughness": {
        "baseColorTexture": {
          "index": 8
        },
        "metallicRoughnessTexture": {
          "index": 9
        }
      }
    },
    {
      "alphaMode": "OPAQUE",
      "emissiveFactor": [
        1.0,
        1.0,
        1.0
      ],
      "emissiveTexture": {
        "index": 15
      },
      "name": "17_W_Gray",
      "normalTexture": {
        "index": 14
      },
      "occlusionTexture": {
        "index": 13
      },
      "pbrMetallicRoughness": {
        "baseColorTexture": {
          "index": 12
        },
        "metallicRoughnessTexture": {
          "index": 13
        }
      }
    },
    {
      "alphaMode": "OPAQUE",
      "emissiveFactor": [
        1.0,
        1.0,
        1.0
      ],
      "emissiveTexture": {
        "index": 19
      },
      "name": "17_W_Hardware",
      "normalTexture": {
        "index": 18
      },
      "occlusionTexture": {
        "index": 17
      },
      "pbrMetallicRoughness": {
        "baseColorTexture": {
          "index": 16
        },
        "metallicRoughnessTexture": {
          "index": 17
        }
      }
    },
    {
      "alphaMode": "OPAQUE",
      "emissiveFactor": [
        1.0,
        1.0,
        1.0
      ],
      "emissiveTexture": {
        "index": 23
      },
      "name": "17_W_Interior",
      "normalTexture": {
        "index": 22
      },
      "occlusionTexture": {
        "index": 21
      },
      "pbrMetallicRoughness": {
        "baseColorTexture": {
          "index": 20
        },
        "metallicRoughnessTexture": {
          "index": 21
        }
      }
    },
    {
      "alphaMode": "OPAQUE",
      "emissiveFactor": [
        1.0,
        1.0,
        1.0
      ],
      "emissiveTexture": {
        "index": 27
      },
      "name": "17_W_Spacers",
      "normalTexture": {
        "index": 26
      },
      "occlusionTexture": {
        "index": 25
      },
      "pbrMetallicRoughness": {
        "baseColorTexture": {
          "index": 24
        },
        "metallicRoughnessTexture": {
          "index": 25
        }
      }
    }
  ],
  "meshes": [
    {
      "name": "17_W_Glass",
      "primitives": [
        {
          "attributes": {
            "NORMAL": 2,
            "POSITION": 1,
            "TEXCOORD_0": 3
          },
          "indices": 0,
          "material": 2,
          "mode": 4
        }
      ]
    },
    {
      "name": "17_W_Interior",
      "primitives": [
        {
          "attributes": {
            "NORMAL": 6,
            "POSITION": 5,
            "TEXCOORD_0": 7
          },
          "indices": 4,
          "material": 5,
          "mode": 4
        }
      ]
    },
    {
      "name": "17_W_Fibrex",
      "primitives": [
        {
          "attributes": {
            "NORMAL": 10,
            "POSITION": 9,
            "TEXCOORD_0": 11
          },
          "indices": 8,
          "material": 1,
          "mode": 4
        }
      ]
    },
    {
      "name": "17_W_Exterior",
      "primitives": [
        {
          "attributes": {
            "NORMAL": 14,
            "POSITION": 13,
            "TEXCOORD_0": 15
          },
          "indices": 12,
          "material": 0,
          "mode": 4
        }
      ]
    },
    {
      "name": "17_W_Gray",
      "primitives": [
        {
          "attributes": {
            "NORMAL": 18,
            "POSITION": 17,
            "TEXCOORD_0": 19
          },
          "indices": 16,
          "material": 3,
          "mode": 4
        }
      ]
    },
    {
      "name": "17_W_Spacers",
      "primitives": [
        {
          "attributes": {
            "NORMAL": 22,
            "POSITION": 21,
            "TEXCOORD_0": 23
          },
          "indices": 20,
          "material": 6,
          "mode": 4
        }
      ]
    },
    {
      "name": "17_W_Hardware",
      "primitives": [
        {
          "attributes": {
            "NORMAL": 26,
            "POSITION": 25,
            "TEXCOORD_0": 27
          },
          "indices": 24,
          "material": 4,
          "mode": 4
        }
      ]
    }
  ],
  "nodes": [
    {
      "children": [
        1,
        3,
        5,
        7,
        9,
        11,
        13
      ],
      "name": "root",
      "scale": [
        0.679895222187042,
        0.679895222187042,
        0.679895222187042
      ],
      "translation": [
        0.0,
        0.679817259311676,
        0.00641585886478424
      ]
    },
    {
      "children": [
        2
      ],
      "name": "17_W_Glass"
    },
    {
      "mesh": 0,
      "name": "17_W_Glass"
    },
    {
      "children": [
        4
      ],
      "name": "17_W_Interior"
    },
    {
      "mesh": 1,
      "name": "17_W_Interior"
    },
    {
      "children": [
        6
      ],
      "name": "17_W_Fibrex"
    },
    {
      "mesh": 2,
      "name": "17_W_Fibrex"
    },
    {
      "children": [
        8
      ],
      "name": "17_W_Exterior"
    },
    {
      "mesh": 3,
      "name": "17_W_Exterior"
    },
    {
      "children": [
        10
      ],
      "name": "17_W_Gray"
    },
    {
      "mesh": 4,
      "name": "17_W_Gray"
    },
    {
      "children": [
        12
      ],
      "name": "17_W_Spacers"
    },
    {
      "mesh": 5,
      "name": "17_W_Spacers"
    },
    {
      "children": [
        14
      ],
      "name": "17_W_Hardware"
    },
    {
      "mesh": 6,
      "name": "17_W_Hardware"
    }
  ],
  "samplers": [
    {
      "magFilter": 9729,
      "minFilter": 9985,
      "wrapS": 10497,
      "wrapT": 10497
    }
  ],
  "scene": 0,
  "scenes": [
    {
      "name": "Scene",
      "nodes": [
        0
      ]
    }
  ],
  "textures": [
    {
      "sampler": 0,
      "source": 0
    },
    {
      "sampler": 0,
      "source": 1
    },
    {
      "sampler": 0,
      "source": 2
    },
    {
      "sampler": 0,
      "source": 3
    },
    {
      "sampler": 0,
      "source": 4
    },
    {
      "sampler": 0,
      "source": 5
    },
    {
      "sampler": 0,
      "source": 6
    },
    {
      "sampler": 0,
      "source": 7
    },
    {
      "sampler": 0,
      "source": 8
    },
    {
      "sampler": 0,
      "source": 9
    },
    {
      "sampler": 0,
      "source": 10
    },
    {
      "sampler": 0,
      "source": 11
    },
    {
      "sampler": 0,
      "source": 12
    },
    {
      "sampler": 0,
      "source": 13
    },
    {
      "sampler": 0,
      "source": 14
    },
    {
      "sampler": 0,
      "source": 15
    },
    {
      "sampler": 0,
      "source": 16
    },
    {
      "sampler": 0,
      "source": 17
    },
    {
      "sampler": 0,
      "source": 18
    },
    {
      "sampler": 0,
      "source": 19
    },
    {
      "sampler": 0,
      "source": 20
    },
    {
      "sampler": 0,
      "source": 21
    },
    {
      "sampler": 0,
      "source": 22
    },
    {
      "sampler": 0,
      "source": 23
    },
    {
      "sampler": 0,
      "source": 24
    },
    {
      "sampler": 0,
      "source": 25
    },
    {
      "sampler": 0,
      "source": 26
    },
    {
      "sampler": 0,
      "source": 27
    }
  ]
}