{
  "accessors": [
    {
      "bufferView": 0,
      "componentType": 5125,
      "count": 97728,
      "type": "SCALAR"
    },
    {
      "bufferView": 1,
      "componentType": 5126,
      "count": 22011,
      "max": [
        2.06120872497559,
        0.761407375335693,
        0.270727157592773
      ],
      "min": [
        -2.04427862167358,
        0.211592614650726,
        0.0745033398270607
      ],
      "type": "VEC3"
    },
    {
      "bufferView": 2,
      "componentType": 5126,
      "count": 22011,
      "type": "VEC3"
    },
    {
      "bufferView": 3,
      "componentType": 5126,
      "count": 22011,
      "type": "VEC2"
    },
    {
      "bufferView": 4,
      "componentType": 5125,
      "count": 24021,
      "type": "SCALAR"
    },
    {
      "bufferView": 5,
      "componentType": 5126,
      "count": 10190,
      "max": [
        2.10407114028931,
        1.98116457462311,
        0.221122071146965
      ],
      "min": [
        -2.10387873649597,
        -0.96625804901123,
        0.0556456819176674
      ],
      "type": "VEC3"
    },
    {
      "bufferView": 6,
      "componentType": 5126,
      "count": 10190,
      "type": "VEC3"
    },
    {
      "bufferView": 7,
      "componentType": 5126,
      "count": 10190,
      "type": "VEC2"
    },
    {
      "bufferView": 8,
      "componentType": 5125,
      "count": 864,
      "type": "SCALAR"
    },
    {
      "bufferView": 9,
      "componentType": 5126,
      "count": 480,
      "max": [
        1.94307732582092,
        1.77829790115356,
        0.177766680717468
      ],
      "min": [
        -1.94182574748993,
        -0.609737634658813,
        0.076333723962307
      ],
      "type": "VEC3"
    },
    {
      "bufferView": 10,
      "componentType": 5126,
      "count": 480,
      "type": "VEC3"
    },
    {
      "bufferView": 11,
      "componentType": 5126,
      "count": 480,
      "type": "VEC2"
    },
    {
      "bufferView": 12,
      "componentType": 5125,
      "count": 4506,
      "type": "SCALAR"
    },
    {
      "bufferView": 13,
      "componentType": 5126,
      "count": 1920,
      "max": [
        2.09496879577637,
        -0.926836013793945,
        0.227632820606232
      ],
      "min": [
        -2.09477663040161,
        -1.00581789016724,
        0.00209988653659821
      ],
      "type": "VEC3"
    },
    {
      "bufferView": 14,
      "componentType": 5126,
      "count": 1920,
      "type": "VEC3"
    },
    {
      "bufferView": 15,
      "componentType": 5126,
      "count": 1920,
      "type": "VEC2"
    },
    {
      "bufferView": 16,
      "componentType": 5125,
      "count": 216,
      "type": "SCALAR"
    },
    {
      "bufferView": 17,
      "componentType": 5126,
      "count": 144,
      "max": [
        1.94506192207336,
        1.78050577640533,
        0.183435589075089
      ],
      "min": [
        -1.9437780380249,
        -0.611748695373535,
        0.0706679821014404
      ],
      "type": "VEC3"
    },
    {
      "bufferView": 18,
      "componentType": 5126,
      "count": 144,
      "type": "VEC3"
    },
    {
      "bufferView": 19,
      "componentType": 5126,
      "count": 144,
      "type": "VEC2"
    },
    {
      "bufferView": 20,
      "componentType": 5125,
      "count": 17982,
      "type": "SCALAR"
    },
    {
      "bufferView": 21,
      "componentType": 5126,
      "count": 7768,
      "max": [
        2.12810778617859,
        2.00499033927917,
        0.227632761001587
      ],
      "min": [
        -2.12791419029236,
        -0.999997854232788,
        0.0682621225714684
      ],
      "type": "VEC3"
    },
    {
      "bufferView": 22,
      "componentType": 5126,
      "count": 7768,
      "type": "VEC3"
    },
    {
      "bufferView": 23,
      "componentType": 5126,
      "count": 7768,
      "type": "VEC2"
    },
    {
      "bufferView": 24,
      "componentType": 5125,
      "count": 21426,
      "type": "SCALAR"
    },
    {
      "bufferView": 25,
      "componentType": 5126,
      "count": 8982,
      "max": [
        2.12810754776001,
        2.00499105453491,
        0.188964188098907
      ],
      "min": [
        -2.12791466712952,
        -1.00000369548798,
        0.0139217302203178
      ],
      "type": "VEC3"
    },
    {
      "bufferView": 26,
      "componentType": 5126,
      "count": 8982,
      "type": "VEC3"
    },
    {
      "bufferView": 27,
      "componentType": 5126,
      "count": 8982,
      "type": "VEC2"
    }
  ],
  "asset": {
    "generator": "Substance Painter 2019.2.1",
    "version": "2.0"
  },
  "bufferViews": [
    {
      "buffer": 0,
      "byteLength": 390912,
      "target": 34963
    },
    {
      "buffer": 0,
      "byteLength": 264132,
      "byteOffset": 390912,
      "target": 34962
    },
    {
      "buffer": 0,
      "byteLength": 264132,
      "byteOffset": 655044,
      "target": 34962
    },
    {
      "buffer": 0,
      "byteLength": 176088,
      "byteOffset": 919176,
      "target": 34962
    },
    {
      "buffer": 0,
      "byteLength": 96084,
      "byteOffset": 1095264,
      "target": 34963
    },
    {
      "buffer": 0,
      "byteLength": 122280,
      "byteOffset": 1191348,
      "target": 34962
    },
    {
      "buffer": 0,
      "byteLength": 122280,
      "byteOffset": 1313628,
      "target": 34962
    },
    {
      "buffer": 0,
      "byteLength": 81520,
      "byteOffset": 1435908,
      "target": 34962
    },
    {
      "buffer": 0,
      "byteLength": 3456,
      "byteOffset": 1517428,
      "target": 34963
    },
    {
      "buffer": 0,
      "byteLength": 5760,
      "byteOffset": 1520884,
      "target": 34962
    },
    {
      "buffer": 0,
      "byteLength": 5760,
      "byteOffset": 1526644,
      "target": 34962
    },
    {
      "buffer": 0,
      "byteLength": 3840,
      "byteOffset": 1532404,
      "target": 34962
    },
    {
      "buffer": 0,
      "byteLength": 18024,
      "byteOffset": 1536244,
      "target": 34963
    },
    {
      "buffer": 0,
      "byteLength": 23040,
      "byteOffset": 1554268,
      "target": 34962
    },
    {
      "buffer": 0,
      "byteLength": 23040,
      "byteOffset": 1577308,
      "target": 34962
    },
    {
      "buffer": 0,
      "byteLength": 15360,
      "byteOffset": 1600348,
      "target": 34962
    },
    {
      "buffer": 0,
      "byteLength": 864,
      "byteOffset": 1615708,
      "target": 34963
    },
    {
      "buffer": 0,
      "byteLength": 1728,
      "byteOffset": 1616572,
      "target": 34962
    },
    {
      "buffer": 0,
      "byteLength": 1728,
      "byteOffset": 1618300,
      "target": 34962
    },
    {
      "buffer": 0,
      "byteLength": 1152,
      "byteOffset": 1620028,
      "target": 34962
    },
    {
      "buffer": 0,
      "byteLength": 71928,
      "byteOffset": 1621180,
      "target": 34963
    },
    {
      "buffer": 0,
      "byteLength": 93216,
      "byteOffset": 1693108,
      "target": 34962
    },
    {
      "buffer": 0,
      "byteLength": 93216,
      "byteOffset": 1786324,
      "target": 34962
    },
    {
      "buffer": 0,
      "byteLength": 62144,
      "byteOffset": 1879540,
      "target": 34962
    },
    {
      "buffer": 0,
      "byteLength": 85704,
      "byteOffset": 1941684,
      "target": 34963
    },
    {
      "buffer": 0,
      "byteLength": 107784,
      "byteOffset": 2027388,
      "target": 34962
    },
    {
      "buffer": 0,
      "byteLength": 107784,
      "byteOffset": 2135172,
      "target": 34962
    },
    {
      "buffer": 0,
      "byteLength": 71856,
      "byteOffset": 2242956,
      "target": 34962
    }
  ],
  "buffers": [
    {
      "byteLength": 2314812,
      "uri": "13_D_FWAGlidingTriple.bin"
    }
  ],
  "images": [
    {
      "uri": "13_D_Exterior_baseColor.png"
    },
    {
      "uri": "13_D_Exterior_occlusionRoughnessMetallic.png"
    },
    {
      "uri": "13_D_Exterior_normal.png"
    },
    {
      "uri": "13_D_Exterior_emissive.png"
    },
    {
      "uri": "13_D_Glass_baseColor.png"
    },
    {
      "uri": "13_D_Glass_occlusionRoughnessMetallic.png"
    },
    {
      "uri": "13_D_Glass_normal.png"
    },
    {
      "uri": "13_D_Glass_emissive.png"
    },
    {
      "uri": "13_D_Gray_baseColor.png"
    },
    {
      "uri": "13_D_Gray_occlusionRoughnessMetallic.png"
    },
    {
      "uri": "13_D_Gray_normal.png"
    },
    {
      "uri": "13_D_Gray_emissive.png"
    },
    {
      "uri": "13_D_Hardware_baseColor.png"
    },
    {
      "uri": "13_D_Hardware_occlusionRoughnessMetallic.png"
    },
    {
      "uri": "13_D_Hardware_normal.png"
    },
    {
      "uri": "13_D_Hardware_emissive.png"
    },
    {
      "uri": "13_D_Interior_baseColor.png"
    },
    {
      "uri": "13_D_Interior_occlusionRoughnessMetallic.png"
    },
    {
      "uri": "13_D_Interior_normal.png"
    },
    {
      "uri": "13_D_Interior_emissive.png"
    },
    {
      "uri": "13_D_Sill_baseColor.png"
    },
    {
      "uri": "13_D_Sill_occlusionRoughnessMetallic.png"
    },
    {
      "uri": "13_D_Sill_normal.png"
    },
    {
      "uri": "13_D_Sill_emissive.png"
    },
    {
      "uri": "13_D_Spacers_baseColor.png"
    },
    {
      "uri": "13_D_Spacers_occlusionRoughnessMetallic.png"
    },
    {
      "uri": "13_D_Spacers_normal.png"
    },
    {
      "uri": "13_D_Spacers_emissive.png"
    }
  ],
  "materials": [
    {
      "alphaMode": "OPAQUE",
      "emissiveFactor": [
        1.0,
        1.0,
        1.0
      ],
      "emissiveTexture": {
        "index": 3
      },
      "name": "13_D_Exterior",
      "normalTexture": {
        "index": 2
      },
      "occlusionTexture": {
        "index": 1
      },
      "pbrMetallicRoughness": {
        "baseColorTexture": {
          "index": 0
        },
        "metallicRoughnessTexture": {
          "index": 1
        }
      }
    },
    {
      "alphaMode": "BLEND",
      "emissiveFactor": [
        1.0,
        1.0,
        1.0
      ],
      "emissiveTexture": {
        "index": 7
      },
      "name": "13_D_Glass",
      "normalTexture": {
        "index": 6
      },
      "occlusionTexture": {
        "index": 5
      },
      "pbrMetallicRoughness": {
        "baseColorTexture": {
          "index": 4
        },
        "metallicRoughnessTexture": {
          "index": 5
        }
      }
    },
    {
      "alphaMode": "OPAQUE",
      "emissiveFactor": [
        1.0,
        1.0,
        1.0
      ],
      "emissiveTexture": {
        "index": 11
      },
      "name": "13_D_Gray",
      "normalTexture": {
        "index": 10
      },
      "occlusionTexture": {
        "index": 9
      },
      "pbrMetallicRoughness": {
        "baseColorTexture": {
          "index": 8
        },
        "metallicRoughnessTexture": {
          "index": 9
        }
      }
    },
    {
      "alphaMode": "OPAQUE",
      "emissiveFactor": [
        1.0,
        1.0,
        1.0
      ],
      "emissiveTexture": {
        "index": 15
      },
      "name": "13_D_Hardware",
      "normalTexture": {
        "index": 14
      },
      "occlusionTexture": {
        "index": 13
      },
      "pbrMetallicRoughness": {
        "baseColorTexture": {
          "index": 12
        },
        "metallicRoughnessTexture": {
          "index": 13
        }
      }
    },
    {
      "alphaMode": "OPAQUE",
      "emissiveFactor": [
        1.0,
        1.0,
        1.0
      ],
      "emissiveTexture": {
        "index": 19
      },
      "name": "13_D_Interior",
      "normalTexture": {
        "index": 18
      },
      "occlusionTexture": {
        "index": 17
      },
      "pbrMetallicRoughness": {
        "baseColorTexture": {
          "index": 16
        },
        "metallicRoughnessTexture": {
          "index": 17
        }
      }
    },
    {
      "alphaMode": "OPAQUE",
      "emissiveFactor": [
        1.0,
        1.0,
        1.0
      ],
      "emissiveTexture": {
        "index": 23
      },
      "name": "13_D_Sill",
      "normalTexture": {
        "index": 22
      },
      "occlusionTexture": {
        "index": 21
      },
      "pbrMetallicRoughness": {
        "baseColorTexture": {
          "index": 20
        },
        "metallicRoughnessTexture": {
          "index": 21
        }
      }
    },
    {
      "alphaMode": "OPAQUE",
      "emissiveFactor": [
        1.0,
        1.0,
        1.0
      ],
      "emissiveTexture": {
        "index": 27
      },
      "name": "13_D_Spacers",
      "normalTexture": {
        "index": 26
      },
      "occlusionTexture": {
        "index": 25
      },
      "pbrMetallicRoughness": {
        "baseColorTexture": {
          "index": 24
        },
        "metallicRoughnessTexture": {
          "index": 25
        }
      }
    }
  ],
  "meshes": [
    {
      "name": "13_D_Hardware",
      "primitives": [
        {
          "attributes": {
            "NORMAL": 2,
            "POSITION": 1,
            "TEXCOORD_0": 3
          },
          "indices": 0,
          "material": 3,
          "mode": 4
        }
      ]
    },
    {
      "name": "13_D_Gray",
      "primitives": [
        {
          "attributes": {
            "NORMAL": 6,
            "POSITION": 5,
            "TEXCOORD_0": 7
          },
          "indices": 4,
          "material": 2,
          "mode": 4
        }
      ]
    },
    {
      "name": "13_D_Spacers",
      "primitives": [
        {
          "attributes": {
            "NORMAL": 10,
            "POSITION": 9,
            "TEXCOORD_0": 11
          },
          "indices": 8,
          "material": 6,
          "mode": 4
        }
      ]
    },
    {
      "name": "13_D_Sill",
      "primitives": [
        {
          "attributes": {
            "NORMAL": 14,
            "POSITION": 13,
            "TEXCOORD_0": 15
          },
          "indices": 12,
          "material": 5,
          "mode": 4
        }
      ]
    },
    {
      "name": "13_D_Glass",
      "primitives": [
        {
          "attributes": {
            "NORMAL": 18,
            "POSITION": 17,
            "TEXCOORD_0": 19
          },
          "indices": 16,
          "material": 1,
          "mode": 4
        }
      ]
    },
    {
      "name": "13_D_Interior",
      "primitives": [
        {
          "attributes": {
            "NORMAL": 22,
            "POSITION": 21,
            "TEXCOORD_0": 23
          },
          "indices": 20,
          "material": 4,
          "mode": 4
        }
      ]
    },
    {
      "name": "13_D_Exterior",
      "primitives": [
        {
          "attributes": {
            "NORMAL": 26,
            "POSITION": 25,
            "TEXCOORD_0": 27
          },
          "indices": 24,
          "material": 0,
          "mode": 4
        }
      ]
    }
  ],
  "nodes": [
    {
      "children": [
        1,
        3,
        5,
        7,
        9,
        11,
        13
      ],
      "name": "root",
      "scale": [
        27.4793834686279,
        27.4793834686279,
        27.4793834686279
      ],
      "translation": [
        -0.002655029296875,
        27.479284286499,
        0.220285534858704
      ]
    },
    {
      "children": [
        2
      ],
      "name": "13_D_Hardware"
    },
    {
      "mesh": 0,
      "name": "13_D_Hardware"
    },
    {
      "children": [
        4
      ],
      "name": "13_D_Gray"
    },
    {
      "mesh": 1,
      "name": "13_D_Gray"
    },
    {
      "children": [
        6
      ],
      "name": "13_D_Spacers"
    },
    {
      "mesh": 2,
      "name": "13_D_Spacers"
    },
    {
      "children": [
        8
      ],
      "name": "13_D_Sill"
    },
    {
      "mesh": 3,
      "name": "13_D_Sill"
    },
    {
      "children": [
        10
      ],
      "name": "13_D_Glass"
    },
    {
      "mesh": 4,
      "name": "13_D_Glass"
    },
    {
      "children": [
        12
      ],
      "name": "13_D_Interior"
    },
    {
      "mesh": 5,
      "name": "13_D_Interior"
    },
    {
      "children": [
        14
      ],
      "name": "13_D_Exterior"
    },
    {
      "mesh": 6,
      "name": "13_D_Exterior"
    }
  ],
  "samplers": [
    {
      "magFilter": 9729,
      "minFilter": 9985,
      "wrapS": 10497,
      "wrapT": 10497
    }
  ],
  "scene": 0,
  "scenes": [
    {
      "name": "Scene",
      "nodes": [
        0
      ]
    }
  ],
  "textures": [
    {
      "sampler": 0,
      "source": 0
    },
    {
      "sampler": 0,
      "source": 1
    },
    {
      "sampler": 0,
      "source": 2
    },
    {
      "sampler": 0,
      "source": 3
    },
    {
      "sampler": 0,
      "source": 4
    },
    {
      "sampler": 0,
      "source": 5
    },
    {
      "sampler": 0,
      "source": 6
    },
    {
      "sampler": 0,
      "source": 7
    },
    {
      "sampler": 0,
      "source": 8
    },
    {
      "sampler": 0,
      "source": 9
    },
    {
      "sampler": 0,
      "source": 10
    },
    {
      "sampler": 0,
      "source": 11
    },
    {
      "sampler": 0,
      "source": 12
    },
    {
      "sampler": 0,
      "source": 13
    },
    {
      "sampler": 0,
      "source": 14
    },
    {
      "sampler": 0,
      "source": 15
    },
    {
      "sampler": 0,
      "source": 16
    },
    {
      "sampler": 0,
      "source": 17
    },
    {
      "sampler": 0,
      "source": 18
    },
    {
      "sampler": 0,
      "source": 19
    },
    {
      "sampler": 0,
      "source": 20
    },
    {
      "sampler": 0,
      "source": 21
    },
    {
      "sampler": 0,
      "source": 22
    },
    {
      "sampler": 0,
      "source": 23
    },
    {
      "sampler": 0,
      "source": 24
    },
    {
      "sampler": 0,
      "source": 25
    },
    {
      "sampler": 0,
      "source": 26
    },
    {
      "sampler": 0,
      "source": 27
    }
  ]
}