{
  "accessors": [
    {
      "bufferView": 0,
      "componentType": 5125,
      "count": 144,
      "type": "SCALAR"
    },
    {
      "bufferView": 1,
      "componentType": 5126,
      "count": 96,
      "max": [
        1.09403240680695,
        1.78981244564056,
        0.0541992485523224
      ],
      "min": [
        -1.11503040790558,
        -0.59911572933197,
        -0.0720405429601669
      ],
      "type": "VEC3"
    },
    {
      "bufferView": 2,
      "componentType": 5126,
      "count": 96,
      "type": "VEC3"
    },
    {
      "bufferView": 3,
      "componentType": 5126,
      "count": 96,
      "type": "VEC2"
    },
    {
      "bufferView": 4,
      "componentType": 5125,
      "count": 5442,
      "type": "SCALAR"
    },
    {
      "bufferView": 5,
      "componentType": 5126,
      "count": 2318,
      "max": [
        1.29421615600586,
        -0.889236390590668,
        0.102907814085484
      ],
      "min": [
        -1.29402351379395,
        -0.997232139110565,
        -0.146644860506058
      ],
      "type": "VEC3"
    },
    {
      "bufferView": 6,
      "componentType": 5126,
      "count": 2318,
      "type": "VEC3"
    },
    {
      "bufferView": 7,
      "componentType": 5126,
      "count": 2318,
      "type": "VEC2"
    },
    {
      "bufferView": 8,
      "componentType": 5125,
      "count": 14223,
      "type": "SCALAR"
    },
    {
      "bufferView": 9,
      "componentType": 5126,
      "count": 5807,
      "max": [
        1.29421722888947,
        1.98129522800446,
        0.102908104658127
      ],
      "min": [
        -1.29402363300323,
        -0.990792989730835,
        -0.0734356269240379
      ],
      "type": "VEC3"
    },
    {
      "bufferView": 10,
      "componentType": 5126,
      "count": 5807,
      "type": "VEC3"
    },
    {
      "bufferView": 11,
      "componentType": 5126,
      "count": 5807,
      "type": "VEC2"
    },
    {
      "bufferView": 12,
      "componentType": 5125,
      "count": 9528,
      "type": "SCALAR"
    },
    {
      "bufferView": 13,
      "componentType": 5126,
      "count": 4310,
      "max": [
        1.27037858963013,
        1.95493161678314,
        0.0957029610872269
      ],
      "min": [
        -1.26096677780151,
        -0.953459143638611,
        -0.0873798802495003
      ],
      "type": "VEC3"
    },
    {
      "bufferView": 14,
      "componentType": 5126,
      "count": 4310,
      "type": "VEC3"
    },
    {
      "bufferView": 15,
      "componentType": 5126,
      "count": 4310,
      "type": "VEC2"
    },
    {
      "bufferView": 16,
      "componentType": 5125,
      "count": 18093,
      "type": "SCALAR"
    },
    {
      "bufferView": 17,
      "componentType": 5126,
      "count": 7232,
      "max": [
        1.29421710968018,
        1.98129546642303,
        0.0601621270179749
      ],
      "min": [
        -1.2940239906311,
        -0.990642309188843,
        -0.133563533425331
      ],
      "type": "VEC3"
    },
    {
      "bufferView": 18,
      "componentType": 5126,
      "count": 7232,
      "type": "VEC3"
    },
    {
      "bufferView": 19,
      "componentType": 5126,
      "count": 7232,
      "type": "VEC2"
    },
    {
      "bufferView": 20,
      "componentType": 5125,
      "count": 14580,
      "type": "SCALAR"
    },
    {
      "bufferView": 21,
      "componentType": 5126,
      "count": 3961,
      "max": [
        1.18422627449036,
        0.779526710510254,
        0.147686764597893
      ],
      "min": [
        1.0828595161438,
        0.210289672017097,
        -0.0644183456897736
      ],
      "type": "VEC3"
    },
    {
      "bufferView": 22,
      "componentType": 5126,
      "count": 3961,
      "type": "VEC3"
    },
    {
      "bufferView": 23,
      "componentType": 5126,
      "count": 3961,
      "type": "VEC2"
    },
    {
      "bufferView": 24,
      "componentType": 5125,
      "count": 1248,
      "type": "SCALAR"
    },
    {
      "bufferView": 25,
      "componentType": 5126,
      "count": 592,
      "max": [
        1.09058582782745,
        1.77703511714935,
        0.0487124100327492
      ],
      "min": [
        -1.10927534103394,
        -0.596789181232452,
        -0.0655477195978165
      ],
      "type": "VEC3"
    },
    {
      "bufferView": 26,
      "componentType": 5126,
      "count": 592,
      "type": "VEC3"
    },
    {
      "bufferView": 27,
      "componentType": 5126,
      "count": 592,
      "type": "VEC2"
    }
  ],
  "asset": {
    "generator": "Substance Painter 2019.2.1",
    "version": "2.0"
  },
  "bufferViews": [
    {
      "buffer": 0,
      "byteLength": 576,
      "target": 34963
    },
    {
      "buffer": 0,
      "byteLength": 1152,
      "byteOffset": 576,
      "target": 34962
    },
    {
      "buffer": 0,
      "byteLength": 1152,
      "byteOffset": 1728,
      "target": 34962
    },
    {
      "buffer": 0,
      "byteLength": 768,
      "byteOffset": 2880,
      "target": 34962
    },
    {
      "buffer": 0,
      "byteLength": 21768,
      "byteOffset": 3648,
      "target": 34963
    },
    {
      "buffer": 0,
      "byteLength": 27816,
      "byteOffset": 25416,
      "target": 34962
    },
    {
      "buffer": 0,
      "byteLength": 27816,
      "byteOffset": 53232,
      "target": 34962
    },
    {
      "buffer": 0,
      "byteLength": 18544,
      "byteOffset": 81048,
      "target": 34962
    },
    {
      "buffer": 0,
      "byteLength": 56892,
      "byteOffset": 99592,
      "target": 34963
    },
    {
      "buffer": 0,
      "byteLength": 69684,
      "byteOffset": 156484,
      "target": 34962
    },
    {
      "buffer": 0,
      "byteLength": 69684,
      "byteOffset": 226168,
      "target": 34962
    },
    {
      "buffer": 0,
      "byteLength": 46456,
      "byteOffset": 295852,
      "target": 34962
    },
    {
      "buffer": 0,
      "byteLength": 38112,
      "byteOffset": 342308,
      "target": 34963
    },
    {
      "buffer": 0,
      "byteLength": 51720,
      "byteOffset": 380420,
      "target": 34962
    },
    {
      "buffer": 0,
      "byteLength": 51720,
      "byteOffset": 432140,
      "target": 34962
    },
    {
      "buffer": 0,
      "byteLength": 34480,
      "byteOffset": 483860,
      "target": 34962
    },
    {
      "buffer": 0,
      "byteLength": 72372,
      "byteOffset": 518340,
      "target": 34963
    },
    {
      "buffer": 0,
      "byteLength": 86784,
      "byteOffset": 590712,
      "target": 34962
    },
    {
      "buffer": 0,
      "byteLength": 86784,
      "byteOffset": 677496,
      "target": 34962
    },
    {
      "buffer": 0,
      "byteLength": 57856,
      "byteOffset": 764280,
      "target": 34962
    },
    {
      "buffer": 0,
      "byteLength": 58320,
      "byteOffset": 822136,
      "target": 34963
    },
    {
      "buffer": 0,
      "byteLength": 47532,
      "byteOffset": 880456,
      "target": 34962
    },
    {
      "buffer": 0,
      "byteLength": 47532,
      "byteOffset": 927988,
      "target": 34962
    },
    {
      "buffer": 0,
      "byteLength": 31688,
      "byteOffset": 975520,
      "target": 34962
    },
    {
      "buffer": 0,
      "byteLength": 4992,
      "byteOffset": 1007208,
      "target": 34963
    },
    {
      "buffer": 0,
      "byteLength": 7104,
      "byteOffset": 1012200,
      "target": 34962
    },
    {
      "buffer": 0,
      "byteLength": 7104,
      "byteOffset": 1019304,
      "target": 34962
    },
    {
      "buffer": 0,
      "byteLength": 4736,
      "byteOffset": 1026408,
      "target": 34962
    }
  ],
  "buffers": [
    {
      "byteLength": 1031144,
      "uri": "04_AGliding_autosave_0.bin"
    }
  ],
  "images": [
    {
      "uri": "04_D_Exterior_baseColor.png"
    },
    {
      "uri": "04_D_Exterior_occlusionRoughnessMetallic.png"
    },
    {
      "uri": "04_D_Exterior_normal.png"
    },
    {
      "uri": "04_D_Exterior_emissive.png"
    },
    {
      "uri": "04_D_Glass_baseColor.png"
    },
    {
      "uri": "04_D_Glass_occlusionRoughnessMetallic.png"
    },
    {
      "uri": "04_D_Glass_normal.png"
    },
    {
      "uri": "04_D_Glass_emissive.png"
    },
    {
      "uri": "04_D_Gray_baseColor.png"
    },
    {
      "uri": "04_D_Gray_occlusionRoughnessMetallic.png"
    },
    {
      "uri": "04_D_Gray_normal.png"
    },
    {
      "uri": "04_D_Gray_emissive.png"
    },
    {
      "uri": "04_D_Hardware_baseColor.png"
    },
    {
      "uri": "04_D_Hardware_occlusionRoughnessMetallic.png"
    },
    {
      "uri": "04_D_Hardware_normal.png"
    },
    {
      "uri": "04_D_Hardware_emissive.png"
    },
    {
      "uri": "04_D_Interior_baseColor.png"
    },
    {
      "uri": "04_D_Interior_occlusionRoughnessMetallic.png"
    },
    {
      "uri": "04_D_Interior_normal.png"
    },
    {
      "uri": "04_D_Interior_emissive.png"
    },
    {
      "uri": "04_D_Sill_baseColor.png"
    },
    {
      "uri": "04_D_Sill_occlusionRoughnessMetallic.png"
    },
    {
      "uri": "04_D_Sill_normal.png"
    },
    {
      "uri": "04_D_Sill_emissive.png"
    },
    {
      "uri": "04_D_Spacer_baseColor.png"
    },
    {
      "uri": "04_D_Spacer_occlusionRoughnessMetallic.png"
    },
    {
      "uri": "04_D_Spacer_normal.png"
    },
    {
      "uri": "04_D_Spacer_emissive.png"
    }
  ],
  "materials": [
    {
      "alphaMode": "OPAQUE",
      "emissiveFactor": [
        1.0,
        1.0,
        1.0
      ],
      "emissiveTexture": {
        "index": 3
      },
      "name": "04_D_Exterior",
      "normalTexture": {
        "index": 2
      },
      "occlusionTexture": {
        "index": 1
      },
      "pbrMetallicRoughness": {
        "baseColorTexture": {
          "index": 0
        },
        "metallicRoughnessTexture": {
          "index": 1
        }
      }
    },
    {
      "alphaMode": "BLEND",
      "emissiveFactor": [
        1.0,
        1.0,
        1.0
      ],
      "emissiveTexture": {
        "index": 7
      },
      "name": "04_D_Glass",
      "normalTexture": {
        "index": 6
      },
      "occlusionTexture": {
        "index": 5
      },
      "pbrMetallicRoughness": {
        "baseColorTexture": {
          "index": 4
        },
        "metallicRoughnessTexture": {
          "index": 5
        }
      }
    },
    {
      "alphaMode": "OPAQUE",
      "emissiveFactor": [
        1.0,
        1.0,
        1.0
      ],
      "emissiveTexture": {
        "index": 11
      },
      "name": "04_D_Gray",
      "normalTexture": {
        "index": 10
      },
      "occlusionTexture": {
        "index": 9
      },
      "pbrMetallicRoughness": {
        "baseColorTexture": {
          "index": 8
        },
        "metallicRoughnessTexture": {
          "index": 9
        }
      }
    },
    {
      "alphaMode": "OPAQUE",
      "emissiveFactor": [
        1.0,
        1.0,
        1.0
      ],
      "emissiveTexture": {
        "index": 15
      },
      "name": "04_D_Hardware",
      "normalTexture": {
        "index": 14
      },
      "occlusionTexture": {
        "index": 13
      },
      "pbrMetallicRoughness": {
        "baseColorTexture": {
          "index": 12
        },
        "metallicRoughnessTexture": {
          "index": 13
        }
      }
    },
    {
      "alphaMode": "OPAQUE",
      "emissiveFactor": [
        1.0,
        1.0,
        1.0
      ],
      "emissiveTexture": {
        "index": 19
      },
      "name": "04_D_Interior",
      "normalTexture": {
        "index": 18
      },
      "occlusionTexture": {
        "index": 17
      },
      "pbrMetallicRoughness": {
        "baseColorTexture": {
          "index": 16
        },
        "metallicRoughnessTexture": {
          "index": 17
        }
      }
    },
    {
      "alphaMode": "OPAQUE",
      "emissiveFactor": [
        1.0,
        1.0,
        1.0
      ],
      "emissiveTexture": {
        "index": 23
      },
      "name": "04_D_Sill",
      "normalTexture": {
        "index": 22
      },
      "occlusionTexture": {
        "index": 21
      },
      "pbrMetallicRoughness": {
        "baseColorTexture": {
          "index": 20
        },
        "metallicRoughnessTexture": {
          "index": 21
        }
      }
    },
    {
      "alphaMode": "OPAQUE",
      "emissiveFactor": [
        1.0,
        1.0,
        1.0
      ],
      "emissiveTexture": {
        "index": 27
      },
      "name": "04_D_Spacer",
      "normalTexture": {
        "index": 26
      },
      "occlusionTexture": {
        "index": 25
      },
      "pbrMetallicRoughness": {
        "baseColorTexture": {
          "index": 24
        },
        "metallicRoughnessTexture": {
          "index": 25
        }
      }
    }
  ],
  "meshes": [
    {
      "name": "04_D_Glass",
      "primitives": [
        {
          "attributes": {
            "NORMAL": 2,
            "POSITION": 1,
            "TEXCOORD_0": 3
          },
          "indices": 0,
          "material": 1,
          "mode": 4
        }
      ]
    },
    {
      "name": "04_D_Sill",
      "primitives": [
        {
          "attributes": {
            "NORMAL": 6,
            "POSITION": 5,
            "TEXCOORD_0": 7
          },
          "indices": 4,
          "material": 5,
          "mode": 4
        }
      ]
    },
    {
      "name": "04_D_Interior",
      "primitives": [
        {
          "attributes": {
            "NORMAL": 10,
            "POSITION": 9,
            "TEXCOORD_0": 11
          },
          "indices": 8,
          "material": 4,
          "mode": 4
        }
      ]
    },
    {
      "name": "04_D_Gray",
      "primitives": [
        {
          "attributes": {
            "NORMAL": 14,
            "POSITION": 13,
            "TEXCOORD_0": 15
          },
          "indices": 12,
          "material": 2,
          "mode": 4
        }
      ]
    },
    {
      "name": "04_D_Exterior",
      "primitives": [
        {
          "attributes": {
            "NORMAL": 18,
            "POSITION": 17,
            "TEXCOORD_0": 19
          },
          "indices": 16,
          "material": 0,
          "mode": 4
        }
      ]
    },
    {
      "name": "04_D_Hardware",
      "primitives": [
        {
          "attributes": {
            "NORMAL": 22,
            "POSITION": 21,
            "TEXCOORD_0": 23
          },
          "indices": 20,
          "material": 3,
          "mode": 4
        }
      ]
    },
    {
      "name": "04_D_Spacers",
      "primitives": [
        {
          "attributes": {
            "NORMAL": 26,
            "POSITION": 25,
            "TEXCOORD_0": 27
          },
          "indices": 24,
          "material": 6,
          "mode": 4
        }
      ]
    }
  ],
  "nodes": [
    {
      "children": [
        1,
        3,
        5,
        7,
        9,
        11,
        13
      ],
      "name": "root",
      "scale": [
        27.4793834686279,
        27.4793834686279,
        27.4793834686279
      ],
      "translation": [
        -0.002655029296875,
        27.479284286499,
        0.220285534858704
      ]
    },
    {
      "children": [
        2
      ],
      "name": "04_D_Glass"
    },
    {
      "mesh": 0,
      "name": "04_D_Glass"
    },
    {
      "children": [
        4
      ],
      "name": "04_D_Sill"
    },
    {
      "mesh": 1,
      "name": "04_D_Sill"
    },
    {
      "children": [
        6
      ],
      "name": "04_D_Interior"
    },
    {
      "mesh": 2,
      "name": "04_D_Interior"
    },
    {
      "children": [
        8
      ],
      "name": "04_D_Gray"
    },
    {
      "mesh": 3,
      "name": "04_D_Gray"
    },
    {
      "children": [
        10
      ],
      "name": "04_D_Exterior"
    },
    {
      "mesh": 4,
      "name": "04_D_Exterior"
    },
    {
      "children": [
        12
      ],
      "name": "04_D_Hardware"
    },
    {
      "mesh": 5,
      "name": "04_D_Hardware"
    },
    {
      "children": [
        14
      ],
      "name": "04_D_Spacers"
    },
    {
      "mesh": 6,
      "name": "04_D_Spacers"
    }
  ],
  "samplers": [
    {
      "magFilter": 9729,
      "minFilter": 9985,
      "wrapS": 10497,
      "wrapT": 10497
    }
  ],
  "scene": 0,
  "scenes": [
    {
      "name": "Scene",
      "nodes": [
        0
      ]
    }
  ],
  "textures": [
    {
      "sampler": 0,
      "source": 0
    },
    {
      "sampler": 0,
      "source": 1
    },
    {
      "sampler": 0,
      "source": 2
    },
    {
      "sampler": 0,
      "source": 3
    },
    {
      "sampler": 0,
      "source": 4
    },
    {
      "sampler": 0,
      "source": 5
    },
    {
      "sampler": 0,
      "source": 6
    },
    {
      "sampler": 0,
      "source": 7
    },
    {
      "sampler": 0,
      "source": 8
    },
    {
      "sampler": 0,
      "source": 9
    },
    {
      "sampler": 0,
      "source": 10
    },
    {
      "sampler": 0,
      "source": 11
    },
    {
      "sampler": 0,
      "source": 12
    },
    {
      "sampler": 0,
      "source": 13
    },
    {
      "sampler": 0,
      "source": 14
    },
    {
      "sampler": 0,
      "source": 15
    },
    {
      "sampler": 0,
      "source": 16
    },
    {
      "sampler": 0,
      "source": 17
    },
    {
      "sampler": 0,
      "source": 18
    },
    {
      "sampler": 0,
      "source": 19
    },
    {
      "sampler": 0,
      "source": 20
    },
    {
      "sampler": 0,
      "source": 21
    },
    {
      "sampler": 0,
      "source": 22
    },
    {
      "sampler": 0,
      "source": 23
    },
    {
      "sampler": 0,
      "source": 24
    },
    {
      "sampler": 0,
      "source": 25
    },
    {
      "sampler": 0,
      "source": 26
    },
    {
      "sampler": 0,
      "source": 27
    }
  ]
}