{
  "accessors": [
    {
      "bufferView": 0,
      "componentType": 5125,
      "count": 1248,
      "type": "SCALAR"
    },
    {
      "bufferView": 1,
      "componentType": 5126,
      "count": 592,
      "max": [
        0.732233762741089,
        0.862844884395599,
        0.0323592163622379
      ],
      "min": [
        -0.744912922382355,
        -0.731113433837891,
        -0.0443632714450359
      ],
      "type": "VEC3"
    },
    {
      "bufferView": 2,
      "componentType": 5126,
      "count": 592,
      "type": "VEC3"
    },
    {
      "bufferView": 3,
      "componentType": 5126,
      "count": 592,
      "type": "VEC2"
    },
    {
      "bufferView": 4,
      "componentType": 5125,
      "count": 14580,
      "type": "SCALAR"
    },
    {
      "bufferView": 5,
      "componentType": 5126,
      "count": 4041,
      "max": [
        0.795110821723938,
        0.193045035004616,
        0.0988178327679634
      ],
      "min": [
        0.727045834064484,
        -0.189182087779045,
        -0.0436049737036228
      ],
      "type": "VEC3"
    },
    {
      "bufferView": 6,
      "componentType": 5126,
      "count": 4041,
      "type": "VEC3"
    },
    {
      "bufferView": 7,
      "componentType": 5126,
      "count": 4041,
      "type": "VEC2"
    },
    {
      "bufferView": 8,
      "componentType": 5125,
      "count": 18093,
      "type": "SCALAR"
    },
    {
      "bufferView": 9,
      "componentType": 5126,
      "count": 7232,
      "max": [
        0.868966698646545,
        1.0,
        0.0400473885238171
      ],
      "min": [
        -0.868966639041901,
        -0.99557501077652,
        -0.0900340378284454
      ],
      "type": "VEC3"
    },
    {
      "bufferView": 10,
      "componentType": 5126,
      "count": 7232,
      "type": "VEC3"
    },
    {
      "bufferView": 11,
      "componentType": 5126,
      "count": 7232,
      "type": "VEC2"
    },
    {
      "bufferView": 12,
      "componentType": 5125,
      "count": 9528,
      "type": "SCALAR"
    },
    {
      "bufferView": 13,
      "componentType": 5126,
      "count": 4310,
      "max": [
        0.852959752082825,
        0.982297360897064,
        0.0639120861887932
      ],
      "min": [
        -0.846769630908966,
        -0.97060751914978,
        -0.0590230487287045
      ],
      "type": "VEC3"
    },
    {
      "bufferView": 14,
      "componentType": 5126,
      "count": 4310,
      "type": "VEC3"
    },
    {
      "bufferView": 15,
      "componentType": 5126,
      "count": 4310,
      "type": "VEC2"
    },
    {
      "bufferView": 16,
      "componentType": 5125,
      "count": 14223,
      "type": "SCALAR"
    },
    {
      "bufferView": 17,
      "componentType": 5126,
      "count": 5807,
      "max": [
        0.868966698646545,
        1.0,
        0.0687501356005669
      ],
      "min": [
        -0.868966341018677,
        -0.995676219463348,
        -0.0496597811579704
      ],
      "type": "VEC3"
    },
    {
      "bufferView": 18,
      "componentType": 5126,
      "count": 5807,
      "type": "VEC3"
    },
    {
      "bufferView": 19,
      "componentType": 5126,
      "count": 5807,
      "type": "VEC2"
    },
    {
      "bufferView": 20,
      "componentType": 5125,
      "count": 5442,
      "type": "SCALAR"
    },
    {
      "bufferView": 21,
      "componentType": 5126,
      "count": 2318,
      "max": [
        0.868965983390808,
        -0.927483737468719,
        0.0687499865889549
      ],
      "min": [
        -0.868966341018677,
        -1.0,
        -0.0988178327679634
      ],
      "type": "VEC3"
    },
    {
      "bufferView": 22,
      "componentType": 5126,
      "count": 2318,
      "type": "VEC3"
    },
    {
      "bufferView": 23,
      "componentType": 5126,
      "count": 2318,
      "type": "VEC2"
    },
    {
      "bufferView": 24,
      "componentType": 5125,
      "count": 144,
      "type": "SCALAR"
    },
    {
      "bufferView": 25,
      "componentType": 5126,
      "count": 96,
      "max": [
        0.734548032283783,
        0.871424496173859,
        0.0360434800386429
      ],
      "min": [
        -0.748777389526367,
        -0.732675671577454,
        -0.0487230271100998
      ],
      "type": "VEC3"
    },
    {
      "bufferView": 26,
      "componentType": 5126,
      "count": 96,
      "type": "VEC3"
    },
    {
      "bufferView": 27,
      "componentType": 5126,
      "count": 96,
      "type": "VEC2"
    }
  ],
  "asset": {
    "generator": "Substance Painter 2019.2.1",
    "version": "2.0"
  },
  "bufferViews": [
    {
      "buffer": 0,
      "byteLength": 4992,
      "target": 34963
    },
    {
      "buffer": 0,
      "byteLength": 7104,
      "byteOffset": 4992,
      "target": 34962
    },
    {
      "buffer": 0,
      "byteLength": 7104,
      "byteOffset": 12096,
      "target": 34962
    },
    {
      "buffer": 0,
      "byteLength": 4736,
      "byteOffset": 19200,
      "target": 34962
    },
    {
      "buffer": 0,
      "byteLength": 58320,
      "byteOffset": 23936,
      "target": 34963
    },
    {
      "buffer": 0,
      "byteLength": 48492,
      "byteOffset": 82256,
      "target": 34962
    },
    {
      "buffer": 0,
      "byteLength": 48492,
      "byteOffset": 130748,
      "target": 34962
    },
    {
      "buffer": 0,
      "byteLength": 32328,
      "byteOffset": 179240,
      "target": 34962
    },
    {
      "buffer": 0,
      "byteLength": 72372,
      "byteOffset": 211568,
      "target": 34963
    },
    {
      "buffer": 0,
      "byteLength": 86784,
      "byteOffset": 283940,
      "target": 34962
    },
    {
      "buffer": 0,
      "byteLength": 86784,
      "byteOffset": 370724,
      "target": 34962
    },
    {
      "buffer": 0,
      "byteLength": 57856,
      "byteOffset": 457508,
      "target": 34962
    },
    {
      "buffer": 0,
      "byteLength": 38112,
      "byteOffset": 515364,
      "target": 34963
    },
    {
      "buffer": 0,
      "byteLength": 51720,
      "byteOffset": 553476,
      "target": 34962
    },
    {
      "buffer": 0,
      "byteLength": 51720,
      "byteOffset": 605196,
      "target": 34962
    },
    {
      "buffer": 0,
      "byteLength": 34480,
      "byteOffset": 656916,
      "target": 34962
    },
    {
      "buffer": 0,
      "byteLength": 56892,
      "byteOffset": 691396,
      "target": 34963
    },
    {
      "buffer": 0,
      "byteLength": 69684,
      "byteOffset": 748288,
      "target": 34962
    },
    {
      "buffer": 0,
      "byteLength": 69684,
      "byteOffset": 817972,
      "target": 34962
    },
    {
      "buffer": 0,
      "byteLength": 46456,
      "byteOffset": 887656,
      "target": 34962
    },
    {
      "buffer": 0,
      "byteLength": 21768,
      "byteOffset": 934112,
      "target": 34963
    },
    {
      "buffer": 0,
      "byteLength": 27816,
      "byteOffset": 955880,
      "target": 34962
    },
    {
      "buffer": 0,
      "byteLength": 27816,
      "byteOffset": 983696,
      "target": 34962
    },
    {
      "buffer": 0,
      "byteLength": 18544,
      "byteOffset": 1011512,
      "target": 34962
    },
    {
      "buffer": 0,
      "byteLength": 576,
      "byteOffset": 1030056,
      "target": 34963
    },
    {
      "buffer": 0,
      "byteLength": 1152,
      "byteOffset": 1030632,
      "target": 34962
    },
    {
      "buffer": 0,
      "byteLength": 1152,
      "byteOffset": 1031784,
      "target": 34962
    },
    {
      "buffer": 0,
      "byteLength": 768,
      "byteOffset": 1032936,
      "target": 34962
    }
  ],
  "buffers": [
    {
      "byteLength": 1033704,
      "uri": "04_D_Agliding_v01.bin"
    }
  ],
  "images": [
    {
      "uri": "04_D_Exterior_baseColor.png"
    },
    {
      "uri": "04_D_Exterior_occlusionRoughnessMetallic.png"
    },
    {
      "uri": "04_D_Exterior_normal.png"
    },
    {
      "uri": "04_D_Exterior_emissive.png"
    },
    {
      "uri": "04_D_Glass_baseColor.png"
    },
    {
      "uri": "04_D_Glass_occlusionRoughnessMetallic.png"
    },
    {
      "uri": "04_D_Glass_normal.png"
    },
    {
      "uri": "04_D_Glass_emissive.png"
    },
    {
      "uri": "04_D_Gray_baseColor.png"
    },
    {
      "uri": "04_D_Gray_occlusionRoughnessMetallic.png"
    },
    {
      "uri": "04_D_Gray_normal.png"
    },
    {
      "uri": "04_D_Gray_emissive.png"
    },
    {
      "uri": "04_D_Hardware_baseColor.png"
    },
    {
      "uri": "04_D_Hardware_occlusionRoughnessMetallic.png"
    },
    {
      "uri": "04_D_Hardware_normal.png"
    },
    {
      "uri": "04_D_Hardware_emissive.png"
    },
    {
      "uri": "04_D_Interior_baseColor.png"
    },
    {
      "uri": "04_D_Interior_occlusionRoughnessMetallic.png"
    },
    {
      "uri": "04_D_Interior_normal.png"
    },
    {
      "uri": "04_D_Interior_emissive.png"
    },
    {
      "uri": "04_D_Sill_baseColor.png"
    },
    {
      "uri": "04_D_Sill_occlusionRoughnessMetallic.png"
    },
    {
      "uri": "04_D_Sill_normal.png"
    },
    {
      "uri": "04_D_Sill_emissive.png"
    },
    {
      "uri": "04_D_Spacer_baseColor.png"
    },
    {
      "uri": "04_D_Spacer_occlusionRoughnessMetallic.png"
    },
    {
      "uri": "04_D_Spacer_normal.png"
    }
  ],
  "materials": [
    {
      "alphaMode": "OPAQUE",
      "emissiveFactor": [
        1.0,
        1.0,
        1.0
      ],
      "emissiveTexture": {
        "index": 3
      },
      "name": "04_D_Exterior",
      "normalTexture": {
        "index": 2
      },
      "occlusionTexture": {
        "index": 1
      },
      "pbrMetallicRoughness": {
        "baseColorTexture": {
          "index": 0
        },
        "metallicRoughnessTexture": {
          "index": 1
        }
      }
    },
    {
      "alphaMode": "BLEND",
      "emissiveFactor": [
        1.0,
        1.0,
        1.0
      ],
      "emissiveTexture": {
        "index": 7
      },
      "name": "04_D_Glass",
      "normalTexture": {
        "index": 6
      },
      "occlusionTexture": {
        "index": 5
      },
      "pbrMetallicRoughness": {
        "baseColorTexture": {
          "index": 4
        },
        "metallicRoughnessTexture": {
          "index": 5
        }
      }
    },
    {
      "alphaMode": "OPAQUE",
      "emissiveFactor": [
        1.0,
        1.0,
        1.0
      ],
      "emissiveTexture": {
        "index": 11
      },
      "name": "04_D_Gray",
      "normalTexture": {
        "index": 10
      },
      "occlusionTexture": {
        "index": 9
      },
      "pbrMetallicRoughness": {
        "baseColorTexture": {
          "index": 8
        },
        "metallicRoughnessTexture": {
          "index": 9
        }
      }
    },
    {
      "alphaMode": "OPAQUE",
      "emissiveFactor": [
        1.0,
        1.0,
        1.0
      ],
      "emissiveTexture": {
        "index": 15
      },
      "name": "04_D_Hardware",
      "normalTexture": {
        "index": 14
      },
      "occlusionTexture": {
        "index": 13
      },
      "pbrMetallicRoughness": {
        "baseColorTexture": {
          "index": 12
        },
        "metallicRoughnessTexture": {
          "index": 13
        }
      }
    },
    {
      "alphaMode": "OPAQUE",
      "emissiveFactor": [
        1.0,
        1.0,
        1.0
      ],
      "emissiveTexture": {
        "index": 19
      },
      "name": "04_D_Interior",
      "normalTexture": {
        "index": 18
      },
      "occlusionTexture": {
        "index": 17
      },
      "pbrMetallicRoughness": {
        "baseColorTexture": {
          "index": 16
        },
        "metallicRoughnessTexture": {
          "index": 17
        }
      }
    },
    {
      "alphaMode": "OPAQUE",
      "emissiveFactor": [
        1.0,
        1.0,
        1.0
      ],
      "emissiveTexture": {
        "index": 23
      },
      "name": "04_D_Sill",
      "normalTexture": {
        "index": 22
      },
      "occlusionTexture": {
        "index": 21
      },
      "pbrMetallicRoughness": {
        "baseColorTexture": {
          "index": 20
        },
        "metallicRoughnessTexture": {
          "index": 21
        }
      }
    },
    {
      "alphaMode": "OPAQUE",
      "name": "04_D_Spacer",
      "normalTexture": {
        "index": 26
      },
      "occlusionTexture": {
        "index": 25
      },
      "pbrMetallicRoughness": {
        "baseColorTexture": {
          "index": 24
        },
        "metallicRoughnessTexture": {
          "index": 25
        }
      }
    }
  ],
  "meshes": [
    {
      "name": "04_D_Spacers",
      "primitives": [
        {
          "attributes": {
            "NORMAL": 2,
            "POSITION": 1,
            "TEXCOORD_0": 3
          },
          "indices": 0,
          "material": 6,
          "mode": 4
        }
      ]
    },
    {
      "name": "04_D_Hardware",
      "primitives": [
        {
          "attributes": {
            "NORMAL": 6,
            "POSITION": 5,
            "TEXCOORD_0": 7
          },
          "indices": 4,
          "material": 3,
          "mode": 4
        }
      ]
    },
    {
      "name": "04_D_Exterior",
      "primitives": [
        {
          "attributes": {
            "NORMAL": 10,
            "POSITION": 9,
            "TEXCOORD_0": 11
          },
          "indices": 8,
          "material": 0,
          "mode": 4
        }
      ]
    },
    {
      "name": "04_D_Gray",
      "primitives": [
        {
          "attributes": {
            "NORMAL": 14,
            "POSITION": 13,
            "TEXCOORD_0": 15
          },
          "indices": 12,
          "material": 2,
          "mode": 4
        }
      ]
    },
    {
      "name": "04_D_Interior",
      "primitives": [
        {
          "attributes": {
            "NORMAL": 18,
            "POSITION": 17,
            "TEXCOORD_0": 19
          },
          "indices": 16,
          "material": 4,
          "mode": 4
        }
      ]
    },
    {
      "name": "04_D_Sill",
      "primitives": [
        {
          "attributes": {
            "NORMAL": 22,
            "POSITION": 21,
            "TEXCOORD_0": 23
          },
          "indices": 20,
          "material": 5,
          "mode": 4
        }
      ]
    },
    {
      "name": "04_D_Glass",
      "primitives": [
        {
          "attributes": {
            "NORMAL": 26,
            "POSITION": 25,
            "TEXCOORD_0": 27
          },
          "indices": 24,
          "material": 1,
          "mode": 4
        }
      ]
    }
  ],
  "nodes": [
    {
      "children": [
        1,
        3,
        5,
        7,
        9,
        11,
        13
      ],
      "name": "root",
      "scale": [
        1.04366111755371,
        1.04366111755371,
        1.04366111755371
      ],
      "translation": [
        -0.0900481939315796,
        1.04559826850891,
        0.00598288327455521
      ]
    },
    {
      "children": [
        2
      ],
      "name": "04_D_Spacers"
    },
    {
      "mesh": 0,
      "name": "04_D_Spacers"
    },
    {
      "children": [
        4
      ],
      "name": "04_D_Hardware"
    },
    {
      "mesh": 1,
      "name": "04_D_Hardware"
    },
    {
      "children": [
        6
      ],
      "name": "04_D_Exterior"
    },
    {
      "mesh": 2,
      "name": "04_D_Exterior"
    },
    {
      "children": [
        8
      ],
      "name": "04_D_Gray"
    },
    {
      "mesh": 3,
      "name": "04_D_Gray"
    },
    {
      "children": [
        10
      ],
      "name": "04_D_Interior"
    },
    {
      "mesh": 4,
      "name": "04_D_Interior"
    },
    {
      "children": [
        12
      ],
      "name": "04_D_Sill"
    },
    {
      "mesh": 5,
      "name": "04_D_Sill"
    },
    {
      "children": [
        14
      ],
      "name": "04_D_Glass"
    },
    {
      "mesh": 6,
      "name": "04_D_Glass"
    }
  ],
  "samplers": [
    {
      "magFilter": 9729,
      "minFilter": 9985,
      "wrapS": 10497,
      "wrapT": 10497
    }
  ],
  "scene": 0,
  "scenes": [
    {
      "name": "Scene",
      "nodes": [
        0
      ]
    }
  ],
  "textures": [
    {
      "sampler": 0,
      "source": 0
    },
    {
      "sampler": 0,
      "source": 1
    },
    {
      "sampler": 0,
      "source": 2
    },
    {
      "sampler": 0,
      "source": 3
    },
    {
      "sampler": 0,
      "source": 4
    },
    {
      "sampler": 0,
      "source": 5
    },
    {
      "sampler": 0,
      "source": 6
    },
    {
      "sampler": 0,
      "source": 7
    },
    {
      "sampler": 0,
      "source": 8
    },
    {
      "sampler": 0,
      "source": 9
    },
    {
      "sampler": 0,
      "source": 10
    },
    {
      "sampler": 0,
      "source": 11
    },
    {
      "sampler": 0,
      "source": 12
    },
    {
      "sampler": 0,
      "source": 13
    },
    {
      "sampler": 0,
      "source": 14
    },
    {
      "sampler": 0,
      "source": 15
    },
    {
      "sampler": 0,
      "source": 16
    },
    {
      "sampler": 0,
      "source": 17
    },
    {
      "sampler": 0,
      "source": 18
    },
    {
      "sampler": 0,
      "source": 19
    },
    {
      "sampler": 0,
      "source": 20
    },
    {
      "sampler": 0,
      "source": 21
    },
    {
      "sampler": 0,
      "source": 22
    },
    {
      "sampler": 0,
      "source": 23
    },
    {
      "sampler": 0,
      "source": 24
    },
    {
      "sampler": 0,
      "source": 25
    },
    {
      "sampler": 0,
      "source": 26
    }
  ]
}