{
  "accessors": [
    {
      "bufferView": 0,
      "componentType": 5125,
      "count": 9186,
      "type": "SCALAR"
    },
    {
      "bufferView": 1,
      "componentType": 5126,
      "count": 6680,
      "max": [
        2.52249789237976,
        4.07223224639893,
        0.00206917524337769
      ],
      "min": [
        -2.51840972900391,
        -1.0005030632019,
        -0.306529760360718
      ],
      "type": "VEC3"
    },
    {
      "bufferView": 2,
      "componentType": 5126,
      "count": 6680,
      "type": "VEC3"
    },
    {
      "bufferView": 3,
      "componentType": 5126,
      "count": 6680,
      "type": "VEC2"
    },
    {
      "bufferView": 4,
      "componentType": 5125,
      "count": 5631,
      "type": "SCALAR"
    },
    {
      "bufferView": 5,
      "componentType": 5126,
      "count": 4544,
      "max": [
        2.51709294319153,
        4.0091986656189,
        -0.10200010985136
      ],
      "min": [
        -2.49810934066772,
        -0.972219288349152,
        -0.280218005180359
      ],
      "type": "VEC3"
    },
    {
      "bufferView": 6,
      "componentType": 5126,
      "count": 4544,
      "type": "VEC3"
    },
    {
      "bufferView": 7,
      "componentType": 5126,
      "count": 4544,
      "type": "VEC2"
    },
    {
      "bufferView": 8,
      "componentType": 5125,
      "count": 21984,
      "type": "SCALAR"
    },
    {
      "bufferView": 9,
      "componentType": 5126,
      "count": 16744,
      "max": [
        2.52249836921692,
        4.07223224639893,
        -0.0433090552687645
      ],
      "min": [
        -2.51881957054138,
        -1.0005030632019,
        -0.329771935939789
      ],
      "type": "VEC3"
    },
    {
      "bufferView": 10,
      "componentType": 5126,
      "count": 16744,
      "type": "VEC3"
    },
    {
      "bufferView": 11,
      "componentType": 5126,
      "count": 16744,
      "type": "VEC2"
    },
    {
      "bufferView": 12,
      "componentType": 5125,
      "count": 720,
      "type": "SCALAR"
    },
    {
      "bufferView": 13,
      "componentType": 5126,
      "count": 500,
      "max": [
        2.30359220504761,
        3.83699107170105,
        -0.194974094629288
      ],
      "min": [
        -2.27146100997925,
        -0.773229360580444,
        -0.242551296949387
      ],
      "type": "VEC3"
    },
    {
      "bufferView": 14,
      "componentType": 5126,
      "count": 500,
      "type": "VEC3"
    },
    {
      "bufferView": 15,
      "componentType": 5126,
      "count": 500,
      "type": "VEC2"
    },
    {
      "bufferView": 16,
      "componentType": 5125,
      "count": 48,
      "type": "SCALAR"
    },
    {
      "bufferView": 17,
      "componentType": 5126,
      "count": 32,
      "max": [
        2.30319404602051,
        3.84669899940491,
        -0.193225428462029
      ],
      "min": [
        -2.28217792510986,
        -0.773460984230042,
        -0.258042901754379
      ],
      "type": "VEC3"
    },
    {
      "bufferView": 18,
      "componentType": 5126,
      "count": 32,
      "type": "VEC3"
    },
    {
      "bufferView": 19,
      "componentType": 5126,
      "count": 32,
      "type": "VEC2"
    },
    {
      "bufferView": 20,
      "componentType": 5125,
      "count": 10128,
      "type": "SCALAR"
    },
    {
      "bufferView": 21,
      "componentType": 5126,
      "count": 8556,
      "max": [
        2.06909584999084,
        -0.0286655426025391,
        0.0712524354457855
      ],
      "min": [
        -2.20500326156616,
        -0.912881791591644,
        -0.237450271844864
      ],
      "type": "VEC3"
    },
    {
      "bufferView": 22,
      "componentType": 5126,
      "count": 8556,
      "type": "VEC3"
    },
    {
      "bufferView": 23,
      "componentType": 5126,
      "count": 8556,
      "type": "VEC2"
    }
  ],
  "asset": {
    "generator": "Substance Painter 2019.2.1",
    "version": "2.0"
  },
  "bufferViews": [
    {
      "buffer": 0,
      "byteLength": 36744,
      "target": 34963
    },
    {
      "buffer": 0,
      "byteLength": 80160,
      "byteOffset": 36744,
      "target": 34962
    },
    {
      "buffer": 0,
      "byteLength": 80160,
      "byteOffset": 116904,
      "target": 34962
    },
    {
      "buffer": 0,
      "byteLength": 53440,
      "byteOffset": 197064,
      "target": 34962
    },
    {
      "buffer": 0,
      "byteLength": 22524,
      "byteOffset": 250504,
      "target": 34963
    },
    {
      "buffer": 0,
      "byteLength": 54528,
      "byteOffset": 273028,
      "target": 34962
    },
    {
      "buffer": 0,
      "byteLength": 54528,
      "byteOffset": 327556,
      "target": 34962
    },
    {
      "buffer": 0,
      "byteLength": 36352,
      "byteOffset": 382084,
      "target": 34962
    },
    {
      "buffer": 0,
      "byteLength": 87936,
      "byteOffset": 418436,
      "target": 34963
    },
    {
      "buffer": 0,
      "byteLength": 200928,
      "byteOffset": 506372,
      "target": 34962
    },
    {
      "buffer": 0,
      "byteLength": 200928,
      "byteOffset": 707300,
      "target": 34962
    },
    {
      "buffer": 0,
      "byteLength": 133952,
      "byteOffset": 908228,
      "target": 34962
    },
    {
      "buffer": 0,
      "byteLength": 2880,
      "byteOffset": 1042180,
      "target": 34963
    },
    {
      "buffer": 0,
      "byteLength": 6000,
      "byteOffset": 1045060,
      "target": 34962
    },
    {
      "buffer": 0,
      "byteLength": 6000,
      "byteOffset": 1051060,
      "target": 34962
    },
    {
      "buffer": 0,
      "byteLength": 4000,
      "byteOffset": 1057060,
      "target": 34962
    },
    {
      "buffer": 0,
      "byteLength": 192,
      "byteOffset": 1061060,
      "target": 34963
    },
    {
      "buffer": 0,
      "byteLength": 384,
      "byteOffset": 1061252,
      "target": 34962
    },
    {
      "buffer": 0,
      "byteLength": 384,
      "byteOffset": 1061636,
      "target": 34962
    },
    {
      "buffer": 0,
      "byteLength": 256,
      "byteOffset": 1062020,
      "target": 34962
    },
    {
      "buffer": 0,
      "byteLength": 40512,
      "byteOffset": 1062276,
      "target": 34963
    },
    {
      "buffer": 0,
      "byteLength": 102672,
      "byteOffset": 1102788,
      "target": 34962
    },
    {
      "buffer": 0,
      "byteLength": 102672,
      "byteOffset": 1205460,
      "target": 34962
    },
    {
      "buffer": 0,
      "byteLength": 68448,
      "byteOffset": 1308132,
      "target": 34962
    }
  ],
  "buffers": [
    {
      "byteLength": 1376580,
      "uri": "20_W_CasementDouble_v01.bin"
    }
  ],
  "images": [
    {
      "uri": "20_W_Exterior_baseColor.png"
    },
    {
      "uri": "20_W_Exterior_occlusionRoughnessMetallic.png"
    },
    {
      "uri": "20_W_Exterior_normal.png"
    },
    {
      "uri": "20_W_Exterior_emissive.png"
    },
    {
      "uri": "20_W_Glass_baseColor.png"
    },
    {
      "uri": "20_W_Glass_occlusionRoughnessMetallic.png"
    },
    {
      "uri": "20_W_Glass_normal.png"
    },
    {
      "uri": "20_W_Glass_emissive.png"
    },
    {
      "uri": "20_W_Gray_baseColor.png"
    },
    {
      "uri": "20_W_Gray_occlusionRoughnessMetallic.png"
    },
    {
      "uri": "20_W_Gray_normal.png"
    },
    {
      "uri": "20_W_Gray_emissive.png"
    },
    {
      "uri": "20_W_Hardware_baseColor.png"
    },
    {
      "uri": "20_W_Hardware_occlusionRoughnessMetallic.png"
    },
    {
      "uri": "20_W_Hardware_normal.png"
    },
    {
      "uri": "20_W_Hardware_emissive.png"
    },
    {
      "uri": "20_W_Interior_baseColor.png"
    },
    {
      "uri": "20_W_Interior_occlusionRoughnessMetallic.png"
    },
    {
      "uri": "20_W_Interior_normal.png"
    },
    {
      "uri": "20_W_Interior_emissive.png"
    },
    {
      "uri": "20_W_Spacers_baseColor.png"
    },
    {
      "uri": "20_W_Spacers_occlusionRoughnessMetallic.png"
    },
    {
      "uri": "20_W_Spacers_normal.png"
    },
    {
      "uri": "20_W_Spacers_emissive.png"
    }
  ],
  "materials": [
    {
      "alphaMode": "OPAQUE",
      "emissiveFactor": [
        1.0,
        1.0,
        1.0
      ],
      "emissiveTexture": {
        "index": 3
      },
      "name": "20_W_Exterior",
      "normalTexture": {
        "index": 2
      },
      "occlusionTexture": {
        "index": 1
      },
      "pbrMetallicRoughness": {
        "baseColorTexture": {
          "index": 0
        },
        "metallicRoughnessTexture": {
          "index": 1
        }
      }
    },
    {
      "alphaMode": "BLEND",
      "emissiveFactor": [
        1.0,
        1.0,
        1.0
      ],
      "emissiveTexture": {
        "index": 7
      },
      "name": "20_W_Glass",
      "normalTexture": {
        "index": 6
      },
      "occlusionTexture": {
        "index": 5
      },
      "pbrMetallicRoughness": {
        "baseColorTexture": {
          "index": 4
        },
        "metallicRoughnessTexture": {
          "index": 5
        }
      }
    },
    {
      "alphaMode": "OPAQUE",
      "emissiveFactor": [
        1.0,
        1.0,
        1.0
      ],
      "emissiveTexture": {
        "index": 11
      },
      "name": "20_W_Gray",
      "normalTexture": {
        "index": 10
      },
      "occlusionTexture": {
        "index": 9
      },
      "pbrMetallicRoughness": {
        "baseColorTexture": {
          "index": 8
        },
        "metallicRoughnessTexture": {
          "index": 9
        }
      }
    },
    {
      "alphaMode": "OPAQUE",
      "emissiveFactor": [
        1.0,
        1.0,
        1.0
      ],
      "emissiveTexture": {
        "index": 15
      },
      "name": "20_W_Hardware",
      "normalTexture": {
        "index": 14
      },
      "occlusionTexture": {
        "index": 13
      },
      "pbrMetallicRoughness": {
        "baseColorTexture": {
          "index": 12
        },
        "metallicRoughnessTexture": {
          "index": 13
        }
      }
    },
    {
      "alphaMode": "OPAQUE",
      "emissiveFactor": [
        1.0,
        1.0,
        1.0
      ],
      "emissiveTexture": {
        "index": 19
      },
      "name": "20_W_Interior",
      "normalTexture": {
        "index": 18
      },
      "occlusionTexture": {
        "index": 17
      },
      "pbrMetallicRoughness": {
        "baseColorTexture": {
          "index": 16
        },
        "metallicRoughnessTexture": {
          "index": 17
        }
      }
    },
    {
      "alphaMode": "OPAQUE",
      "emissiveFactor": [
        1.0,
        1.0,
        1.0
      ],
      "emissiveTexture": {
        "index": 23
      },
      "name": "20_W_Spacers",
      "normalTexture": {
        "index": 22
      },
      "occlusionTexture": {
        "index": 21
      },
      "pbrMetallicRoughness": {
        "baseColorTexture": {
          "index": 20
        },
        "metallicRoughnessTexture": {
          "index": 21
        }
      }
    }
  ],
  "meshes": [
    {
      "name": "20_W_Interior",
      "primitives": [
        {
          "attributes": {
            "NORMAL": 2,
            "POSITION": 1,
            "TEXCOORD_0": 3
          },
          "indices": 0,
          "material": 4,
          "mode": 4
        }
      ]
    },
    {
      "name": "20_W_Gray",
      "primitives": [
        {
          "attributes": {
            "NORMAL": 6,
            "POSITION": 5,
            "TEXCOORD_0": 7
          },
          "indices": 4,
          "material": 2,
          "mode": 4
        }
      ]
    },
    {
      "name": "20_W_Exterior",
      "primitives": [
        {
          "attributes": {
            "NORMAL": 10,
            "POSITION": 9,
            "TEXCOORD_0": 11
          },
          "indices": 8,
          "material": 0,
          "mode": 4
        }
      ]
    },
    {
      "name": "20_W_Spacers",
      "primitives": [
        {
          "attributes": {
            "NORMAL": 14,
            "POSITION": 13,
            "TEXCOORD_0": 15
          },
          "indices": 12,
          "material": 5,
          "mode": 4
        }
      ]
    },
    {
      "name": "20_W_Glass",
      "primitives": [
        {
          "attributes": {
            "NORMAL": 18,
            "POSITION": 17,
            "TEXCOORD_0": 19
          },
          "indices": 16,
          "material": 1,
          "mode": 4
        }
      ]
    },
    {
      "name": "20_W_Hardware",
      "primitives": [
        {
          "attributes": {
            "NORMAL": 22,
            "POSITION": 21,
            "TEXCOORD_0": 23
          },
          "indices": 20,
          "material": 3,
          "mode": 4
        }
      ]
    }
  ],
  "nodes": [
    {
      "children": [
        1,
        3,
        5,
        7,
        9,
        11
      ],
      "name": "root",
      "scale": [
        0.243755266070366,
        0.243755266070366,
        0.243755266070366
      ],
      "translation": [
        0.000291824340820313,
        0.243675455451012,
        0.038194552063942
      ]
    },
    {
      "children": [
        2
      ],
      "name": "20_W_Interior"
    },
    {
      "mesh": 0,
      "name": "20_W_Interior"
    },
    {
      "children": [
        4
      ],
      "name": "20_W_Gray"
    },
    {
      "mesh": 1,
      "name": "20_W_Gray"
    },
    {
      "children": [
        6
      ],
      "name": "20_W_Exterior"
    },
    {
      "mesh": 2,
      "name": "20_W_Exterior"
    },
    {
      "children": [
        8
      ],
      "name": "20_W_Spacers"
    },
    {
      "mesh": 3,
      "name": "20_W_Spacers"
    },
    {
      "children": [
        10
      ],
      "name": "20_W_Glass"
    },
    {
      "mesh": 4,
      "name": "20_W_Glass"
    },
    {
      "children": [
        12
      ],
      "name": "20_W_Hardware"
    },
    {
      "mesh": 5,
      "name": "20_W_Hardware"
    }
  ],
  "samplers": [
    {
      "magFilter": 9729,
      "minFilter": 9985,
      "wrapS": 10497,
      "wrapT": 10497
    }
  ],
  "scene": 0,
  "scenes": [
    {
      "name": "Scene",
      "nodes": [
        0
      ]
    }
  ],
  "textures": [
    {
      "sampler": 0,
      "source": 0
    },
    {
      "sampler": 0,
      "source": 1
    },
    {
      "sampler": 0,
      "source": 2
    },
    {
      "sampler": 0,
      "source": 3
    },
    {
      "sampler": 0,
      "source": 4
    },
    {
      "sampler": 0,
      "source": 5
    },
    {
      "sampler": 0,
      "source": 6
    },
    {
      "sampler": 0,
      "source": 7
    },
    {
      "sampler": 0,
      "source": 8
    },
    {
      "sampler": 0,
      "source": 9
    },
    {
      "sampler": 0,
      "source": 10
    },
    {
      "sampler": 0,
      "source": 11
    },
    {
      "sampler": 0,
      "source": 12
    },
    {
      "sampler": 0,
      "source": 13
    },
    {
      "sampler": 0,
      "source": 14
    },
    {
      "sampler": 0,
      "source": 15
    },
    {
      "sampler": 0,
      "source": 16
    },
    {
      "sampler": 0,
      "source": 17
    },
    {
      "sampler": 0,
      "source": 18
    },
    {
      "sampler": 0,
      "source": 19
    },
    {
      "sampler": 0,
      "source": 20
    },
    {
      "sampler": 0,
      "source": 21
    },
    {
      "sampler": 0,
      "source": 22
    },
    {
      "sampler": 0,
      "source": 23
    }
  ]
}