{
  "accessors": [
    {
      "bufferView": 0,
      "componentType": 5125,
      "count": 9186,
      "type": "SCALAR"
    },
    {
      "bufferView": 1,
      "componentType": 5126,
      "count": 6653,
      "max": [
        0.993806481361389,
        1.0,
        0.0517783313989639
      ],
      "min": [
        -0.993645071983337,
        -1.0,
        -0.0698913112282753
      ],
      "type": "VEC3"
    },
    {
      "bufferView": 2,
      "componentType": 5126,
      "count": 6653,
      "type": "VEC3"
    },
    {
      "bufferView": 3,
      "componentType": 5126,
      "count": 6653,
      "type": "VEC2"
    },
    {
      "bufferView": 4,
      "componentType": 5125,
      "count": 5631,
      "type": "SCALAR"
    },
    {
      "bufferView": 5,
      "componentType": 5126,
      "count": 4551,
      "max": [
        0.99167537689209,
        0.975148022174835,
        0.010747492313385
      ],
      "min": [
        -0.985641360282898,
        -0.988848745822906,
        -0.0595175176858902
      ],
      "type": "VEC3"
    },
    {
      "bufferView": 6,
      "componentType": 5126,
      "count": 4551,
      "type": "VEC3"
    },
    {
      "bufferView": 7,
      "componentType": 5126,
      "count": 4551,
      "type": "VEC2"
    },
    {
      "bufferView": 8,
      "componentType": 5125,
      "count": 21984,
      "type": "SCALAR"
    },
    {
      "bufferView": 9,
      "componentType": 5126,
      "count": 16732,
      "max": [
        0.993806540966034,
        1.0,
        0.0338873118162155
      ],
      "min": [
        -0.993806600570679,
        -1.0,
        -0.0790548771619797
      ],
      "type": "VEC3"
    },
    {
      "bufferView": 10,
      "componentType": 5126,
      "count": 16732,
      "type": "VEC3"
    },
    {
      "bufferView": 11,
      "componentType": 5126,
      "count": 16732,
      "type": "VEC2"
    },
    {
      "bufferView": 12,
      "componentType": 5125,
      "count": 720,
      "type": "SCALAR"
    },
    {
      "bufferView": 13,
      "componentType": 5126,
      "count": 510,
      "max": [
        0.907499611377716,
        0.907252728939056,
        -0.0259088575839996
      ],
      "min": [
        -0.896281838417053,
        -0.910394012928009,
        -0.0446668639779091
      ],
      "type": "VEC3"
    },
    {
      "bufferView": 14,
      "componentType": 5126,
      "count": 510,
      "type": "VEC3"
    },
    {
      "bufferView": 15,
      "componentType": 5126,
      "count": 510,
      "type": "VEC2"
    },
    {
      "bufferView": 16,
      "componentType": 5125,
      "count": 48,
      "type": "SCALAR"
    },
    {
      "bufferView": 17,
      "componentType": 5126,
      "count": 32,
      "max": [
        0.907342672348022,
        0.911080300807953,
        -0.0252194106578827
      ],
      "min": [
        -0.900507211685181,
        -0.910485327243805,
        -0.0507746562361717
      ],
      "type": "VEC3"
    },
    {
      "bufferView": 18,
      "componentType": 5126,
      "count": 32,
      "type": "VEC3"
    },
    {
      "bufferView": 19,
      "componentType": 5126,
      "count": 32,
      "type": "VEC2"
    },
    {
      "bufferView": 20,
      "componentType": 5125,
      "count": 10128,
      "type": "SCALAR"
    },
    {
      "bufferView": 21,
      "componentType": 5126,
      "count": 8562,
      "max": [
        0.815046012401581,
        -0.616838872432709,
        0.0790548473596573
      ],
      "min": [
        -0.870079934597015,
        -0.965454041957855,
        -0.0426557064056396
      ],
      "type": "VEC3"
    },
    {
      "bufferView": 22,
      "componentType": 5126,
      "count": 8562,
      "type": "VEC3"
    },
    {
      "bufferView": 23,
      "componentType": 5126,
      "count": 8562,
      "type": "VEC2"
    }
  ],
  "asset": {
    "generator": "Substance Painter 2019.2.1",
    "version": "2.0"
  },
  "bufferViews": [
    {
      "buffer": 0,
      "byteLength": 36744,
      "target": 34963
    },
    {
      "buffer": 0,
      "byteLength": 79836,
      "byteOffset": 36744,
      "target": 34962
    },
    {
      "buffer": 0,
      "byteLength": 79836,
      "byteOffset": 116580,
      "target": 34962
    },
    {
      "buffer": 0,
      "byteLength": 53224,
      "byteOffset": 196416,
      "target": 34962
    },
    {
      "buffer": 0,
      "byteLength": 22524,
      "byteOffset": 249640,
      "target": 34963
    },
    {
      "buffer": 0,
      "byteLength": 54612,
      "byteOffset": 272164,
      "target": 34962
    },
    {
      "buffer": 0,
      "byteLength": 54612,
      "byteOffset": 326776,
      "target": 34962
    },
    {
      "buffer": 0,
      "byteLength": 36408,
      "byteOffset": 381388,
      "target": 34962
    },
    {
      "buffer": 0,
      "byteLength": 87936,
      "byteOffset": 417796,
      "target": 34963
    },
    {
      "buffer": 0,
      "byteLength": 200784,
      "byteOffset": 505732,
      "target": 34962
    },
    {
      "buffer": 0,
      "byteLength": 200784,
      "byteOffset": 706516,
      "target": 34962
    },
    {
      "buffer": 0,
      "byteLength": 133856,
      "byteOffset": 907300,
      "target": 34962
    },
    {
      "buffer": 0,
      "byteLength": 2880,
      "byteOffset": 1041156,
      "target": 34963
    },
    {
      "buffer": 0,
      "byteLength": 6120,
      "byteOffset": 1044036,
      "target": 34962
    },
    {
      "buffer": 0,
      "byteLength": 6120,
      "byteOffset": 1050156,
      "target": 34962
    },
    {
      "buffer": 0,
      "byteLength": 4080,
      "byteOffset": 1056276,
      "target": 34962
    },
    {
      "buffer": 0,
      "byteLength": 192,
      "byteOffset": 1060356,
      "target": 34963
    },
    {
      "buffer": 0,
      "byteLength": 384,
      "byteOffset": 1060548,
      "target": 34962
    },
    {
      "buffer": 0,
      "byteLength": 384,
      "byteOffset": 1060932,
      "target": 34962
    },
    {
      "buffer": 0,
      "byteLength": 256,
      "byteOffset": 1061316,
      "target": 34962
    },
    {
      "buffer": 0,
      "byteLength": 40512,
      "byteOffset": 1061572,
      "target": 34963
    },
    {
      "buffer": 0,
      "byteLength": 102744,
      "byteOffset": 1102084,
      "target": 34962
    },
    {
      "buffer": 0,
      "byteLength": 102744,
      "byteOffset": 1204828,
      "target": 34962
    },
    {
      "buffer": 0,
      "byteLength": 68496,
      "byteOffset": 1307572,
      "target": 34962
    }
  ],
  "buffers": [
    {
      "byteLength": 1376068,
      "uri": "20_W_CasementDouble_01.bin"
    }
  ],
  "images": [
    {
      "uri": "20_W_Exterior_baseColor.png"
    },
    {
      "uri": "20_W_Exterior_occlusionRoughnessMetallic.png"
    },
    {
      "uri": "20_W_Exterior_normal.png"
    },
    {
      "uri": "20_W_Exterior_emissive.png"
    },
    {
      "uri": "20_W_Glass_baseColor.png"
    },
    {
      "uri": "20_W_Glass_occlusionRoughnessMetallic.png"
    },
    {
      "uri": "20_W_Glass_normal.png"
    },
    {
      "uri": "20_W_Glass_emissive.png"
    },
    {
      "uri": "20_W_Gray_baseColor.png"
    },
    {
      "uri": "20_W_Gray_occlusionRoughnessMetallic.png"
    },
    {
      "uri": "20_W_Gray_normal.png"
    },
    {
      "uri": "20_W_Gray_emissive.png"
    },
    {
      "uri": "20_W_Hardware_baseColor.png"
    },
    {
      "uri": "20_W_Hardware_occlusionRoughnessMetallic.png"
    },
    {
      "uri": "20_W_Hardware_normal.png"
    },
    {
      "uri": "20_W_Hardware_emissive.png"
    },
    {
      "uri": "20_W_Interior_baseColor.png"
    },
    {
      "uri": "20_W_Interior_occlusionRoughnessMetallic.png"
    },
    {
      "uri": "20_W_Interior_normal.png"
    },
    {
      "uri": "20_W_Interior_emissive.png"
    },
    {
      "uri": "20_W_Spacers_baseColor.png"
    },
    {
      "uri": "20_W_Spacers_occlusionRoughnessMetallic.png"
    },
    {
      "uri": "20_W_Spacers_normal.png"
    },
    {
      "uri": "20_W_Spacers_emissive.png"
    }
  ],
  "materials": [
    {
      "alphaMode": "OPAQUE",
      "emissiveFactor": [
        1.0,
        1.0,
        1.0
      ],
      "emissiveTexture": {
        "index": 3
      },
      "name": "20_W_Exterior",
      "normalTexture": {
        "index": 2
      },
      "occlusionTexture": {
        "index": 1
      },
      "pbrMetallicRoughness": {
        "baseColorTexture": {
          "index": 0
        },
        "metallicRoughnessTexture": {
          "index": 1
        }
      }
    },
    {
      "alphaMode": "BLEND",
      "emissiveFactor": [
        1.0,
        1.0,
        1.0
      ],
      "emissiveTexture": {
        "index": 7
      },
      "name": "20_W_Glass",
      "normalTexture": {
        "index": 6
      },
      "occlusionTexture": {
        "index": 5
      },
      "pbrMetallicRoughness": {
        "baseColorTexture": {
          "index": 4
        },
        "metallicRoughnessTexture": {
          "index": 5
        }
      }
    },
    {
      "alphaMode": "OPAQUE",
      "emissiveFactor": [
        1.0,
        1.0,
        1.0
      ],
      "emissiveTexture": {
        "index": 11
      },
      "name": "20_W_Gray",
      "normalTexture": {
        "index": 10
      },
      "occlusionTexture": {
        "index": 9
      },
      "pbrMetallicRoughness": {
        "baseColorTexture": {
          "index": 8
        },
        "metallicRoughnessTexture": {
          "index": 9
        }
      }
    },
    {
      "alphaMode": "OPAQUE",
      "emissiveFactor": [
        1.0,
        1.0,
        1.0
      ],
      "emissiveTexture": {
        "index": 15
      },
      "name": "20_W_Hardware",
      "normalTexture": {
        "index": 14
      },
      "occlusionTexture": {
        "index": 13
      },
      "pbrMetallicRoughness": {
        "baseColorTexture": {
          "index": 12
        },
        "metallicRoughnessTexture": {
          "index": 13
        }
      }
    },
    {
      "alphaMode": "OPAQUE",
      "emissiveFactor": [
        1.0,
        1.0,
        1.0
      ],
      "emissiveTexture": {
        "index": 19
      },
      "name": "20_W_Interior",
      "normalTexture": {
        "index": 18
      },
      "occlusionTexture": {
        "index": 17
      },
      "pbrMetallicRoughness": {
        "baseColorTexture": {
          "index": 16
        },
        "metallicRoughnessTexture": {
          "index": 17
        }
      }
    },
    {
      "alphaMode": "OPAQUE",
      "emissiveFactor": [
        1.0,
        1.0,
        1.0
      ],
      "emissiveTexture": {
        "index": 23
      },
      "name": "20_W_Spacers",
      "normalTexture": {
        "index": 22
      },
      "occlusionTexture": {
        "index": 21
      },
      "pbrMetallicRoughness": {
        "baseColorTexture": {
          "index": 20
        },
        "metallicRoughnessTexture": {
          "index": 21
        }
      }
    }
  ],
  "meshes": [
    {
      "name": "20_W_Interior",
      "primitives": [
        {
          "attributes": {
            "NORMAL": 2,
            "POSITION": 1,
            "TEXCOORD_0": 3
          },
          "indices": 0,
          "material": 4,
          "mode": 4
        }
      ]
    },
    {
      "name": "20_W_Gray",
      "primitives": [
        {
          "attributes": {
            "NORMAL": 6,
            "POSITION": 5,
            "TEXCOORD_0": 7
          },
          "indices": 4,
          "material": 2,
          "mode": 4
        }
      ]
    },
    {
      "name": "20_W_Exterior",
      "primitives": [
        {
          "attributes": {
            "NORMAL": 10,
            "POSITION": 9,
            "TEXCOORD_0": 11
          },
          "indices": 8,
          "material": 0,
          "mode": 4
        }
      ]
    },
    {
      "name": "20_W_Spacers",
      "primitives": [
        {
          "attributes": {
            "NORMAL": 14,
            "POSITION": 13,
            "TEXCOORD_0": 15
          },
          "indices": 12,
          "material": 5,
          "mode": 4
        }
      ]
    },
    {
      "name": "20_W_Glass",
      "primitives": [
        {
          "attributes": {
            "NORMAL": 18,
            "POSITION": 17,
            "TEXCOORD_0": 19
          },
          "indices": 16,
          "material": 1,
          "mode": 4
        }
      ]
    },
    {
      "name": "20_W_Hardware",
      "primitives": [
        {
          "attributes": {
            "NORMAL": 22,
            "POSITION": 21,
            "TEXCOORD_0": 23
          },
          "indices": 20,
          "material": 3,
          "mode": 4
        }
      ]
    }
  ],
  "nodes": [
    {
      "children": [
        1,
        3,
        5,
        7,
        9,
        11
      ],
      "name": "root",
      "scale": [
        0.243755266070366,
        0.243755266070366,
        0.243755266070366
      ],
      "translation": [
        0.000291824340820313,
        0.243675455451012,
        0.038194552063942
      ]
    },
    {
      "children": [
        2
      ],
      "name": "20_W_Interior"
    },
    {
      "mesh": 0,
      "name": "20_W_Interior"
    },
    {
      "children": [
        4
      ],
      "name": "20_W_Gray"
    },
    {
      "mesh": 1,
      "name": "20_W_Gray"
    },
    {
      "children": [
        6
      ],
      "name": "20_W_Exterior"
    },
    {
      "mesh": 2,
      "name": "20_W_Exterior"
    },
    {
      "children": [
        8
      ],
      "name": "20_W_Spacers"
    },
    {
      "mesh": 3,
      "name": "20_W_Spacers"
    },
    {
      "children": [
        10
      ],
      "name": "20_W_Glass"
    },
    {
      "mesh": 4,
      "name": "20_W_Glass"
    },
    {
      "children": [
        12
      ],
      "name": "20_W_Hardware"
    },
    {
      "mesh": 5,
      "name": "20_W_Hardware"
    }
  ],
  "samplers": [
    {
      "magFilter": 9729,
      "minFilter": 9985,
      "wrapS": 10497,
      "wrapT": 10497
    }
  ],
  "scene": 0,
  "scenes": [
    {
      "name": "Scene",
      "nodes": [
        0
      ]
    }
  ],
  "textures": [
    {
      "sampler": 0,
      "source": 0
    },
    {
      "sampler": 0,
      "source": 1
    },
    {
      "sampler": 0,
      "source": 2
    },
    {
      "sampler": 0,
      "source": 3
    },
    {
      "sampler": 0,
      "source": 4
    },
    {
      "sampler": 0,
      "source": 5
    },
    {
      "sampler": 0,
      "source": 6
    },
    {
      "sampler": 0,
      "source": 7
    },
    {
      "sampler": 0,
      "source": 8
    },
    {
      "sampler": 0,
      "source": 9
    },
    {
      "sampler": 0,
      "source": 10
    },
    {
      "sampler": 0,
      "source": 11
    },
    {
      "sampler": 0,
      "source": 12
    },
    {
      "sampler": 0,
      "source": 13
    },
    {
      "sampler": 0,
      "source": 14
    },
    {
      "sampler": 0,
      "source": 15
    },
    {
      "sampler": 0,
      "source": 16
    },
    {
      "sampler": 0,
      "source": 17
    },
    {
      "sampler": 0,
      "source": 18
    },
    {
      "sampler": 0,
      "source": 19
    },
    {
      "sampler": 0,
      "source": 20
    },
    {
      "sampler": 0,
      "source": 21
    },
    {
      "sampler": 0,
      "source": 22
    },
    {
      "sampler": 0,
      "source": 23
    }
  ]
}