{
  "accessors": [
    {
      "bufferView": 0,
      "componentType": 5125,
      "count": 2994,
      "type": "SCALAR"
    },
    {
      "bufferView": 1,
      "componentType": 5126,
      "count": 1046,
      "max": [
        0.824056088924408,
        0.395093023777008,
        -0.0436817221343517
      ],
      "min": [
        -0.824056088924408,
        -0.423734664916992,
        -0.0837948322296143
      ],
      "type": "VEC3"
    },
    {
      "bufferView": 2,
      "componentType": 5126,
      "count": 1046,
      "type": "VEC3"
    },
    {
      "bufferView": 3,
      "componentType": 5126,
      "count": 1046,
      "type": "VEC2"
    },
    {
      "bufferView": 4,
      "componentType": 5125,
      "count": 43047,
      "type": "SCALAR"
    },
    {
      "bufferView": 5,
      "componentType": 5126,
      "count": 10937,
      "max": [
        1.0,
        0.56883716583252,
        0.143235683441162
      ],
      "min": [
        -1.0,
        -0.56883716583252,
        -0.0958248525857925
      ],
      "type": "VEC3"
    },
    {
      "bufferView": 6,
      "componentType": 5126,
      "count": 10937,
      "type": "VEC3"
    },
    {
      "bufferView": 7,
      "componentType": 5126,
      "count": 10937,
      "type": "VEC2"
    },
    {
      "bufferView": 8,
      "componentType": 5125,
      "count": 37608,
      "type": "SCALAR"
    },
    {
      "bufferView": 9,
      "componentType": 5126,
      "count": 9106,
      "max": [
        1.0,
        0.56883716583252,
        -0.0510378293693066
      ],
      "min": [
        -1.0,
        -0.568837106227875,
        -0.143235698342323
      ],
      "type": "VEC3"
    },
    {
      "bufferView": 10,
      "componentType": 5126,
      "count": 9106,
      "type": "VEC3"
    },
    {
      "bufferView": 11,
      "componentType": 5126,
      "count": 9106,
      "type": "VEC2"
    },
    {
      "bufferView": 12,
      "componentType": 5125,
      "count": 336,
      "type": "SCALAR"
    },
    {
      "bufferView": 13,
      "componentType": 5126,
      "count": 116,
      "max": [
        0.829835951328278,
        0.396674990653992,
        -0.0352319180965424
      ],
      "min": [
        -0.829835951328278,
        -0.431181758642197,
        -0.0810853913426399
      ],
      "type": "VEC3"
    },
    {
      "bufferView": 14,
      "componentType": 5126,
      "count": 116,
      "type": "VEC3"
    },
    {
      "bufferView": 15,
      "componentType": 5126,
      "count": 116,
      "type": "VEC2"
    }
  ],
  "asset": {
    "generator": "Substance Painter 2019.2.1",
    "version": "2.0"
  },
  "bufferViews": [
    {
      "buffer": 0,
      "byteLength": 11976,
      "target": 34963
    },
    {
      "buffer": 0,
      "byteLength": 12552,
      "byteOffset": 11976,
      "target": 34962
    },
    {
      "buffer": 0,
      "byteLength": 12552,
      "byteOffset": 24528,
      "target": 34962
    },
    {
      "buffer": 0,
      "byteLength": 8368,
      "byteOffset": 37080,
      "target": 34962
    },
    {
      "buffer": 0,
      "byteLength": 172188,
      "byteOffset": 45448,
      "target": 34963
    },
    {
      "buffer": 0,
      "byteLength": 131244,
      "byteOffset": 217636,
      "target": 34962
    },
    {
      "buffer": 0,
      "byteLength": 131244,
      "byteOffset": 348880,
      "target": 34962
    },
    {
      "buffer": 0,
      "byteLength": 87496,
      "byteOffset": 480124,
      "target": 34962
    },
    {
      "buffer": 0,
      "byteLength": 150432,
      "byteOffset": 567620,
      "target": 34963
    },
    {
      "buffer": 0,
      "byteLength": 109272,
      "byteOffset": 718052,
      "target": 34962
    },
    {
      "buffer": 0,
      "byteLength": 109272,
      "byteOffset": 827324,
      "target": 34962
    },
    {
      "buffer": 0,
      "byteLength": 72848,
      "byteOffset": 936596,
      "target": 34962
    },
    {
      "buffer": 0,
      "byteLength": 1344,
      "byteOffset": 1009444,
      "target": 34963
    },
    {
      "buffer": 0,
      "byteLength": 1392,
      "byteOffset": 1010788,
      "target": 34962
    },
    {
      "buffer": 0,
      "byteLength": 1392,
      "byteOffset": 1012180,
      "target": 34962
    },
    {
      "buffer": 0,
      "byteLength": 928,
      "byteOffset": 1013572,
      "target": 34962
    }
  ],
  "buffers": [
    {
      "byteLength": 1014500,
      "uri": "10_W_Sw_CircleTop_v01.bin"
    }
  ],
  "images": [
    {
      "uri": "10_W_Exterior_baseColor.png"
    },
    {
      "uri": "10_W_Exterior_occlusionRoughnessMetallic.png"
    },
    {
      "uri": "10_W_Exterior_normal.png"
    },
    {
      "uri": "10_W_Exterior_emissive.png"
    },
    {
      "uri": "10_w_Glass_baseColor.png"
    },
    {
      "uri": "10_w_Glass_occlusionRoughnessMetallic.png"
    },
    {
      "uri": "10_w_Glass_normal.png"
    },
    {
      "uri": "10_w_Glass_emissive.png"
    },
    {
      "uri": "10_W_Interior_baseColor.png"
    },
    {
      "uri": "10_W_Interior_occlusionRoughnessMetallic.png"
    },
    {
      "uri": "10_W_Interior_normal.png"
    },
    {
      "uri": "10_W_Interior_emissive.png"
    },
    {
      "uri": "10_W_Spacers_baseColor.png"
    },
    {
      "uri": "10_W_Spacers_occlusionRoughnessMetallic.png"
    },
    {
      "uri": "10_W_Spacers_normal.png"
    },
    {
      "uri": "10_W_Spacers_emissive.png"
    }
  ],
  "materials": [
    {
      "alphaMode": "OPAQUE",
      "emissiveFactor": [
        1.0,
        1.0,
        1.0
      ],
      "emissiveTexture": {
        "index": 3
      },
      "name": "10_W_Exterior",
      "normalTexture": {
        "index": 2
      },
      "occlusionTexture": {
        "index": 1
      },
      "pbrMetallicRoughness": {
        "baseColorTexture": {
          "index": 0
        },
        "metallicRoughnessTexture": {
          "index": 1
        }
      }
    },
    {
      "alphaMode": "BLEND",
      "emissiveFactor": [
        1.0,
        1.0,
        1.0
      ],
      "emissiveTexture": {
        "index": 7
      },
      "name": "10_w_Glass",
      "normalTexture": {
        "index": 6
      },
      "occlusionTexture": {
        "index": 5
      },
      "pbrMetallicRoughness": {
        "baseColorTexture": {
          "index": 4
        },
        "metallicRoughnessTexture": {
          "index": 5
        }
      }
    },
    {
      "alphaMode": "OPAQUE",
      "emissiveFactor": [
        1.0,
        1.0,
        1.0
      ],
      "emissiveTexture": {
        "index": 11
      },
      "name": "10_W_Interior",
      "normalTexture": {
        "index": 10
      },
      "occlusionTexture": {
        "index": 9
      },
      "pbrMetallicRoughness": {
        "baseColorTexture": {
          "index": 8
        },
        "metallicRoughnessTexture": {
          "index": 9
        }
      }
    },
    {
      "alphaMode": "OPAQUE",
      "emissiveFactor": [
        1.0,
        1.0,
        1.0
      ],
      "emissiveTexture": {
        "index": 15
      },
      "name": "10_W_Spacers",
      "normalTexture": {
        "index": 14
      },
      "occlusionTexture": {
        "index": 13
      },
      "pbrMetallicRoughness": {
        "baseColorTexture": {
          "index": 12
        },
        "metallicRoughnessTexture": {
          "index": 13
        }
      }
    }
  ],
  "meshes": [
    {
      "name": "10_W_Spacers",
      "primitives": [
        {
          "attributes": {
            "NORMAL": 2,
            "POSITION": 1,
            "TEXCOORD_0": 3
          },
          "indices": 0,
          "material": 3,
          "mode": 4
        }
      ]
    },
    {
      "name": "10_W_Interior",
      "primitives": [
        {
          "attributes": {
            "NORMAL": 6,
            "POSITION": 5,
            "TEXCOORD_0": 7
          },
          "indices": 4,
          "material": 2,
          "mode": 4
        }
      ]
    },
    {
      "name": "10_W_Exterior",
      "primitives": [
        {
          "attributes": {
            "NORMAL": 10,
            "POSITION": 9,
            "TEXCOORD_0": 11
          },
          "indices": 8,
          "material": 0,
          "mode": 4
        }
      ]
    },
    {
      "name": "10_W_Glass",
      "primitives": [
        {
          "attributes": {
            "NORMAL": 14,
            "POSITION": 13,
            "TEXCOORD_0": 15
          },
          "indices": 12,
          "material": 1,
          "mode": 4
        }
      ]
    }
  ],
  "nodes": [
    {
      "children": [
        1,
        3,
        5,
        7
      ],
      "name": "root",
      "scale": [
        0.638219118118286,
        0.638219118118286,
        0.638219118118286
      ],
      "translation": [
        -0.354048669338226,
        0.363042265176773,
        1.34110450744629e-07
      ]
    },
    {
      "children": [
        2
      ],
      "name": "10_W_Spacers"
    },
    {
      "mesh": 0,
      "name": "10_W_Spacers"
    },
    {
      "children": [
        4
      ],
      "name": "10_W_Interior"
    },
    {
      "mesh": 1,
      "name": "10_W_Interior"
    },
    {
      "children": [
        6
      ],
      "name": "10_W_Exterior"
    },
    {
      "mesh": 2,
      "name": "10_W_Exterior"
    },
    {
      "children": [
        8
      ],
      "name": "10_W_Glass"
    },
    {
      "mesh": 3,
      "name": "10_W_Glass"
    }
  ],
  "samplers": [
    {
      "magFilter": 9729,
      "minFilter": 9985,
      "wrapS": 10497,
      "wrapT": 10497
    }
  ],
  "scene": 0,
  "scenes": [
    {
      "name": "Scene",
      "nodes": [
        0
      ]
    }
  ],
  "textures": [
    {
      "sampler": 0,
      "source": 0
    },
    {
      "sampler": 0,
      "source": 1
    },
    {
      "sampler": 0,
      "source": 2
    },
    {
      "sampler": 0,
      "source": 3
    },
    {
      "sampler": 0,
      "source": 4
    },
    {
      "sampler": 0,
      "source": 5
    },
    {
      "sampler": 0,
      "source": 6
    },
    {
      "sampler": 0,
      "source": 7
    },
    {
      "sampler": 0,
      "source": 8
    },
    {
      "sampler": 0,
      "source": 9
    },
    {
      "sampler": 0,
      "source": 10
    },
    {
      "sampler": 0,
      "source": 11
    },
    {
      "sampler": 0,
      "source": 12
    },
    {
      "sampler": 0,
      "source": 13
    },
    {
      "sampler": 0,
      "source": 14
    },
    {
      "sampler": 0,
      "source": 15
    }
  ]
}